M48
; DRILL file {KiCad 5.99.0-unknown-a61ea1f~102~ubuntu18.04.1} date Tue Jul 28 16:03:13 2020
; FORMAT={-:-/ absolute / inch / decimal}
; #@! TF.CreationDate,2020-07-28T16:03:13+02:00
; #@! TF.GenerationSoftware,Kicad,Pcbnew,5.99.0-unknown-a61ea1f~102~ubuntu18.04.1
; #@! TF.FileFunction,Plated,1,2,PTH
FMAT,2
INCH
T1C0.0157
T2C0.0315
T3C0.0394
T4C0.0398
T5C0.0591
T6C0.0669
%
G90
G05
T1
X4.1675Y-3.525
X5.8125Y-3.7575
X5.815Y-3.675
X5.845Y-3.7225
X6.0375Y-2.9025
X6.25Y-3.7275
X6.2775Y-3.1775
X6.2775Y-3.315
X6.525Y-3.6425
X6.54Y-3.5519
X6.565Y-3.6425
X6.6Y-3.765
X6.605Y-3.6425
X6.645Y-3.6425
X6.715Y-3.06
X6.715Y-3.9175
X6.7188Y-2.9413
X6.8375Y-3.8275
X6.9875Y-2.99
T2
X4.2725Y-3.175
X4.5678Y-3.2301
X4.5991Y-3.8036
X4.5991Y-3.9036
X4.8991Y-3.8036
X4.8991Y-3.9036
X4.2825Y-3.4
X4.5825Y-3.4
T3
X5.8525Y-2.8375
X5.9525Y-2.8375
X6.9325Y-2.7825
X6.9325Y-2.8825
X3.9566Y-3.855
X4.3503Y-3.855
X6.9375Y-3.17
X6.9375Y-3.27
X4.785Y-3.2175
X4.785Y-3.4144
X5.9425Y-3.0128
X5.9425Y-3.6191
T4
X4.3152Y-3.0068
X4.516Y-3.054
T5
X5.3082Y-3.89
X5.3082Y-4.1853
X5.5051Y-3.89
X5.5051Y-4.1853
X5.7019Y-3.89
X5.7019Y-4.1853
X6.2925Y-3.89
X6.2925Y-4.1853
T6
X4.1075Y-4.2425
X4.3044Y-4.2425
X4.5012Y-4.2425
X4.725Y-4.2437
X4.9219Y-4.2437
X5.1187Y-4.2437
X6.5175Y-4.3
X6.7144Y-4.3
X4.0Y-3.005
X4.0Y-3.2019
X4.0Y-3.3987
X4.0Y-3.5956
T0
M30
