%TF.GenerationSoftware,KiCad,Pcbnew,5.99.0-unknown-a61ea1f~102~ubuntu18.04.1*%
%TF.CreationDate,2020-07-28T16:03:14+02:00*%
%TF.ProjectId,switch,73776974-6368-42e6-9b69-6361645f7063,rev?*%
%TF.SameCoordinates,Original*%
%TF.FileFunction,Copper,L1,Top*%
%TF.FilePolarity,Positive*%
%FSLAX46Y46*%
G04 Gerber Fmt 4.6, Leading zero omitted, Abs format (unit mm)*
G04 Created by KiCad (PCBNEW 5.99.0-unknown-a61ea1f~102~ubuntu18.04.1) date 2020-07-28 16:03:14*
%MOMM*%
%LPD*%
G01*
G04 APERTURE LIST*
%TA.AperFunction,ComponentPad*%
%ADD10C,2.010000*%
%TD*%
%TA.AperFunction,SMDPad,CuDef*%
%ADD11R,1.000000X0.800000*%
%TD*%
%TA.AperFunction,ComponentPad*%
%ADD12O,2.500000X2.500000*%
%TD*%
%TA.AperFunction,ComponentPad*%
%ADD13R,2.500000X2.500000*%
%TD*%
%TA.AperFunction,ComponentPad*%
%ADD14O,2.400000X1.600000*%
%TD*%
%TA.AperFunction,ComponentPad*%
%ADD15R,2.400000X1.600000*%
%TD*%
%TA.AperFunction,SMDPad,CuDef*%
%ADD16R,2.000000X1.500000*%
%TD*%
%TA.AperFunction,SMDPad,CuDef*%
%ADD17R,2.000000X3.800000*%
%TD*%
%TA.AperFunction,SMDPad,CuDef*%
%ADD18R,2.500000X1.000000*%
%TD*%
%TA.AperFunction,SMDPad,CuDef*%
%ADD19R,1.000000X1.800000*%
%TD*%
%TA.AperFunction,ComponentPad*%
%ADD20C,1.800000*%
%TD*%
%TA.AperFunction,SMDPad,CuDef*%
%ADD21R,0.800000X0.900000*%
%TD*%
%TA.AperFunction,ComponentPad*%
%ADD22C,2.300000*%
%TD*%
%TA.AperFunction,ComponentPad*%
%ADD23R,2.300000X2.000000*%
%TD*%
%TA.AperFunction,ComponentPad*%
%ADD24O,1.700000X1.700000*%
%TD*%
%TA.AperFunction,ComponentPad*%
%ADD25R,1.700000X1.700000*%
%TD*%
%TA.AperFunction,ComponentPad*%
%ADD26C,2.700000*%
%TD*%
%TA.AperFunction,ComponentPad*%
%ADD27R,2.700000X2.700000*%
%TD*%
%TA.AperFunction,ComponentPad*%
%ADD28O,1.600000X1.600000*%
%TD*%
%TA.AperFunction,ComponentPad*%
%ADD29C,1.600000*%
%TD*%
%TA.AperFunction,SMDPad,CuDef*%
%ADD30R,1.700000X1.300000*%
%TD*%
%TA.AperFunction,ComponentPad*%
%ADD31C,2.000000*%
%TD*%
%TA.AperFunction,ViaPad*%
%ADD32C,0.800000*%
%TD*%
%TA.AperFunction,Conductor*%
%ADD33C,0.500000*%
%TD*%
%TA.AperFunction,Conductor*%
%ADD34C,0.250000*%
%TD*%
%TA.AperFunction,Conductor*%
%ADD35C,1.000000*%
%TD*%
%TA.AperFunction,Conductor*%
%ADD36C,2.000000*%
%TD*%
%TA.AperFunction,Conductor*%
%ADD37C,1.250000*%
%TD*%
%TA.AperFunction,Conductor*%
%ADD38C,0.254000*%
%TD*%
G04 APERTURE END LIST*
D10*
%TO.P,F1,2*%
%TO.N,/N*%
X109606400Y-76371600D03*
%TO.P,F1,1*%
%TO.N,Net-(F1-Pad1)*%
X114706400Y-77571600D03*
%TD*%
D11*
%TO.P,D2,4,~~*%
%TO.N,Net-(C2-Pad2)*%
X109193000Y-92684600D03*
%TO.P,D2,3,~~*%
%TO.N,Net-(D2-Pad3)*%
X109193000Y-90144600D03*
%TO.P,D2,2,-*%
%TO.N,Net-(D2-Pad2)*%
X115343000Y-90144600D03*
%TO.P,D2,1,+*%
%TO.N,Net-(D2-Pad1)*%
X115343000Y-92684600D03*
%TD*%
D12*
%TO.P,K1,8*%
%TO.N,+5V*%
X159829500Y-106306000D03*
%TO.P,K1,7*%
%TO.N,Net-(J1-Pad3)*%
X144829500Y-106306000D03*
%TO.P,K1,6*%
%TO.N,Net-(J1-Pad2)*%
X139829500Y-106306000D03*
%TO.P,K1,5*%
%TO.N,Net-(J1-Pad1)*%
X134829500Y-106306000D03*
%TO.P,K1,4*%
%TO.N,Net-(J2-Pad1)*%
X134829500Y-98806000D03*
%TO.P,K1,3*%
%TO.N,Net-(J2-Pad2)*%
X139829500Y-98806000D03*
%TO.P,K1,2*%
%TO.N,Net-(J2-Pad3)*%
X144829500Y-98806000D03*
D13*
%TO.P,K1,1*%
%TO.N,Net-(D1-Pad2)*%
X159829500Y-98806000D03*
%TD*%
D14*
%TO.P,U1,4*%
%TO.N,Net-(C3-Pad1)*%
X124436520Y-96611015D03*
%TO.P,U1,2*%
%TO.N,Net-(D2-Pad1)*%
X116816520Y-99151015D03*
%TO.P,U1,3*%
%TO.N,GND*%
X124436520Y-99151015D03*
D15*
%TO.P,U1,1*%
%TO.N,Net-(R1-Pad2)*%
X116816520Y-96611015D03*
%TD*%
D16*
%TO.P,U3,1,GND*%
%TO.N,GND*%
X170409000Y-94819500D03*
%TO.P,U3,3,VI*%
%TO.N,+5V*%
X170409000Y-90219500D03*
%TO.P,U3,2,VO*%
%TO.N,+3V3*%
X170409000Y-92519500D03*
D17*
X164109000Y-92519500D03*
%TD*%
D18*
%TO.P,U2,22,GPIO1/TXD*%
%TO.N,Net-(J8-Pad2)*%
X172656500Y-70708000D03*
%TO.P,U2,21,GPIO3/RXD*%
%TO.N,Net-(J8-Pad1)*%
X172656500Y-72708000D03*
%TO.P,U2,20,GPIO5*%
%TO.N,Net-(C3-Pad1)*%
X172656500Y-74708000D03*
%TO.P,U2,19,GPIO4*%
%TO.N,/Control*%
X172656500Y-76708000D03*
%TO.P,U2,18,GPIO0*%
%TO.N,Net-(JP1-Pad2)*%
X172656500Y-78708000D03*
%TO.P,U2,17,GPIO2*%
%TO.N,Net-(U2-Pad17)*%
X172656500Y-80708000D03*
%TO.P,U2,16,GPIO15*%
%TO.N,Net-(R13-Pad2)*%
X172656500Y-82708000D03*
%TO.P,U2,15,GND*%
%TO.N,GND*%
X172656500Y-84708000D03*
D19*
%TO.P,U2,14,SCLK*%
%TO.N,Net-(U2-Pad14)*%
X170056500Y-86208000D03*
%TO.P,U2,13,MOSI*%
%TO.N,Net-(U2-Pad13)*%
X168056500Y-86208000D03*
%TO.P,U2,12,GPIO10*%
%TO.N,Net-(U2-Pad12)*%
X166056500Y-86208000D03*
%TO.P,U2,11,GPIO9*%
%TO.N,Net-(U2-Pad11)*%
X164056500Y-86208000D03*
%TO.P,U2,10,MISO*%
%TO.N,Net-(U2-Pad10)*%
X162056500Y-86208000D03*
%TO.P,U2,9,CS0*%
%TO.N,Net-(U2-Pad9)*%
X160056500Y-86208000D03*
D18*
%TO.P,U2,8,VCC*%
%TO.N,+3V3*%
X157456500Y-84708000D03*
%TO.P,U2,7,GPIO13*%
%TO.N,/Status*%
X157456500Y-82708000D03*
%TO.P,U2,6,GPIO12*%
%TO.N,/Relay*%
X157456500Y-80708000D03*
%TO.P,U2,5,GPIO14*%
%TO.N,Net-(U2-Pad5)*%
X157456500Y-78708000D03*
%TO.P,U2,4,GPIO16*%
%TO.N,Net-(U2-Pad4)*%
X157456500Y-76708000D03*
%TO.P,U2,3,EN*%
%TO.N,Net-(R15-Pad1)*%
X157456500Y-74708000D03*
%TO.P,U2,2,ADC*%
%TO.N,Net-(U2-Pad2)*%
X157456500Y-72708000D03*
%TO.P,U2,1,~RST*%
%TO.N,Net-(JP2-Pad1)*%
X157456500Y-70708000D03*
%TD*%
D20*
%TO.P,RV1,2*%
%TO.N,Net-(F2-Pad1)*%
X116021500Y-82045000D03*
%TO.P,RV1,1*%
%TO.N,Net-(F1-Pad1)*%
X108521500Y-80645000D03*
%TD*%
%TO.P,R18,2*%
%TO.N,+3V3*%
%TA.AperFunction,SMDPad,CuDef*%
G36*
G01*
X154293250Y-72474000D02*
X155205750Y-72474000D01*
G75*
G02*
X155449500Y-72717750I0J-243750D01*
G01*
X155449500Y-73205250D01*
G75*
G02*
X155205750Y-73449000I-243750J0D01*
G01*
X154293250Y-73449000D01*
G75*
G02*
X154049500Y-73205250I0J243750D01*
G01*
X154049500Y-72717750D01*
G75*
G02*
X154293250Y-72474000I243750J0D01*
G01*
G37*
%TD.AperFunction*%
%TO.P,R18,1*%
%TO.N,Net-(JP2-Pad1)*%
%TA.AperFunction,SMDPad,CuDef*%
G36*
G01*
X154293250Y-70599000D02*
X155205750Y-70599000D01*
G75*
G02*
X155449500Y-70842750I0J-243750D01*
G01*
X155449500Y-71330250D01*
G75*
G02*
X155205750Y-71574000I-243750J0D01*
G01*
X154293250Y-71574000D01*
G75*
G02*
X154049500Y-71330250I0J243750D01*
G01*
X154049500Y-70842750D01*
G75*
G02*
X154293250Y-70599000I243750J0D01*
G01*
G37*
%TD.AperFunction*%
%TD*%
%TO.P,R17,2*%
%TO.N,GND*%
%TA.AperFunction,SMDPad,CuDef*%
G36*
G01*
X155205750Y-78783000D02*
X154293250Y-78783000D01*
G75*
G02*
X154049500Y-78539250I0J243750D01*
G01*
X154049500Y-78051750D01*
G75*
G02*
X154293250Y-77808000I243750J0D01*
G01*
X155205750Y-77808000D01*
G75*
G02*
X155449500Y-78051750I0J-243750D01*
G01*
X155449500Y-78539250D01*
G75*
G02*
X155205750Y-78783000I-243750J0D01*
G01*
G37*
%TD.AperFunction*%
%TO.P,R17,1*%
%TO.N,Net-(D3-Pad1)*%
%TA.AperFunction,SMDPad,CuDef*%
G36*
G01*
X155205750Y-80658000D02*
X154293250Y-80658000D01*
G75*
G02*
X154049500Y-80414250I0J243750D01*
G01*
X154049500Y-79926750D01*
G75*
G02*
X154293250Y-79683000I243750J0D01*
G01*
X155205750Y-79683000D01*
G75*
G02*
X155449500Y-79926750I0J-243750D01*
G01*
X155449500Y-80414250D01*
G75*
G02*
X155205750Y-80658000I-243750J0D01*
G01*
G37*
%TD.AperFunction*%
%TD*%
%TO.P,R15,2*%
%TO.N,+3V3*%
%TA.AperFunction,SMDPad,CuDef*%
G36*
G01*
X154293250Y-76157000D02*
X155205750Y-76157000D01*
G75*
G02*
X155449500Y-76400750I0J-243750D01*
G01*
X155449500Y-76888250D01*
G75*
G02*
X155205750Y-77132000I-243750J0D01*
G01*
X154293250Y-77132000D01*
G75*
G02*
X154049500Y-76888250I0J243750D01*
G01*
X154049500Y-76400750D01*
G75*
G02*
X154293250Y-76157000I243750J0D01*
G01*
G37*
%TD.AperFunction*%
%TO.P,R15,1*%
%TO.N,Net-(R15-Pad1)*%
%TA.AperFunction,SMDPad,CuDef*%
G36*
G01*
X154293250Y-74282000D02*
X155205750Y-74282000D01*
G75*
G02*
X155449500Y-74525750I0J-243750D01*
G01*
X155449500Y-75013250D01*
G75*
G02*
X155205750Y-75257000I-243750J0D01*
G01*
X154293250Y-75257000D01*
G75*
G02*
X154049500Y-75013250I0J243750D01*
G01*
X154049500Y-74525750D01*
G75*
G02*
X154293250Y-74282000I243750J0D01*
G01*
G37*
%TD.AperFunction*%
%TD*%
%TO.P,R14,2*%
%TO.N,Net-(JP1-Pad2)*%
%TA.AperFunction,SMDPad,CuDef*%
G36*
G01*
X175756250Y-77333500D02*
X176668750Y-77333500D01*
G75*
G02*
X176912500Y-77577250I0J-243750D01*
G01*
X176912500Y-78064750D01*
G75*
G02*
X176668750Y-78308500I-243750J0D01*
G01*
X175756250Y-78308500D01*
G75*
G02*
X175512500Y-78064750I0J243750D01*
G01*
X175512500Y-77577250D01*
G75*
G02*
X175756250Y-77333500I243750J0D01*
G01*
G37*
%TD.AperFunction*%
%TO.P,R14,1*%
%TO.N,+3V3*%
%TA.AperFunction,SMDPad,CuDef*%
G36*
G01*
X175756250Y-75458500D02*
X176668750Y-75458500D01*
G75*
G02*
X176912500Y-75702250I0J-243750D01*
G01*
X176912500Y-76189750D01*
G75*
G02*
X176668750Y-76433500I-243750J0D01*
G01*
X175756250Y-76433500D01*
G75*
G02*
X175512500Y-76189750I0J243750D01*
G01*
X175512500Y-75702250D01*
G75*
G02*
X175756250Y-75458500I243750J0D01*
G01*
G37*
%TD.AperFunction*%
%TD*%
%TO.P,R13,2*%
%TO.N,Net-(R13-Pad2)*%
%TA.AperFunction,SMDPad,CuDef*%
G36*
G01*
X176668750Y-86291000D02*
X175756250Y-86291000D01*
G75*
G02*
X175512500Y-86047250I0J243750D01*
G01*
X175512500Y-85559750D01*
G75*
G02*
X175756250Y-85316000I243750J0D01*
G01*
X176668750Y-85316000D01*
G75*
G02*
X176912500Y-85559750I0J-243750D01*
G01*
X176912500Y-86047250D01*
G75*
G02*
X176668750Y-86291000I-243750J0D01*
G01*
G37*
%TD.AperFunction*%
%TO.P,R13,1*%
%TO.N,GND*%
%TA.AperFunction,SMDPad,CuDef*%
G36*
G01*
X176668750Y-88166000D02*
X175756250Y-88166000D01*
G75*
G02*
X175512500Y-87922250I0J243750D01*
G01*
X175512500Y-87434750D01*
G75*
G02*
X175756250Y-87191000I243750J0D01*
G01*
X176668750Y-87191000D01*
G75*
G02*
X176912500Y-87434750I0J-243750D01*
G01*
X176912500Y-87922250D01*
G75*
G02*
X176668750Y-88166000I-243750J0D01*
G01*
G37*
%TD.AperFunction*%
%TD*%
%TO.P,R7,2*%
%TO.N,GND*%
%TA.AperFunction,SMDPad,CuDef*%
G36*
G01*
X168407500Y-99960750D02*
X168407500Y-99048250D01*
G75*
G02*
X168651250Y-98804500I243750J0D01*
G01*
X169138750Y-98804500D01*
G75*
G02*
X169382500Y-99048250I0J-243750D01*
G01*
X169382500Y-99960750D01*
G75*
G02*
X169138750Y-100204500I-243750J0D01*
G01*
X168651250Y-100204500D01*
G75*
G02*
X168407500Y-99960750I0J243750D01*
G01*
G37*
%TD.AperFunction*%
%TO.P,R7,1*%
%TO.N,Net-(Q1-Pad1)*%
%TA.AperFunction,SMDPad,CuDef*%
G36*
G01*
X166532500Y-99960750D02*
X166532500Y-99048250D01*
G75*
G02*
X166776250Y-98804500I243750J0D01*
G01*
X167263750Y-98804500D01*
G75*
G02*
X167507500Y-99048250I0J-243750D01*
G01*
X167507500Y-99960750D01*
G75*
G02*
X167263750Y-100204500I-243750J0D01*
G01*
X166776250Y-100204500D01*
G75*
G02*
X166532500Y-99960750I0J243750D01*
G01*
G37*
%TD.AperFunction*%
%TD*%
%TO.P,R6,2*%
%TO.N,/Relay*%
%TA.AperFunction,SMDPad,CuDef*%
G36*
G01*
X168422500Y-97674750D02*
X168422500Y-96762250D01*
G75*
G02*
X168666250Y-96518500I243750J0D01*
G01*
X169153750Y-96518500D01*
G75*
G02*
X169397500Y-96762250I0J-243750D01*
G01*
X169397500Y-97674750D01*
G75*
G02*
X169153750Y-97918500I-243750J0D01*
G01*
X168666250Y-97918500D01*
G75*
G02*
X168422500Y-97674750I0J243750D01*
G01*
G37*
%TD.AperFunction*%
%TO.P,R6,1*%
%TO.N,Net-(Q1-Pad1)*%
%TA.AperFunction,SMDPad,CuDef*%
G36*
G01*
X166547500Y-97674750D02*
X166547500Y-96762250D01*
G75*
G02*
X166791250Y-96518500I243750J0D01*
G01*
X167278750Y-96518500D01*
G75*
G02*
X167522500Y-96762250I0J-243750D01*
G01*
X167522500Y-97674750D01*
G75*
G02*
X167278750Y-97918500I-243750J0D01*
G01*
X166791250Y-97918500D01*
G75*
G02*
X166547500Y-97674750I0J243750D01*
G01*
G37*
%TD.AperFunction*%
%TD*%
%TO.P,R4,2*%
%TO.N,Net-(D2-Pad3)*%
%TA.AperFunction,SMDPad,CuDef*%
G36*
G01*
X106668250Y-90952500D02*
X107580750Y-90952500D01*
G75*
G02*
X107824500Y-91196250I0J-243750D01*
G01*
X107824500Y-91683750D01*
G75*
G02*
X107580750Y-91927500I-243750J0D01*
G01*
X106668250Y-91927500D01*
G75*
G02*
X106424500Y-91683750I0J243750D01*
G01*
X106424500Y-91196250D01*
G75*
G02*
X106668250Y-90952500I243750J0D01*
G01*
G37*
%TD.AperFunction*%
%TO.P,R4,1*%
%TO.N,Net-(F1-Pad1)*%
%TA.AperFunction,SMDPad,CuDef*%
G36*
G01*
X106668250Y-89077500D02*
X107580750Y-89077500D01*
G75*
G02*
X107824500Y-89321250I0J-243750D01*
G01*
X107824500Y-89808750D01*
G75*
G02*
X107580750Y-90052500I-243750J0D01*
G01*
X106668250Y-90052500D01*
G75*
G02*
X106424500Y-89808750I0J243750D01*
G01*
X106424500Y-89321250D01*
G75*
G02*
X106668250Y-89077500I243750J0D01*
G01*
G37*
%TD.AperFunction*%
%TD*%
%TO.P,R3,2*%
%TO.N,Net-(C3-Pad1)*%
%TA.AperFunction,SMDPad,CuDef*%
G36*
G01*
X132555391Y-95913213D02*
X131642891Y-95913213D01*
G75*
G02*
X131399141Y-95669463I0J243750D01*
G01*
X131399141Y-95181963D01*
G75*
G02*
X131642891Y-94938213I243750J0D01*
G01*
X132555391Y-94938213D01*
G75*
G02*
X132799141Y-95181963I0J-243750D01*
G01*
X132799141Y-95669463D01*
G75*
G02*
X132555391Y-95913213I-243750J0D01*
G01*
G37*
%TD.AperFunction*%
%TO.P,R3,1*%
%TO.N,+3V3*%
%TA.AperFunction,SMDPad,CuDef*%
G36*
G01*
X132555391Y-97788213D02*
X131642891Y-97788213D01*
G75*
G02*
X131399141Y-97544463I0J243750D01*
G01*
X131399141Y-97056963D01*
G75*
G02*
X131642891Y-96813213I243750J0D01*
G01*
X132555391Y-96813213D01*
G75*
G02*
X132799141Y-97056963I0J-243750D01*
G01*
X132799141Y-97544463D01*
G75*
G02*
X132555391Y-97788213I-243750J0D01*
G01*
G37*
%TD.AperFunction*%
%TD*%
%TO.P,R2,2*%
%TO.N,/Control*%
%TA.AperFunction,SMDPad,CuDef*%
G36*
G01*
X171112000Y-96762250D02*
X171112000Y-97674750D01*
G75*
G02*
X170868250Y-97918500I-243750J0D01*
G01*
X170380750Y-97918500D01*
G75*
G02*
X170137000Y-97674750I0J243750D01*
G01*
X170137000Y-96762250D01*
G75*
G02*
X170380750Y-96518500I243750J0D01*
G01*
X170868250Y-96518500D01*
G75*
G02*
X171112000Y-96762250I0J-243750D01*
G01*
G37*
%TD.AperFunction*%
%TO.P,R2,1*%
%TO.N,+3V3*%
%TA.AperFunction,SMDPad,CuDef*%
G36*
G01*
X172987000Y-96762250D02*
X172987000Y-97674750D01*
G75*
G02*
X172743250Y-97918500I-243750J0D01*
G01*
X172255750Y-97918500D01*
G75*
G02*
X172012000Y-97674750I0J243750D01*
G01*
X172012000Y-96762250D01*
G75*
G02*
X172255750Y-96518500I243750J0D01*
G01*
X172743250Y-96518500D01*
G75*
G02*
X172987000Y-96762250I0J-243750D01*
G01*
G37*
%TD.AperFunction*%
%TD*%
%TO.P,R1,2*%
%TO.N,Net-(R1-Pad2)*%
%TA.AperFunction,SMDPad,CuDef*%
G36*
G01*
X117018750Y-90810500D02*
X117931250Y-90810500D01*
G75*
G02*
X118175000Y-91054250I0J-243750D01*
G01*
X118175000Y-91541750D01*
G75*
G02*
X117931250Y-91785500I-243750J0D01*
G01*
X117018750Y-91785500D01*
G75*
G02*
X116775000Y-91541750I0J243750D01*
G01*
X116775000Y-91054250D01*
G75*
G02*
X117018750Y-90810500I243750J0D01*
G01*
G37*
%TD.AperFunction*%
%TO.P,R1,1*%
%TO.N,Net-(D2-Pad2)*%
%TA.AperFunction,SMDPad,CuDef*%
G36*
G01*
X117018750Y-88935500D02*
X117931250Y-88935500D01*
G75*
G02*
X118175000Y-89179250I0J-243750D01*
G01*
X118175000Y-89666750D01*
G75*
G02*
X117931250Y-89910500I-243750J0D01*
G01*
X117018750Y-89910500D01*
G75*
G02*
X116775000Y-89666750I0J243750D01*
G01*
X116775000Y-89179250D01*
G75*
G02*
X117018750Y-88935500I243750J0D01*
G01*
G37*
%TD.AperFunction*%
%TD*%
D21*
%TO.P,Q1,3,D*%
%TO.N,Net-(D1-Pad2)*%
X164338000Y-99002489D03*
%TO.P,Q1,2,S*%
%TO.N,GND*%
X163388000Y-97002489D03*
%TO.P,Q1,1,G*%
%TO.N,Net-(Q1-Pad1)*%
X165288000Y-97002489D03*
%TD*%
D22*
%TO.P,PS1,4,+Vout*%
%TO.N,+5V*%
X150939000Y-91924500D03*
%TO.P,PS1,2,AC/N*%
%TO.N,Net-(F2-Pad1)*%
X121539000Y-86724500D03*
D23*
%TO.P,PS1,1,AC/L*%
%TO.N,Net-(F1-Pad1)*%
X121539000Y-81724500D03*
D22*
%TO.P,PS1,3,-Vout*%
%TO.N,GND*%
X150939000Y-76524500D03*
%TD*%
D24*
%TO.P,JP2,2,B*%
%TO.N,GND*%
X148653500Y-72072500D03*
D25*
%TO.P,JP2,1,A*%
%TO.N,Net-(JP2-Pad1)*%
X151193500Y-72072500D03*
%TD*%
D24*
%TO.P,JP1,2,B*%
%TO.N,Net-(JP1-Pad2)*%
X176212500Y-80518000D03*
D25*
%TO.P,JP1,1,A*%
%TO.N,GND*%
X176212500Y-83058000D03*
%TD*%
D24*
%TO.P,J8,2,Pin_2*%
%TO.N,Net-(J8-Pad2)*%
X176085500Y-70675500D03*
D25*
%TO.P,J8,1,Pin_1*%
%TO.N,Net-(J8-Pad1)*%
X176085500Y-73215500D03*
%TD*%
D26*
%TO.P,J7,4,Pin_4*%
%TO.N,Net-(C2-Pad1)*%
X101600000Y-91327000D03*
%TO.P,J7,3,Pin_3*%
%TO.N,/F*%
X101600000Y-86327000D03*
%TO.P,J7,2,Pin_2*%
%TO.N,Earth*%
X101600000Y-81327000D03*
D27*
%TO.P,J7,1,Pin_1*%
%TO.N,/N*%
X101600000Y-76327000D03*
%TD*%
D26*
%TO.P,J3,2,Pin_2*%
%TO.N,/Control*%
X170544500Y-109220000D03*
%TO.P,J3,1,Pin_1*%
%TO.N,GND*%
%TA.AperFunction,ComponentPad*%
G36*
G01*
X164194500Y-110319999D02*
X164194500Y-108120001D01*
G75*
G02*
X164444501Y-107870000I250001J0D01*
G01*
X166644499Y-107870000D01*
G75*
G02*
X166894500Y-108120001I0J-250001D01*
G01*
X166894500Y-110319999D01*
G75*
G02*
X166644499Y-110570000I-250001J0D01*
G01*
X164444501Y-110570000D01*
G75*
G02*
X164194500Y-110319999I0J250001D01*
G01*
G37*
%TD.AperFunction*%
%TD*%
%TO.P,J2,3,Pin_3*%
%TO.N,Net-(J2-Pad3)*%
X114330500Y-107759500D03*
%TO.P,J2,2,Pin_2*%
%TO.N,Net-(J2-Pad2)*%
X109330500Y-107759500D03*
%TO.P,J2,1,Pin_1*%
%TO.N,Net-(J2-Pad1)*%
%TA.AperFunction,ComponentPad*%
G36*
G01*
X102980500Y-108859499D02*
X102980500Y-106659501D01*
G75*
G02*
X103230501Y-106409500I250001J0D01*
G01*
X105430499Y-106409500D01*
G75*
G02*
X105680500Y-106659501I0J-250001D01*
G01*
X105680500Y-108859499D01*
G75*
G02*
X105430499Y-109109500I-250001J0D01*
G01*
X103230501Y-109109500D01*
G75*
G02*
X102980500Y-108859499I0J250001D01*
G01*
G37*
%TD.AperFunction*%
%TD*%
%TO.P,J1,3,Pin_3*%
%TO.N,Net-(J1-Pad3)*%
X130015000Y-107788872D03*
%TO.P,J1,2,Pin_2*%
%TO.N,Net-(J1-Pad2)*%
X125015000Y-107788872D03*
%TO.P,J1,1,Pin_1*%
%TO.N,Net-(J1-Pad1)*%
%TA.AperFunction,ComponentPad*%
G36*
G01*
X118665000Y-108888871D02*
X118665000Y-106688873D01*
G75*
G02*
X118915001Y-106438872I250001J0D01*
G01*
X121114999Y-106438872D01*
G75*
G02*
X121365000Y-106688873I0J-250001D01*
G01*
X121365000Y-108888871D01*
G75*
G02*
X121114999Y-109138872I-250001J0D01*
G01*
X118915001Y-109138872D01*
G75*
G02*
X118665000Y-108888871I0J250001D01*
G01*
G37*
%TD.AperFunction*%
%TD*%
D28*
%TO.P,F2,2*%
%TO.N,/F*%
X108775500Y-86360000D03*
D29*
%TO.P,F2,1*%
%TO.N,Net-(F2-Pad1)*%
X116395500Y-86360000D03*
%TD*%
%TO.P,D3,2,A*%
%TO.N,/Status*%
%TA.AperFunction,SMDPad,CuDef*%
G36*
G01*
X154293250Y-83175500D02*
X155205750Y-83175500D01*
G75*
G02*
X155449500Y-83419250I0J-243750D01*
G01*
X155449500Y-83906750D01*
G75*
G02*
X155205750Y-84150500I-243750J0D01*
G01*
X154293250Y-84150500D01*
G75*
G02*
X154049500Y-83906750I0J243750D01*
G01*
X154049500Y-83419250D01*
G75*
G02*
X154293250Y-83175500I243750J0D01*
G01*
G37*
%TD.AperFunction*%
%TO.P,D3,1,K*%
%TO.N,Net-(D3-Pad1)*%
%TA.AperFunction,SMDPad,CuDef*%
G36*
G01*
X154293250Y-81300500D02*
X155205750Y-81300500D01*
G75*
G02*
X155449500Y-81544250I0J-243750D01*
G01*
X155449500Y-82031750D01*
G75*
G02*
X155205750Y-82275500I-243750J0D01*
G01*
X154293250Y-82275500D01*
G75*
G02*
X154049500Y-82031750I0J243750D01*
G01*
X154049500Y-81544250D01*
G75*
G02*
X154293250Y-81300500I243750J0D01*
G01*
G37*
%TD.AperFunction*%
%TD*%
D30*
%TO.P,D1,2,A*%
%TO.N,Net-(D1-Pad2)*%
X163931600Y-100634800D03*
%TO.P,D1,1,K*%
%TO.N,+5V*%
X163931600Y-104134800D03*
%TD*%
%TO.P,C7,2*%
%TO.N,GND*%
%TA.AperFunction,SMDPad,CuDef*%
G36*
G01*
X158688000Y-93323500D02*
X158688000Y-92223500D01*
G75*
G02*
X158938000Y-91973500I250000J0D01*
G01*
X161438000Y-91973500D01*
G75*
G02*
X161688000Y-92223500I0J-250000D01*
G01*
X161688000Y-93323500D01*
G75*
G02*
X161438000Y-93573500I-250000J0D01*
G01*
X158938000Y-93573500D01*
G75*
G02*
X158688000Y-93323500I0J250000D01*
G01*
G37*
%TD.AperFunction*%
%TO.P,C7,1*%
%TO.N,+5V*%
%TA.AperFunction,SMDPad,CuDef*%
G36*
G01*
X154288000Y-93323500D02*
X154288000Y-92223500D01*
G75*
G02*
X154538000Y-91973500I250000J0D01*
G01*
X157038000Y-91973500D01*
G75*
G02*
X157288000Y-92223500I0J-250000D01*
G01*
X157288000Y-93323500D01*
G75*
G02*
X157038000Y-93573500I-250000J0D01*
G01*
X154538000Y-93573500D01*
G75*
G02*
X154288000Y-93323500I0J250000D01*
G01*
G37*
%TD.AperFunction*%
%TD*%
%TO.P,C6,2*%
%TO.N,+5V*%
%TA.AperFunction,SMDPad,CuDef*%
G36*
G01*
X158164000Y-88322999D02*
X158164000Y-89223001D01*
G75*
G02*
X157914001Y-89473000I-249999J0D01*
G01*
X157263999Y-89473000D01*
G75*
G02*
X157014000Y-89223001I0J249999D01*
G01*
X157014000Y-88322999D01*
G75*
G02*
X157263999Y-88073000I249999J0D01*
G01*
X157914001Y-88073000D01*
G75*
G02*
X158164000Y-88322999I0J-249999D01*
G01*
G37*
%TD.AperFunction*%
%TO.P,C6,1*%
%TO.N,GND*%
%TA.AperFunction,SMDPad,CuDef*%
G36*
G01*
X160214000Y-88322999D02*
X160214000Y-89223001D01*
G75*
G02*
X159964001Y-89473000I-249999J0D01*
G01*
X159313999Y-89473000D01*
G75*
G02*
X159064000Y-89223001I0J249999D01*
G01*
X159064000Y-88322999D01*
G75*
G02*
X159313999Y-88073000I249999J0D01*
G01*
X159964001Y-88073000D01*
G75*
G02*
X160214000Y-88322999I0J-249999D01*
G01*
G37*
%TD.AperFunction*%
%TD*%
%TO.P,C5,2*%
%TO.N,+3V3*%
%TA.AperFunction,SMDPad,CuDef*%
G36*
G01*
X155199501Y-85982500D02*
X154299499Y-85982500D01*
G75*
G02*
X154049500Y-85732501I0J249999D01*
G01*
X154049500Y-85082499D01*
G75*
G02*
X154299499Y-84832500I249999J0D01*
G01*
X155199501Y-84832500D01*
G75*
G02*
X155449500Y-85082499I0J-249999D01*
G01*
X155449500Y-85732501D01*
G75*
G02*
X155199501Y-85982500I-249999J0D01*
G01*
G37*
%TD.AperFunction*%
%TO.P,C5,1*%
%TO.N,GND*%
%TA.AperFunction,SMDPad,CuDef*%
G36*
G01*
X155199501Y-88032500D02*
X154299499Y-88032500D01*
G75*
G02*
X154049500Y-87782501I0J249999D01*
G01*
X154049500Y-87132499D01*
G75*
G02*
X154299499Y-86882500I249999J0D01*
G01*
X155199501Y-86882500D01*
G75*
G02*
X155449500Y-87132499I0J-249999D01*
G01*
X155449500Y-87782501D01*
G75*
G02*
X155199501Y-88032500I-249999J0D01*
G01*
G37*
%TD.AperFunction*%
%TD*%
%TO.P,C4,2*%
%TO.N,GND*%
%TA.AperFunction,SMDPad,CuDef*%
G36*
G01*
X173948000Y-93337000D02*
X175048000Y-93337000D01*
G75*
G02*
X175298000Y-93587000I0J-250000D01*
G01*
X175298000Y-95687000D01*
G75*
G02*
X175048000Y-95937000I-250000J0D01*
G01*
X173948000Y-95937000D01*
G75*
G02*
X173698000Y-95687000I0J250000D01*
G01*
X173698000Y-93587000D01*
G75*
G02*
X173948000Y-93337000I250000J0D01*
G01*
G37*
%TD.AperFunction*%
%TO.P,C4,1*%
%TO.N,+3V3*%
%TA.AperFunction,SMDPad,CuDef*%
G36*
G01*
X173948000Y-89737000D02*
X175048000Y-89737000D01*
G75*
G02*
X175298000Y-89987000I0J-250000D01*
G01*
X175298000Y-92087000D01*
G75*
G02*
X175048000Y-92337000I-250000J0D01*
G01*
X173948000Y-92337000D01*
G75*
G02*
X173698000Y-92087000I0J250000D01*
G01*
X173698000Y-89987000D01*
G75*
G02*
X173948000Y-89737000I250000J0D01*
G01*
G37*
%TD.AperFunction*%
%TD*%
%TO.P,C3,2*%
%TO.N,GND*%
%TA.AperFunction,SMDPad,CuDef*%
G36*
G01*
X128164500Y-98626667D02*
X129264500Y-98626667D01*
G75*
G02*
X129514500Y-98876667I0J-250000D01*
G01*
X129514500Y-100976667D01*
G75*
G02*
X129264500Y-101226667I-250000J0D01*
G01*
X128164500Y-101226667D01*
G75*
G02*
X127914500Y-100976667I0J250000D01*
G01*
X127914500Y-98876667D01*
G75*
G02*
X128164500Y-98626667I250000J0D01*
G01*
G37*
%TD.AperFunction*%
%TO.P,C3,1*%
%TO.N,Net-(C3-Pad1)*%
%TA.AperFunction,SMDPad,CuDef*%
G36*
G01*
X128164500Y-95026667D02*
X129264500Y-95026667D01*
G75*
G02*
X129514500Y-95276667I0J-250000D01*
G01*
X129514500Y-97376667D01*
G75*
G02*
X129264500Y-97626667I-250000J0D01*
G01*
X128164500Y-97626667D01*
G75*
G02*
X127914500Y-97376667I0J250000D01*
G01*
X127914500Y-95276667D01*
G75*
G02*
X128164500Y-95026667I250000J0D01*
G01*
G37*
%TD.AperFunction*%
%TD*%
D31*
%TO.P,C2,2*%
%TO.N,Net-(C2-Pad2)*%
X110498011Y-97917000D03*
%TO.P,C2,1*%
%TO.N,Net-(C2-Pad1)*%
X100498011Y-97917000D03*
%TD*%
%TO.P,C1,2*%
%TO.N,/Control*%
%TA.AperFunction,SMDPad,CuDef*%
G36*
G01*
X171183000Y-101160000D02*
X171183000Y-103310000D01*
G75*
G02*
X170933000Y-103560000I-250000J0D01*
G01*
X170183000Y-103560000D01*
G75*
G02*
X169933000Y-103310000I0J250000D01*
G01*
X169933000Y-101160000D01*
G75*
G02*
X170183000Y-100910000I250000J0D01*
G01*
X170933000Y-100910000D01*
G75*
G02*
X171183000Y-101160000I0J-250000D01*
G01*
G37*
%TD.AperFunction*%
%TO.P,C1,1*%
%TO.N,GND*%
%TA.AperFunction,SMDPad,CuDef*%
G36*
G01*
X173983000Y-101160000D02*
X173983000Y-103310000D01*
G75*
G02*
X173733000Y-103560000I-250000J0D01*
G01*
X172983000Y-103560000D01*
G75*
G02*
X172733000Y-103310000I0J250000D01*
G01*
X172733000Y-101160000D01*
G75*
G02*
X172983000Y-100910000I250000J0D01*
G01*
X173733000Y-100910000D01*
G75*
G02*
X173983000Y-101160000I0J-250000D01*
G01*
G37*
%TD.AperFunction*%
%TD*%
D32*
%TO.N,/Control*%
X170561000Y-77724000D03*
%TO.N,Net-(C3-Pad1)*%
X170656500Y-74708000D03*
X148463000Y-94551500D03*
%TO.N,GND*%
X147701000Y-93345000D03*
%TO.N,/Relay*%
X167640000Y-95631000D03*
%TO.N,/Control*%
X170561000Y-99504500D03*
%TO.N,+5V*%
X166116000Y-90219500D03*
X158750000Y-94678500D03*
%TO.N,/Relay*%
X159448500Y-80708500D03*
%TO.N,+3V3*%
X166751000Y-92519500D03*
X167767000Y-92519500D03*
X168783000Y-92519500D03*
X165735000Y-92519500D03*
X173672500Y-97218500D03*
%TO.N,Net-(F1-Pad1)*%
X105854500Y-89535000D03*
%TO.N,+3V3*%
X153352500Y-73723500D03*
X159448500Y-84201000D03*
X177482500Y-75946000D03*
X147637500Y-95440500D03*
%TD*%
D33*
%TO.N,Net-(D1-Pad2)*%
X163931600Y-100634800D02*
X163931600Y-99046578D01*
D34*
X163931600Y-99046578D02*
X163887511Y-99002489D01*
%TO.N,+5V*%
X163931600Y-104134800D02*
X163931600Y-104158363D01*
D33*
X163931600Y-104158363D02*
X161783963Y-106306000D01*
D35*
%TO.N,Net-(F1-Pad1)*%
X114706400Y-77571600D02*
X121005600Y-77571600D01*
X121005600Y-77571600D02*
X121539000Y-78105000D01*
X121539000Y-78105000D02*
X121539000Y-81724500D01*
X109855000Y-80645000D02*
X111633000Y-80645000D01*
X111633000Y-80645000D02*
X114706400Y-77571600D01*
D36*
%TO.N,/N*%
X109606400Y-76371600D02*
X101644600Y-76371600D01*
D34*
X101644600Y-76371600D02*
X101600000Y-76327000D01*
%TO.N,Net-(D2-Pad1)*%
X116816520Y-99151015D02*
X115610215Y-99151015D01*
X115610215Y-99151015D02*
X115254615Y-99151015D01*
X114223800Y-92684600D02*
X113715800Y-93192600D01*
X115343000Y-92684600D02*
X114223800Y-92684600D01*
X113715800Y-93192600D02*
X113715800Y-98755200D01*
X113715800Y-98755200D02*
X114111615Y-99151015D01*
X114111615Y-99151015D02*
X115610215Y-99151015D01*
%TO.N,Net-(C2-Pad2)*%
X109166000Y-93313000D02*
X109166000Y-92711600D01*
X109166000Y-92711600D02*
X109193000Y-92684600D01*
%TO.N,Net-(D2-Pad3)*%
X109166000Y-91113000D02*
X109166000Y-90171600D01*
X109166000Y-90171600D02*
X109193000Y-90144600D01*
%TO.N,Net-(D2-Pad2)*%
X117475000Y-89423000D02*
X115745500Y-89423000D01*
X115745500Y-89423000D02*
X115343000Y-89825500D01*
X115343000Y-89825500D02*
X115343000Y-90144600D01*
D33*
%TO.N,Net-(C2-Pad1)*%
X101600000Y-91327000D02*
X101600000Y-96815011D01*
D34*
%TO.N,Net-(C2-Pad2)*%
X110045500Y-97917000D02*
X109166000Y-97037500D01*
X109166000Y-97037500D02*
X109166000Y-93313000D01*
X110498011Y-97917000D02*
X110045500Y-97917000D01*
D33*
%TO.N,Net-(C2-Pad1)*%
X101600000Y-96815011D02*
X100498011Y-97917000D01*
D34*
%TO.N,GND*%
X124436520Y-99151015D02*
X127938848Y-99151015D01*
X127938848Y-99151015D02*
X128714500Y-99926667D01*
%TO.N,/Detec.*%
X124436520Y-96611015D02*
X128430152Y-96611015D01*
X128430152Y-96611015D02*
X128714500Y-96326667D01*
%TO.N,GND*%
X124436520Y-99151015D02*
X124790005Y-99504500D01*
%TO.N,/Detec.*%
X124436520Y-96611015D02*
X124790005Y-96964500D01*
%TO.N,GND*%
X128292333Y-99504500D02*
X128714500Y-99926667D01*
%TO.N,Net-(R1-Pad2)*%
X117475000Y-91298000D02*
X117475000Y-95952535D01*
X117475000Y-95952535D02*
X116816520Y-96611015D01*
%TO.N,/Control*%
X172656500Y-76708000D02*
X170878500Y-76708000D01*
X170561000Y-77025500D02*
X170561000Y-77724000D01*
X170878500Y-76708000D02*
X170561000Y-77025500D01*
%TO.N,/Detec.*%
X172656500Y-74708000D02*
X170656500Y-74708000D01*
%TO.N,GND*%
X147193000Y-71628000D02*
X147193000Y-72453500D01*
X148653500Y-72072500D02*
X147193000Y-72072500D01*
X147193000Y-72072500D02*
X147193000Y-71628000D01*
%TO.N,/Detec.*%
X148463000Y-94551500D02*
X132397500Y-94551500D01*
X132099141Y-94849859D02*
X132099141Y-95425713D01*
X132397500Y-94551500D02*
X132099141Y-94849859D01*
%TO.N,GND*%
X159639000Y-88773000D02*
X159639000Y-87884000D01*
X159639000Y-87884000D02*
X159212500Y-87457500D01*
X159212500Y-87457500D02*
X154749500Y-87457500D01*
%TO.N,/Detec.*%
X132099141Y-95425713D02*
X129618287Y-95425713D01*
X129618287Y-95425713D02*
X128717333Y-96326667D01*
X128717333Y-96326667D02*
X128714500Y-96326667D01*
%TO.N,+3V3*%
X134810500Y-95440500D02*
X133959354Y-95440500D01*
X133959354Y-95440500D02*
X133006854Y-96393000D01*
X132099141Y-97300713D02*
X133006854Y-96393000D01*
X147637500Y-95440500D02*
X134810500Y-95440500D01*
%TO.N,/Detec.*%
X132099141Y-95425713D02*
X132080000Y-95406572D01*
%TO.N,+3V3*%
X132099141Y-97300713D02*
X132080000Y-97319854D01*
D37*
%TO.N,Net-(J1-Pad1)*%
X120650000Y-104965500D02*
X120015000Y-105600500D01*
%TO.N,Net-(J1-Pad3)*%
X130015000Y-110647500D02*
X130015000Y-107788872D01*
%TO.N,Net-(J1-Pad1)*%
X120015000Y-105600500D02*
X120015000Y-107788872D01*
%TO.N,Net-(J1-Pad3)*%
X130683000Y-111315500D02*
X130015000Y-110647500D01*
X144829500Y-106306000D02*
X144829500Y-110313500D01*
X143827500Y-111315500D02*
X130683000Y-111315500D01*
X144829500Y-110313500D02*
X143827500Y-111315500D01*
%TO.N,Net-(J1-Pad1)*%
X134829500Y-106306000D02*
X133489000Y-104965500D01*
X133489000Y-104965500D02*
X120650000Y-104965500D01*
%TO.N,Net-(J2-Pad2)*%
X139829500Y-101534000D02*
X138303000Y-102743000D01*
X138303000Y-102743000D02*
X110172500Y-102743000D01*
X139829500Y-98806000D02*
X139829500Y-101534000D01*
X109330500Y-103568500D02*
X109330500Y-107759500D01*
X110172500Y-102743000D02*
X109330500Y-103568500D01*
D34*
%TO.N,/Control*%
X170558000Y-102235000D02*
X170558000Y-108381000D01*
X170558000Y-108381000D02*
X170227000Y-108712000D01*
D33*
%TO.N,+5V*%
X159829500Y-106306000D02*
X161783963Y-106306000D01*
%TO.N,Net-(D1-Pad2)*%
X163925134Y-100664829D02*
X163893500Y-100633195D01*
D34*
%TO.N,/Relay*%
X167640000Y-95631000D02*
X168656000Y-95631000D01*
X168656000Y-95631000D02*
X168910000Y-95885000D01*
X168910000Y-95885000D02*
X168910000Y-96202500D01*
X168910000Y-96202500D02*
X168910000Y-97218500D01*
%TO.N,/Control*%
X170561000Y-99504500D02*
X170561000Y-102232000D01*
X170561000Y-99504500D02*
X170561000Y-97282000D01*
X170561000Y-102232000D02*
X170558000Y-102235000D01*
X170561000Y-97282000D02*
X170624500Y-97218500D01*
%TO.N,Net-(D1-Pad2)*%
X163893500Y-99008478D02*
X163887511Y-99002489D01*
D33*
X163887511Y-99002489D02*
X160025989Y-99002489D01*
D34*
X164338000Y-99002489D02*
X163887511Y-99002489D01*
X160025989Y-99002489D02*
X159829500Y-98806000D01*
%TO.N,Net-(Q1-Pad1)*%
X166818989Y-97002489D02*
X167035000Y-97218500D01*
X165288000Y-97002489D02*
X166818989Y-97002489D01*
X167035000Y-97218500D02*
X167035000Y-99489500D01*
X167035000Y-99489500D02*
X167020000Y-99504500D01*
%TO.N,+3V3*%
X173672500Y-97218500D02*
X172499500Y-97218500D01*
%TO.N,+5V*%
X157589000Y-88773000D02*
X157589000Y-89743500D01*
X157589000Y-89743500D02*
X155788000Y-91544500D01*
X155788000Y-91544500D02*
X155788000Y-92773500D01*
D33*
X156210000Y-94678500D02*
X155829000Y-94297500D01*
X155829000Y-94297500D02*
X155788000Y-94256500D01*
X155788000Y-94256500D02*
X155788000Y-92773500D01*
X152757500Y-91924500D02*
X153011500Y-91924500D01*
X153011500Y-91924500D02*
X153860500Y-92773500D01*
X153860500Y-92773500D02*
X155788000Y-92773500D01*
X170409000Y-90219500D02*
X166116000Y-90219500D01*
X157289500Y-94678500D02*
X156210000Y-94678500D01*
X158750000Y-94678500D02*
X157289500Y-94678500D01*
D34*
X157271500Y-94696500D02*
X157289500Y-94678500D01*
%TO.N,/Relay*%
X159448500Y-80708500D02*
X157457000Y-80708500D01*
X157457000Y-80708500D02*
X157456500Y-80708000D01*
%TO.N,Net-(R13-Pad2)*%
X174021000Y-82708000D02*
X174688500Y-83375500D01*
X175084500Y-85803500D02*
X174957500Y-85803500D01*
X174957500Y-85803500D02*
X174688500Y-85534500D01*
X174688500Y-85534500D02*
X174688500Y-83375500D01*
X172656500Y-82708000D02*
X174021000Y-82708000D01*
X175084500Y-85803500D02*
X176212500Y-85803500D01*
%TO.N,+3V3*%
X174498000Y-91037000D02*
X173015500Y-92519500D01*
X173015500Y-92519500D02*
X170409000Y-92519500D01*
D33*
X165735000Y-92519500D02*
X166814500Y-92519500D01*
X166814500Y-92519500D02*
X167767000Y-92519500D01*
X167767000Y-92519500D02*
X168719500Y-92519500D01*
X170409000Y-92519500D02*
X168719500Y-92519500D01*
X164109000Y-92519500D02*
X165735000Y-92519500D01*
D35*
%TO.N,Net-(F1-Pad1)*%
X108521500Y-80645000D02*
X109855000Y-80645000D01*
D33*
X105854500Y-89535000D02*
X107094500Y-89535000D01*
D34*
X107094500Y-89535000D02*
X107124500Y-89565000D01*
%TO.N,Net-(D2-Pad3)*%
X108839000Y-91440000D02*
X107124500Y-91440000D01*
X109166000Y-91113000D02*
X108839000Y-91440000D01*
%TO.N,/N*%
X101663500Y-76390500D02*
X101600000Y-76327000D01*
D35*
%TO.N,Net-(F2-Pad1)*%
X121539000Y-86724500D02*
X116760000Y-86724500D01*
D34*
X116760000Y-86724500D02*
X116395500Y-86360000D01*
D35*
X116021500Y-82045000D02*
X116021500Y-85986000D01*
X116021500Y-85986000D02*
X116395500Y-86360000D01*
D36*
%TO.N,/F*%
X108775500Y-86360000D02*
X101633000Y-86360000D01*
D34*
X101633000Y-86360000D02*
X101600000Y-86327000D01*
D33*
%TO.N,+5V*%
X150939000Y-91924500D02*
X152757500Y-91924500D01*
D34*
%TO.N,+3V3*%
X153352500Y-73723500D02*
X153352500Y-73469500D01*
X153352500Y-76390500D02*
X153606500Y-76644500D01*
X153606500Y-76644500D02*
X154749500Y-76644500D01*
X153352500Y-73723500D02*
X153352500Y-76390500D01*
X153352500Y-73469500D02*
X153860500Y-72961500D01*
X153860500Y-72961500D02*
X154749500Y-72961500D01*
D33*
X158941500Y-84708000D02*
X159448500Y-84201000D01*
X157456500Y-84708000D02*
X158941500Y-84708000D01*
D34*
X157456500Y-84708000D02*
X156465000Y-84708000D01*
X156465000Y-84708000D02*
X155765500Y-85407500D01*
X155765500Y-85407500D02*
X154749500Y-85407500D01*
%TO.N,/Status*%
X154749500Y-83663000D02*
X155478000Y-83663000D01*
X155478000Y-83663000D02*
X156433000Y-82708000D01*
X156433000Y-82708000D02*
X157456500Y-82708000D01*
%TO.N,Net-(D3-Pad1)*%
X154749500Y-80170500D02*
X154749500Y-81788000D01*
%TO.N,Net-(R15-Pad1)*%
X157456500Y-74708000D02*
X154811000Y-74708000D01*
X154811000Y-74708000D02*
X154749500Y-74769500D01*
%TO.N,Net-(J8-Pad1)*%
X172656500Y-72708000D02*
X175578000Y-72708000D01*
X175578000Y-72708000D02*
X176085500Y-73215500D01*
%TO.N,Net-(J8-Pad2)*%
X172656500Y-70708000D02*
X176053000Y-70708000D01*
X176053000Y-70708000D02*
X176085500Y-70675500D01*
%TO.N,+3V3*%
X176212500Y-75946000D02*
X177482500Y-75946000D01*
%TO.N,Net-(JP1-Pad2)*%
X176212500Y-78613000D02*
X176212500Y-80518000D01*
X172656500Y-78708000D02*
X176117500Y-78708000D01*
X176117500Y-78708000D02*
X176212500Y-78613000D01*
X176212500Y-78613000D02*
X176212500Y-77821000D01*
%TO.N,Net-(JP2-Pad1)*%
X154749500Y-71086500D02*
X152179500Y-71086500D01*
X152179500Y-71086500D02*
X151193500Y-72072500D01*
X157456500Y-70708000D02*
X155128000Y-70708000D01*
X155128000Y-70708000D02*
X154749500Y-71086500D01*
%TD*%
%TO.N,GND*%
D38*
X156846000Y-69566163D02*
X156198242Y-69566163D01*
X156181866Y-69568319D01*
X155902642Y-69643137D01*
X155878162Y-69655880D01*
X155721910Y-69786990D01*
X155707739Y-69803879D01*
X155625108Y-69947000D01*
X155072821Y-69947000D01*
X155072809Y-69947001D01*
X155017510Y-69947001D01*
X154997921Y-69950103D01*
X154968151Y-69959776D01*
X154253104Y-69959776D01*
X154239674Y-69961220D01*
X153939212Y-70026581D01*
X153918378Y-70035211D01*
X153717587Y-70164252D01*
X153703966Y-70176055D01*
X153574470Y-70325500D01*
X152124321Y-70325500D01*
X152124309Y-70325501D01*
X152069010Y-70325501D01*
X152049422Y-70328603D01*
X152001308Y-70344236D01*
X151951323Y-70352153D01*
X151932462Y-70358282D01*
X151887379Y-70381252D01*
X151839255Y-70396889D01*
X151821584Y-70405893D01*
X151780645Y-70435637D01*
X151735565Y-70458607D01*
X151719520Y-70470264D01*
X151679905Y-70509880D01*
X151679890Y-70509893D01*
X151609121Y-70580663D01*
X150335242Y-70580663D01*
X150318866Y-70582819D01*
X150039642Y-70657637D01*
X150015162Y-70670380D01*
X149858910Y-70801490D01*
X149844739Y-70818379D01*
X149744141Y-70992620D01*
X149736600Y-71013337D01*
X149731021Y-71044979D01*
X149727147Y-71040917D01*
X149546549Y-70881138D01*
X149537986Y-70874767D01*
X149333049Y-70747702D01*
X149323536Y-70742865D01*
X149100119Y-70652145D01*
X149089927Y-70648980D01*
X148875596Y-70601856D01*
X148781500Y-70677511D01*
X148781499Y-71870692D01*
X148781500Y-71870693D01*
X148781499Y-73466248D01*
X148873717Y-73541862D01*
X149062519Y-73504136D01*
X149072770Y-73501167D01*
X149297887Y-73414753D01*
X149307491Y-73410100D01*
X149514830Y-73286991D01*
X149523512Y-73280786D01*
X149707145Y-73124504D01*
X149714658Y-73116924D01*
X149740903Y-73085535D01*
X149778637Y-73226359D01*
X149791380Y-73250839D01*
X149922490Y-73407090D01*
X149939379Y-73421261D01*
X150113620Y-73521859D01*
X150134337Y-73529400D01*
X150327038Y-73563378D01*
X150337999Y-73564337D01*
X152051758Y-73564337D01*
X152068134Y-73562181D01*
X152342907Y-73488556D01*
X152318656Y-73579062D01*
X152316500Y-73595438D01*
X152316500Y-73851562D01*
X152318656Y-73867938D01*
X152384946Y-74115335D01*
X152391267Y-74130595D01*
X152519329Y-74352405D01*
X152529384Y-74365509D01*
X152591500Y-74427624D01*
X152591501Y-75838779D01*
X152590042Y-75835257D01*
X152467067Y-75593905D01*
X152461894Y-75585463D01*
X152344949Y-75424501D01*
X152229133Y-75415386D01*
X151172210Y-76472309D01*
X151172210Y-76576691D01*
X152229133Y-77633614D01*
X152344949Y-77624499D01*
X152461894Y-77463537D01*
X152467067Y-77455095D01*
X152590042Y-77213743D01*
X152593831Y-77204595D01*
X152677537Y-76946977D01*
X152679848Y-76937349D01*
X152702897Y-76791825D01*
X152724608Y-76834435D01*
X152736265Y-76850480D01*
X152979552Y-77093766D01*
X152979553Y-77093769D01*
X153146520Y-77260736D01*
X153162566Y-77272394D01*
X153207653Y-77295368D01*
X153248584Y-77325106D01*
X153266255Y-77334110D01*
X153314371Y-77349744D01*
X153359461Y-77372718D01*
X153378323Y-77378847D01*
X153428305Y-77386763D01*
X153476420Y-77402396D01*
X153496008Y-77405499D01*
X153551309Y-77405499D01*
X153551321Y-77405500D01*
X153577212Y-77405500D01*
X153614752Y-77463913D01*
X153625193Y-77475963D01*
X153549145Y-77563726D01*
X153539401Y-77578889D01*
X153441191Y-77793941D01*
X153436113Y-77811234D01*
X153410918Y-77986466D01*
X153410276Y-77995444D01*
X153410276Y-78093691D01*
X153484085Y-78167500D01*
X154877500Y-78167501D01*
X154877499Y-78423500D01*
X153484085Y-78423499D01*
X153410276Y-78497308D01*
X153410276Y-78579396D01*
X153411720Y-78592826D01*
X153477081Y-78893288D01*
X153485711Y-78914122D01*
X153614752Y-79114913D01*
X153626555Y-79128534D01*
X153744646Y-79230862D01*
X153717587Y-79248252D01*
X153703966Y-79260055D01*
X153549145Y-79438726D01*
X153539401Y-79453889D01*
X153441191Y-79668941D01*
X153436113Y-79686234D01*
X153410918Y-79861466D01*
X153410276Y-79870444D01*
X153410276Y-80454396D01*
X153411720Y-80467826D01*
X153477081Y-80768288D01*
X153485711Y-80789122D01*
X153611283Y-80984516D01*
X153549145Y-81056226D01*
X153539401Y-81071389D01*
X153441191Y-81286441D01*
X153436113Y-81303734D01*
X153410918Y-81478966D01*
X153410276Y-81487944D01*
X153410276Y-82071896D01*
X153411720Y-82085326D01*
X153477081Y-82385788D01*
X153485711Y-82406622D01*
X153614752Y-82607413D01*
X153626555Y-82621034D01*
X153744646Y-82723362D01*
X153717587Y-82740752D01*
X153703966Y-82752555D01*
X153549145Y-82931226D01*
X153539401Y-82946389D01*
X153441191Y-83161441D01*
X153436113Y-83178734D01*
X153410918Y-83353966D01*
X153410276Y-83362944D01*
X153410276Y-83946896D01*
X153411720Y-83960326D01*
X153477081Y-84260788D01*
X153485711Y-84281622D01*
X153614752Y-84482413D01*
X153626555Y-84496034D01*
X153629928Y-84498957D01*
X153550093Y-84591092D01*
X153540349Y-84606254D01*
X153441384Y-84822958D01*
X153436306Y-84840251D01*
X153410918Y-85016828D01*
X153410276Y-85025805D01*
X153410276Y-85772880D01*
X153411720Y-85786310D01*
X153477593Y-86089124D01*
X153486223Y-86109958D01*
X153616245Y-86312277D01*
X153628048Y-86325898D01*
X153748819Y-86430546D01*
X153719723Y-86449245D01*
X153706102Y-86461048D01*
X153550093Y-86641092D01*
X153540349Y-86656254D01*
X153441384Y-86872958D01*
X153436306Y-86890251D01*
X153410918Y-87066828D01*
X153410276Y-87075805D01*
X153410276Y-87255691D01*
X153484085Y-87329500D01*
X154547692Y-87329501D01*
X154547693Y-87329500D01*
X156014915Y-87329501D01*
X156088724Y-87255692D01*
X156088724Y-87092120D01*
X156087280Y-87078690D01*
X156021407Y-86775876D01*
X156012777Y-86755042D01*
X155882755Y-86552723D01*
X155870952Y-86539102D01*
X155750181Y-86434454D01*
X155779277Y-86415755D01*
X155792898Y-86403952D01*
X155948907Y-86223908D01*
X155958651Y-86208746D01*
X155988854Y-86142611D01*
X155993676Y-86141847D01*
X156012539Y-86135718D01*
X156057626Y-86112745D01*
X156105744Y-86097111D01*
X156123416Y-86088106D01*
X156164347Y-86058367D01*
X156209434Y-86035394D01*
X156225480Y-86023736D01*
X156399379Y-85849837D01*
X158714758Y-85849837D01*
X158731134Y-85847681D01*
X158914663Y-85798505D01*
X158914663Y-87116258D01*
X158916819Y-87132634D01*
X158991637Y-87411859D01*
X159004380Y-87436339D01*
X159043072Y-87482451D01*
X158957376Y-87501093D01*
X158936542Y-87509723D01*
X158734223Y-87639745D01*
X158720602Y-87651548D01*
X158615954Y-87772319D01*
X158597255Y-87743223D01*
X158585452Y-87729602D01*
X158405408Y-87573593D01*
X158390246Y-87563849D01*
X158173542Y-87464884D01*
X158156249Y-87459806D01*
X157979672Y-87434418D01*
X157970695Y-87433776D01*
X157223620Y-87433776D01*
X157210190Y-87435220D01*
X156907376Y-87501093D01*
X156886542Y-87509723D01*
X156684223Y-87639745D01*
X156670602Y-87651548D01*
X156514593Y-87831592D01*
X156504849Y-87846754D01*
X156405884Y-88063458D01*
X156400806Y-88080751D01*
X156375418Y-88257328D01*
X156374776Y-88266305D01*
X156374776Y-89263380D01*
X156376220Y-89276810D01*
X156442093Y-89579624D01*
X156450723Y-89600458D01*
X156530965Y-89725318D01*
X155328194Y-90928091D01*
X155328190Y-90928094D01*
X155171763Y-91084522D01*
X155160106Y-91100567D01*
X155137138Y-91145645D01*
X155107394Y-91186583D01*
X155098390Y-91204255D01*
X155082753Y-91252380D01*
X155059782Y-91297463D01*
X155053653Y-91316324D01*
X155050810Y-91334276D01*
X154497621Y-91334276D01*
X154484191Y-91335720D01*
X154181376Y-91401593D01*
X154160542Y-91410223D01*
X153958224Y-91540245D01*
X153944603Y-91552048D01*
X153920201Y-91580209D01*
X153708189Y-91368197D01*
X153697993Y-91352037D01*
X153686357Y-91338365D01*
X153617883Y-91277892D01*
X153596240Y-91256248D01*
X153589467Y-91250376D01*
X153571380Y-91236820D01*
X153509727Y-91182371D01*
X153494722Y-91172515D01*
X153470239Y-91161021D01*
X153448604Y-91144806D01*
X153432857Y-91136184D01*
X153355864Y-91107321D01*
X153281236Y-91072283D01*
X153263681Y-91066975D01*
X153238004Y-91063137D01*
X153212201Y-91053464D01*
X153194667Y-91049609D01*
X153100821Y-91042635D01*
X153077791Y-91039193D01*
X153068466Y-91038500D01*
X153045181Y-91038500D01*
X152959664Y-91032144D01*
X152941752Y-91033365D01*
X152917697Y-91038500D01*
X152489790Y-91038500D01*
X152467067Y-90993905D01*
X152461894Y-90985463D01*
X152302677Y-90766320D01*
X152296247Y-90758791D01*
X152104709Y-90567253D01*
X152097180Y-90560823D01*
X151878037Y-90401606D01*
X151869595Y-90396433D01*
X151628243Y-90273458D01*
X151619095Y-90269669D01*
X151361477Y-90185963D01*
X151351849Y-90183652D01*
X151084308Y-90141278D01*
X151074437Y-90140501D01*
X150803563Y-90140501D01*
X150793692Y-90141278D01*
X150526151Y-90183652D01*
X150516523Y-90185963D01*
X150258905Y-90269669D01*
X150249757Y-90273458D01*
X150008405Y-90396433D01*
X149999963Y-90401606D01*
X149780820Y-90560823D01*
X149773291Y-90567253D01*
X149581753Y-90758791D01*
X149575323Y-90766320D01*
X149416106Y-90985463D01*
X149410933Y-90993905D01*
X149287958Y-91235257D01*
X149284169Y-91244405D01*
X149200463Y-91502023D01*
X149198152Y-91511651D01*
X149155778Y-91779192D01*
X149155001Y-91789063D01*
X149155001Y-92059937D01*
X149155778Y-92069808D01*
X149198152Y-92337349D01*
X149200463Y-92346977D01*
X149284169Y-92604595D01*
X149287958Y-92613743D01*
X149410933Y-92855095D01*
X149416106Y-92863537D01*
X149575323Y-93082680D01*
X149581753Y-93090209D01*
X149773291Y-93281747D01*
X149780820Y-93288177D01*
X149999963Y-93447394D01*
X150008405Y-93452567D01*
X150249757Y-93575542D01*
X150258905Y-93579331D01*
X150516523Y-93663037D01*
X150526151Y-93665348D01*
X150793692Y-93707722D01*
X150803563Y-93708499D01*
X151074437Y-93708499D01*
X151084308Y-93707722D01*
X151351849Y-93665348D01*
X151361477Y-93663037D01*
X151619095Y-93579331D01*
X151628243Y-93575542D01*
X151869595Y-93452567D01*
X151878037Y-93447394D01*
X152097180Y-93288177D01*
X152104709Y-93281747D01*
X152296247Y-93090209D01*
X152302677Y-93082680D01*
X152461894Y-92863537D01*
X152467067Y-92855095D01*
X152489790Y-92810500D01*
X152644508Y-92810500D01*
X153163813Y-93329806D01*
X153174008Y-93345964D01*
X153185643Y-93359635D01*
X153254116Y-93420108D01*
X153275759Y-93441752D01*
X153282533Y-93447625D01*
X153300636Y-93461192D01*
X153362273Y-93515628D01*
X153377277Y-93525485D01*
X153401756Y-93536978D01*
X153423394Y-93553195D01*
X153439142Y-93561816D01*
X153516144Y-93590682D01*
X153590765Y-93625717D01*
X153608321Y-93631026D01*
X153633992Y-93634862D01*
X153659797Y-93644536D01*
X153677332Y-93648391D01*
X153709713Y-93650797D01*
X153716093Y-93680124D01*
X153724723Y-93700958D01*
X153854745Y-93903276D01*
X153866548Y-93916897D01*
X154046592Y-94072907D01*
X154061754Y-94082651D01*
X154278458Y-94181616D01*
X154295751Y-94186694D01*
X154472329Y-94212082D01*
X154481306Y-94212724D01*
X154897521Y-94212724D01*
X154902000Y-94284913D01*
X154902000Y-94315552D01*
X154902637Y-94324494D01*
X154905845Y-94346893D01*
X154910937Y-94428963D01*
X154914577Y-94446543D01*
X154923758Y-94471975D01*
X154927592Y-94498748D01*
X154932631Y-94515978D01*
X154966671Y-94590848D01*
X154994660Y-94668377D01*
X155003320Y-94684543D01*
X155018759Y-94705409D01*
X155030167Y-94730498D01*
X155039839Y-94745622D01*
X155101271Y-94816917D01*
X155115119Y-94835631D01*
X155121223Y-94842715D01*
X155137669Y-94859161D01*
X155193663Y-94924145D01*
X155207191Y-94935946D01*
X155227834Y-94949327D01*
X155244252Y-94965745D01*
X155244267Y-94965758D01*
X155513309Y-95234800D01*
X155523507Y-95250963D01*
X155535143Y-95264635D01*
X155603617Y-95325108D01*
X155625260Y-95346752D01*
X155632034Y-95352625D01*
X155650127Y-95366185D01*
X155711772Y-95420628D01*
X155726777Y-95430485D01*
X155751256Y-95441978D01*
X155772894Y-95458195D01*
X155788642Y-95466816D01*
X155865644Y-95495682D01*
X155940265Y-95530717D01*
X155957821Y-95536026D01*
X155983492Y-95539862D01*
X156009297Y-95549536D01*
X156026832Y-95553391D01*
X156120682Y-95560366D01*
X156143708Y-95563807D01*
X156153034Y-95564500D01*
X156176315Y-95564500D01*
X156261836Y-95570855D01*
X156279748Y-95569634D01*
X156303798Y-95564500D01*
X158212598Y-95564500D01*
X158342905Y-95639733D01*
X158358165Y-95646054D01*
X158605562Y-95712344D01*
X158621938Y-95714500D01*
X158878062Y-95714500D01*
X158894438Y-95712344D01*
X159141835Y-95646054D01*
X159157095Y-95639733D01*
X159378905Y-95511671D01*
X159392009Y-95501616D01*
X159573116Y-95320509D01*
X159583171Y-95307405D01*
X159711233Y-95085595D01*
X159717554Y-95070335D01*
X159783844Y-94822938D01*
X159786000Y-94806562D01*
X159786000Y-94550438D01*
X159783844Y-94534062D01*
X159717554Y-94286665D01*
X159711233Y-94271405D01*
X159677354Y-94212724D01*
X159986191Y-94212724D01*
X160060000Y-94138915D01*
X160060000Y-92975309D01*
X160316000Y-92975309D01*
X160316000Y-94138915D01*
X160389809Y-94212724D01*
X161478379Y-94212724D01*
X161491809Y-94211280D01*
X161794624Y-94145407D01*
X161815458Y-94136777D01*
X162017776Y-94006755D01*
X162031397Y-93994952D01*
X162187407Y-93814908D01*
X162197151Y-93799746D01*
X162296116Y-93583042D01*
X162301194Y-93565749D01*
X162326582Y-93389171D01*
X162327224Y-93380194D01*
X162327224Y-92975309D01*
X162253415Y-92901500D01*
X160389809Y-92901500D01*
X160316000Y-92975309D01*
X160060000Y-92975309D01*
X159986191Y-92901500D01*
X158122585Y-92901500D01*
X158048776Y-92975309D01*
X158048776Y-93363879D01*
X158050220Y-93377309D01*
X158116093Y-93680124D01*
X158124723Y-93700958D01*
X158183554Y-93792500D01*
X157800460Y-93792500D01*
X157896116Y-93583042D01*
X157901194Y-93565749D01*
X157926582Y-93389171D01*
X157927224Y-93380194D01*
X157927224Y-92183121D01*
X157925780Y-92169691D01*
X157925153Y-92166806D01*
X158048776Y-92166806D01*
X158048776Y-92571691D01*
X158122585Y-92645500D01*
X159986191Y-92645500D01*
X160060000Y-92571691D01*
X160060000Y-91408085D01*
X160316000Y-91408085D01*
X160316000Y-92571691D01*
X160389809Y-92645500D01*
X162253415Y-92645500D01*
X162327224Y-92571691D01*
X162327224Y-92183121D01*
X162325780Y-92169691D01*
X162259907Y-91866876D01*
X162251277Y-91846042D01*
X162121255Y-91643724D01*
X162109452Y-91630103D01*
X161929408Y-91474093D01*
X161914246Y-91464349D01*
X161697542Y-91365384D01*
X161680249Y-91360306D01*
X161503671Y-91334918D01*
X161494694Y-91334276D01*
X160389809Y-91334276D01*
X160316000Y-91408085D01*
X160060000Y-91408085D01*
X159986191Y-91334276D01*
X158897621Y-91334276D01*
X158884191Y-91335720D01*
X158581376Y-91401593D01*
X158560542Y-91410223D01*
X158358224Y-91540245D01*
X158344603Y-91552048D01*
X158188593Y-91732092D01*
X158178849Y-91747254D01*
X158079884Y-91963958D01*
X158074806Y-91981251D01*
X158049418Y-92157829D01*
X158048776Y-92166806D01*
X157925153Y-92166806D01*
X157859907Y-91866876D01*
X157851277Y-91846042D01*
X157721255Y-91643724D01*
X157709452Y-91630103D01*
X157529408Y-91474093D01*
X157514246Y-91464349D01*
X157297542Y-91365384D01*
X157280249Y-91360306D01*
X157103671Y-91334918D01*
X157094694Y-91334276D01*
X157074439Y-91334276D01*
X157794717Y-90613999D01*
X162467163Y-90613999D01*
X162467163Y-94427758D01*
X162469319Y-94444134D01*
X162544137Y-94723359D01*
X162556880Y-94747839D01*
X162687990Y-94904090D01*
X162704879Y-94918261D01*
X162879120Y-95018859D01*
X162899837Y-95026400D01*
X163092538Y-95060378D01*
X163103499Y-95061337D01*
X165117258Y-95061337D01*
X165133634Y-95059181D01*
X165412859Y-94984363D01*
X165437339Y-94971620D01*
X165593590Y-94840510D01*
X165607761Y-94823621D01*
X165708359Y-94649380D01*
X165715900Y-94628663D01*
X165749878Y-94435962D01*
X165750837Y-94425001D01*
X165750837Y-93555500D01*
X165863062Y-93555500D01*
X165879438Y-93553344D01*
X166126835Y-93487054D01*
X166142095Y-93480733D01*
X166243000Y-93422475D01*
X166343905Y-93480733D01*
X166359165Y-93487054D01*
X166606562Y-93553344D01*
X166622938Y-93555500D01*
X166879062Y-93555500D01*
X166895438Y-93553344D01*
X167142835Y-93487054D01*
X167158095Y-93480733D01*
X167259000Y-93422475D01*
X167359905Y-93480733D01*
X167375165Y-93487054D01*
X167622562Y-93553344D01*
X167638938Y-93555500D01*
X167895062Y-93555500D01*
X167911438Y-93553344D01*
X168158835Y-93487054D01*
X168174095Y-93480733D01*
X168275000Y-93422475D01*
X168375905Y-93480733D01*
X168391165Y-93487054D01*
X168638562Y-93553344D01*
X168654938Y-93555500D01*
X168839352Y-93555500D01*
X168844137Y-93573359D01*
X168856880Y-93597839D01*
X168911896Y-93663404D01*
X168910239Y-93665379D01*
X168809641Y-93839620D01*
X168802100Y-93860337D01*
X168768122Y-94053038D01*
X168767163Y-94063999D01*
X168767163Y-94617691D01*
X168840972Y-94691500D01*
X170207192Y-94691501D01*
X170207193Y-94691500D01*
X171977028Y-94691501D01*
X172050837Y-94617692D01*
X172050837Y-94061242D01*
X172048681Y-94044866D01*
X171973863Y-93765642D01*
X171961120Y-93741162D01*
X171906104Y-93675596D01*
X171907761Y-93673621D01*
X172008359Y-93499380D01*
X172015900Y-93478663D01*
X172049878Y-93285962D01*
X172050356Y-93280500D01*
X173070679Y-93280500D01*
X173070691Y-93280499D01*
X173111329Y-93280499D01*
X173089884Y-93327458D01*
X173084806Y-93344751D01*
X173059418Y-93521329D01*
X173058776Y-93530306D01*
X173058776Y-94435191D01*
X173132585Y-94509000D01*
X174296192Y-94509001D01*
X174296193Y-94509000D01*
X175863415Y-94509001D01*
X175937224Y-94435192D01*
X175937224Y-93546621D01*
X175935780Y-93533191D01*
X175869907Y-93230376D01*
X175861277Y-93209542D01*
X175731255Y-93007224D01*
X175719452Y-92993603D01*
X175539408Y-92837593D01*
X175531202Y-92832319D01*
X175627776Y-92770255D01*
X175641397Y-92758452D01*
X175797407Y-92578408D01*
X175807151Y-92563246D01*
X175906116Y-92346542D01*
X175911194Y-92329249D01*
X175936582Y-92152671D01*
X175937224Y-92143694D01*
X175937224Y-89946621D01*
X175935780Y-89933191D01*
X175869907Y-89630376D01*
X175861277Y-89609542D01*
X175731255Y-89407224D01*
X175719452Y-89393603D01*
X175539408Y-89237593D01*
X175524246Y-89227849D01*
X175307542Y-89128884D01*
X175290249Y-89123806D01*
X175113671Y-89098418D01*
X175104694Y-89097776D01*
X173907621Y-89097776D01*
X173894191Y-89099220D01*
X173591376Y-89165093D01*
X173570542Y-89173723D01*
X173368224Y-89303745D01*
X173354603Y-89315548D01*
X173198593Y-89495592D01*
X173188849Y-89510754D01*
X173089884Y-89727458D01*
X173084806Y-89744751D01*
X173059418Y-89921329D01*
X173058776Y-89930306D01*
X173058776Y-91400008D01*
X172700285Y-91758500D01*
X172050476Y-91758500D01*
X172048681Y-91744866D01*
X171973863Y-91465642D01*
X171961120Y-91441162D01*
X171906104Y-91375596D01*
X171907761Y-91373621D01*
X172008359Y-91199380D01*
X172015900Y-91178663D01*
X172049878Y-90985962D01*
X172050837Y-90975001D01*
X172050837Y-89461242D01*
X172048681Y-89444866D01*
X171973863Y-89165642D01*
X171961120Y-89141162D01*
X171830010Y-88984910D01*
X171813121Y-88970739D01*
X171638880Y-88870141D01*
X171618163Y-88862600D01*
X171425462Y-88828622D01*
X171414501Y-88827663D01*
X169400742Y-88827663D01*
X169384366Y-88829819D01*
X169105142Y-88904637D01*
X169080662Y-88917380D01*
X168924410Y-89048490D01*
X168910239Y-89065379D01*
X168809641Y-89239620D01*
X168802101Y-89260337D01*
X168789200Y-89333500D01*
X166653402Y-89333500D01*
X166523095Y-89258267D01*
X166507835Y-89251946D01*
X166260438Y-89185656D01*
X166244062Y-89183500D01*
X165987938Y-89183500D01*
X165971562Y-89185656D01*
X165724165Y-89251946D01*
X165708905Y-89258267D01*
X165487095Y-89386329D01*
X165473991Y-89396384D01*
X165292884Y-89577491D01*
X165282829Y-89590595D01*
X165154767Y-89812405D01*
X165148446Y-89827665D01*
X165108254Y-89977663D01*
X163100742Y-89977663D01*
X163084366Y-89979819D01*
X162805142Y-90054637D01*
X162780662Y-90067380D01*
X162624410Y-90198490D01*
X162610239Y-90215379D01*
X162509641Y-90389620D01*
X162502100Y-90410337D01*
X162468122Y-90603038D01*
X162467163Y-90613999D01*
X157794717Y-90613999D01*
X158165607Y-90243110D01*
X158165620Y-90243095D01*
X158205236Y-90203480D01*
X158216893Y-90187435D01*
X158239863Y-90142355D01*
X158269607Y-90101416D01*
X158278611Y-90083745D01*
X158294248Y-90035621D01*
X158295109Y-90033931D01*
X158493777Y-89906255D01*
X158507398Y-89894452D01*
X158612046Y-89773681D01*
X158630745Y-89802777D01*
X158642548Y-89816398D01*
X158822592Y-89972407D01*
X158837754Y-89982151D01*
X159054458Y-90081116D01*
X159071751Y-90086194D01*
X159248328Y-90111582D01*
X159257305Y-90112224D01*
X159437191Y-90112224D01*
X159511000Y-90038415D01*
X159766999Y-90038415D01*
X159840808Y-90112224D01*
X160004380Y-90112224D01*
X160017810Y-90110780D01*
X160320624Y-90044907D01*
X160341458Y-90036277D01*
X160543777Y-89906255D01*
X160557398Y-89894452D01*
X160713407Y-89714408D01*
X160723151Y-89699246D01*
X160822116Y-89482542D01*
X160827194Y-89465249D01*
X160852582Y-89288672D01*
X160853224Y-89279695D01*
X160853224Y-88974809D01*
X160779415Y-88901000D01*
X159840809Y-88900999D01*
X159767000Y-88974808D01*
X159766999Y-90038415D01*
X159511000Y-90038415D01*
X159511001Y-88974808D01*
X159511000Y-88974807D01*
X159511001Y-88645000D01*
X160779415Y-88645001D01*
X160853224Y-88571192D01*
X160853224Y-88282620D01*
X160851780Y-88269190D01*
X160785907Y-87966376D01*
X160777277Y-87945542D01*
X160735354Y-87880308D01*
X174873276Y-87880308D01*
X174873276Y-87962396D01*
X174874720Y-87975826D01*
X174940081Y-88276288D01*
X174948711Y-88297122D01*
X175077752Y-88497913D01*
X175089555Y-88511534D01*
X175268226Y-88666355D01*
X175283389Y-88676099D01*
X175498441Y-88774309D01*
X175515734Y-88779387D01*
X175690966Y-88804582D01*
X175699944Y-88805224D01*
X176010691Y-88805224D01*
X176084500Y-88731415D01*
X176340499Y-88731415D01*
X176414308Y-88805224D01*
X176708896Y-88805224D01*
X176722326Y-88803780D01*
X177022788Y-88738419D01*
X177043622Y-88729789D01*
X177244413Y-88600748D01*
X177258034Y-88588945D01*
X177412855Y-88410274D01*
X177422599Y-88395111D01*
X177520809Y-88180059D01*
X177525887Y-88162766D01*
X177551082Y-87987534D01*
X177551724Y-87978556D01*
X177551724Y-87880309D01*
X177477915Y-87806500D01*
X176414309Y-87806499D01*
X176340500Y-87880308D01*
X176340499Y-88731415D01*
X176084500Y-88731415D01*
X176084501Y-87880309D01*
X176010692Y-87806500D01*
X174947085Y-87806499D01*
X174873276Y-87880308D01*
X160735354Y-87880308D01*
X160647255Y-87743223D01*
X160637931Y-87732462D01*
X160860359Y-87672863D01*
X160884839Y-87660120D01*
X161041090Y-87529010D01*
X161055261Y-87512121D01*
X161060441Y-87503150D01*
X161135490Y-87592590D01*
X161152379Y-87606761D01*
X161326620Y-87707359D01*
X161347337Y-87714900D01*
X161540038Y-87748878D01*
X161550999Y-87749837D01*
X162564758Y-87749837D01*
X162581134Y-87747681D01*
X162860359Y-87672863D01*
X162884839Y-87660120D01*
X163041090Y-87529010D01*
X163055261Y-87512121D01*
X163060441Y-87503150D01*
X163135490Y-87592590D01*
X163152379Y-87606761D01*
X163326620Y-87707359D01*
X163347337Y-87714900D01*
X163540038Y-87748878D01*
X163550999Y-87749837D01*
X164564758Y-87749837D01*
X164581134Y-87747681D01*
X164860359Y-87672863D01*
X164884839Y-87660120D01*
X165041090Y-87529010D01*
X165055261Y-87512121D01*
X165060441Y-87503150D01*
X165135490Y-87592590D01*
X165152379Y-87606761D01*
X165326620Y-87707359D01*
X165347337Y-87714900D01*
X165540038Y-87748878D01*
X165550999Y-87749837D01*
X166564758Y-87749837D01*
X166581134Y-87747681D01*
X166860359Y-87672863D01*
X166884839Y-87660120D01*
X167041090Y-87529010D01*
X167055261Y-87512121D01*
X167060441Y-87503150D01*
X167135490Y-87592590D01*
X167152379Y-87606761D01*
X167326620Y-87707359D01*
X167347337Y-87714900D01*
X167540038Y-87748878D01*
X167550999Y-87749837D01*
X168564758Y-87749837D01*
X168581134Y-87747681D01*
X168860359Y-87672863D01*
X168884839Y-87660120D01*
X169041090Y-87529010D01*
X169055261Y-87512121D01*
X169060441Y-87503150D01*
X169135490Y-87592590D01*
X169152379Y-87606761D01*
X169326620Y-87707359D01*
X169347337Y-87714900D01*
X169540038Y-87748878D01*
X169550999Y-87749837D01*
X170564758Y-87749837D01*
X170581134Y-87747681D01*
X170860359Y-87672863D01*
X170884839Y-87660120D01*
X171041090Y-87529010D01*
X171055261Y-87512121D01*
X171155859Y-87337880D01*
X171163400Y-87317163D01*
X171197378Y-87124462D01*
X171198337Y-87113501D01*
X171198337Y-85815076D01*
X171390038Y-85848878D01*
X171400999Y-85849837D01*
X172454691Y-85849837D01*
X172528500Y-85776028D01*
X172528500Y-84909809D01*
X172454691Y-84836000D01*
X170988074Y-84836000D01*
X170977510Y-84823410D01*
X170960621Y-84809239D01*
X170786380Y-84708641D01*
X170765663Y-84701100D01*
X170572962Y-84667122D01*
X170562001Y-84666163D01*
X169548242Y-84666163D01*
X169531866Y-84668319D01*
X169252642Y-84743137D01*
X169228162Y-84755880D01*
X169071910Y-84886990D01*
X169057739Y-84903879D01*
X169052559Y-84912851D01*
X168977510Y-84823410D01*
X168960621Y-84809239D01*
X168786380Y-84708641D01*
X168765663Y-84701100D01*
X168572962Y-84667122D01*
X168562001Y-84666163D01*
X167548242Y-84666163D01*
X167531866Y-84668319D01*
X167252642Y-84743137D01*
X167228162Y-84755880D01*
X167071910Y-84886990D01*
X167057739Y-84903879D01*
X167052559Y-84912851D01*
X166977510Y-84823410D01*
X166960621Y-84809239D01*
X166786380Y-84708641D01*
X166765663Y-84701100D01*
X166572962Y-84667122D01*
X166562001Y-84666163D01*
X165548242Y-84666163D01*
X165531866Y-84668319D01*
X165252642Y-84743137D01*
X165228162Y-84755880D01*
X165071910Y-84886990D01*
X165057739Y-84903879D01*
X165052559Y-84912851D01*
X164977510Y-84823410D01*
X164960621Y-84809239D01*
X164786380Y-84708641D01*
X164765663Y-84701100D01*
X164572962Y-84667122D01*
X164562001Y-84666163D01*
X163548242Y-84666163D01*
X163531866Y-84668319D01*
X163252642Y-84743137D01*
X163228162Y-84755880D01*
X163071910Y-84886990D01*
X163057739Y-84903879D01*
X163052559Y-84912851D01*
X162977510Y-84823410D01*
X162960621Y-84809239D01*
X162786380Y-84708641D01*
X162765663Y-84701100D01*
X162572962Y-84667122D01*
X162562001Y-84666163D01*
X161548242Y-84666163D01*
X161531866Y-84668319D01*
X161252642Y-84743137D01*
X161228162Y-84755880D01*
X161071910Y-84886990D01*
X161057739Y-84903879D01*
X161052559Y-84912851D01*
X160977510Y-84823410D01*
X160960621Y-84809239D01*
X160786380Y-84708641D01*
X160765663Y-84701100D01*
X160572962Y-84667122D01*
X160562001Y-84666163D01*
X160376207Y-84666163D01*
X160409733Y-84608095D01*
X160416054Y-84592835D01*
X160482344Y-84345438D01*
X160484500Y-84329062D01*
X160484500Y-84072938D01*
X160482344Y-84056562D01*
X160416054Y-83809165D01*
X160409733Y-83793905D01*
X160281671Y-83572095D01*
X160271616Y-83558991D01*
X160090509Y-83377884D01*
X160077405Y-83367829D01*
X159855595Y-83239767D01*
X159840335Y-83233446D01*
X159592938Y-83167156D01*
X159576562Y-83165000D01*
X159348337Y-83165000D01*
X159348337Y-82199742D01*
X159346181Y-82183366D01*
X159271363Y-81904142D01*
X159258620Y-81879662D01*
X159127510Y-81723410D01*
X159110621Y-81709239D01*
X159101649Y-81704059D01*
X159116058Y-81691968D01*
X159304062Y-81742344D01*
X159320438Y-81744500D01*
X159576562Y-81744500D01*
X159592938Y-81742344D01*
X159840335Y-81676054D01*
X159855595Y-81669733D01*
X160077405Y-81541671D01*
X160090509Y-81531616D01*
X160271616Y-81350509D01*
X160281671Y-81337405D01*
X160409733Y-81115595D01*
X160416054Y-81100335D01*
X160482344Y-80852938D01*
X160484500Y-80836562D01*
X160484500Y-80580438D01*
X160482344Y-80564062D01*
X160416054Y-80316665D01*
X160409733Y-80301405D01*
X160281671Y-80079595D01*
X160271616Y-80066491D01*
X160090509Y-79885384D01*
X160077405Y-79875329D01*
X159855595Y-79747267D01*
X159840335Y-79740946D01*
X159592938Y-79674656D01*
X159576562Y-79672500D01*
X159320438Y-79672500D01*
X159304062Y-79674656D01*
X159126202Y-79722314D01*
X159110621Y-79709239D01*
X159101650Y-79704059D01*
X159191090Y-79629010D01*
X159205261Y-79612121D01*
X159305859Y-79437880D01*
X159313400Y-79417163D01*
X159347378Y-79224462D01*
X159348337Y-79213501D01*
X159348337Y-78199742D01*
X159346181Y-78183366D01*
X159271363Y-77904142D01*
X159258620Y-77879662D01*
X159127510Y-77723410D01*
X159110621Y-77709239D01*
X159101650Y-77704059D01*
X159191090Y-77629010D01*
X159205261Y-77612121D01*
X159305859Y-77437880D01*
X159313400Y-77417163D01*
X159347378Y-77224462D01*
X159348337Y-77213501D01*
X159348337Y-76199742D01*
X159346181Y-76183366D01*
X159271363Y-75904142D01*
X159258620Y-75879662D01*
X159127510Y-75723410D01*
X159110621Y-75709239D01*
X159101650Y-75704059D01*
X159191090Y-75629010D01*
X159205261Y-75612121D01*
X159305859Y-75437880D01*
X159313400Y-75417163D01*
X159347378Y-75224462D01*
X159348337Y-75213501D01*
X159348337Y-74199742D01*
X159346181Y-74183366D01*
X159271363Y-73904142D01*
X159258620Y-73879662D01*
X159127510Y-73723410D01*
X159110621Y-73709239D01*
X159101650Y-73704059D01*
X159191090Y-73629010D01*
X159205261Y-73612121D01*
X159305859Y-73437880D01*
X159313400Y-73417163D01*
X159347378Y-73224462D01*
X159348337Y-73213501D01*
X159348337Y-72199742D01*
X159346181Y-72183366D01*
X159271363Y-71904142D01*
X159258620Y-71879662D01*
X159127510Y-71723410D01*
X159110621Y-71709239D01*
X159101650Y-71704059D01*
X159191090Y-71629010D01*
X159205261Y-71612121D01*
X159305859Y-71437880D01*
X159313400Y-71417163D01*
X159347378Y-71224462D01*
X159348337Y-71213501D01*
X159348337Y-70199742D01*
X159346181Y-70183366D01*
X159300138Y-70011530D01*
X170794071Y-70030192D01*
X170765622Y-70191538D01*
X170764663Y-70202499D01*
X170764663Y-71216258D01*
X170766819Y-71232634D01*
X170841637Y-71511859D01*
X170854380Y-71536339D01*
X170985490Y-71692590D01*
X171002379Y-71706761D01*
X171011351Y-71711941D01*
X170921910Y-71786990D01*
X170907739Y-71803879D01*
X170807141Y-71978120D01*
X170799600Y-71998837D01*
X170765622Y-72191538D01*
X170764663Y-72202499D01*
X170764663Y-73216258D01*
X170766819Y-73232634D01*
X170841637Y-73511859D01*
X170854380Y-73536339D01*
X170985490Y-73692590D01*
X171002379Y-73706761D01*
X171011351Y-73711941D01*
X170994554Y-73726035D01*
X170800938Y-73674156D01*
X170784562Y-73672000D01*
X170528438Y-73672000D01*
X170512062Y-73674156D01*
X170264665Y-73740446D01*
X170249405Y-73746767D01*
X170027595Y-73874829D01*
X170014491Y-73884884D01*
X169833384Y-74065991D01*
X169823329Y-74079095D01*
X169695267Y-74300905D01*
X169688946Y-74316165D01*
X169622656Y-74563562D01*
X169620500Y-74579938D01*
X169620500Y-74836062D01*
X169622656Y-74852438D01*
X169688946Y-75099835D01*
X169695267Y-75115095D01*
X169823329Y-75336905D01*
X169833384Y-75350009D01*
X170014491Y-75531116D01*
X170027595Y-75541171D01*
X170249405Y-75669233D01*
X170264665Y-75675554D01*
X170512062Y-75741844D01*
X170528438Y-75744000D01*
X170784562Y-75744000D01*
X170800938Y-75741844D01*
X170985356Y-75692429D01*
X170985491Y-75692590D01*
X171002380Y-75706762D01*
X171011350Y-75711941D01*
X170921910Y-75786990D01*
X170907739Y-75803879D01*
X170825108Y-75947000D01*
X170823321Y-75947000D01*
X170823309Y-75947001D01*
X170768010Y-75947001D01*
X170748422Y-75950103D01*
X170700308Y-75965736D01*
X170650323Y-75973653D01*
X170631462Y-75979782D01*
X170586379Y-76002753D01*
X170538254Y-76018390D01*
X170520582Y-76027394D01*
X170479647Y-76057136D01*
X170434566Y-76080106D01*
X170418520Y-76091764D01*
X170262093Y-76248191D01*
X170262088Y-76248198D01*
X170101197Y-76409089D01*
X170101190Y-76409094D01*
X169944763Y-76565522D01*
X169933106Y-76581567D01*
X169910138Y-76626645D01*
X169880394Y-76667583D01*
X169871390Y-76685255D01*
X169855753Y-76733380D01*
X169832782Y-76778463D01*
X169826653Y-76797324D01*
X169818736Y-76847309D01*
X169803103Y-76895423D01*
X169800001Y-76915011D01*
X169800001Y-76970310D01*
X169800000Y-76970322D01*
X169800000Y-77019876D01*
X169737884Y-77081991D01*
X169727829Y-77095095D01*
X169599767Y-77316905D01*
X169593446Y-77332165D01*
X169527156Y-77579562D01*
X169525000Y-77595938D01*
X169525000Y-77852062D01*
X169527156Y-77868438D01*
X169593446Y-78115835D01*
X169599767Y-78131095D01*
X169727829Y-78352905D01*
X169737884Y-78366009D01*
X169918991Y-78547116D01*
X169932095Y-78557171D01*
X170153905Y-78685233D01*
X170169165Y-78691554D01*
X170416562Y-78757844D01*
X170432938Y-78760000D01*
X170689063Y-78760000D01*
X170705438Y-78757844D01*
X170764663Y-78741975D01*
X170764663Y-79216258D01*
X170766819Y-79232634D01*
X170841637Y-79511859D01*
X170854380Y-79536339D01*
X170985490Y-79692590D01*
X171002379Y-79706761D01*
X171011351Y-79711941D01*
X170921910Y-79786990D01*
X170907739Y-79803879D01*
X170807141Y-79978120D01*
X170799600Y-79998837D01*
X170765622Y-80191538D01*
X170764663Y-80202499D01*
X170764663Y-81216258D01*
X170766819Y-81232634D01*
X170841637Y-81511859D01*
X170854380Y-81536339D01*
X170985490Y-81692590D01*
X171002379Y-81706761D01*
X171011351Y-81711941D01*
X170921910Y-81786990D01*
X170907739Y-81803879D01*
X170807141Y-81978120D01*
X170799600Y-81998837D01*
X170765622Y-82191538D01*
X170764663Y-82202499D01*
X170764663Y-83216258D01*
X170766819Y-83232634D01*
X170841637Y-83511859D01*
X170854380Y-83536339D01*
X170985490Y-83692590D01*
X171002379Y-83706761D01*
X171011351Y-83711941D01*
X170921910Y-83786990D01*
X170907739Y-83803879D01*
X170807141Y-83978120D01*
X170799600Y-83998837D01*
X170765622Y-84191538D01*
X170764663Y-84202499D01*
X170764663Y-84506191D01*
X170838472Y-84580000D01*
X172784500Y-84580000D01*
X172784500Y-85776028D01*
X172858309Y-85849837D01*
X173914758Y-85849837D01*
X173931134Y-85847681D01*
X173985374Y-85833148D01*
X173998890Y-85874745D01*
X174007894Y-85892417D01*
X174037638Y-85933355D01*
X174060606Y-85978433D01*
X174072263Y-85994478D01*
X174221508Y-86143724D01*
X174497520Y-86419736D01*
X174513566Y-86431394D01*
X174558653Y-86454368D01*
X174599584Y-86484106D01*
X174617255Y-86493110D01*
X174665371Y-86508744D01*
X174710461Y-86531718D01*
X174729323Y-86537847D01*
X174779305Y-86545763D01*
X174827420Y-86561396D01*
X174847008Y-86564499D01*
X174902309Y-86564499D01*
X174902321Y-86564500D01*
X175040212Y-86564500D01*
X175077752Y-86622913D01*
X175089555Y-86636534D01*
X175207646Y-86738862D01*
X175180587Y-86756252D01*
X175166966Y-86768055D01*
X175012145Y-86946726D01*
X175002401Y-86961889D01*
X174904191Y-87176941D01*
X174899113Y-87194234D01*
X174873918Y-87369466D01*
X174873276Y-87378444D01*
X174873276Y-87476691D01*
X174947085Y-87550500D01*
X176010692Y-87550501D01*
X176010693Y-87550500D01*
X177477915Y-87550501D01*
X177551724Y-87476692D01*
X177551724Y-87394604D01*
X177550280Y-87381174D01*
X177484919Y-87080712D01*
X177476289Y-87059878D01*
X177347248Y-86859087D01*
X177335445Y-86845466D01*
X177217354Y-86743138D01*
X177244413Y-86725748D01*
X177258034Y-86713945D01*
X177412855Y-86535274D01*
X177422599Y-86520111D01*
X177520809Y-86305059D01*
X177525887Y-86287766D01*
X177551082Y-86112534D01*
X177551724Y-86103556D01*
X177551724Y-85519604D01*
X177550280Y-85506174D01*
X177484919Y-85205712D01*
X177476289Y-85184878D01*
X177347248Y-84984087D01*
X177335445Y-84970466D01*
X177156774Y-84815645D01*
X177141611Y-84805901D01*
X176926559Y-84707691D01*
X176909266Y-84702613D01*
X176734034Y-84677418D01*
X176725056Y-84676776D01*
X175716104Y-84676776D01*
X175702674Y-84678220D01*
X175449500Y-84733294D01*
X175449500Y-84549837D01*
X176010691Y-84549837D01*
X176084500Y-84476028D01*
X176340499Y-84476028D01*
X176414308Y-84549837D01*
X177070758Y-84549837D01*
X177087134Y-84547681D01*
X177366359Y-84472863D01*
X177390839Y-84460120D01*
X177547090Y-84329010D01*
X177561261Y-84312121D01*
X177661859Y-84137880D01*
X177669400Y-84117163D01*
X177703378Y-83924462D01*
X177704337Y-83913501D01*
X177704337Y-83259809D01*
X177630528Y-83186000D01*
X176414309Y-83185999D01*
X176340500Y-83259808D01*
X176340499Y-84476028D01*
X176084500Y-84476028D01*
X176084501Y-83259808D01*
X176084500Y-83259807D01*
X176084501Y-82930000D01*
X177630528Y-82930001D01*
X177704337Y-82856192D01*
X177704337Y-82199742D01*
X177702181Y-82183366D01*
X177627363Y-81904142D01*
X177614620Y-81879662D01*
X177483510Y-81723410D01*
X177466621Y-81709239D01*
X177292380Y-81608641D01*
X177271663Y-81601100D01*
X177236825Y-81594957D01*
X177266145Y-81570004D01*
X177273658Y-81562424D01*
X177428333Y-81377435D01*
X177434462Y-81368698D01*
X177555756Y-81160294D01*
X177560325Y-81150650D01*
X177644772Y-80924787D01*
X177647651Y-80914511D01*
X177692892Y-80677351D01*
X177694007Y-80666128D01*
X177696577Y-80398341D01*
X177695678Y-80387099D01*
X177654999Y-80149114D01*
X177652317Y-80138784D01*
X177572223Y-79911343D01*
X177567839Y-79901612D01*
X177450567Y-79690916D01*
X177444607Y-79682064D01*
X177293513Y-79494140D01*
X177286147Y-79486417D01*
X177105549Y-79326638D01*
X177096986Y-79320267D01*
X176973500Y-79243703D01*
X176973500Y-78891641D01*
X177022788Y-78880919D01*
X177043622Y-78872289D01*
X177244413Y-78743248D01*
X177258034Y-78731445D01*
X177412855Y-78552774D01*
X177422599Y-78537611D01*
X177520809Y-78322559D01*
X177525887Y-78305266D01*
X177551082Y-78130034D01*
X177551724Y-78121056D01*
X177551724Y-77537104D01*
X177550280Y-77523674D01*
X177484919Y-77223212D01*
X177476289Y-77202378D01*
X177347248Y-77001587D01*
X177335445Y-76987966D01*
X177320704Y-76975193D01*
X177338062Y-76979844D01*
X177354438Y-76982000D01*
X177610562Y-76982000D01*
X177626938Y-76979844D01*
X177874335Y-76913554D01*
X177889595Y-76907233D01*
X178111405Y-76779171D01*
X178124509Y-76769116D01*
X178305616Y-76588009D01*
X178315671Y-76574905D01*
X178443733Y-76353095D01*
X178450054Y-76337835D01*
X178516344Y-76090438D01*
X178518500Y-76074062D01*
X178518500Y-75817938D01*
X178516344Y-75801562D01*
X178450054Y-75554165D01*
X178443733Y-75538905D01*
X178315671Y-75317095D01*
X178305616Y-75303991D01*
X178124509Y-75122884D01*
X178111405Y-75112829D01*
X177889595Y-74984767D01*
X177874335Y-74978446D01*
X177626938Y-74912156D01*
X177610562Y-74910000D01*
X177354438Y-74910000D01*
X177338062Y-74912156D01*
X177159053Y-74960121D01*
X177156774Y-74958146D01*
X177141612Y-74948401D01*
X176926559Y-74850191D01*
X176909266Y-74845113D01*
X176734034Y-74819918D01*
X176725056Y-74819276D01*
X175716104Y-74819276D01*
X175702674Y-74820720D01*
X175402212Y-74886081D01*
X175381378Y-74894711D01*
X175180587Y-75023752D01*
X175166966Y-75035555D01*
X175012145Y-75214226D01*
X175002401Y-75229389D01*
X174904191Y-75444441D01*
X174899113Y-75461734D01*
X174873918Y-75636966D01*
X174873276Y-75645944D01*
X174873276Y-76229896D01*
X174874720Y-76243326D01*
X174940081Y-76543788D01*
X174948711Y-76564622D01*
X175077752Y-76765413D01*
X175089555Y-76779034D01*
X175207646Y-76881362D01*
X175180587Y-76898752D01*
X175166966Y-76910555D01*
X175012145Y-77089226D01*
X175002401Y-77104389D01*
X174904191Y-77319441D01*
X174899113Y-77336734D01*
X174873918Y-77511966D01*
X174873276Y-77520944D01*
X174873276Y-77947000D01*
X174482847Y-77947000D01*
X174471363Y-77904142D01*
X174458620Y-77879662D01*
X174327510Y-77723410D01*
X174310621Y-77709239D01*
X174301650Y-77704059D01*
X174391090Y-77629010D01*
X174405261Y-77612121D01*
X174505859Y-77437880D01*
X174513400Y-77417163D01*
X174547378Y-77224462D01*
X174548337Y-77213501D01*
X174548337Y-76199742D01*
X174546181Y-76183366D01*
X174471363Y-75904142D01*
X174458620Y-75879662D01*
X174327510Y-75723410D01*
X174310621Y-75709239D01*
X174301650Y-75704059D01*
X174391090Y-75629010D01*
X174405261Y-75612121D01*
X174505859Y-75437880D01*
X174513400Y-75417163D01*
X174547378Y-75224462D01*
X174548337Y-75213501D01*
X174548337Y-74199742D01*
X174546181Y-74183366D01*
X174471363Y-73904142D01*
X174458620Y-73879662D01*
X174327510Y-73723410D01*
X174310621Y-73709239D01*
X174301650Y-73704059D01*
X174391090Y-73629010D01*
X174405261Y-73612121D01*
X174487892Y-73469000D01*
X174593663Y-73469000D01*
X174593663Y-74073758D01*
X174595819Y-74090134D01*
X174670637Y-74369359D01*
X174683380Y-74393839D01*
X174814490Y-74550090D01*
X174831379Y-74564261D01*
X175005620Y-74664859D01*
X175026337Y-74672400D01*
X175219038Y-74706378D01*
X175229999Y-74707337D01*
X176943758Y-74707337D01*
X176960134Y-74705181D01*
X177239359Y-74630363D01*
X177263839Y-74617620D01*
X177420090Y-74486510D01*
X177434261Y-74469621D01*
X177534859Y-74295380D01*
X177542400Y-74274663D01*
X177576378Y-74081962D01*
X177577337Y-74071001D01*
X177577337Y-72357242D01*
X177575181Y-72340866D01*
X177500363Y-72061642D01*
X177487620Y-72037162D01*
X177356510Y-71880910D01*
X177339621Y-71866739D01*
X177165380Y-71766141D01*
X177144663Y-71758600D01*
X177109825Y-71752457D01*
X177139145Y-71727504D01*
X177146658Y-71719924D01*
X177301333Y-71534935D01*
X177307462Y-71526198D01*
X177428756Y-71317794D01*
X177433325Y-71308150D01*
X177517772Y-71082287D01*
X177520651Y-71072011D01*
X177565892Y-70834851D01*
X177567007Y-70823628D01*
X177569577Y-70555841D01*
X177568678Y-70544599D01*
X177527999Y-70306614D01*
X177525317Y-70296284D01*
X177445223Y-70068843D01*
X177440839Y-70059112D01*
X177323567Y-69848416D01*
X177317607Y-69839564D01*
X177166513Y-69651640D01*
X177159147Y-69643917D01*
X176978549Y-69484138D01*
X176969986Y-69477767D01*
X176765049Y-69350702D01*
X176755536Y-69345865D01*
X176532119Y-69255145D01*
X176521927Y-69251980D01*
X176349185Y-69214000D01*
X179071001Y-69214000D01*
X179071000Y-114809000D01*
X147192000Y-114809000D01*
X147192000Y-111946100D01*
X174073597Y-111946100D01*
X174073597Y-111954900D01*
X174093800Y-112243820D01*
X174095025Y-112252535D01*
X174155241Y-112535832D01*
X174157667Y-112544291D01*
X174256726Y-112816450D01*
X174260305Y-112824489D01*
X174396275Y-113080214D01*
X174400939Y-113087677D01*
X174571177Y-113321990D01*
X174576834Y-113328731D01*
X174778025Y-113537070D01*
X174784564Y-113542958D01*
X175012793Y-113721270D01*
X175020088Y-113726191D01*
X175270911Y-113871004D01*
X175278821Y-113874862D01*
X175547358Y-113983358D01*
X175555728Y-113986078D01*
X175836750Y-114056144D01*
X175845416Y-114057672D01*
X176133456Y-114087947D01*
X176142251Y-114088254D01*
X176431701Y-114078146D01*
X176440453Y-114077226D01*
X176725678Y-114026933D01*
X176734216Y-114024804D01*
X177009668Y-113935304D01*
X177017827Y-113932008D01*
X177278141Y-113805044D01*
X177285763Y-113800644D01*
X177525873Y-113638687D01*
X177532808Y-113633269D01*
X177748041Y-113439472D01*
X177754154Y-113433142D01*
X177940323Y-113211276D01*
X177945495Y-113204156D01*
X178098974Y-112958539D01*
X178103105Y-112950769D01*
X178220906Y-112686182D01*
X178223916Y-112677913D01*
X178303748Y-112399507D01*
X178305577Y-112390899D01*
X178345886Y-112104092D01*
X178346500Y-112095313D01*
X178346500Y-111805687D01*
X178345886Y-111796908D01*
X178305577Y-111510101D01*
X178303748Y-111501493D01*
X178223916Y-111223087D01*
X178220906Y-111214818D01*
X178103105Y-110950231D01*
X178098974Y-110942461D01*
X177945495Y-110696844D01*
X177940323Y-110689724D01*
X177754154Y-110467858D01*
X177748041Y-110461528D01*
X177532808Y-110267731D01*
X177525873Y-110262313D01*
X177285763Y-110100356D01*
X177278141Y-110095956D01*
X177017827Y-109968992D01*
X177009668Y-109965696D01*
X176734216Y-109876196D01*
X176725678Y-109874067D01*
X176440453Y-109823774D01*
X176431701Y-109822854D01*
X176142251Y-109812746D01*
X176133456Y-109813053D01*
X175845416Y-109843328D01*
X175836750Y-109844856D01*
X175555728Y-109914922D01*
X175547358Y-109917642D01*
X175278821Y-110026138D01*
X175270911Y-110029996D01*
X175020088Y-110174809D01*
X175012793Y-110179730D01*
X174784564Y-110358042D01*
X174778025Y-110363930D01*
X174576834Y-110572269D01*
X174571177Y-110579010D01*
X174400939Y-110813323D01*
X174396275Y-110820786D01*
X174260305Y-111076511D01*
X174256726Y-111084550D01*
X174157667Y-111356709D01*
X174155241Y-111365168D01*
X174095025Y-111648465D01*
X174093800Y-111657180D01*
X174073597Y-111946100D01*
X147192000Y-111946100D01*
X147192000Y-109421809D01*
X163555276Y-109421809D01*
X163555276Y-110360378D01*
X163556720Y-110373808D01*
X163622593Y-110676623D01*
X163631223Y-110697457D01*
X163761245Y-110899776D01*
X163773048Y-110913397D01*
X163953092Y-111069407D01*
X163968254Y-111079151D01*
X164184959Y-111178116D01*
X164202252Y-111183194D01*
X164378830Y-111208582D01*
X164387807Y-111209224D01*
X165342691Y-111209224D01*
X165416500Y-111135415D01*
X165416500Y-109421809D01*
X165672500Y-109421809D01*
X165672500Y-111135415D01*
X165746309Y-111209224D01*
X166684878Y-111209224D01*
X166698308Y-111207780D01*
X167001123Y-111141907D01*
X167021957Y-111133277D01*
X167224276Y-111003255D01*
X167237897Y-110991452D01*
X167393907Y-110811408D01*
X167403651Y-110796246D01*
X167502616Y-110579541D01*
X167507694Y-110562248D01*
X167533082Y-110385670D01*
X167533724Y-110376693D01*
X167533724Y-109421809D01*
X167459915Y-109348000D01*
X165746309Y-109348000D01*
X165672500Y-109421809D01*
X165416500Y-109421809D01*
X165342691Y-109348000D01*
X163629085Y-109348000D01*
X163555276Y-109421809D01*
X147192000Y-109421809D01*
X147192000Y-106391957D01*
X157942522Y-106391957D01*
X157942970Y-106401297D01*
X157975954Y-106669926D01*
X157977778Y-106679097D01*
X158050106Y-106939900D01*
X158053266Y-106948701D01*
X158163347Y-107195949D01*
X158167773Y-107204186D01*
X158313191Y-107432447D01*
X158318785Y-107439939D01*
X158496346Y-107644198D01*
X158502986Y-107650781D01*
X158708788Y-107826552D01*
X158716329Y-107832082D01*
X158945850Y-107975502D01*
X158954125Y-107979855D01*
X159202324Y-108087776D01*
X159211152Y-108090859D01*
X159472576Y-108160907D01*
X159481762Y-108162651D01*
X159750669Y-108193289D01*
X159760013Y-108193656D01*
X160030495Y-108184211D01*
X160039790Y-108183193D01*
X160305904Y-108133871D01*
X160314946Y-108131490D01*
X160512965Y-108063307D01*
X163555276Y-108063307D01*
X163555276Y-109018191D01*
X163629085Y-109092000D01*
X165342691Y-109092000D01*
X165416500Y-109018191D01*
X165416500Y-107304585D01*
X165672500Y-107304585D01*
X165672500Y-109018191D01*
X165746309Y-109092000D01*
X167459915Y-109092000D01*
X167533724Y-109018191D01*
X167533724Y-108079622D01*
X167532280Y-108066192D01*
X167466407Y-107763377D01*
X167457777Y-107742543D01*
X167327755Y-107540224D01*
X167315952Y-107526603D01*
X167135908Y-107370593D01*
X167120746Y-107360849D01*
X166904041Y-107261884D01*
X166886748Y-107256806D01*
X166710170Y-107231418D01*
X166701193Y-107230776D01*
X165746309Y-107230776D01*
X165672500Y-107304585D01*
X165416500Y-107304585D01*
X165342691Y-107230776D01*
X164404122Y-107230776D01*
X164390692Y-107232220D01*
X164087877Y-107298093D01*
X164067043Y-107306723D01*
X163864724Y-107436745D01*
X163851103Y-107448548D01*
X163695093Y-107628592D01*
X163685349Y-107643754D01*
X163586384Y-107860459D01*
X163581306Y-107877752D01*
X163555918Y-108054330D01*
X163555276Y-108063307D01*
X160512965Y-108063307D01*
X160570847Y-108043377D01*
X160579438Y-108039686D01*
X160819505Y-107914716D01*
X160827457Y-107909795D01*
X161046414Y-107750713D01*
X161053551Y-107744671D01*
X161246589Y-107554973D01*
X161252754Y-107547943D01*
X161415634Y-107331795D01*
X161420692Y-107323931D01*
X161492325Y-107192000D01*
X161684705Y-107192000D01*
X161703333Y-107196215D01*
X161721228Y-107197655D01*
X161812376Y-107192000D01*
X161843016Y-107192000D01*
X161851958Y-107191363D01*
X161874357Y-107188155D01*
X161956426Y-107183063D01*
X161974006Y-107179423D01*
X161999439Y-107170242D01*
X162026211Y-107166408D01*
X162043442Y-107161369D01*
X162118316Y-107127327D01*
X162195840Y-107099340D01*
X162212007Y-107090680D01*
X162232871Y-107075241D01*
X162257961Y-107063834D01*
X162273086Y-107054161D01*
X162344391Y-106992720D01*
X162363094Y-106978881D01*
X162370178Y-106972777D01*
X162386622Y-106956332D01*
X162451608Y-106900337D01*
X162463410Y-106886808D01*
X162476791Y-106866163D01*
X163916318Y-105426637D01*
X164789858Y-105426637D01*
X164806234Y-105424481D01*
X165085459Y-105349663D01*
X165109939Y-105336920D01*
X165266190Y-105205810D01*
X165280361Y-105188921D01*
X165380959Y-105014680D01*
X165388500Y-104993963D01*
X165422478Y-104801262D01*
X165423437Y-104790301D01*
X165423437Y-103476542D01*
X165421281Y-103460166D01*
X165346463Y-103180942D01*
X165333720Y-103156462D01*
X165202610Y-103000210D01*
X165185721Y-102986039D01*
X165011480Y-102885441D01*
X164990763Y-102877900D01*
X164798062Y-102843922D01*
X164787101Y-102842963D01*
X163073342Y-102842963D01*
X163056966Y-102845119D01*
X162777742Y-102919937D01*
X162753262Y-102932680D01*
X162597010Y-103063790D01*
X162582839Y-103080679D01*
X162482241Y-103254920D01*
X162474700Y-103275637D01*
X162440722Y-103468338D01*
X162439763Y-103479299D01*
X162439763Y-104397208D01*
X161469038Y-105367934D01*
X161467146Y-105364624D01*
X161315802Y-105140247D01*
X161310013Y-105132904D01*
X161127167Y-104933363D01*
X161120357Y-104926956D01*
X160910025Y-104756632D01*
X160902342Y-104751303D01*
X160669146Y-104613939D01*
X160660759Y-104609803D01*
X160409820Y-104508417D01*
X160400914Y-104505567D01*
X160137746Y-104442385D01*
X160128517Y-104440882D01*
X159858900Y-104417294D01*
X159849550Y-104417172D01*
X159579408Y-104433694D01*
X159570143Y-104434955D01*
X159305411Y-104491225D01*
X159296434Y-104493842D01*
X159042928Y-104588625D01*
X159034436Y-104592539D01*
X158797723Y-104723752D01*
X158789903Y-104728878D01*
X158575185Y-104893638D01*
X158568209Y-104899864D01*
X158380202Y-105094550D01*
X158374222Y-105101739D01*
X158217057Y-105322078D01*
X158212207Y-105330072D01*
X158089336Y-105571219D01*
X158085720Y-105579842D01*
X157999843Y-105836502D01*
X157997541Y-105845565D01*
X157950543Y-106112100D01*
X157949607Y-106121404D01*
X157942522Y-106391957D01*
X147192000Y-106391957D01*
X147192000Y-97550499D01*
X157937663Y-97550499D01*
X157937663Y-100064258D01*
X157939819Y-100080634D01*
X158014637Y-100359859D01*
X158027380Y-100384339D01*
X158158490Y-100540590D01*
X158175379Y-100554761D01*
X158349620Y-100655359D01*
X158370337Y-100662900D01*
X158563038Y-100696878D01*
X158573999Y-100697837D01*
X161087758Y-100697837D01*
X161104134Y-100695681D01*
X161383359Y-100620863D01*
X161407839Y-100608120D01*
X161564090Y-100477010D01*
X161578261Y-100460121D01*
X161678859Y-100285880D01*
X161686400Y-100265163D01*
X161720378Y-100072462D01*
X161721337Y-100061501D01*
X161721337Y-99888489D01*
X162454801Y-99888489D01*
X162440722Y-99968338D01*
X162439763Y-99979299D01*
X162439763Y-101293058D01*
X162441919Y-101309434D01*
X162516737Y-101588659D01*
X162529480Y-101613139D01*
X162660590Y-101769390D01*
X162677479Y-101783561D01*
X162851720Y-101884159D01*
X162872437Y-101891700D01*
X163065138Y-101925678D01*
X163076099Y-101926637D01*
X164789858Y-101926637D01*
X164806234Y-101924481D01*
X165085459Y-101849663D01*
X165109939Y-101836920D01*
X165266190Y-101705810D01*
X165280361Y-101688921D01*
X165380959Y-101514680D01*
X165388500Y-101493963D01*
X165422478Y-101301262D01*
X165423437Y-101290301D01*
X165423437Y-99976542D01*
X165421281Y-99960166D01*
X165346463Y-99680942D01*
X165341411Y-99671237D01*
X165344900Y-99661652D01*
X165378878Y-99468951D01*
X165379837Y-99457990D01*
X165379837Y-98544231D01*
X165377681Y-98527855D01*
X165302863Y-98248631D01*
X165290120Y-98224151D01*
X165181185Y-98094326D01*
X165696258Y-98094326D01*
X165712634Y-98092170D01*
X165973654Y-98022230D01*
X165975081Y-98028788D01*
X165983711Y-98049622D01*
X166112752Y-98250413D01*
X166124555Y-98264034D01*
X166226982Y-98352789D01*
X166200587Y-98369752D01*
X166186966Y-98381555D01*
X166032145Y-98560226D01*
X166022401Y-98575389D01*
X165924191Y-98790441D01*
X165919113Y-98807734D01*
X165893918Y-98982966D01*
X165893276Y-98991944D01*
X165893276Y-100000896D01*
X165894720Y-100014326D01*
X165960081Y-100314788D01*
X165968711Y-100335622D01*
X166097752Y-100536413D01*
X166109555Y-100550034D01*
X166288226Y-100704855D01*
X166303389Y-100714599D01*
X166518441Y-100812809D01*
X166535734Y-100817887D01*
X166710966Y-100843082D01*
X166719944Y-100843724D01*
X167303896Y-100843724D01*
X167317326Y-100842280D01*
X167617788Y-100776919D01*
X167638622Y-100768289D01*
X167839413Y-100639248D01*
X167853034Y-100627445D01*
X167955362Y-100509354D01*
X167972752Y-100536413D01*
X167984555Y-100550034D01*
X168163226Y-100704855D01*
X168178389Y-100714599D01*
X168393441Y-100812809D01*
X168410734Y-100817887D01*
X168585966Y-100843082D01*
X168594944Y-100843724D01*
X168693191Y-100843724D01*
X168767000Y-100769915D01*
X168767000Y-99376500D01*
X169023000Y-99376500D01*
X169023000Y-100769915D01*
X169096809Y-100843724D01*
X169178896Y-100843724D01*
X169192326Y-100842280D01*
X169369005Y-100803846D01*
X169324884Y-100900458D01*
X169319806Y-100917751D01*
X169294418Y-101094329D01*
X169293776Y-101103306D01*
X169293776Y-103350379D01*
X169295220Y-103363809D01*
X169361093Y-103666624D01*
X169369723Y-103687458D01*
X169499745Y-103889776D01*
X169511548Y-103903397D01*
X169691592Y-104059407D01*
X169706754Y-104069151D01*
X169797000Y-104110366D01*
X169797001Y-107376838D01*
X169793578Y-107378225D01*
X169543451Y-107501303D01*
X169535572Y-107505916D01*
X169305833Y-107663812D01*
X169298702Y-107669514D01*
X169094161Y-107858922D01*
X169087928Y-107865594D01*
X168912872Y-108082543D01*
X168907667Y-108090045D01*
X168765763Y-108329993D01*
X168761696Y-108338168D01*
X168655915Y-108596086D01*
X168653071Y-108604762D01*
X168585631Y-108875251D01*
X168584069Y-108884246D01*
X168556383Y-109161636D01*
X168556136Y-109170763D01*
X168568781Y-109449245D01*
X168569854Y-109458312D01*
X168622569Y-109732051D01*
X168624939Y-109740868D01*
X168716617Y-110004130D01*
X168720236Y-110012513D01*
X168848957Y-110259784D01*
X168853747Y-110267556D01*
X169016814Y-110493655D01*
X169022677Y-110500655D01*
X169216676Y-110700846D01*
X169223488Y-110706925D01*
X169444354Y-110877014D01*
X169451972Y-110882047D01*
X169695077Y-111018471D01*
X169703342Y-111022351D01*
X169963594Y-111122253D01*
X169972333Y-111124900D01*
X170244281Y-111186186D01*
X170253310Y-111187543D01*
X170531256Y-111208930D01*
X170540386Y-111208970D01*
X170818509Y-111190010D01*
X170827550Y-111188731D01*
X171100023Y-111129821D01*
X171108784Y-111127250D01*
X171369898Y-111029623D01*
X171378196Y-111025815D01*
X171622483Y-110891517D01*
X171630145Y-110886551D01*
X171852486Y-110718396D01*
X171859351Y-110712376D01*
X172055089Y-110513886D01*
X172061012Y-110506938D01*
X172226047Y-110282270D01*
X172230905Y-110274540D01*
X172361780Y-110028403D01*
X172365471Y-110020052D01*
X172459443Y-109757599D01*
X172461891Y-109748803D01*
X172517159Y-109474698D01*
X172518381Y-109463930D01*
X172528684Y-109083173D01*
X172528046Y-109072354D01*
X172487681Y-108795661D01*
X172485713Y-108786745D01*
X172406072Y-108519596D01*
X172402838Y-108511057D01*
X172285467Y-108258202D01*
X172281033Y-108250220D01*
X172128389Y-108016957D01*
X172122850Y-108009699D01*
X171938132Y-107800914D01*
X171931604Y-107794531D01*
X171718682Y-107614598D01*
X171711300Y-107609225D01*
X171474633Y-107461912D01*
X171466552Y-107457661D01*
X171319000Y-107393197D01*
X171319000Y-104117787D01*
X171512776Y-103993255D01*
X171526397Y-103981452D01*
X171682407Y-103801408D01*
X171692151Y-103786246D01*
X171791116Y-103569542D01*
X171796194Y-103552249D01*
X171821582Y-103375671D01*
X171822224Y-103366694D01*
X171822224Y-102436808D01*
X172093776Y-102436808D01*
X172093776Y-103350379D01*
X172095220Y-103363809D01*
X172161093Y-103666624D01*
X172169723Y-103687458D01*
X172299745Y-103889776D01*
X172311548Y-103903397D01*
X172491592Y-104059407D01*
X172506754Y-104069151D01*
X172723458Y-104168116D01*
X172740751Y-104173194D01*
X172917329Y-104198582D01*
X172926306Y-104199224D01*
X173156191Y-104199224D01*
X173230000Y-104125415D01*
X173485999Y-104125415D01*
X173559808Y-104199224D01*
X173773379Y-104199224D01*
X173786809Y-104197780D01*
X174089624Y-104131907D01*
X174110458Y-104123277D01*
X174312776Y-103993255D01*
X174326397Y-103981452D01*
X174482407Y-103801408D01*
X174492151Y-103786246D01*
X174591116Y-103569542D01*
X174596194Y-103552249D01*
X174621582Y-103375671D01*
X174622224Y-103366694D01*
X174622224Y-102436809D01*
X174548415Y-102363000D01*
X173559809Y-102362999D01*
X173486000Y-102436808D01*
X173485999Y-104125415D01*
X173230000Y-104125415D01*
X173230001Y-102436809D01*
X173156192Y-102363000D01*
X172167585Y-102362999D01*
X172093776Y-102436808D01*
X171822224Y-102436808D01*
X171822224Y-101119621D01*
X171820780Y-101106191D01*
X171820153Y-101103306D01*
X172093776Y-101103306D01*
X172093776Y-102033191D01*
X172167585Y-102107000D01*
X173156191Y-102107001D01*
X173230000Y-102033192D01*
X173230000Y-102033191D01*
X173485999Y-102033191D01*
X173559808Y-102107000D01*
X174548415Y-102107001D01*
X174622224Y-102033192D01*
X174622224Y-101119621D01*
X174620780Y-101106191D01*
X174554907Y-100803376D01*
X174546277Y-100782542D01*
X174416255Y-100580224D01*
X174404452Y-100566603D01*
X174224408Y-100410593D01*
X174209246Y-100400849D01*
X173992542Y-100301884D01*
X173975249Y-100296806D01*
X173798671Y-100271418D01*
X173789694Y-100270776D01*
X173559809Y-100270776D01*
X173486000Y-100344585D01*
X173485999Y-102033191D01*
X173230000Y-102033191D01*
X173230001Y-100344585D01*
X173156192Y-100270776D01*
X172942621Y-100270776D01*
X172929191Y-100272220D01*
X172626376Y-100338093D01*
X172605542Y-100346723D01*
X172403224Y-100476745D01*
X172389603Y-100488548D01*
X172233593Y-100668592D01*
X172223849Y-100683754D01*
X172124884Y-100900458D01*
X172119806Y-100917751D01*
X172094418Y-101094329D01*
X172093776Y-101103306D01*
X171820153Y-101103306D01*
X171754907Y-100803376D01*
X171746277Y-100782542D01*
X171616255Y-100580224D01*
X171604452Y-100566603D01*
X171424408Y-100410593D01*
X171409245Y-100400849D01*
X171322000Y-100361006D01*
X171322000Y-100208624D01*
X171384116Y-100146509D01*
X171394171Y-100133405D01*
X171522233Y-99911595D01*
X171528554Y-99896335D01*
X171594844Y-99648938D01*
X171597000Y-99632562D01*
X171597000Y-99376438D01*
X171594844Y-99360062D01*
X171528554Y-99112665D01*
X171522233Y-99097405D01*
X171394171Y-98875595D01*
X171384116Y-98862491D01*
X171322000Y-98800376D01*
X171322000Y-98431597D01*
X171443913Y-98353248D01*
X171457534Y-98341445D01*
X171559862Y-98223354D01*
X171577252Y-98250413D01*
X171589055Y-98264034D01*
X171767726Y-98418855D01*
X171782889Y-98428599D01*
X171997941Y-98526809D01*
X172015234Y-98531887D01*
X172190466Y-98557082D01*
X172199444Y-98557724D01*
X172783396Y-98557724D01*
X172796826Y-98556280D01*
X173097288Y-98490919D01*
X173118122Y-98482289D01*
X173318913Y-98353248D01*
X173332534Y-98341445D01*
X173432036Y-98226614D01*
X173528062Y-98252344D01*
X173544438Y-98254500D01*
X173800562Y-98254500D01*
X173816938Y-98252344D01*
X174064335Y-98186054D01*
X174079595Y-98179733D01*
X174301405Y-98051671D01*
X174314509Y-98041616D01*
X174495616Y-97860509D01*
X174505671Y-97847405D01*
X174633733Y-97625595D01*
X174640054Y-97610335D01*
X174706344Y-97362938D01*
X174708500Y-97346562D01*
X174708500Y-97090438D01*
X174706344Y-97074062D01*
X174640054Y-96826665D01*
X174633733Y-96811405D01*
X174505671Y-96589595D01*
X174495616Y-96576491D01*
X174421540Y-96502415D01*
X174625999Y-96502415D01*
X174699808Y-96576224D01*
X175088379Y-96576224D01*
X175101809Y-96574780D01*
X175404624Y-96508907D01*
X175425458Y-96500277D01*
X175627776Y-96370255D01*
X175641397Y-96358452D01*
X175797407Y-96178408D01*
X175807151Y-96163246D01*
X175906116Y-95946542D01*
X175911194Y-95929249D01*
X175936582Y-95752671D01*
X175937224Y-95743694D01*
X175937224Y-94838809D01*
X175863415Y-94765000D01*
X174699809Y-94764999D01*
X174626000Y-94838808D01*
X174625999Y-96502415D01*
X174421540Y-96502415D01*
X174370000Y-96450875D01*
X174370001Y-94838809D01*
X174296192Y-94765000D01*
X173132585Y-94764999D01*
X173058776Y-94838808D01*
X173058776Y-95727379D01*
X173060220Y-95740809D01*
X173107656Y-95958872D01*
X173001059Y-95910191D01*
X172983766Y-95905113D01*
X172808534Y-95879918D01*
X172799556Y-95879276D01*
X172215604Y-95879276D01*
X172202174Y-95880720D01*
X171926814Y-95940620D01*
X172008359Y-95799380D01*
X172015900Y-95778663D01*
X172049878Y-95585962D01*
X172050837Y-95575001D01*
X172050837Y-95021309D01*
X171977028Y-94947500D01*
X170610808Y-94947499D01*
X170610807Y-94947500D01*
X169008235Y-94947499D01*
X168996244Y-94941389D01*
X168948126Y-94925755D01*
X168903039Y-94902782D01*
X168884176Y-94896653D01*
X168834193Y-94888737D01*
X168786078Y-94873103D01*
X168766489Y-94870001D01*
X168711191Y-94870001D01*
X168711179Y-94870000D01*
X168344124Y-94870000D01*
X168282009Y-94807884D01*
X168268905Y-94797829D01*
X168047095Y-94669767D01*
X168031835Y-94663446D01*
X167784438Y-94597156D01*
X167768062Y-94595000D01*
X167511938Y-94595000D01*
X167495562Y-94597156D01*
X167248165Y-94663446D01*
X167232905Y-94669767D01*
X167011095Y-94797829D01*
X166997991Y-94807884D01*
X166816884Y-94988991D01*
X166806829Y-95002095D01*
X166678767Y-95223905D01*
X166672446Y-95239165D01*
X166606156Y-95486562D01*
X166604000Y-95502938D01*
X166604000Y-95759062D01*
X166606156Y-95775438D01*
X166640056Y-95901955D01*
X166437212Y-95946081D01*
X166416378Y-95954711D01*
X166215587Y-96083752D01*
X166201966Y-96095555D01*
X166166530Y-96136450D01*
X166109010Y-96067899D01*
X166092121Y-96053728D01*
X165917880Y-95953130D01*
X165897163Y-95945589D01*
X165704462Y-95911611D01*
X165693501Y-95910652D01*
X164879742Y-95910652D01*
X164863366Y-95912808D01*
X164584142Y-95987626D01*
X164559662Y-96000369D01*
X164403410Y-96131479D01*
X164389239Y-96148368D01*
X164342664Y-96229038D01*
X164340120Y-96224151D01*
X164209010Y-96067899D01*
X164192121Y-96053728D01*
X164017880Y-95953130D01*
X163997163Y-95945589D01*
X163804462Y-95911611D01*
X163793501Y-95910652D01*
X163589809Y-95910652D01*
X163516000Y-95984461D01*
X163515999Y-96800681D01*
X163516000Y-96800682D01*
X163515999Y-98020517D01*
X163547778Y-98052296D01*
X163471275Y-98116489D01*
X161721337Y-98116489D01*
X161721337Y-97547742D01*
X161719181Y-97531366D01*
X161644363Y-97252142D01*
X161631620Y-97227662D01*
X161612015Y-97204297D01*
X162346163Y-97204297D01*
X162346163Y-97460747D01*
X162348319Y-97477123D01*
X162423137Y-97756348D01*
X162435880Y-97780828D01*
X162566990Y-97937079D01*
X162583879Y-97951250D01*
X162758120Y-98051848D01*
X162778837Y-98059389D01*
X162971538Y-98093367D01*
X162982499Y-98094326D01*
X163186191Y-98094326D01*
X163260000Y-98020517D01*
X163260001Y-97204298D01*
X163186192Y-97130489D01*
X162419972Y-97130488D01*
X162346163Y-97204297D01*
X161612015Y-97204297D01*
X161500510Y-97071410D01*
X161483621Y-97057239D01*
X161309380Y-96956641D01*
X161288663Y-96949100D01*
X161095962Y-96915122D01*
X161085001Y-96914163D01*
X158571242Y-96914163D01*
X158554866Y-96916319D01*
X158275642Y-96991137D01*
X158251162Y-97003880D01*
X158094910Y-97134990D01*
X158080739Y-97151879D01*
X157980141Y-97326120D01*
X157972600Y-97346837D01*
X157938622Y-97539538D01*
X157937663Y-97550499D01*
X147192000Y-97550499D01*
X147192000Y-96546988D01*
X162346163Y-96546988D01*
X162346163Y-96800680D01*
X162419972Y-96874489D01*
X163186191Y-96874490D01*
X163260000Y-96800681D01*
X163260001Y-95984461D01*
X163186192Y-95910652D01*
X162979742Y-95910652D01*
X162963366Y-95912808D01*
X162684142Y-95987626D01*
X162659662Y-96000369D01*
X162503410Y-96131479D01*
X162489239Y-96148368D01*
X162388641Y-96322609D01*
X162381100Y-96343326D01*
X162347122Y-96536027D01*
X162346163Y-96546988D01*
X147192000Y-96546988D01*
X147192000Y-96379560D01*
X147230405Y-96401733D01*
X147245665Y-96408054D01*
X147493062Y-96474344D01*
X147509438Y-96476500D01*
X147765562Y-96476500D01*
X147781938Y-96474344D01*
X148029335Y-96408054D01*
X148044595Y-96401733D01*
X148266405Y-96273671D01*
X148279509Y-96263616D01*
X148460616Y-96082509D01*
X148470671Y-96069405D01*
X148598733Y-95847595D01*
X148605054Y-95832335D01*
X148671344Y-95584938D01*
X148673500Y-95568562D01*
X148673500Y-95567643D01*
X148854835Y-95519054D01*
X148870095Y-95512733D01*
X149091905Y-95384671D01*
X149105009Y-95374616D01*
X149286116Y-95193509D01*
X149296171Y-95180405D01*
X149424233Y-94958595D01*
X149430554Y-94943335D01*
X149496844Y-94695938D01*
X149499000Y-94679562D01*
X149499000Y-94423438D01*
X149496844Y-94407062D01*
X149430554Y-94159665D01*
X149424233Y-94144405D01*
X149296171Y-93922595D01*
X149286116Y-93909491D01*
X149105009Y-93728384D01*
X149091905Y-93718329D01*
X148870095Y-93590267D01*
X148854835Y-93583946D01*
X148607438Y-93517656D01*
X148591062Y-93515500D01*
X148334938Y-93515500D01*
X148318562Y-93517656D01*
X148071165Y-93583946D01*
X148055905Y-93590267D01*
X147834095Y-93718329D01*
X147820991Y-93728384D01*
X147758876Y-93790500D01*
X147192000Y-93790500D01*
X147192000Y-87659308D01*
X153410276Y-87659308D01*
X153410276Y-87822880D01*
X153411720Y-87836310D01*
X153477593Y-88139124D01*
X153486223Y-88159958D01*
X153616245Y-88362277D01*
X153628048Y-88375898D01*
X153808092Y-88531907D01*
X153823254Y-88541651D01*
X154039958Y-88640616D01*
X154057251Y-88645694D01*
X154233828Y-88671082D01*
X154242805Y-88671724D01*
X154547691Y-88671724D01*
X154621500Y-88597915D01*
X154877499Y-88597915D01*
X154951308Y-88671724D01*
X155239880Y-88671724D01*
X155253310Y-88670280D01*
X155556124Y-88604407D01*
X155576958Y-88595777D01*
X155779277Y-88465755D01*
X155792898Y-88453952D01*
X155948907Y-88273908D01*
X155958651Y-88258746D01*
X156057616Y-88042042D01*
X156062694Y-88024749D01*
X156088082Y-87848172D01*
X156088724Y-87839195D01*
X156088724Y-87659309D01*
X156014915Y-87585500D01*
X154951309Y-87585499D01*
X154877500Y-87659308D01*
X154877499Y-88597915D01*
X154621500Y-88597915D01*
X154621501Y-87659309D01*
X154547692Y-87585500D01*
X153484085Y-87585499D01*
X153410276Y-87659308D01*
X147192000Y-87659308D01*
X147192000Y-77814633D01*
X149829886Y-77814633D01*
X149839001Y-77930449D01*
X149999963Y-78047394D01*
X150008405Y-78052567D01*
X150249757Y-78175542D01*
X150258905Y-78179331D01*
X150516523Y-78263037D01*
X150526151Y-78265348D01*
X150793692Y-78307722D01*
X150803563Y-78308499D01*
X151074437Y-78308499D01*
X151084308Y-78307722D01*
X151351849Y-78265348D01*
X151361477Y-78263037D01*
X151619095Y-78179331D01*
X151628243Y-78175542D01*
X151869595Y-78052567D01*
X151878037Y-78047394D01*
X152038999Y-77930449D01*
X152048114Y-77814633D01*
X150991191Y-76757710D01*
X150886809Y-76757710D01*
X149829886Y-77814633D01*
X147192000Y-77814633D01*
X147192000Y-76389063D01*
X149155001Y-76389063D01*
X149155001Y-76659937D01*
X149155778Y-76669808D01*
X149198152Y-76937349D01*
X149200463Y-76946977D01*
X149284169Y-77204595D01*
X149287958Y-77213743D01*
X149410933Y-77455095D01*
X149416106Y-77463537D01*
X149533051Y-77624499D01*
X149648867Y-77633614D01*
X150705790Y-76576691D01*
X150705790Y-76472309D01*
X149648867Y-75415386D01*
X149533051Y-75424501D01*
X149416106Y-75585463D01*
X149410933Y-75593905D01*
X149287958Y-75835257D01*
X149284169Y-75844405D01*
X149200463Y-76102023D01*
X149198152Y-76111651D01*
X149155778Y-76379192D01*
X149155001Y-76389063D01*
X147192000Y-76389063D01*
X147192000Y-75234367D01*
X149829886Y-75234367D01*
X150886809Y-76291290D01*
X150991191Y-76291290D01*
X152048114Y-75234367D01*
X152038999Y-75118551D01*
X151878037Y-75001606D01*
X151869595Y-74996433D01*
X151628243Y-74873458D01*
X151619095Y-74869669D01*
X151361477Y-74785963D01*
X151351849Y-74783652D01*
X151084308Y-74741278D01*
X151074437Y-74740501D01*
X150803563Y-74740501D01*
X150793692Y-74741278D01*
X150526151Y-74783652D01*
X150516523Y-74785963D01*
X150258905Y-74869669D01*
X150249757Y-74873458D01*
X150008405Y-74996433D01*
X149999963Y-75001606D01*
X149839001Y-75118551D01*
X149829886Y-75234367D01*
X147192000Y-75234367D01*
X147192000Y-72345076D01*
X147242721Y-72548505D01*
X147246169Y-72558604D01*
X147343091Y-72779400D01*
X147348192Y-72788775D01*
X147480930Y-72990084D01*
X147487538Y-72998465D01*
X147652298Y-73174532D01*
X147660222Y-73181680D01*
X147852292Y-73327468D01*
X147861308Y-73333179D01*
X148075196Y-73444521D01*
X148085045Y-73448631D01*
X148314634Y-73522345D01*
X148325035Y-73524736D01*
X148438662Y-73540907D01*
X148525500Y-73465552D01*
X148525501Y-72274308D01*
X148525500Y-72274307D01*
X148525501Y-70678701D01*
X148440481Y-70603482D01*
X148352974Y-70614226D01*
X148342530Y-70616418D01*
X148111568Y-70685710D01*
X148101642Y-70689630D01*
X147885655Y-70796846D01*
X147876532Y-70802382D01*
X147681699Y-70944457D01*
X147673638Y-70951452D01*
X147505529Y-71124322D01*
X147498763Y-71132574D01*
X147362183Y-71331298D01*
X147356903Y-71340573D01*
X147255760Y-71559468D01*
X147252118Y-71569500D01*
X147192000Y-71792308D01*
X147192000Y-69214000D01*
X156846000Y-69214000D01*
X156846000Y-69566163D01*
%TA.AperFunction,Conductor*%
G36*
X156846000Y-69566163D02*
G01*
X156198242Y-69566163D01*
X156181866Y-69568319D01*
X155902642Y-69643137D01*
X155878162Y-69655880D01*
X155721910Y-69786990D01*
X155707739Y-69803879D01*
X155625108Y-69947000D01*
X155072821Y-69947000D01*
X155072809Y-69947001D01*
X155017510Y-69947001D01*
X154997921Y-69950103D01*
X154968151Y-69959776D01*
X154253104Y-69959776D01*
X154239674Y-69961220D01*
X153939212Y-70026581D01*
X153918378Y-70035211D01*
X153717587Y-70164252D01*
X153703966Y-70176055D01*
X153574470Y-70325500D01*
X152124321Y-70325500D01*
X152124309Y-70325501D01*
X152069010Y-70325501D01*
X152049422Y-70328603D01*
X152001308Y-70344236D01*
X151951323Y-70352153D01*
X151932462Y-70358282D01*
X151887379Y-70381252D01*
X151839255Y-70396889D01*
X151821584Y-70405893D01*
X151780645Y-70435637D01*
X151735565Y-70458607D01*
X151719520Y-70470264D01*
X151679905Y-70509880D01*
X151679890Y-70509893D01*
X151609121Y-70580663D01*
X150335242Y-70580663D01*
X150318866Y-70582819D01*
X150039642Y-70657637D01*
X150015162Y-70670380D01*
X149858910Y-70801490D01*
X149844739Y-70818379D01*
X149744141Y-70992620D01*
X149736600Y-71013337D01*
X149731021Y-71044979D01*
X149727147Y-71040917D01*
X149546549Y-70881138D01*
X149537986Y-70874767D01*
X149333049Y-70747702D01*
X149323536Y-70742865D01*
X149100119Y-70652145D01*
X149089927Y-70648980D01*
X148875596Y-70601856D01*
X148781500Y-70677511D01*
X148781499Y-71870692D01*
X148781500Y-71870693D01*
X148781499Y-73466248D01*
X148873717Y-73541862D01*
X149062519Y-73504136D01*
X149072770Y-73501167D01*
X149297887Y-73414753D01*
X149307491Y-73410100D01*
X149514830Y-73286991D01*
X149523512Y-73280786D01*
X149707145Y-73124504D01*
X149714658Y-73116924D01*
X149740903Y-73085535D01*
X149778637Y-73226359D01*
X149791380Y-73250839D01*
X149922490Y-73407090D01*
X149939379Y-73421261D01*
X150113620Y-73521859D01*
X150134337Y-73529400D01*
X150327038Y-73563378D01*
X150337999Y-73564337D01*
X152051758Y-73564337D01*
X152068134Y-73562181D01*
X152342907Y-73488556D01*
X152318656Y-73579062D01*
X152316500Y-73595438D01*
X152316500Y-73851562D01*
X152318656Y-73867938D01*
X152384946Y-74115335D01*
X152391267Y-74130595D01*
X152519329Y-74352405D01*
X152529384Y-74365509D01*
X152591500Y-74427624D01*
X152591501Y-75838779D01*
X152590042Y-75835257D01*
X152467067Y-75593905D01*
X152461894Y-75585463D01*
X152344949Y-75424501D01*
X152229133Y-75415386D01*
X151172210Y-76472309D01*
X151172210Y-76576691D01*
X152229133Y-77633614D01*
X152344949Y-77624499D01*
X152461894Y-77463537D01*
X152467067Y-77455095D01*
X152590042Y-77213743D01*
X152593831Y-77204595D01*
X152677537Y-76946977D01*
X152679848Y-76937349D01*
X152702897Y-76791825D01*
X152724608Y-76834435D01*
X152736265Y-76850480D01*
X152979552Y-77093766D01*
X152979553Y-77093769D01*
X153146520Y-77260736D01*
X153162566Y-77272394D01*
X153207653Y-77295368D01*
X153248584Y-77325106D01*
X153266255Y-77334110D01*
X153314371Y-77349744D01*
X153359461Y-77372718D01*
X153378323Y-77378847D01*
X153428305Y-77386763D01*
X153476420Y-77402396D01*
X153496008Y-77405499D01*
X153551309Y-77405499D01*
X153551321Y-77405500D01*
X153577212Y-77405500D01*
X153614752Y-77463913D01*
X153625193Y-77475963D01*
X153549145Y-77563726D01*
X153539401Y-77578889D01*
X153441191Y-77793941D01*
X153436113Y-77811234D01*
X153410918Y-77986466D01*
X153410276Y-77995444D01*
X153410276Y-78093691D01*
X153484085Y-78167500D01*
X154877500Y-78167501D01*
X154877499Y-78423500D01*
X153484085Y-78423499D01*
X153410276Y-78497308D01*
X153410276Y-78579396D01*
X153411720Y-78592826D01*
X153477081Y-78893288D01*
X153485711Y-78914122D01*
X153614752Y-79114913D01*
X153626555Y-79128534D01*
X153744646Y-79230862D01*
X153717587Y-79248252D01*
X153703966Y-79260055D01*
X153549145Y-79438726D01*
X153539401Y-79453889D01*
X153441191Y-79668941D01*
X153436113Y-79686234D01*
X153410918Y-79861466D01*
X153410276Y-79870444D01*
X153410276Y-80454396D01*
X153411720Y-80467826D01*
X153477081Y-80768288D01*
X153485711Y-80789122D01*
X153611283Y-80984516D01*
X153549145Y-81056226D01*
X153539401Y-81071389D01*
X153441191Y-81286441D01*
X153436113Y-81303734D01*
X153410918Y-81478966D01*
X153410276Y-81487944D01*
X153410276Y-82071896D01*
X153411720Y-82085326D01*
X153477081Y-82385788D01*
X153485711Y-82406622D01*
X153614752Y-82607413D01*
X153626555Y-82621034D01*
X153744646Y-82723362D01*
X153717587Y-82740752D01*
X153703966Y-82752555D01*
X153549145Y-82931226D01*
X153539401Y-82946389D01*
X153441191Y-83161441D01*
X153436113Y-83178734D01*
X153410918Y-83353966D01*
X153410276Y-83362944D01*
X153410276Y-83946896D01*
X153411720Y-83960326D01*
X153477081Y-84260788D01*
X153485711Y-84281622D01*
X153614752Y-84482413D01*
X153626555Y-84496034D01*
X153629928Y-84498957D01*
X153550093Y-84591092D01*
X153540349Y-84606254D01*
X153441384Y-84822958D01*
X153436306Y-84840251D01*
X153410918Y-85016828D01*
X153410276Y-85025805D01*
X153410276Y-85772880D01*
X153411720Y-85786310D01*
X153477593Y-86089124D01*
X153486223Y-86109958D01*
X153616245Y-86312277D01*
X153628048Y-86325898D01*
X153748819Y-86430546D01*
X153719723Y-86449245D01*
X153706102Y-86461048D01*
X153550093Y-86641092D01*
X153540349Y-86656254D01*
X153441384Y-86872958D01*
X153436306Y-86890251D01*
X153410918Y-87066828D01*
X153410276Y-87075805D01*
X153410276Y-87255691D01*
X153484085Y-87329500D01*
X154547692Y-87329501D01*
X154547693Y-87329500D01*
X156014915Y-87329501D01*
X156088724Y-87255692D01*
X156088724Y-87092120D01*
X156087280Y-87078690D01*
X156021407Y-86775876D01*
X156012777Y-86755042D01*
X155882755Y-86552723D01*
X155870952Y-86539102D01*
X155750181Y-86434454D01*
X155779277Y-86415755D01*
X155792898Y-86403952D01*
X155948907Y-86223908D01*
X155958651Y-86208746D01*
X155988854Y-86142611D01*
X155993676Y-86141847D01*
X156012539Y-86135718D01*
X156057626Y-86112745D01*
X156105744Y-86097111D01*
X156123416Y-86088106D01*
X156164347Y-86058367D01*
X156209434Y-86035394D01*
X156225480Y-86023736D01*
X156399379Y-85849837D01*
X158714758Y-85849837D01*
X158731134Y-85847681D01*
X158914663Y-85798505D01*
X158914663Y-87116258D01*
X158916819Y-87132634D01*
X158991637Y-87411859D01*
X159004380Y-87436339D01*
X159043072Y-87482451D01*
X158957376Y-87501093D01*
X158936542Y-87509723D01*
X158734223Y-87639745D01*
X158720602Y-87651548D01*
X158615954Y-87772319D01*
X158597255Y-87743223D01*
X158585452Y-87729602D01*
X158405408Y-87573593D01*
X158390246Y-87563849D01*
X158173542Y-87464884D01*
X158156249Y-87459806D01*
X157979672Y-87434418D01*
X157970695Y-87433776D01*
X157223620Y-87433776D01*
X157210190Y-87435220D01*
X156907376Y-87501093D01*
X156886542Y-87509723D01*
X156684223Y-87639745D01*
X156670602Y-87651548D01*
X156514593Y-87831592D01*
X156504849Y-87846754D01*
X156405884Y-88063458D01*
X156400806Y-88080751D01*
X156375418Y-88257328D01*
X156374776Y-88266305D01*
X156374776Y-89263380D01*
X156376220Y-89276810D01*
X156442093Y-89579624D01*
X156450723Y-89600458D01*
X156530965Y-89725318D01*
X155328194Y-90928091D01*
X155328190Y-90928094D01*
X155171763Y-91084522D01*
X155160106Y-91100567D01*
X155137138Y-91145645D01*
X155107394Y-91186583D01*
X155098390Y-91204255D01*
X155082753Y-91252380D01*
X155059782Y-91297463D01*
X155053653Y-91316324D01*
X155050810Y-91334276D01*
X154497621Y-91334276D01*
X154484191Y-91335720D01*
X154181376Y-91401593D01*
X154160542Y-91410223D01*
X153958224Y-91540245D01*
X153944603Y-91552048D01*
X153920201Y-91580209D01*
X153708189Y-91368197D01*
X153697993Y-91352037D01*
X153686357Y-91338365D01*
X153617883Y-91277892D01*
X153596240Y-91256248D01*
X153589467Y-91250376D01*
X153571380Y-91236820D01*
X153509727Y-91182371D01*
X153494722Y-91172515D01*
X153470239Y-91161021D01*
X153448604Y-91144806D01*
X153432857Y-91136184D01*
X153355864Y-91107321D01*
X153281236Y-91072283D01*
X153263681Y-91066975D01*
X153238004Y-91063137D01*
X153212201Y-91053464D01*
X153194667Y-91049609D01*
X153100821Y-91042635D01*
X153077791Y-91039193D01*
X153068466Y-91038500D01*
X153045181Y-91038500D01*
X152959664Y-91032144D01*
X152941752Y-91033365D01*
X152917697Y-91038500D01*
X152489790Y-91038500D01*
X152467067Y-90993905D01*
X152461894Y-90985463D01*
X152302677Y-90766320D01*
X152296247Y-90758791D01*
X152104709Y-90567253D01*
X152097180Y-90560823D01*
X151878037Y-90401606D01*
X151869595Y-90396433D01*
X151628243Y-90273458D01*
X151619095Y-90269669D01*
X151361477Y-90185963D01*
X151351849Y-90183652D01*
X151084308Y-90141278D01*
X151074437Y-90140501D01*
X150803563Y-90140501D01*
X150793692Y-90141278D01*
X150526151Y-90183652D01*
X150516523Y-90185963D01*
X150258905Y-90269669D01*
X150249757Y-90273458D01*
X150008405Y-90396433D01*
X149999963Y-90401606D01*
X149780820Y-90560823D01*
X149773291Y-90567253D01*
X149581753Y-90758791D01*
X149575323Y-90766320D01*
X149416106Y-90985463D01*
X149410933Y-90993905D01*
X149287958Y-91235257D01*
X149284169Y-91244405D01*
X149200463Y-91502023D01*
X149198152Y-91511651D01*
X149155778Y-91779192D01*
X149155001Y-91789063D01*
X149155001Y-92059937D01*
X149155778Y-92069808D01*
X149198152Y-92337349D01*
X149200463Y-92346977D01*
X149284169Y-92604595D01*
X149287958Y-92613743D01*
X149410933Y-92855095D01*
X149416106Y-92863537D01*
X149575323Y-93082680D01*
X149581753Y-93090209D01*
X149773291Y-93281747D01*
X149780820Y-93288177D01*
X149999963Y-93447394D01*
X150008405Y-93452567D01*
X150249757Y-93575542D01*
X150258905Y-93579331D01*
X150516523Y-93663037D01*
X150526151Y-93665348D01*
X150793692Y-93707722D01*
X150803563Y-93708499D01*
X151074437Y-93708499D01*
X151084308Y-93707722D01*
X151351849Y-93665348D01*
X151361477Y-93663037D01*
X151619095Y-93579331D01*
X151628243Y-93575542D01*
X151869595Y-93452567D01*
X151878037Y-93447394D01*
X152097180Y-93288177D01*
X152104709Y-93281747D01*
X152296247Y-93090209D01*
X152302677Y-93082680D01*
X152461894Y-92863537D01*
X152467067Y-92855095D01*
X152489790Y-92810500D01*
X152644508Y-92810500D01*
X153163813Y-93329806D01*
X153174008Y-93345964D01*
X153185643Y-93359635D01*
X153254116Y-93420108D01*
X153275759Y-93441752D01*
X153282533Y-93447625D01*
X153300636Y-93461192D01*
X153362273Y-93515628D01*
X153377277Y-93525485D01*
X153401756Y-93536978D01*
X153423394Y-93553195D01*
X153439142Y-93561816D01*
X153516144Y-93590682D01*
X153590765Y-93625717D01*
X153608321Y-93631026D01*
X153633992Y-93634862D01*
X153659797Y-93644536D01*
X153677332Y-93648391D01*
X153709713Y-93650797D01*
X153716093Y-93680124D01*
X153724723Y-93700958D01*
X153854745Y-93903276D01*
X153866548Y-93916897D01*
X154046592Y-94072907D01*
X154061754Y-94082651D01*
X154278458Y-94181616D01*
X154295751Y-94186694D01*
X154472329Y-94212082D01*
X154481306Y-94212724D01*
X154897521Y-94212724D01*
X154902000Y-94284913D01*
X154902000Y-94315552D01*
X154902637Y-94324494D01*
X154905845Y-94346893D01*
X154910937Y-94428963D01*
X154914577Y-94446543D01*
X154923758Y-94471975D01*
X154927592Y-94498748D01*
X154932631Y-94515978D01*
X154966671Y-94590848D01*
X154994660Y-94668377D01*
X155003320Y-94684543D01*
X155018759Y-94705409D01*
X155030167Y-94730498D01*
X155039839Y-94745622D01*
X155101271Y-94816917D01*
X155115119Y-94835631D01*
X155121223Y-94842715D01*
X155137669Y-94859161D01*
X155193663Y-94924145D01*
X155207191Y-94935946D01*
X155227834Y-94949327D01*
X155244252Y-94965745D01*
X155244267Y-94965758D01*
X155513309Y-95234800D01*
X155523507Y-95250963D01*
X155535143Y-95264635D01*
X155603617Y-95325108D01*
X155625260Y-95346752D01*
X155632034Y-95352625D01*
X155650127Y-95366185D01*
X155711772Y-95420628D01*
X155726777Y-95430485D01*
X155751256Y-95441978D01*
X155772894Y-95458195D01*
X155788642Y-95466816D01*
X155865644Y-95495682D01*
X155940265Y-95530717D01*
X155957821Y-95536026D01*
X155983492Y-95539862D01*
X156009297Y-95549536D01*
X156026832Y-95553391D01*
X156120682Y-95560366D01*
X156143708Y-95563807D01*
X156153034Y-95564500D01*
X156176315Y-95564500D01*
X156261836Y-95570855D01*
X156279748Y-95569634D01*
X156303798Y-95564500D01*
X158212598Y-95564500D01*
X158342905Y-95639733D01*
X158358165Y-95646054D01*
X158605562Y-95712344D01*
X158621938Y-95714500D01*
X158878062Y-95714500D01*
X158894438Y-95712344D01*
X159141835Y-95646054D01*
X159157095Y-95639733D01*
X159378905Y-95511671D01*
X159392009Y-95501616D01*
X159573116Y-95320509D01*
X159583171Y-95307405D01*
X159711233Y-95085595D01*
X159717554Y-95070335D01*
X159783844Y-94822938D01*
X159786000Y-94806562D01*
X159786000Y-94550438D01*
X159783844Y-94534062D01*
X159717554Y-94286665D01*
X159711233Y-94271405D01*
X159677354Y-94212724D01*
X159986191Y-94212724D01*
X160060000Y-94138915D01*
X160060000Y-92975309D01*
X160316000Y-92975309D01*
X160316000Y-94138915D01*
X160389809Y-94212724D01*
X161478379Y-94212724D01*
X161491809Y-94211280D01*
X161794624Y-94145407D01*
X161815458Y-94136777D01*
X162017776Y-94006755D01*
X162031397Y-93994952D01*
X162187407Y-93814908D01*
X162197151Y-93799746D01*
X162296116Y-93583042D01*
X162301194Y-93565749D01*
X162326582Y-93389171D01*
X162327224Y-93380194D01*
X162327224Y-92975309D01*
X162253415Y-92901500D01*
X160389809Y-92901500D01*
X160316000Y-92975309D01*
X160060000Y-92975309D01*
X159986191Y-92901500D01*
X158122585Y-92901500D01*
X158048776Y-92975309D01*
X158048776Y-93363879D01*
X158050220Y-93377309D01*
X158116093Y-93680124D01*
X158124723Y-93700958D01*
X158183554Y-93792500D01*
X157800460Y-93792500D01*
X157896116Y-93583042D01*
X157901194Y-93565749D01*
X157926582Y-93389171D01*
X157927224Y-93380194D01*
X157927224Y-92183121D01*
X157925780Y-92169691D01*
X157925153Y-92166806D01*
X158048776Y-92166806D01*
X158048776Y-92571691D01*
X158122585Y-92645500D01*
X159986191Y-92645500D01*
X160060000Y-92571691D01*
X160060000Y-91408085D01*
X160316000Y-91408085D01*
X160316000Y-92571691D01*
X160389809Y-92645500D01*
X162253415Y-92645500D01*
X162327224Y-92571691D01*
X162327224Y-92183121D01*
X162325780Y-92169691D01*
X162259907Y-91866876D01*
X162251277Y-91846042D01*
X162121255Y-91643724D01*
X162109452Y-91630103D01*
X161929408Y-91474093D01*
X161914246Y-91464349D01*
X161697542Y-91365384D01*
X161680249Y-91360306D01*
X161503671Y-91334918D01*
X161494694Y-91334276D01*
X160389809Y-91334276D01*
X160316000Y-91408085D01*
X160060000Y-91408085D01*
X159986191Y-91334276D01*
X158897621Y-91334276D01*
X158884191Y-91335720D01*
X158581376Y-91401593D01*
X158560542Y-91410223D01*
X158358224Y-91540245D01*
X158344603Y-91552048D01*
X158188593Y-91732092D01*
X158178849Y-91747254D01*
X158079884Y-91963958D01*
X158074806Y-91981251D01*
X158049418Y-92157829D01*
X158048776Y-92166806D01*
X157925153Y-92166806D01*
X157859907Y-91866876D01*
X157851277Y-91846042D01*
X157721255Y-91643724D01*
X157709452Y-91630103D01*
X157529408Y-91474093D01*
X157514246Y-91464349D01*
X157297542Y-91365384D01*
X157280249Y-91360306D01*
X157103671Y-91334918D01*
X157094694Y-91334276D01*
X157074439Y-91334276D01*
X157794717Y-90613999D01*
X162467163Y-90613999D01*
X162467163Y-94427758D01*
X162469319Y-94444134D01*
X162544137Y-94723359D01*
X162556880Y-94747839D01*
X162687990Y-94904090D01*
X162704879Y-94918261D01*
X162879120Y-95018859D01*
X162899837Y-95026400D01*
X163092538Y-95060378D01*
X163103499Y-95061337D01*
X165117258Y-95061337D01*
X165133634Y-95059181D01*
X165412859Y-94984363D01*
X165437339Y-94971620D01*
X165593590Y-94840510D01*
X165607761Y-94823621D01*
X165708359Y-94649380D01*
X165715900Y-94628663D01*
X165749878Y-94435962D01*
X165750837Y-94425001D01*
X165750837Y-93555500D01*
X165863062Y-93555500D01*
X165879438Y-93553344D01*
X166126835Y-93487054D01*
X166142095Y-93480733D01*
X166243000Y-93422475D01*
X166343905Y-93480733D01*
X166359165Y-93487054D01*
X166606562Y-93553344D01*
X166622938Y-93555500D01*
X166879062Y-93555500D01*
X166895438Y-93553344D01*
X167142835Y-93487054D01*
X167158095Y-93480733D01*
X167259000Y-93422475D01*
X167359905Y-93480733D01*
X167375165Y-93487054D01*
X167622562Y-93553344D01*
X167638938Y-93555500D01*
X167895062Y-93555500D01*
X167911438Y-93553344D01*
X168158835Y-93487054D01*
X168174095Y-93480733D01*
X168275000Y-93422475D01*
X168375905Y-93480733D01*
X168391165Y-93487054D01*
X168638562Y-93553344D01*
X168654938Y-93555500D01*
X168839352Y-93555500D01*
X168844137Y-93573359D01*
X168856880Y-93597839D01*
X168911896Y-93663404D01*
X168910239Y-93665379D01*
X168809641Y-93839620D01*
X168802100Y-93860337D01*
X168768122Y-94053038D01*
X168767163Y-94063999D01*
X168767163Y-94617691D01*
X168840972Y-94691500D01*
X170207192Y-94691501D01*
X170207193Y-94691500D01*
X171977028Y-94691501D01*
X172050837Y-94617692D01*
X172050837Y-94061242D01*
X172048681Y-94044866D01*
X171973863Y-93765642D01*
X171961120Y-93741162D01*
X171906104Y-93675596D01*
X171907761Y-93673621D01*
X172008359Y-93499380D01*
X172015900Y-93478663D01*
X172049878Y-93285962D01*
X172050356Y-93280500D01*
X173070679Y-93280500D01*
X173070691Y-93280499D01*
X173111329Y-93280499D01*
X173089884Y-93327458D01*
X173084806Y-93344751D01*
X173059418Y-93521329D01*
X173058776Y-93530306D01*
X173058776Y-94435191D01*
X173132585Y-94509000D01*
X174296192Y-94509001D01*
X174296193Y-94509000D01*
X175863415Y-94509001D01*
X175937224Y-94435192D01*
X175937224Y-93546621D01*
X175935780Y-93533191D01*
X175869907Y-93230376D01*
X175861277Y-93209542D01*
X175731255Y-93007224D01*
X175719452Y-92993603D01*
X175539408Y-92837593D01*
X175531202Y-92832319D01*
X175627776Y-92770255D01*
X175641397Y-92758452D01*
X175797407Y-92578408D01*
X175807151Y-92563246D01*
X175906116Y-92346542D01*
X175911194Y-92329249D01*
X175936582Y-92152671D01*
X175937224Y-92143694D01*
X175937224Y-89946621D01*
X175935780Y-89933191D01*
X175869907Y-89630376D01*
X175861277Y-89609542D01*
X175731255Y-89407224D01*
X175719452Y-89393603D01*
X175539408Y-89237593D01*
X175524246Y-89227849D01*
X175307542Y-89128884D01*
X175290249Y-89123806D01*
X175113671Y-89098418D01*
X175104694Y-89097776D01*
X173907621Y-89097776D01*
X173894191Y-89099220D01*
X173591376Y-89165093D01*
X173570542Y-89173723D01*
X173368224Y-89303745D01*
X173354603Y-89315548D01*
X173198593Y-89495592D01*
X173188849Y-89510754D01*
X173089884Y-89727458D01*
X173084806Y-89744751D01*
X173059418Y-89921329D01*
X173058776Y-89930306D01*
X173058776Y-91400008D01*
X172700285Y-91758500D01*
X172050476Y-91758500D01*
X172048681Y-91744866D01*
X171973863Y-91465642D01*
X171961120Y-91441162D01*
X171906104Y-91375596D01*
X171907761Y-91373621D01*
X172008359Y-91199380D01*
X172015900Y-91178663D01*
X172049878Y-90985962D01*
X172050837Y-90975001D01*
X172050837Y-89461242D01*
X172048681Y-89444866D01*
X171973863Y-89165642D01*
X171961120Y-89141162D01*
X171830010Y-88984910D01*
X171813121Y-88970739D01*
X171638880Y-88870141D01*
X171618163Y-88862600D01*
X171425462Y-88828622D01*
X171414501Y-88827663D01*
X169400742Y-88827663D01*
X169384366Y-88829819D01*
X169105142Y-88904637D01*
X169080662Y-88917380D01*
X168924410Y-89048490D01*
X168910239Y-89065379D01*
X168809641Y-89239620D01*
X168802101Y-89260337D01*
X168789200Y-89333500D01*
X166653402Y-89333500D01*
X166523095Y-89258267D01*
X166507835Y-89251946D01*
X166260438Y-89185656D01*
X166244062Y-89183500D01*
X165987938Y-89183500D01*
X165971562Y-89185656D01*
X165724165Y-89251946D01*
X165708905Y-89258267D01*
X165487095Y-89386329D01*
X165473991Y-89396384D01*
X165292884Y-89577491D01*
X165282829Y-89590595D01*
X165154767Y-89812405D01*
X165148446Y-89827665D01*
X165108254Y-89977663D01*
X163100742Y-89977663D01*
X163084366Y-89979819D01*
X162805142Y-90054637D01*
X162780662Y-90067380D01*
X162624410Y-90198490D01*
X162610239Y-90215379D01*
X162509641Y-90389620D01*
X162502100Y-90410337D01*
X162468122Y-90603038D01*
X162467163Y-90613999D01*
X157794717Y-90613999D01*
X158165607Y-90243110D01*
X158165620Y-90243095D01*
X158205236Y-90203480D01*
X158216893Y-90187435D01*
X158239863Y-90142355D01*
X158269607Y-90101416D01*
X158278611Y-90083745D01*
X158294248Y-90035621D01*
X158295109Y-90033931D01*
X158493777Y-89906255D01*
X158507398Y-89894452D01*
X158612046Y-89773681D01*
X158630745Y-89802777D01*
X158642548Y-89816398D01*
X158822592Y-89972407D01*
X158837754Y-89982151D01*
X159054458Y-90081116D01*
X159071751Y-90086194D01*
X159248328Y-90111582D01*
X159257305Y-90112224D01*
X159437191Y-90112224D01*
X159511000Y-90038415D01*
X159766999Y-90038415D01*
X159840808Y-90112224D01*
X160004380Y-90112224D01*
X160017810Y-90110780D01*
X160320624Y-90044907D01*
X160341458Y-90036277D01*
X160543777Y-89906255D01*
X160557398Y-89894452D01*
X160713407Y-89714408D01*
X160723151Y-89699246D01*
X160822116Y-89482542D01*
X160827194Y-89465249D01*
X160852582Y-89288672D01*
X160853224Y-89279695D01*
X160853224Y-88974809D01*
X160779415Y-88901000D01*
X159840809Y-88900999D01*
X159767000Y-88974808D01*
X159766999Y-90038415D01*
X159511000Y-90038415D01*
X159511001Y-88974808D01*
X159511000Y-88974807D01*
X159511001Y-88645000D01*
X160779415Y-88645001D01*
X160853224Y-88571192D01*
X160853224Y-88282620D01*
X160851780Y-88269190D01*
X160785907Y-87966376D01*
X160777277Y-87945542D01*
X160735354Y-87880308D01*
X174873276Y-87880308D01*
X174873276Y-87962396D01*
X174874720Y-87975826D01*
X174940081Y-88276288D01*
X174948711Y-88297122D01*
X175077752Y-88497913D01*
X175089555Y-88511534D01*
X175268226Y-88666355D01*
X175283389Y-88676099D01*
X175498441Y-88774309D01*
X175515734Y-88779387D01*
X175690966Y-88804582D01*
X175699944Y-88805224D01*
X176010691Y-88805224D01*
X176084500Y-88731415D01*
X176340499Y-88731415D01*
X176414308Y-88805224D01*
X176708896Y-88805224D01*
X176722326Y-88803780D01*
X177022788Y-88738419D01*
X177043622Y-88729789D01*
X177244413Y-88600748D01*
X177258034Y-88588945D01*
X177412855Y-88410274D01*
X177422599Y-88395111D01*
X177520809Y-88180059D01*
X177525887Y-88162766D01*
X177551082Y-87987534D01*
X177551724Y-87978556D01*
X177551724Y-87880309D01*
X177477915Y-87806500D01*
X176414309Y-87806499D01*
X176340500Y-87880308D01*
X176340499Y-88731415D01*
X176084500Y-88731415D01*
X176084501Y-87880309D01*
X176010692Y-87806500D01*
X174947085Y-87806499D01*
X174873276Y-87880308D01*
X160735354Y-87880308D01*
X160647255Y-87743223D01*
X160637931Y-87732462D01*
X160860359Y-87672863D01*
X160884839Y-87660120D01*
X161041090Y-87529010D01*
X161055261Y-87512121D01*
X161060441Y-87503150D01*
X161135490Y-87592590D01*
X161152379Y-87606761D01*
X161326620Y-87707359D01*
X161347337Y-87714900D01*
X161540038Y-87748878D01*
X161550999Y-87749837D01*
X162564758Y-87749837D01*
X162581134Y-87747681D01*
X162860359Y-87672863D01*
X162884839Y-87660120D01*
X163041090Y-87529010D01*
X163055261Y-87512121D01*
X163060441Y-87503150D01*
X163135490Y-87592590D01*
X163152379Y-87606761D01*
X163326620Y-87707359D01*
X163347337Y-87714900D01*
X163540038Y-87748878D01*
X163550999Y-87749837D01*
X164564758Y-87749837D01*
X164581134Y-87747681D01*
X164860359Y-87672863D01*
X164884839Y-87660120D01*
X165041090Y-87529010D01*
X165055261Y-87512121D01*
X165060441Y-87503150D01*
X165135490Y-87592590D01*
X165152379Y-87606761D01*
X165326620Y-87707359D01*
X165347337Y-87714900D01*
X165540038Y-87748878D01*
X165550999Y-87749837D01*
X166564758Y-87749837D01*
X166581134Y-87747681D01*
X166860359Y-87672863D01*
X166884839Y-87660120D01*
X167041090Y-87529010D01*
X167055261Y-87512121D01*
X167060441Y-87503150D01*
X167135490Y-87592590D01*
X167152379Y-87606761D01*
X167326620Y-87707359D01*
X167347337Y-87714900D01*
X167540038Y-87748878D01*
X167550999Y-87749837D01*
X168564758Y-87749837D01*
X168581134Y-87747681D01*
X168860359Y-87672863D01*
X168884839Y-87660120D01*
X169041090Y-87529010D01*
X169055261Y-87512121D01*
X169060441Y-87503150D01*
X169135490Y-87592590D01*
X169152379Y-87606761D01*
X169326620Y-87707359D01*
X169347337Y-87714900D01*
X169540038Y-87748878D01*
X169550999Y-87749837D01*
X170564758Y-87749837D01*
X170581134Y-87747681D01*
X170860359Y-87672863D01*
X170884839Y-87660120D01*
X171041090Y-87529010D01*
X171055261Y-87512121D01*
X171155859Y-87337880D01*
X171163400Y-87317163D01*
X171197378Y-87124462D01*
X171198337Y-87113501D01*
X171198337Y-85815076D01*
X171390038Y-85848878D01*
X171400999Y-85849837D01*
X172454691Y-85849837D01*
X172528500Y-85776028D01*
X172528500Y-84909809D01*
X172454691Y-84836000D01*
X170988074Y-84836000D01*
X170977510Y-84823410D01*
X170960621Y-84809239D01*
X170786380Y-84708641D01*
X170765663Y-84701100D01*
X170572962Y-84667122D01*
X170562001Y-84666163D01*
X169548242Y-84666163D01*
X169531866Y-84668319D01*
X169252642Y-84743137D01*
X169228162Y-84755880D01*
X169071910Y-84886990D01*
X169057739Y-84903879D01*
X169052559Y-84912851D01*
X168977510Y-84823410D01*
X168960621Y-84809239D01*
X168786380Y-84708641D01*
X168765663Y-84701100D01*
X168572962Y-84667122D01*
X168562001Y-84666163D01*
X167548242Y-84666163D01*
X167531866Y-84668319D01*
X167252642Y-84743137D01*
X167228162Y-84755880D01*
X167071910Y-84886990D01*
X167057739Y-84903879D01*
X167052559Y-84912851D01*
X166977510Y-84823410D01*
X166960621Y-84809239D01*
X166786380Y-84708641D01*
X166765663Y-84701100D01*
X166572962Y-84667122D01*
X166562001Y-84666163D01*
X165548242Y-84666163D01*
X165531866Y-84668319D01*
X165252642Y-84743137D01*
X165228162Y-84755880D01*
X165071910Y-84886990D01*
X165057739Y-84903879D01*
X165052559Y-84912851D01*
X164977510Y-84823410D01*
X164960621Y-84809239D01*
X164786380Y-84708641D01*
X164765663Y-84701100D01*
X164572962Y-84667122D01*
X164562001Y-84666163D01*
X163548242Y-84666163D01*
X163531866Y-84668319D01*
X163252642Y-84743137D01*
X163228162Y-84755880D01*
X163071910Y-84886990D01*
X163057739Y-84903879D01*
X163052559Y-84912851D01*
X162977510Y-84823410D01*
X162960621Y-84809239D01*
X162786380Y-84708641D01*
X162765663Y-84701100D01*
X162572962Y-84667122D01*
X162562001Y-84666163D01*
X161548242Y-84666163D01*
X161531866Y-84668319D01*
X161252642Y-84743137D01*
X161228162Y-84755880D01*
X161071910Y-84886990D01*
X161057739Y-84903879D01*
X161052559Y-84912851D01*
X160977510Y-84823410D01*
X160960621Y-84809239D01*
X160786380Y-84708641D01*
X160765663Y-84701100D01*
X160572962Y-84667122D01*
X160562001Y-84666163D01*
X160376207Y-84666163D01*
X160409733Y-84608095D01*
X160416054Y-84592835D01*
X160482344Y-84345438D01*
X160484500Y-84329062D01*
X160484500Y-84072938D01*
X160482344Y-84056562D01*
X160416054Y-83809165D01*
X160409733Y-83793905D01*
X160281671Y-83572095D01*
X160271616Y-83558991D01*
X160090509Y-83377884D01*
X160077405Y-83367829D01*
X159855595Y-83239767D01*
X159840335Y-83233446D01*
X159592938Y-83167156D01*
X159576562Y-83165000D01*
X159348337Y-83165000D01*
X159348337Y-82199742D01*
X159346181Y-82183366D01*
X159271363Y-81904142D01*
X159258620Y-81879662D01*
X159127510Y-81723410D01*
X159110621Y-81709239D01*
X159101649Y-81704059D01*
X159116058Y-81691968D01*
X159304062Y-81742344D01*
X159320438Y-81744500D01*
X159576562Y-81744500D01*
X159592938Y-81742344D01*
X159840335Y-81676054D01*
X159855595Y-81669733D01*
X160077405Y-81541671D01*
X160090509Y-81531616D01*
X160271616Y-81350509D01*
X160281671Y-81337405D01*
X160409733Y-81115595D01*
X160416054Y-81100335D01*
X160482344Y-80852938D01*
X160484500Y-80836562D01*
X160484500Y-80580438D01*
X160482344Y-80564062D01*
X160416054Y-80316665D01*
X160409733Y-80301405D01*
X160281671Y-80079595D01*
X160271616Y-80066491D01*
X160090509Y-79885384D01*
X160077405Y-79875329D01*
X159855595Y-79747267D01*
X159840335Y-79740946D01*
X159592938Y-79674656D01*
X159576562Y-79672500D01*
X159320438Y-79672500D01*
X159304062Y-79674656D01*
X159126202Y-79722314D01*
X159110621Y-79709239D01*
X159101650Y-79704059D01*
X159191090Y-79629010D01*
X159205261Y-79612121D01*
X159305859Y-79437880D01*
X159313400Y-79417163D01*
X159347378Y-79224462D01*
X159348337Y-79213501D01*
X159348337Y-78199742D01*
X159346181Y-78183366D01*
X159271363Y-77904142D01*
X159258620Y-77879662D01*
X159127510Y-77723410D01*
X159110621Y-77709239D01*
X159101650Y-77704059D01*
X159191090Y-77629010D01*
X159205261Y-77612121D01*
X159305859Y-77437880D01*
X159313400Y-77417163D01*
X159347378Y-77224462D01*
X159348337Y-77213501D01*
X159348337Y-76199742D01*
X159346181Y-76183366D01*
X159271363Y-75904142D01*
X159258620Y-75879662D01*
X159127510Y-75723410D01*
X159110621Y-75709239D01*
X159101650Y-75704059D01*
X159191090Y-75629010D01*
X159205261Y-75612121D01*
X159305859Y-75437880D01*
X159313400Y-75417163D01*
X159347378Y-75224462D01*
X159348337Y-75213501D01*
X159348337Y-74199742D01*
X159346181Y-74183366D01*
X159271363Y-73904142D01*
X159258620Y-73879662D01*
X159127510Y-73723410D01*
X159110621Y-73709239D01*
X159101650Y-73704059D01*
X159191090Y-73629010D01*
X159205261Y-73612121D01*
X159305859Y-73437880D01*
X159313400Y-73417163D01*
X159347378Y-73224462D01*
X159348337Y-73213501D01*
X159348337Y-72199742D01*
X159346181Y-72183366D01*
X159271363Y-71904142D01*
X159258620Y-71879662D01*
X159127510Y-71723410D01*
X159110621Y-71709239D01*
X159101650Y-71704059D01*
X159191090Y-71629010D01*
X159205261Y-71612121D01*
X159305859Y-71437880D01*
X159313400Y-71417163D01*
X159347378Y-71224462D01*
X159348337Y-71213501D01*
X159348337Y-70199742D01*
X159346181Y-70183366D01*
X159300138Y-70011530D01*
X170794071Y-70030192D01*
X170765622Y-70191538D01*
X170764663Y-70202499D01*
X170764663Y-71216258D01*
X170766819Y-71232634D01*
X170841637Y-71511859D01*
X170854380Y-71536339D01*
X170985490Y-71692590D01*
X171002379Y-71706761D01*
X171011351Y-71711941D01*
X170921910Y-71786990D01*
X170907739Y-71803879D01*
X170807141Y-71978120D01*
X170799600Y-71998837D01*
X170765622Y-72191538D01*
X170764663Y-72202499D01*
X170764663Y-73216258D01*
X170766819Y-73232634D01*
X170841637Y-73511859D01*
X170854380Y-73536339D01*
X170985490Y-73692590D01*
X171002379Y-73706761D01*
X171011351Y-73711941D01*
X170994554Y-73726035D01*
X170800938Y-73674156D01*
X170784562Y-73672000D01*
X170528438Y-73672000D01*
X170512062Y-73674156D01*
X170264665Y-73740446D01*
X170249405Y-73746767D01*
X170027595Y-73874829D01*
X170014491Y-73884884D01*
X169833384Y-74065991D01*
X169823329Y-74079095D01*
X169695267Y-74300905D01*
X169688946Y-74316165D01*
X169622656Y-74563562D01*
X169620500Y-74579938D01*
X169620500Y-74836062D01*
X169622656Y-74852438D01*
X169688946Y-75099835D01*
X169695267Y-75115095D01*
X169823329Y-75336905D01*
X169833384Y-75350009D01*
X170014491Y-75531116D01*
X170027595Y-75541171D01*
X170249405Y-75669233D01*
X170264665Y-75675554D01*
X170512062Y-75741844D01*
X170528438Y-75744000D01*
X170784562Y-75744000D01*
X170800938Y-75741844D01*
X170985356Y-75692429D01*
X170985491Y-75692590D01*
X171002380Y-75706762D01*
X171011350Y-75711941D01*
X170921910Y-75786990D01*
X170907739Y-75803879D01*
X170825108Y-75947000D01*
X170823321Y-75947000D01*
X170823309Y-75947001D01*
X170768010Y-75947001D01*
X170748422Y-75950103D01*
X170700308Y-75965736D01*
X170650323Y-75973653D01*
X170631462Y-75979782D01*
X170586379Y-76002753D01*
X170538254Y-76018390D01*
X170520582Y-76027394D01*
X170479647Y-76057136D01*
X170434566Y-76080106D01*
X170418520Y-76091764D01*
X170262093Y-76248191D01*
X170262088Y-76248198D01*
X170101197Y-76409089D01*
X170101190Y-76409094D01*
X169944763Y-76565522D01*
X169933106Y-76581567D01*
X169910138Y-76626645D01*
X169880394Y-76667583D01*
X169871390Y-76685255D01*
X169855753Y-76733380D01*
X169832782Y-76778463D01*
X169826653Y-76797324D01*
X169818736Y-76847309D01*
X169803103Y-76895423D01*
X169800001Y-76915011D01*
X169800001Y-76970310D01*
X169800000Y-76970322D01*
X169800000Y-77019876D01*
X169737884Y-77081991D01*
X169727829Y-77095095D01*
X169599767Y-77316905D01*
X169593446Y-77332165D01*
X169527156Y-77579562D01*
X169525000Y-77595938D01*
X169525000Y-77852062D01*
X169527156Y-77868438D01*
X169593446Y-78115835D01*
X169599767Y-78131095D01*
X169727829Y-78352905D01*
X169737884Y-78366009D01*
X169918991Y-78547116D01*
X169932095Y-78557171D01*
X170153905Y-78685233D01*
X170169165Y-78691554D01*
X170416562Y-78757844D01*
X170432938Y-78760000D01*
X170689063Y-78760000D01*
X170705438Y-78757844D01*
X170764663Y-78741975D01*
X170764663Y-79216258D01*
X170766819Y-79232634D01*
X170841637Y-79511859D01*
X170854380Y-79536339D01*
X170985490Y-79692590D01*
X171002379Y-79706761D01*
X171011351Y-79711941D01*
X170921910Y-79786990D01*
X170907739Y-79803879D01*
X170807141Y-79978120D01*
X170799600Y-79998837D01*
X170765622Y-80191538D01*
X170764663Y-80202499D01*
X170764663Y-81216258D01*
X170766819Y-81232634D01*
X170841637Y-81511859D01*
X170854380Y-81536339D01*
X170985490Y-81692590D01*
X171002379Y-81706761D01*
X171011351Y-81711941D01*
X170921910Y-81786990D01*
X170907739Y-81803879D01*
X170807141Y-81978120D01*
X170799600Y-81998837D01*
X170765622Y-82191538D01*
X170764663Y-82202499D01*
X170764663Y-83216258D01*
X170766819Y-83232634D01*
X170841637Y-83511859D01*
X170854380Y-83536339D01*
X170985490Y-83692590D01*
X171002379Y-83706761D01*
X171011351Y-83711941D01*
X170921910Y-83786990D01*
X170907739Y-83803879D01*
X170807141Y-83978120D01*
X170799600Y-83998837D01*
X170765622Y-84191538D01*
X170764663Y-84202499D01*
X170764663Y-84506191D01*
X170838472Y-84580000D01*
X172784500Y-84580000D01*
X172784500Y-85776028D01*
X172858309Y-85849837D01*
X173914758Y-85849837D01*
X173931134Y-85847681D01*
X173985374Y-85833148D01*
X173998890Y-85874745D01*
X174007894Y-85892417D01*
X174037638Y-85933355D01*
X174060606Y-85978433D01*
X174072263Y-85994478D01*
X174221508Y-86143724D01*
X174497520Y-86419736D01*
X174513566Y-86431394D01*
X174558653Y-86454368D01*
X174599584Y-86484106D01*
X174617255Y-86493110D01*
X174665371Y-86508744D01*
X174710461Y-86531718D01*
X174729323Y-86537847D01*
X174779305Y-86545763D01*
X174827420Y-86561396D01*
X174847008Y-86564499D01*
X174902309Y-86564499D01*
X174902321Y-86564500D01*
X175040212Y-86564500D01*
X175077752Y-86622913D01*
X175089555Y-86636534D01*
X175207646Y-86738862D01*
X175180587Y-86756252D01*
X175166966Y-86768055D01*
X175012145Y-86946726D01*
X175002401Y-86961889D01*
X174904191Y-87176941D01*
X174899113Y-87194234D01*
X174873918Y-87369466D01*
X174873276Y-87378444D01*
X174873276Y-87476691D01*
X174947085Y-87550500D01*
X176010692Y-87550501D01*
X176010693Y-87550500D01*
X177477915Y-87550501D01*
X177551724Y-87476692D01*
X177551724Y-87394604D01*
X177550280Y-87381174D01*
X177484919Y-87080712D01*
X177476289Y-87059878D01*
X177347248Y-86859087D01*
X177335445Y-86845466D01*
X177217354Y-86743138D01*
X177244413Y-86725748D01*
X177258034Y-86713945D01*
X177412855Y-86535274D01*
X177422599Y-86520111D01*
X177520809Y-86305059D01*
X177525887Y-86287766D01*
X177551082Y-86112534D01*
X177551724Y-86103556D01*
X177551724Y-85519604D01*
X177550280Y-85506174D01*
X177484919Y-85205712D01*
X177476289Y-85184878D01*
X177347248Y-84984087D01*
X177335445Y-84970466D01*
X177156774Y-84815645D01*
X177141611Y-84805901D01*
X176926559Y-84707691D01*
X176909266Y-84702613D01*
X176734034Y-84677418D01*
X176725056Y-84676776D01*
X175716104Y-84676776D01*
X175702674Y-84678220D01*
X175449500Y-84733294D01*
X175449500Y-84549837D01*
X176010691Y-84549837D01*
X176084500Y-84476028D01*
X176340499Y-84476028D01*
X176414308Y-84549837D01*
X177070758Y-84549837D01*
X177087134Y-84547681D01*
X177366359Y-84472863D01*
X177390839Y-84460120D01*
X177547090Y-84329010D01*
X177561261Y-84312121D01*
X177661859Y-84137880D01*
X177669400Y-84117163D01*
X177703378Y-83924462D01*
X177704337Y-83913501D01*
X177704337Y-83259809D01*
X177630528Y-83186000D01*
X176414309Y-83185999D01*
X176340500Y-83259808D01*
X176340499Y-84476028D01*
X176084500Y-84476028D01*
X176084501Y-83259808D01*
X176084500Y-83259807D01*
X176084501Y-82930000D01*
X177630528Y-82930001D01*
X177704337Y-82856192D01*
X177704337Y-82199742D01*
X177702181Y-82183366D01*
X177627363Y-81904142D01*
X177614620Y-81879662D01*
X177483510Y-81723410D01*
X177466621Y-81709239D01*
X177292380Y-81608641D01*
X177271663Y-81601100D01*
X177236825Y-81594957D01*
X177266145Y-81570004D01*
X177273658Y-81562424D01*
X177428333Y-81377435D01*
X177434462Y-81368698D01*
X177555756Y-81160294D01*
X177560325Y-81150650D01*
X177644772Y-80924787D01*
X177647651Y-80914511D01*
X177692892Y-80677351D01*
X177694007Y-80666128D01*
X177696577Y-80398341D01*
X177695678Y-80387099D01*
X177654999Y-80149114D01*
X177652317Y-80138784D01*
X177572223Y-79911343D01*
X177567839Y-79901612D01*
X177450567Y-79690916D01*
X177444607Y-79682064D01*
X177293513Y-79494140D01*
X177286147Y-79486417D01*
X177105549Y-79326638D01*
X177096986Y-79320267D01*
X176973500Y-79243703D01*
X176973500Y-78891641D01*
X177022788Y-78880919D01*
X177043622Y-78872289D01*
X177244413Y-78743248D01*
X177258034Y-78731445D01*
X177412855Y-78552774D01*
X177422599Y-78537611D01*
X177520809Y-78322559D01*
X177525887Y-78305266D01*
X177551082Y-78130034D01*
X177551724Y-78121056D01*
X177551724Y-77537104D01*
X177550280Y-77523674D01*
X177484919Y-77223212D01*
X177476289Y-77202378D01*
X177347248Y-77001587D01*
X177335445Y-76987966D01*
X177320704Y-76975193D01*
X177338062Y-76979844D01*
X177354438Y-76982000D01*
X177610562Y-76982000D01*
X177626938Y-76979844D01*
X177874335Y-76913554D01*
X177889595Y-76907233D01*
X178111405Y-76779171D01*
X178124509Y-76769116D01*
X178305616Y-76588009D01*
X178315671Y-76574905D01*
X178443733Y-76353095D01*
X178450054Y-76337835D01*
X178516344Y-76090438D01*
X178518500Y-76074062D01*
X178518500Y-75817938D01*
X178516344Y-75801562D01*
X178450054Y-75554165D01*
X178443733Y-75538905D01*
X178315671Y-75317095D01*
X178305616Y-75303991D01*
X178124509Y-75122884D01*
X178111405Y-75112829D01*
X177889595Y-74984767D01*
X177874335Y-74978446D01*
X177626938Y-74912156D01*
X177610562Y-74910000D01*
X177354438Y-74910000D01*
X177338062Y-74912156D01*
X177159053Y-74960121D01*
X177156774Y-74958146D01*
X177141612Y-74948401D01*
X176926559Y-74850191D01*
X176909266Y-74845113D01*
X176734034Y-74819918D01*
X176725056Y-74819276D01*
X175716104Y-74819276D01*
X175702674Y-74820720D01*
X175402212Y-74886081D01*
X175381378Y-74894711D01*
X175180587Y-75023752D01*
X175166966Y-75035555D01*
X175012145Y-75214226D01*
X175002401Y-75229389D01*
X174904191Y-75444441D01*
X174899113Y-75461734D01*
X174873918Y-75636966D01*
X174873276Y-75645944D01*
X174873276Y-76229896D01*
X174874720Y-76243326D01*
X174940081Y-76543788D01*
X174948711Y-76564622D01*
X175077752Y-76765413D01*
X175089555Y-76779034D01*
X175207646Y-76881362D01*
X175180587Y-76898752D01*
X175166966Y-76910555D01*
X175012145Y-77089226D01*
X175002401Y-77104389D01*
X174904191Y-77319441D01*
X174899113Y-77336734D01*
X174873918Y-77511966D01*
X174873276Y-77520944D01*
X174873276Y-77947000D01*
X174482847Y-77947000D01*
X174471363Y-77904142D01*
X174458620Y-77879662D01*
X174327510Y-77723410D01*
X174310621Y-77709239D01*
X174301650Y-77704059D01*
X174391090Y-77629010D01*
X174405261Y-77612121D01*
X174505859Y-77437880D01*
X174513400Y-77417163D01*
X174547378Y-77224462D01*
X174548337Y-77213501D01*
X174548337Y-76199742D01*
X174546181Y-76183366D01*
X174471363Y-75904142D01*
X174458620Y-75879662D01*
X174327510Y-75723410D01*
X174310621Y-75709239D01*
X174301650Y-75704059D01*
X174391090Y-75629010D01*
X174405261Y-75612121D01*
X174505859Y-75437880D01*
X174513400Y-75417163D01*
X174547378Y-75224462D01*
X174548337Y-75213501D01*
X174548337Y-74199742D01*
X174546181Y-74183366D01*
X174471363Y-73904142D01*
X174458620Y-73879662D01*
X174327510Y-73723410D01*
X174310621Y-73709239D01*
X174301650Y-73704059D01*
X174391090Y-73629010D01*
X174405261Y-73612121D01*
X174487892Y-73469000D01*
X174593663Y-73469000D01*
X174593663Y-74073758D01*
X174595819Y-74090134D01*
X174670637Y-74369359D01*
X174683380Y-74393839D01*
X174814490Y-74550090D01*
X174831379Y-74564261D01*
X175005620Y-74664859D01*
X175026337Y-74672400D01*
X175219038Y-74706378D01*
X175229999Y-74707337D01*
X176943758Y-74707337D01*
X176960134Y-74705181D01*
X177239359Y-74630363D01*
X177263839Y-74617620D01*
X177420090Y-74486510D01*
X177434261Y-74469621D01*
X177534859Y-74295380D01*
X177542400Y-74274663D01*
X177576378Y-74081962D01*
X177577337Y-74071001D01*
X177577337Y-72357242D01*
X177575181Y-72340866D01*
X177500363Y-72061642D01*
X177487620Y-72037162D01*
X177356510Y-71880910D01*
X177339621Y-71866739D01*
X177165380Y-71766141D01*
X177144663Y-71758600D01*
X177109825Y-71752457D01*
X177139145Y-71727504D01*
X177146658Y-71719924D01*
X177301333Y-71534935D01*
X177307462Y-71526198D01*
X177428756Y-71317794D01*
X177433325Y-71308150D01*
X177517772Y-71082287D01*
X177520651Y-71072011D01*
X177565892Y-70834851D01*
X177567007Y-70823628D01*
X177569577Y-70555841D01*
X177568678Y-70544599D01*
X177527999Y-70306614D01*
X177525317Y-70296284D01*
X177445223Y-70068843D01*
X177440839Y-70059112D01*
X177323567Y-69848416D01*
X177317607Y-69839564D01*
X177166513Y-69651640D01*
X177159147Y-69643917D01*
X176978549Y-69484138D01*
X176969986Y-69477767D01*
X176765049Y-69350702D01*
X176755536Y-69345865D01*
X176532119Y-69255145D01*
X176521927Y-69251980D01*
X176349185Y-69214000D01*
X179071001Y-69214000D01*
X179071000Y-114809000D01*
X147192000Y-114809000D01*
X147192000Y-111946100D01*
X174073597Y-111946100D01*
X174073597Y-111954900D01*
X174093800Y-112243820D01*
X174095025Y-112252535D01*
X174155241Y-112535832D01*
X174157667Y-112544291D01*
X174256726Y-112816450D01*
X174260305Y-112824489D01*
X174396275Y-113080214D01*
X174400939Y-113087677D01*
X174571177Y-113321990D01*
X174576834Y-113328731D01*
X174778025Y-113537070D01*
X174784564Y-113542958D01*
X175012793Y-113721270D01*
X175020088Y-113726191D01*
X175270911Y-113871004D01*
X175278821Y-113874862D01*
X175547358Y-113983358D01*
X175555728Y-113986078D01*
X175836750Y-114056144D01*
X175845416Y-114057672D01*
X176133456Y-114087947D01*
X176142251Y-114088254D01*
X176431701Y-114078146D01*
X176440453Y-114077226D01*
X176725678Y-114026933D01*
X176734216Y-114024804D01*
X177009668Y-113935304D01*
X177017827Y-113932008D01*
X177278141Y-113805044D01*
X177285763Y-113800644D01*
X177525873Y-113638687D01*
X177532808Y-113633269D01*
X177748041Y-113439472D01*
X177754154Y-113433142D01*
X177940323Y-113211276D01*
X177945495Y-113204156D01*
X178098974Y-112958539D01*
X178103105Y-112950769D01*
X178220906Y-112686182D01*
X178223916Y-112677913D01*
X178303748Y-112399507D01*
X178305577Y-112390899D01*
X178345886Y-112104092D01*
X178346500Y-112095313D01*
X178346500Y-111805687D01*
X178345886Y-111796908D01*
X178305577Y-111510101D01*
X178303748Y-111501493D01*
X178223916Y-111223087D01*
X178220906Y-111214818D01*
X178103105Y-110950231D01*
X178098974Y-110942461D01*
X177945495Y-110696844D01*
X177940323Y-110689724D01*
X177754154Y-110467858D01*
X177748041Y-110461528D01*
X177532808Y-110267731D01*
X177525873Y-110262313D01*
X177285763Y-110100356D01*
X177278141Y-110095956D01*
X177017827Y-109968992D01*
X177009668Y-109965696D01*
X176734216Y-109876196D01*
X176725678Y-109874067D01*
X176440453Y-109823774D01*
X176431701Y-109822854D01*
X176142251Y-109812746D01*
X176133456Y-109813053D01*
X175845416Y-109843328D01*
X175836750Y-109844856D01*
X175555728Y-109914922D01*
X175547358Y-109917642D01*
X175278821Y-110026138D01*
X175270911Y-110029996D01*
X175020088Y-110174809D01*
X175012793Y-110179730D01*
X174784564Y-110358042D01*
X174778025Y-110363930D01*
X174576834Y-110572269D01*
X174571177Y-110579010D01*
X174400939Y-110813323D01*
X174396275Y-110820786D01*
X174260305Y-111076511D01*
X174256726Y-111084550D01*
X174157667Y-111356709D01*
X174155241Y-111365168D01*
X174095025Y-111648465D01*
X174093800Y-111657180D01*
X174073597Y-111946100D01*
X147192000Y-111946100D01*
X147192000Y-109421809D01*
X163555276Y-109421809D01*
X163555276Y-110360378D01*
X163556720Y-110373808D01*
X163622593Y-110676623D01*
X163631223Y-110697457D01*
X163761245Y-110899776D01*
X163773048Y-110913397D01*
X163953092Y-111069407D01*
X163968254Y-111079151D01*
X164184959Y-111178116D01*
X164202252Y-111183194D01*
X164378830Y-111208582D01*
X164387807Y-111209224D01*
X165342691Y-111209224D01*
X165416500Y-111135415D01*
X165416500Y-109421809D01*
X165672500Y-109421809D01*
X165672500Y-111135415D01*
X165746309Y-111209224D01*
X166684878Y-111209224D01*
X166698308Y-111207780D01*
X167001123Y-111141907D01*
X167021957Y-111133277D01*
X167224276Y-111003255D01*
X167237897Y-110991452D01*
X167393907Y-110811408D01*
X167403651Y-110796246D01*
X167502616Y-110579541D01*
X167507694Y-110562248D01*
X167533082Y-110385670D01*
X167533724Y-110376693D01*
X167533724Y-109421809D01*
X167459915Y-109348000D01*
X165746309Y-109348000D01*
X165672500Y-109421809D01*
X165416500Y-109421809D01*
X165342691Y-109348000D01*
X163629085Y-109348000D01*
X163555276Y-109421809D01*
X147192000Y-109421809D01*
X147192000Y-106391957D01*
X157942522Y-106391957D01*
X157942970Y-106401297D01*
X157975954Y-106669926D01*
X157977778Y-106679097D01*
X158050106Y-106939900D01*
X158053266Y-106948701D01*
X158163347Y-107195949D01*
X158167773Y-107204186D01*
X158313191Y-107432447D01*
X158318785Y-107439939D01*
X158496346Y-107644198D01*
X158502986Y-107650781D01*
X158708788Y-107826552D01*
X158716329Y-107832082D01*
X158945850Y-107975502D01*
X158954125Y-107979855D01*
X159202324Y-108087776D01*
X159211152Y-108090859D01*
X159472576Y-108160907D01*
X159481762Y-108162651D01*
X159750669Y-108193289D01*
X159760013Y-108193656D01*
X160030495Y-108184211D01*
X160039790Y-108183193D01*
X160305904Y-108133871D01*
X160314946Y-108131490D01*
X160512965Y-108063307D01*
X163555276Y-108063307D01*
X163555276Y-109018191D01*
X163629085Y-109092000D01*
X165342691Y-109092000D01*
X165416500Y-109018191D01*
X165416500Y-107304585D01*
X165672500Y-107304585D01*
X165672500Y-109018191D01*
X165746309Y-109092000D01*
X167459915Y-109092000D01*
X167533724Y-109018191D01*
X167533724Y-108079622D01*
X167532280Y-108066192D01*
X167466407Y-107763377D01*
X167457777Y-107742543D01*
X167327755Y-107540224D01*
X167315952Y-107526603D01*
X167135908Y-107370593D01*
X167120746Y-107360849D01*
X166904041Y-107261884D01*
X166886748Y-107256806D01*
X166710170Y-107231418D01*
X166701193Y-107230776D01*
X165746309Y-107230776D01*
X165672500Y-107304585D01*
X165416500Y-107304585D01*
X165342691Y-107230776D01*
X164404122Y-107230776D01*
X164390692Y-107232220D01*
X164087877Y-107298093D01*
X164067043Y-107306723D01*
X163864724Y-107436745D01*
X163851103Y-107448548D01*
X163695093Y-107628592D01*
X163685349Y-107643754D01*
X163586384Y-107860459D01*
X163581306Y-107877752D01*
X163555918Y-108054330D01*
X163555276Y-108063307D01*
X160512965Y-108063307D01*
X160570847Y-108043377D01*
X160579438Y-108039686D01*
X160819505Y-107914716D01*
X160827457Y-107909795D01*
X161046414Y-107750713D01*
X161053551Y-107744671D01*
X161246589Y-107554973D01*
X161252754Y-107547943D01*
X161415634Y-107331795D01*
X161420692Y-107323931D01*
X161492325Y-107192000D01*
X161684705Y-107192000D01*
X161703333Y-107196215D01*
X161721228Y-107197655D01*
X161812376Y-107192000D01*
X161843016Y-107192000D01*
X161851958Y-107191363D01*
X161874357Y-107188155D01*
X161956426Y-107183063D01*
X161974006Y-107179423D01*
X161999439Y-107170242D01*
X162026211Y-107166408D01*
X162043442Y-107161369D01*
X162118316Y-107127327D01*
X162195840Y-107099340D01*
X162212007Y-107090680D01*
X162232871Y-107075241D01*
X162257961Y-107063834D01*
X162273086Y-107054161D01*
X162344391Y-106992720D01*
X162363094Y-106978881D01*
X162370178Y-106972777D01*
X162386622Y-106956332D01*
X162451608Y-106900337D01*
X162463410Y-106886808D01*
X162476791Y-106866163D01*
X163916318Y-105426637D01*
X164789858Y-105426637D01*
X164806234Y-105424481D01*
X165085459Y-105349663D01*
X165109939Y-105336920D01*
X165266190Y-105205810D01*
X165280361Y-105188921D01*
X165380959Y-105014680D01*
X165388500Y-104993963D01*
X165422478Y-104801262D01*
X165423437Y-104790301D01*
X165423437Y-103476542D01*
X165421281Y-103460166D01*
X165346463Y-103180942D01*
X165333720Y-103156462D01*
X165202610Y-103000210D01*
X165185721Y-102986039D01*
X165011480Y-102885441D01*
X164990763Y-102877900D01*
X164798062Y-102843922D01*
X164787101Y-102842963D01*
X163073342Y-102842963D01*
X163056966Y-102845119D01*
X162777742Y-102919937D01*
X162753262Y-102932680D01*
X162597010Y-103063790D01*
X162582839Y-103080679D01*
X162482241Y-103254920D01*
X162474700Y-103275637D01*
X162440722Y-103468338D01*
X162439763Y-103479299D01*
X162439763Y-104397208D01*
X161469038Y-105367934D01*
X161467146Y-105364624D01*
X161315802Y-105140247D01*
X161310013Y-105132904D01*
X161127167Y-104933363D01*
X161120357Y-104926956D01*
X160910025Y-104756632D01*
X160902342Y-104751303D01*
X160669146Y-104613939D01*
X160660759Y-104609803D01*
X160409820Y-104508417D01*
X160400914Y-104505567D01*
X160137746Y-104442385D01*
X160128517Y-104440882D01*
X159858900Y-104417294D01*
X159849550Y-104417172D01*
X159579408Y-104433694D01*
X159570143Y-104434955D01*
X159305411Y-104491225D01*
X159296434Y-104493842D01*
X159042928Y-104588625D01*
X159034436Y-104592539D01*
X158797723Y-104723752D01*
X158789903Y-104728878D01*
X158575185Y-104893638D01*
X158568209Y-104899864D01*
X158380202Y-105094550D01*
X158374222Y-105101739D01*
X158217057Y-105322078D01*
X158212207Y-105330072D01*
X158089336Y-105571219D01*
X158085720Y-105579842D01*
X157999843Y-105836502D01*
X157997541Y-105845565D01*
X157950543Y-106112100D01*
X157949607Y-106121404D01*
X157942522Y-106391957D01*
X147192000Y-106391957D01*
X147192000Y-97550499D01*
X157937663Y-97550499D01*
X157937663Y-100064258D01*
X157939819Y-100080634D01*
X158014637Y-100359859D01*
X158027380Y-100384339D01*
X158158490Y-100540590D01*
X158175379Y-100554761D01*
X158349620Y-100655359D01*
X158370337Y-100662900D01*
X158563038Y-100696878D01*
X158573999Y-100697837D01*
X161087758Y-100697837D01*
X161104134Y-100695681D01*
X161383359Y-100620863D01*
X161407839Y-100608120D01*
X161564090Y-100477010D01*
X161578261Y-100460121D01*
X161678859Y-100285880D01*
X161686400Y-100265163D01*
X161720378Y-100072462D01*
X161721337Y-100061501D01*
X161721337Y-99888489D01*
X162454801Y-99888489D01*
X162440722Y-99968338D01*
X162439763Y-99979299D01*
X162439763Y-101293058D01*
X162441919Y-101309434D01*
X162516737Y-101588659D01*
X162529480Y-101613139D01*
X162660590Y-101769390D01*
X162677479Y-101783561D01*
X162851720Y-101884159D01*
X162872437Y-101891700D01*
X163065138Y-101925678D01*
X163076099Y-101926637D01*
X164789858Y-101926637D01*
X164806234Y-101924481D01*
X165085459Y-101849663D01*
X165109939Y-101836920D01*
X165266190Y-101705810D01*
X165280361Y-101688921D01*
X165380959Y-101514680D01*
X165388500Y-101493963D01*
X165422478Y-101301262D01*
X165423437Y-101290301D01*
X165423437Y-99976542D01*
X165421281Y-99960166D01*
X165346463Y-99680942D01*
X165341411Y-99671237D01*
X165344900Y-99661652D01*
X165378878Y-99468951D01*
X165379837Y-99457990D01*
X165379837Y-98544231D01*
X165377681Y-98527855D01*
X165302863Y-98248631D01*
X165290120Y-98224151D01*
X165181185Y-98094326D01*
X165696258Y-98094326D01*
X165712634Y-98092170D01*
X165973654Y-98022230D01*
X165975081Y-98028788D01*
X165983711Y-98049622D01*
X166112752Y-98250413D01*
X166124555Y-98264034D01*
X166226982Y-98352789D01*
X166200587Y-98369752D01*
X166186966Y-98381555D01*
X166032145Y-98560226D01*
X166022401Y-98575389D01*
X165924191Y-98790441D01*
X165919113Y-98807734D01*
X165893918Y-98982966D01*
X165893276Y-98991944D01*
X165893276Y-100000896D01*
X165894720Y-100014326D01*
X165960081Y-100314788D01*
X165968711Y-100335622D01*
X166097752Y-100536413D01*
X166109555Y-100550034D01*
X166288226Y-100704855D01*
X166303389Y-100714599D01*
X166518441Y-100812809D01*
X166535734Y-100817887D01*
X166710966Y-100843082D01*
X166719944Y-100843724D01*
X167303896Y-100843724D01*
X167317326Y-100842280D01*
X167617788Y-100776919D01*
X167638622Y-100768289D01*
X167839413Y-100639248D01*
X167853034Y-100627445D01*
X167955362Y-100509354D01*
X167972752Y-100536413D01*
X167984555Y-100550034D01*
X168163226Y-100704855D01*
X168178389Y-100714599D01*
X168393441Y-100812809D01*
X168410734Y-100817887D01*
X168585966Y-100843082D01*
X168594944Y-100843724D01*
X168693191Y-100843724D01*
X168767000Y-100769915D01*
X168767000Y-99376500D01*
X169023000Y-99376500D01*
X169023000Y-100769915D01*
X169096809Y-100843724D01*
X169178896Y-100843724D01*
X169192326Y-100842280D01*
X169369005Y-100803846D01*
X169324884Y-100900458D01*
X169319806Y-100917751D01*
X169294418Y-101094329D01*
X169293776Y-101103306D01*
X169293776Y-103350379D01*
X169295220Y-103363809D01*
X169361093Y-103666624D01*
X169369723Y-103687458D01*
X169499745Y-103889776D01*
X169511548Y-103903397D01*
X169691592Y-104059407D01*
X169706754Y-104069151D01*
X169797000Y-104110366D01*
X169797001Y-107376838D01*
X169793578Y-107378225D01*
X169543451Y-107501303D01*
X169535572Y-107505916D01*
X169305833Y-107663812D01*
X169298702Y-107669514D01*
X169094161Y-107858922D01*
X169087928Y-107865594D01*
X168912872Y-108082543D01*
X168907667Y-108090045D01*
X168765763Y-108329993D01*
X168761696Y-108338168D01*
X168655915Y-108596086D01*
X168653071Y-108604762D01*
X168585631Y-108875251D01*
X168584069Y-108884246D01*
X168556383Y-109161636D01*
X168556136Y-109170763D01*
X168568781Y-109449245D01*
X168569854Y-109458312D01*
X168622569Y-109732051D01*
X168624939Y-109740868D01*
X168716617Y-110004130D01*
X168720236Y-110012513D01*
X168848957Y-110259784D01*
X168853747Y-110267556D01*
X169016814Y-110493655D01*
X169022677Y-110500655D01*
X169216676Y-110700846D01*
X169223488Y-110706925D01*
X169444354Y-110877014D01*
X169451972Y-110882047D01*
X169695077Y-111018471D01*
X169703342Y-111022351D01*
X169963594Y-111122253D01*
X169972333Y-111124900D01*
X170244281Y-111186186D01*
X170253310Y-111187543D01*
X170531256Y-111208930D01*
X170540386Y-111208970D01*
X170818509Y-111190010D01*
X170827550Y-111188731D01*
X171100023Y-111129821D01*
X171108784Y-111127250D01*
X171369898Y-111029623D01*
X171378196Y-111025815D01*
X171622483Y-110891517D01*
X171630145Y-110886551D01*
X171852486Y-110718396D01*
X171859351Y-110712376D01*
X172055089Y-110513886D01*
X172061012Y-110506938D01*
X172226047Y-110282270D01*
X172230905Y-110274540D01*
X172361780Y-110028403D01*
X172365471Y-110020052D01*
X172459443Y-109757599D01*
X172461891Y-109748803D01*
X172517159Y-109474698D01*
X172518381Y-109463930D01*
X172528684Y-109083173D01*
X172528046Y-109072354D01*
X172487681Y-108795661D01*
X172485713Y-108786745D01*
X172406072Y-108519596D01*
X172402838Y-108511057D01*
X172285467Y-108258202D01*
X172281033Y-108250220D01*
X172128389Y-108016957D01*
X172122850Y-108009699D01*
X171938132Y-107800914D01*
X171931604Y-107794531D01*
X171718682Y-107614598D01*
X171711300Y-107609225D01*
X171474633Y-107461912D01*
X171466552Y-107457661D01*
X171319000Y-107393197D01*
X171319000Y-104117787D01*
X171512776Y-103993255D01*
X171526397Y-103981452D01*
X171682407Y-103801408D01*
X171692151Y-103786246D01*
X171791116Y-103569542D01*
X171796194Y-103552249D01*
X171821582Y-103375671D01*
X171822224Y-103366694D01*
X171822224Y-102436808D01*
X172093776Y-102436808D01*
X172093776Y-103350379D01*
X172095220Y-103363809D01*
X172161093Y-103666624D01*
X172169723Y-103687458D01*
X172299745Y-103889776D01*
X172311548Y-103903397D01*
X172491592Y-104059407D01*
X172506754Y-104069151D01*
X172723458Y-104168116D01*
X172740751Y-104173194D01*
X172917329Y-104198582D01*
X172926306Y-104199224D01*
X173156191Y-104199224D01*
X173230000Y-104125415D01*
X173485999Y-104125415D01*
X173559808Y-104199224D01*
X173773379Y-104199224D01*
X173786809Y-104197780D01*
X174089624Y-104131907D01*
X174110458Y-104123277D01*
X174312776Y-103993255D01*
X174326397Y-103981452D01*
X174482407Y-103801408D01*
X174492151Y-103786246D01*
X174591116Y-103569542D01*
X174596194Y-103552249D01*
X174621582Y-103375671D01*
X174622224Y-103366694D01*
X174622224Y-102436809D01*
X174548415Y-102363000D01*
X173559809Y-102362999D01*
X173486000Y-102436808D01*
X173485999Y-104125415D01*
X173230000Y-104125415D01*
X173230001Y-102436809D01*
X173156192Y-102363000D01*
X172167585Y-102362999D01*
X172093776Y-102436808D01*
X171822224Y-102436808D01*
X171822224Y-101119621D01*
X171820780Y-101106191D01*
X171820153Y-101103306D01*
X172093776Y-101103306D01*
X172093776Y-102033191D01*
X172167585Y-102107000D01*
X173156191Y-102107001D01*
X173230000Y-102033192D01*
X173230000Y-102033191D01*
X173485999Y-102033191D01*
X173559808Y-102107000D01*
X174548415Y-102107001D01*
X174622224Y-102033192D01*
X174622224Y-101119621D01*
X174620780Y-101106191D01*
X174554907Y-100803376D01*
X174546277Y-100782542D01*
X174416255Y-100580224D01*
X174404452Y-100566603D01*
X174224408Y-100410593D01*
X174209246Y-100400849D01*
X173992542Y-100301884D01*
X173975249Y-100296806D01*
X173798671Y-100271418D01*
X173789694Y-100270776D01*
X173559809Y-100270776D01*
X173486000Y-100344585D01*
X173485999Y-102033191D01*
X173230000Y-102033191D01*
X173230001Y-100344585D01*
X173156192Y-100270776D01*
X172942621Y-100270776D01*
X172929191Y-100272220D01*
X172626376Y-100338093D01*
X172605542Y-100346723D01*
X172403224Y-100476745D01*
X172389603Y-100488548D01*
X172233593Y-100668592D01*
X172223849Y-100683754D01*
X172124884Y-100900458D01*
X172119806Y-100917751D01*
X172094418Y-101094329D01*
X172093776Y-101103306D01*
X171820153Y-101103306D01*
X171754907Y-100803376D01*
X171746277Y-100782542D01*
X171616255Y-100580224D01*
X171604452Y-100566603D01*
X171424408Y-100410593D01*
X171409245Y-100400849D01*
X171322000Y-100361006D01*
X171322000Y-100208624D01*
X171384116Y-100146509D01*
X171394171Y-100133405D01*
X171522233Y-99911595D01*
X171528554Y-99896335D01*
X171594844Y-99648938D01*
X171597000Y-99632562D01*
X171597000Y-99376438D01*
X171594844Y-99360062D01*
X171528554Y-99112665D01*
X171522233Y-99097405D01*
X171394171Y-98875595D01*
X171384116Y-98862491D01*
X171322000Y-98800376D01*
X171322000Y-98431597D01*
X171443913Y-98353248D01*
X171457534Y-98341445D01*
X171559862Y-98223354D01*
X171577252Y-98250413D01*
X171589055Y-98264034D01*
X171767726Y-98418855D01*
X171782889Y-98428599D01*
X171997941Y-98526809D01*
X172015234Y-98531887D01*
X172190466Y-98557082D01*
X172199444Y-98557724D01*
X172783396Y-98557724D01*
X172796826Y-98556280D01*
X173097288Y-98490919D01*
X173118122Y-98482289D01*
X173318913Y-98353248D01*
X173332534Y-98341445D01*
X173432036Y-98226614D01*
X173528062Y-98252344D01*
X173544438Y-98254500D01*
X173800562Y-98254500D01*
X173816938Y-98252344D01*
X174064335Y-98186054D01*
X174079595Y-98179733D01*
X174301405Y-98051671D01*
X174314509Y-98041616D01*
X174495616Y-97860509D01*
X174505671Y-97847405D01*
X174633733Y-97625595D01*
X174640054Y-97610335D01*
X174706344Y-97362938D01*
X174708500Y-97346562D01*
X174708500Y-97090438D01*
X174706344Y-97074062D01*
X174640054Y-96826665D01*
X174633733Y-96811405D01*
X174505671Y-96589595D01*
X174495616Y-96576491D01*
X174421540Y-96502415D01*
X174625999Y-96502415D01*
X174699808Y-96576224D01*
X175088379Y-96576224D01*
X175101809Y-96574780D01*
X175404624Y-96508907D01*
X175425458Y-96500277D01*
X175627776Y-96370255D01*
X175641397Y-96358452D01*
X175797407Y-96178408D01*
X175807151Y-96163246D01*
X175906116Y-95946542D01*
X175911194Y-95929249D01*
X175936582Y-95752671D01*
X175937224Y-95743694D01*
X175937224Y-94838809D01*
X175863415Y-94765000D01*
X174699809Y-94764999D01*
X174626000Y-94838808D01*
X174625999Y-96502415D01*
X174421540Y-96502415D01*
X174370000Y-96450875D01*
X174370001Y-94838809D01*
X174296192Y-94765000D01*
X173132585Y-94764999D01*
X173058776Y-94838808D01*
X173058776Y-95727379D01*
X173060220Y-95740809D01*
X173107656Y-95958872D01*
X173001059Y-95910191D01*
X172983766Y-95905113D01*
X172808534Y-95879918D01*
X172799556Y-95879276D01*
X172215604Y-95879276D01*
X172202174Y-95880720D01*
X171926814Y-95940620D01*
X172008359Y-95799380D01*
X172015900Y-95778663D01*
X172049878Y-95585962D01*
X172050837Y-95575001D01*
X172050837Y-95021309D01*
X171977028Y-94947500D01*
X170610808Y-94947499D01*
X170610807Y-94947500D01*
X169008235Y-94947499D01*
X168996244Y-94941389D01*
X168948126Y-94925755D01*
X168903039Y-94902782D01*
X168884176Y-94896653D01*
X168834193Y-94888737D01*
X168786078Y-94873103D01*
X168766489Y-94870001D01*
X168711191Y-94870001D01*
X168711179Y-94870000D01*
X168344124Y-94870000D01*
X168282009Y-94807884D01*
X168268905Y-94797829D01*
X168047095Y-94669767D01*
X168031835Y-94663446D01*
X167784438Y-94597156D01*
X167768062Y-94595000D01*
X167511938Y-94595000D01*
X167495562Y-94597156D01*
X167248165Y-94663446D01*
X167232905Y-94669767D01*
X167011095Y-94797829D01*
X166997991Y-94807884D01*
X166816884Y-94988991D01*
X166806829Y-95002095D01*
X166678767Y-95223905D01*
X166672446Y-95239165D01*
X166606156Y-95486562D01*
X166604000Y-95502938D01*
X166604000Y-95759062D01*
X166606156Y-95775438D01*
X166640056Y-95901955D01*
X166437212Y-95946081D01*
X166416378Y-95954711D01*
X166215587Y-96083752D01*
X166201966Y-96095555D01*
X166166530Y-96136450D01*
X166109010Y-96067899D01*
X166092121Y-96053728D01*
X165917880Y-95953130D01*
X165897163Y-95945589D01*
X165704462Y-95911611D01*
X165693501Y-95910652D01*
X164879742Y-95910652D01*
X164863366Y-95912808D01*
X164584142Y-95987626D01*
X164559662Y-96000369D01*
X164403410Y-96131479D01*
X164389239Y-96148368D01*
X164342664Y-96229038D01*
X164340120Y-96224151D01*
X164209010Y-96067899D01*
X164192121Y-96053728D01*
X164017880Y-95953130D01*
X163997163Y-95945589D01*
X163804462Y-95911611D01*
X163793501Y-95910652D01*
X163589809Y-95910652D01*
X163516000Y-95984461D01*
X163515999Y-96800681D01*
X163516000Y-96800682D01*
X163515999Y-98020517D01*
X163547778Y-98052296D01*
X163471275Y-98116489D01*
X161721337Y-98116489D01*
X161721337Y-97547742D01*
X161719181Y-97531366D01*
X161644363Y-97252142D01*
X161631620Y-97227662D01*
X161612015Y-97204297D01*
X162346163Y-97204297D01*
X162346163Y-97460747D01*
X162348319Y-97477123D01*
X162423137Y-97756348D01*
X162435880Y-97780828D01*
X162566990Y-97937079D01*
X162583879Y-97951250D01*
X162758120Y-98051848D01*
X162778837Y-98059389D01*
X162971538Y-98093367D01*
X162982499Y-98094326D01*
X163186191Y-98094326D01*
X163260000Y-98020517D01*
X163260001Y-97204298D01*
X163186192Y-97130489D01*
X162419972Y-97130488D01*
X162346163Y-97204297D01*
X161612015Y-97204297D01*
X161500510Y-97071410D01*
X161483621Y-97057239D01*
X161309380Y-96956641D01*
X161288663Y-96949100D01*
X161095962Y-96915122D01*
X161085001Y-96914163D01*
X158571242Y-96914163D01*
X158554866Y-96916319D01*
X158275642Y-96991137D01*
X158251162Y-97003880D01*
X158094910Y-97134990D01*
X158080739Y-97151879D01*
X157980141Y-97326120D01*
X157972600Y-97346837D01*
X157938622Y-97539538D01*
X157937663Y-97550499D01*
X147192000Y-97550499D01*
X147192000Y-96546988D01*
X162346163Y-96546988D01*
X162346163Y-96800680D01*
X162419972Y-96874489D01*
X163186191Y-96874490D01*
X163260000Y-96800681D01*
X163260001Y-95984461D01*
X163186192Y-95910652D01*
X162979742Y-95910652D01*
X162963366Y-95912808D01*
X162684142Y-95987626D01*
X162659662Y-96000369D01*
X162503410Y-96131479D01*
X162489239Y-96148368D01*
X162388641Y-96322609D01*
X162381100Y-96343326D01*
X162347122Y-96536027D01*
X162346163Y-96546988D01*
X147192000Y-96546988D01*
X147192000Y-96379560D01*
X147230405Y-96401733D01*
X147245665Y-96408054D01*
X147493062Y-96474344D01*
X147509438Y-96476500D01*
X147765562Y-96476500D01*
X147781938Y-96474344D01*
X148029335Y-96408054D01*
X148044595Y-96401733D01*
X148266405Y-96273671D01*
X148279509Y-96263616D01*
X148460616Y-96082509D01*
X148470671Y-96069405D01*
X148598733Y-95847595D01*
X148605054Y-95832335D01*
X148671344Y-95584938D01*
X148673500Y-95568562D01*
X148673500Y-95567643D01*
X148854835Y-95519054D01*
X148870095Y-95512733D01*
X149091905Y-95384671D01*
X149105009Y-95374616D01*
X149286116Y-95193509D01*
X149296171Y-95180405D01*
X149424233Y-94958595D01*
X149430554Y-94943335D01*
X149496844Y-94695938D01*
X149499000Y-94679562D01*
X149499000Y-94423438D01*
X149496844Y-94407062D01*
X149430554Y-94159665D01*
X149424233Y-94144405D01*
X149296171Y-93922595D01*
X149286116Y-93909491D01*
X149105009Y-93728384D01*
X149091905Y-93718329D01*
X148870095Y-93590267D01*
X148854835Y-93583946D01*
X148607438Y-93517656D01*
X148591062Y-93515500D01*
X148334938Y-93515500D01*
X148318562Y-93517656D01*
X148071165Y-93583946D01*
X148055905Y-93590267D01*
X147834095Y-93718329D01*
X147820991Y-93728384D01*
X147758876Y-93790500D01*
X147192000Y-93790500D01*
X147192000Y-87659308D01*
X153410276Y-87659308D01*
X153410276Y-87822880D01*
X153411720Y-87836310D01*
X153477593Y-88139124D01*
X153486223Y-88159958D01*
X153616245Y-88362277D01*
X153628048Y-88375898D01*
X153808092Y-88531907D01*
X153823254Y-88541651D01*
X154039958Y-88640616D01*
X154057251Y-88645694D01*
X154233828Y-88671082D01*
X154242805Y-88671724D01*
X154547691Y-88671724D01*
X154621500Y-88597915D01*
X154877499Y-88597915D01*
X154951308Y-88671724D01*
X155239880Y-88671724D01*
X155253310Y-88670280D01*
X155556124Y-88604407D01*
X155576958Y-88595777D01*
X155779277Y-88465755D01*
X155792898Y-88453952D01*
X155948907Y-88273908D01*
X155958651Y-88258746D01*
X156057616Y-88042042D01*
X156062694Y-88024749D01*
X156088082Y-87848172D01*
X156088724Y-87839195D01*
X156088724Y-87659309D01*
X156014915Y-87585500D01*
X154951309Y-87585499D01*
X154877500Y-87659308D01*
X154877499Y-88597915D01*
X154621500Y-88597915D01*
X154621501Y-87659309D01*
X154547692Y-87585500D01*
X153484085Y-87585499D01*
X153410276Y-87659308D01*
X147192000Y-87659308D01*
X147192000Y-77814633D01*
X149829886Y-77814633D01*
X149839001Y-77930449D01*
X149999963Y-78047394D01*
X150008405Y-78052567D01*
X150249757Y-78175542D01*
X150258905Y-78179331D01*
X150516523Y-78263037D01*
X150526151Y-78265348D01*
X150793692Y-78307722D01*
X150803563Y-78308499D01*
X151074437Y-78308499D01*
X151084308Y-78307722D01*
X151351849Y-78265348D01*
X151361477Y-78263037D01*
X151619095Y-78179331D01*
X151628243Y-78175542D01*
X151869595Y-78052567D01*
X151878037Y-78047394D01*
X152038999Y-77930449D01*
X152048114Y-77814633D01*
X150991191Y-76757710D01*
X150886809Y-76757710D01*
X149829886Y-77814633D01*
X147192000Y-77814633D01*
X147192000Y-76389063D01*
X149155001Y-76389063D01*
X149155001Y-76659937D01*
X149155778Y-76669808D01*
X149198152Y-76937349D01*
X149200463Y-76946977D01*
X149284169Y-77204595D01*
X149287958Y-77213743D01*
X149410933Y-77455095D01*
X149416106Y-77463537D01*
X149533051Y-77624499D01*
X149648867Y-77633614D01*
X150705790Y-76576691D01*
X150705790Y-76472309D01*
X149648867Y-75415386D01*
X149533051Y-75424501D01*
X149416106Y-75585463D01*
X149410933Y-75593905D01*
X149287958Y-75835257D01*
X149284169Y-75844405D01*
X149200463Y-76102023D01*
X149198152Y-76111651D01*
X149155778Y-76379192D01*
X149155001Y-76389063D01*
X147192000Y-76389063D01*
X147192000Y-75234367D01*
X149829886Y-75234367D01*
X150886809Y-76291290D01*
X150991191Y-76291290D01*
X152048114Y-75234367D01*
X152038999Y-75118551D01*
X151878037Y-75001606D01*
X151869595Y-74996433D01*
X151628243Y-74873458D01*
X151619095Y-74869669D01*
X151361477Y-74785963D01*
X151351849Y-74783652D01*
X151084308Y-74741278D01*
X151074437Y-74740501D01*
X150803563Y-74740501D01*
X150793692Y-74741278D01*
X150526151Y-74783652D01*
X150516523Y-74785963D01*
X150258905Y-74869669D01*
X150249757Y-74873458D01*
X150008405Y-74996433D01*
X149999963Y-75001606D01*
X149839001Y-75118551D01*
X149829886Y-75234367D01*
X147192000Y-75234367D01*
X147192000Y-72345076D01*
X147242721Y-72548505D01*
X147246169Y-72558604D01*
X147343091Y-72779400D01*
X147348192Y-72788775D01*
X147480930Y-72990084D01*
X147487538Y-72998465D01*
X147652298Y-73174532D01*
X147660222Y-73181680D01*
X147852292Y-73327468D01*
X147861308Y-73333179D01*
X148075196Y-73444521D01*
X148085045Y-73448631D01*
X148314634Y-73522345D01*
X148325035Y-73524736D01*
X148438662Y-73540907D01*
X148525500Y-73465552D01*
X148525501Y-72274308D01*
X148525500Y-72274307D01*
X148525501Y-70678701D01*
X148440481Y-70603482D01*
X148352974Y-70614226D01*
X148342530Y-70616418D01*
X148111568Y-70685710D01*
X148101642Y-70689630D01*
X147885655Y-70796846D01*
X147876532Y-70802382D01*
X147681699Y-70944457D01*
X147673638Y-70951452D01*
X147505529Y-71124322D01*
X147498763Y-71132574D01*
X147362183Y-71331298D01*
X147356903Y-71340573D01*
X147255760Y-71559468D01*
X147252118Y-71569500D01*
X147192000Y-71792308D01*
X147192000Y-69214000D01*
X156846000Y-69214000D01*
X156846000Y-69566163D01*
G37*
%TD.AperFunction*%
%TD*%
M02*
