%TF.GenerationSoftware,KiCad,Pcbnew,5.99.0-unknown-a61ea1f~102~ubuntu18.04.1*%
%TF.CreationDate,2020-07-28T16:03:14+02:00*%
%TF.ProjectId,switch,73776974-6368-42e6-9b69-6361645f7063,rev?*%
%TF.SameCoordinates,Original*%
%TF.FileFunction,Copper,L2,Bot*%
%TF.FilePolarity,Positive*%
%FSLAX46Y46*%
G04 Gerber Fmt 4.6, Leading zero omitted, Abs format (unit mm)*
G04 Created by KiCad (PCBNEW 5.99.0-unknown-a61ea1f~102~ubuntu18.04.1) date 2020-07-28 16:03:14*
%MOMM*%
%LPD*%
G01*
G04 APERTURE LIST*
%TA.AperFunction,ComponentPad*%
%ADD10C,2.010000*%
%TD*%
%TA.AperFunction,ComponentPad*%
%ADD11O,2.500000X2.500000*%
%TD*%
%TA.AperFunction,ComponentPad*%
%ADD12R,2.500000X2.500000*%
%TD*%
%TA.AperFunction,ComponentPad*%
%ADD13O,2.400000X1.600000*%
%TD*%
%TA.AperFunction,ComponentPad*%
%ADD14R,2.400000X1.600000*%
%TD*%
%TA.AperFunction,ComponentPad*%
%ADD15C,1.800000*%
%TD*%
%TA.AperFunction,ComponentPad*%
%ADD16C,2.300000*%
%TD*%
%TA.AperFunction,ComponentPad*%
%ADD17R,2.300000X2.000000*%
%TD*%
%TA.AperFunction,ComponentPad*%
%ADD18O,1.700000X1.700000*%
%TD*%
%TA.AperFunction,ComponentPad*%
%ADD19R,1.700000X1.700000*%
%TD*%
%TA.AperFunction,ComponentPad*%
%ADD20C,2.700000*%
%TD*%
%TA.AperFunction,ComponentPad*%
%ADD21R,2.700000X2.700000*%
%TD*%
%TA.AperFunction,ComponentPad*%
%ADD22O,1.600000X1.600000*%
%TD*%
%TA.AperFunction,ComponentPad*%
%ADD23C,1.600000*%
%TD*%
%TA.AperFunction,ComponentPad*%
%ADD24C,2.000000*%
%TD*%
%TA.AperFunction,ViaPad*%
%ADD25C,0.800000*%
%TD*%
%TA.AperFunction,Conductor*%
%ADD26C,0.250000*%
%TD*%
%TA.AperFunction,Conductor*%
%ADD27C,1.250000*%
%TD*%
%TA.AperFunction,Conductor*%
%ADD28C,1.000000*%
%TD*%
%TA.AperFunction,Conductor*%
%ADD29C,0.500000*%
%TD*%
%TA.AperFunction,Conductor*%
%ADD30C,0.254000*%
%TD*%
G04 APERTURE END LIST*
D10*
%TO.P,F1,2*%
%TO.N,/N*%
X109606400Y-76371600D03*
%TO.P,F1,1*%
%TO.N,Net-(F1-Pad1)*%
X114706400Y-77571600D03*
%TD*%
D11*
%TO.P,K1,8*%
%TO.N,+5V*%
X159829500Y-106306000D03*
%TO.P,K1,7*%
%TO.N,Net-(J1-Pad3)*%
X144829500Y-106306000D03*
%TO.P,K1,6*%
%TO.N,Net-(J1-Pad2)*%
X139829500Y-106306000D03*
%TO.P,K1,5*%
%TO.N,Net-(J1-Pad1)*%
X134829500Y-106306000D03*
%TO.P,K1,4*%
%TO.N,Net-(J2-Pad1)*%
X134829500Y-98806000D03*
%TO.P,K1,3*%
%TO.N,Net-(J2-Pad2)*%
X139829500Y-98806000D03*
%TO.P,K1,2*%
%TO.N,Net-(J2-Pad3)*%
X144829500Y-98806000D03*
D12*
%TO.P,K1,1*%
%TO.N,Net-(D1-Pad2)*%
X159829500Y-98806000D03*
%TD*%
D13*
%TO.P,U1,4*%
%TO.N,Net-(C3-Pad1)*%
X124436520Y-96611015D03*
%TO.P,U1,2*%
%TO.N,Net-(D2-Pad1)*%
X116816520Y-99151015D03*
%TO.P,U1,3*%
%TO.N,GND*%
X124436520Y-99151015D03*
D14*
%TO.P,U1,1*%
%TO.N,Net-(R1-Pad2)*%
X116816520Y-96611015D03*
%TD*%
D15*
%TO.P,RV1,2*%
%TO.N,Net-(F2-Pad1)*%
X116021500Y-82045000D03*
%TO.P,RV1,1*%
%TO.N,Net-(F1-Pad1)*%
X108521500Y-80645000D03*
%TD*%
D16*
%TO.P,PS1,4,+Vout*%
%TO.N,+5V*%
X150939000Y-91924500D03*
%TO.P,PS1,2,AC/N*%
%TO.N,Net-(F2-Pad1)*%
X121539000Y-86724500D03*
D17*
%TO.P,PS1,1,AC/L*%
%TO.N,Net-(F1-Pad1)*%
X121539000Y-81724500D03*
D16*
%TO.P,PS1,3,-Vout*%
%TO.N,GND*%
X150939000Y-76524500D03*
%TD*%
D18*
%TO.P,JP2,2,B*%
%TO.N,GND*%
X148653500Y-72072500D03*
D19*
%TO.P,JP2,1,A*%
%TO.N,Net-(JP2-Pad1)*%
X151193500Y-72072500D03*
%TD*%
D18*
%TO.P,JP1,2,B*%
%TO.N,Net-(JP1-Pad2)*%
X176212500Y-80518000D03*
D19*
%TO.P,JP1,1,A*%
%TO.N,GND*%
X176212500Y-83058000D03*
%TD*%
D18*
%TO.P,J8,2,Pin_2*%
%TO.N,Net-(J8-Pad2)*%
X176085500Y-70675500D03*
D19*
%TO.P,J8,1,Pin_1*%
%TO.N,Net-(J8-Pad1)*%
X176085500Y-73215500D03*
%TD*%
D20*
%TO.P,J7,4,Pin_4*%
%TO.N,Net-(C2-Pad1)*%
X101600000Y-91327000D03*
%TO.P,J7,3,Pin_3*%
%TO.N,/F*%
X101600000Y-86327000D03*
%TO.P,J7,2,Pin_2*%
%TO.N,Earth*%
X101600000Y-81327000D03*
D21*
%TO.P,J7,1,Pin_1*%
%TO.N,/N*%
X101600000Y-76327000D03*
%TD*%
D20*
%TO.P,J3,2,Pin_2*%
%TO.N,/Control*%
X170544500Y-109220000D03*
%TO.P,J3,1,Pin_1*%
%TO.N,GND*%
%TA.AperFunction,ComponentPad*%
G36*
G01*
X164194500Y-110319999D02*
X164194500Y-108120001D01*
G75*
G02*
X164444501Y-107870000I250001J0D01*
G01*
X166644499Y-107870000D01*
G75*
G02*
X166894500Y-108120001I0J-250001D01*
G01*
X166894500Y-110319999D01*
G75*
G02*
X166644499Y-110570000I-250001J0D01*
G01*
X164444501Y-110570000D01*
G75*
G02*
X164194500Y-110319999I0J250001D01*
G01*
G37*
%TD.AperFunction*%
%TD*%
%TO.P,J2,3,Pin_3*%
%TO.N,Net-(J2-Pad3)*%
X114330500Y-107759500D03*
%TO.P,J2,2,Pin_2*%
%TO.N,Net-(J2-Pad2)*%
X109330500Y-107759500D03*
%TO.P,J2,1,Pin_1*%
%TO.N,Net-(J2-Pad1)*%
%TA.AperFunction,ComponentPad*%
G36*
G01*
X102980500Y-108859499D02*
X102980500Y-106659501D01*
G75*
G02*
X103230501Y-106409500I250001J0D01*
G01*
X105430499Y-106409500D01*
G75*
G02*
X105680500Y-106659501I0J-250001D01*
G01*
X105680500Y-108859499D01*
G75*
G02*
X105430499Y-109109500I-250001J0D01*
G01*
X103230501Y-109109500D01*
G75*
G02*
X102980500Y-108859499I0J250001D01*
G01*
G37*
%TD.AperFunction*%
%TD*%
%TO.P,J1,3,Pin_3*%
%TO.N,Net-(J1-Pad3)*%
X130015000Y-107788872D03*
%TO.P,J1,2,Pin_2*%
%TO.N,Net-(J1-Pad2)*%
X125015000Y-107788872D03*
%TO.P,J1,1,Pin_1*%
%TO.N,Net-(J1-Pad1)*%
%TA.AperFunction,ComponentPad*%
G36*
G01*
X118665000Y-108888871D02*
X118665000Y-106688873D01*
G75*
G02*
X118915001Y-106438872I250001J0D01*
G01*
X121114999Y-106438872D01*
G75*
G02*
X121365000Y-106688873I0J-250001D01*
G01*
X121365000Y-108888871D01*
G75*
G02*
X121114999Y-109138872I-250001J0D01*
G01*
X118915001Y-109138872D01*
G75*
G02*
X118665000Y-108888871I0J250001D01*
G01*
G37*
%TD.AperFunction*%
%TD*%
D22*
%TO.P,F2,2*%
%TO.N,/F*%
X108775500Y-86360000D03*
D23*
%TO.P,F2,1*%
%TO.N,Net-(F2-Pad1)*%
X116395500Y-86360000D03*
%TD*%
D24*
%TO.P,C2,2*%
%TO.N,Net-(C2-Pad2)*%
X110498011Y-97917000D03*
%TO.P,C2,1*%
%TO.N,Net-(C2-Pad1)*%
X100498011Y-97917000D03*
%TD*%
D25*
%TO.N,/Control*%
X170561000Y-77724000D03*
%TO.N,Net-(C3-Pad1)*%
X170656500Y-74708000D03*
X148463000Y-94551500D03*
%TO.N,GND*%
X147701000Y-93345000D03*
%TO.N,/Relay*%
X167640000Y-95631000D03*
%TO.N,/Control*%
X170561000Y-99504500D03*
%TO.N,+5V*%
X166116000Y-90219500D03*
X158750000Y-94678500D03*
%TO.N,/Relay*%
X159448500Y-80708500D03*
%TO.N,+3V3*%
X166751000Y-92519500D03*
X167767000Y-92519500D03*
X168783000Y-92519500D03*
X165735000Y-92519500D03*
X173672500Y-97218500D03*
%TO.N,Net-(F1-Pad1)*%
X105854500Y-89535000D03*
%TO.N,+3V3*%
X153352500Y-73723500D03*
X159448500Y-84201000D03*
X177482500Y-75946000D03*
X147637500Y-95440500D03*
%TD*%
D26*
%TO.N,GND*%
X124436520Y-99151015D02*
X131226985Y-99151015D01*
X131226985Y-99151015D02*
X131635500Y-98742500D01*
X147701000Y-94170500D02*
X147701000Y-93345000D01*
X131635500Y-95186500D02*
X132397500Y-94424500D01*
X124436520Y-99151015D02*
X124790005Y-99504500D01*
X131635500Y-98742500D02*
X131635500Y-95186500D01*
X147447000Y-94424500D02*
X147701000Y-94170500D01*
X132397500Y-94424500D02*
X147447000Y-94424500D01*
%TO.N,/Control*%
X170561000Y-77724000D02*
X170561000Y-95948500D01*
X170561000Y-95948500D02*
X170561000Y-99504500D01*
%TO.N,/Detec.*%
X170656500Y-74708000D02*
X157702000Y-74708000D01*
X157702000Y-74708000D02*
X157130750Y-75279250D01*
X157130750Y-75279250D02*
X157130750Y-77120750D01*
X154178000Y-94551500D02*
X157130750Y-91598750D01*
X148463000Y-94551500D02*
X154178000Y-94551500D01*
X157130750Y-91598750D02*
X157130750Y-77120750D01*
D27*
%TO.N,Net-(J1-Pad2)*%
X139829500Y-110360500D02*
X138811000Y-111252000D01*
X139829500Y-106306000D02*
X139829500Y-110360500D01*
X138811000Y-111252000D02*
X125857000Y-111252000D01*
X125857000Y-111252000D02*
X125031500Y-110553500D01*
X125031500Y-110553500D02*
X125015000Y-107788872D01*
%TO.N,Net-(J2-Pad3)*%
X114935000Y-104013000D02*
X114330500Y-104490500D01*
X133477000Y-104013000D02*
X114935000Y-104013000D01*
X114330500Y-104490500D02*
X114330500Y-107759500D01*
%TO.N,Net-(J2-Pad1)*%
X104679750Y-102076250D02*
X104394000Y-102362000D01*
D26*
X104394000Y-102362000D02*
X104330500Y-102425500D01*
D27*
X104330500Y-102425500D02*
X104330500Y-103505000D01*
X132905500Y-101727000D02*
X105029000Y-101727000D01*
D28*
X105029000Y-101727000D02*
X104679750Y-102076250D01*
D27*
X104330500Y-103505000D02*
X104330500Y-107759500D01*
X134829500Y-98806000D02*
X134874000Y-99758500D01*
X134874000Y-99758500D02*
X132905500Y-101727000D01*
%TO.N,Net-(J2-Pad3)*%
X144829500Y-100852000D02*
X143764000Y-101917500D01*
X144829500Y-98806000D02*
X144829500Y-100852000D01*
X143764000Y-101917500D02*
X136080500Y-101917500D01*
X136080500Y-101917500D02*
X133604000Y-104013000D01*
D26*
%TO.N,/Relay*%
X167640000Y-95631000D02*
X169227500Y-95631000D01*
X169926000Y-81153000D02*
X169481500Y-80708500D01*
X169926000Y-94932500D02*
X169926000Y-81153000D01*
X169227500Y-95631000D02*
X169926000Y-94932500D01*
X169481500Y-80708500D02*
X159448500Y-80708500D01*
D29*
%TO.N,+5V*%
X158750000Y-94678500D02*
X156972000Y-96456500D01*
X156972000Y-96456500D02*
X156972000Y-105600500D01*
X156972000Y-105600500D02*
X157677500Y-106306000D01*
X157677500Y-106306000D02*
X159829500Y-106306000D01*
X164274500Y-91440000D02*
X164274500Y-93662500D01*
X165495000Y-90219500D02*
X164274500Y-91440000D01*
X164274500Y-93662500D02*
X163258500Y-94678500D01*
X166116000Y-90219500D02*
X165495000Y-90219500D01*
X163258500Y-94678500D02*
X158750000Y-94678500D01*
%TO.N,Net-(F1-Pad1)*%
X105854500Y-88519000D02*
X105854500Y-81597500D01*
D26*
X105854500Y-81597500D02*
X106045000Y-81407000D01*
D29*
X105854500Y-89535000D02*
X105854500Y-88519000D01*
X106045000Y-81407000D02*
X106807000Y-80645000D01*
X106807000Y-80645000D02*
X108521500Y-80645000D01*
%TD*%
%TO.N,+3V3*%
D30*
X156846000Y-69933941D02*
X156919809Y-70007750D01*
X173280191Y-70007750D01*
X173354000Y-69933941D01*
X173354000Y-69214000D01*
X175811255Y-69214000D01*
X175784974Y-69217227D01*
X175774530Y-69219418D01*
X175543568Y-69288710D01*
X175533642Y-69292630D01*
X175317655Y-69399846D01*
X175308532Y-69405382D01*
X175113699Y-69547457D01*
X175105638Y-69554452D01*
X174937529Y-69727322D01*
X174930763Y-69735574D01*
X174794183Y-69934298D01*
X174788903Y-69943573D01*
X174687760Y-70162468D01*
X174684118Y-70172500D01*
X174621302Y-70405307D01*
X174619403Y-70415809D01*
X174596711Y-70655872D01*
X174596609Y-70666543D01*
X174614688Y-70906997D01*
X174616385Y-70917534D01*
X174674721Y-71151505D01*
X174678169Y-71161604D01*
X174775091Y-71382400D01*
X174780192Y-71391775D01*
X174912930Y-71593084D01*
X174919538Y-71601465D01*
X175070981Y-71763301D01*
X174931642Y-71800637D01*
X174907162Y-71813380D01*
X174750910Y-71944490D01*
X174736739Y-71961379D01*
X174636141Y-72135620D01*
X174628600Y-72156337D01*
X174594622Y-72349038D01*
X174593663Y-72359999D01*
X174593663Y-74073758D01*
X174595819Y-74090134D01*
X174670637Y-74369359D01*
X174683380Y-74393839D01*
X174814490Y-74550090D01*
X174831379Y-74564261D01*
X175005620Y-74664859D01*
X175026337Y-74672400D01*
X175219038Y-74706378D01*
X175229999Y-74707337D01*
X176943758Y-74707337D01*
X176960134Y-74705181D01*
X177239359Y-74630363D01*
X177263839Y-74617620D01*
X177420090Y-74486510D01*
X177434261Y-74469621D01*
X177534859Y-74295380D01*
X177542400Y-74274663D01*
X177576378Y-74081962D01*
X177577337Y-74071001D01*
X177577337Y-72357242D01*
X177575181Y-72340866D01*
X177500363Y-72061642D01*
X177487620Y-72037162D01*
X177356510Y-71880910D01*
X177339621Y-71866739D01*
X177165380Y-71766141D01*
X177144663Y-71758600D01*
X177109825Y-71752457D01*
X177139145Y-71727504D01*
X177146658Y-71719924D01*
X177301333Y-71534935D01*
X177307462Y-71526198D01*
X177428756Y-71317794D01*
X177433325Y-71308150D01*
X177517772Y-71082287D01*
X177520651Y-71072011D01*
X177565892Y-70834851D01*
X177567007Y-70823628D01*
X177569577Y-70555841D01*
X177568678Y-70544599D01*
X177527999Y-70306614D01*
X177525317Y-70296284D01*
X177445223Y-70068843D01*
X177440839Y-70059112D01*
X177323567Y-69848416D01*
X177317607Y-69839564D01*
X177166513Y-69651640D01*
X177159147Y-69643917D01*
X176978549Y-69484138D01*
X176969986Y-69477767D01*
X176765049Y-69350702D01*
X176755536Y-69345865D01*
X176532119Y-69255145D01*
X176521927Y-69251980D01*
X176349185Y-69214000D01*
X179071001Y-69214000D01*
X179071000Y-114809000D01*
X147192000Y-114809000D01*
X147192000Y-111946100D01*
X174073597Y-111946100D01*
X174073597Y-111954900D01*
X174093800Y-112243820D01*
X174095025Y-112252535D01*
X174155241Y-112535832D01*
X174157667Y-112544291D01*
X174256726Y-112816450D01*
X174260305Y-112824489D01*
X174396275Y-113080214D01*
X174400939Y-113087677D01*
X174571177Y-113321990D01*
X174576834Y-113328731D01*
X174778025Y-113537070D01*
X174784564Y-113542958D01*
X175012793Y-113721270D01*
X175020088Y-113726191D01*
X175270911Y-113871004D01*
X175278821Y-113874862D01*
X175547358Y-113983358D01*
X175555728Y-113986078D01*
X175836750Y-114056144D01*
X175845416Y-114057672D01*
X176133456Y-114087947D01*
X176142251Y-114088254D01*
X176431701Y-114078146D01*
X176440453Y-114077226D01*
X176725678Y-114026933D01*
X176734216Y-114024804D01*
X177009668Y-113935304D01*
X177017827Y-113932008D01*
X177278141Y-113805044D01*
X177285763Y-113800644D01*
X177525873Y-113638687D01*
X177532808Y-113633269D01*
X177748041Y-113439472D01*
X177754154Y-113433142D01*
X177940323Y-113211276D01*
X177945495Y-113204156D01*
X178098974Y-112958539D01*
X178103105Y-112950769D01*
X178220906Y-112686182D01*
X178223916Y-112677913D01*
X178303748Y-112399507D01*
X178305577Y-112390899D01*
X178345886Y-112104092D01*
X178346500Y-112095313D01*
X178346500Y-111805687D01*
X178345886Y-111796908D01*
X178305577Y-111510101D01*
X178303748Y-111501493D01*
X178223916Y-111223087D01*
X178220906Y-111214818D01*
X178103105Y-110950231D01*
X178098974Y-110942461D01*
X177945495Y-110696844D01*
X177940323Y-110689724D01*
X177754154Y-110467858D01*
X177748041Y-110461528D01*
X177532808Y-110267731D01*
X177525873Y-110262313D01*
X177285763Y-110100356D01*
X177278141Y-110095956D01*
X177017827Y-109968992D01*
X177009668Y-109965696D01*
X176734216Y-109876196D01*
X176725678Y-109874067D01*
X176440453Y-109823774D01*
X176431701Y-109822854D01*
X176142251Y-109812746D01*
X176133456Y-109813053D01*
X175845416Y-109843328D01*
X175836750Y-109844856D01*
X175555728Y-109914922D01*
X175547358Y-109917642D01*
X175278821Y-110026138D01*
X175270911Y-110029996D01*
X175020088Y-110174809D01*
X175012793Y-110179730D01*
X174784564Y-110358042D01*
X174778025Y-110363930D01*
X174576834Y-110572269D01*
X174571177Y-110579010D01*
X174400939Y-110813323D01*
X174396275Y-110820786D01*
X174260305Y-111076511D01*
X174256726Y-111084550D01*
X174157667Y-111356709D01*
X174155241Y-111365168D01*
X174095025Y-111648465D01*
X174093800Y-111657180D01*
X174073597Y-111946100D01*
X147192000Y-111946100D01*
X147192000Y-96508336D01*
X156079644Y-96508336D01*
X156080865Y-96526247D01*
X156086000Y-96550303D01*
X156086001Y-105501237D01*
X156081785Y-105519869D01*
X156080345Y-105537765D01*
X156086001Y-105628929D01*
X156086001Y-105659552D01*
X156086638Y-105668494D01*
X156089845Y-105690890D01*
X156094937Y-105772964D01*
X156098578Y-105790544D01*
X156107759Y-105815976D01*
X156111593Y-105842747D01*
X156116632Y-105859979D01*
X156150669Y-105934842D01*
X156178660Y-106012377D01*
X156187320Y-106028545D01*
X156202762Y-106049413D01*
X156214167Y-106074498D01*
X156223840Y-106089623D01*
X156285274Y-106160920D01*
X156299119Y-106179631D01*
X156305223Y-106186715D01*
X156321675Y-106203166D01*
X156377664Y-106268145D01*
X156391193Y-106279947D01*
X156411834Y-106293326D01*
X156980813Y-106862306D01*
X156991006Y-106878462D01*
X157002643Y-106892135D01*
X157071108Y-106952601D01*
X157092759Y-106974253D01*
X157099533Y-106980126D01*
X157117638Y-106993695D01*
X157179272Y-107048128D01*
X157194277Y-107057985D01*
X157218755Y-107069477D01*
X157240396Y-107085696D01*
X157256143Y-107094317D01*
X157333148Y-107123184D01*
X157407765Y-107158217D01*
X157425320Y-107163526D01*
X157450994Y-107167363D01*
X157476798Y-107177036D01*
X157494332Y-107180891D01*
X157588179Y-107187865D01*
X157611209Y-107191307D01*
X157620534Y-107192000D01*
X157643819Y-107192000D01*
X157729336Y-107198356D01*
X157747248Y-107197135D01*
X157771303Y-107192000D01*
X158161589Y-107192000D01*
X158163347Y-107195949D01*
X158167773Y-107204186D01*
X158313191Y-107432447D01*
X158318785Y-107439939D01*
X158496346Y-107644198D01*
X158502986Y-107650781D01*
X158708788Y-107826552D01*
X158716329Y-107832082D01*
X158945850Y-107975502D01*
X158954125Y-107979855D01*
X159202324Y-108087776D01*
X159211152Y-108090859D01*
X159472576Y-108160907D01*
X159481762Y-108162651D01*
X159750669Y-108193289D01*
X159760013Y-108193656D01*
X160030495Y-108184211D01*
X160039790Y-108183193D01*
X160305904Y-108133871D01*
X160314946Y-108131490D01*
X160512965Y-108063307D01*
X163555276Y-108063307D01*
X163555276Y-110360378D01*
X163556720Y-110373808D01*
X163622593Y-110676623D01*
X163631223Y-110697457D01*
X163761245Y-110899776D01*
X163773048Y-110913397D01*
X163953092Y-111069407D01*
X163968254Y-111079151D01*
X164184959Y-111178116D01*
X164202252Y-111183194D01*
X164378830Y-111208582D01*
X164387807Y-111209224D01*
X166684878Y-111209224D01*
X166698308Y-111207780D01*
X167001123Y-111141907D01*
X167021957Y-111133277D01*
X167224276Y-111003255D01*
X167237897Y-110991452D01*
X167393907Y-110811408D01*
X167403651Y-110796246D01*
X167502616Y-110579541D01*
X167507694Y-110562248D01*
X167533082Y-110385670D01*
X167533724Y-110376693D01*
X167533724Y-109170763D01*
X168556136Y-109170763D01*
X168568781Y-109449245D01*
X168569854Y-109458312D01*
X168622569Y-109732051D01*
X168624939Y-109740868D01*
X168716617Y-110004130D01*
X168720236Y-110012513D01*
X168848957Y-110259784D01*
X168853747Y-110267556D01*
X169016814Y-110493655D01*
X169022677Y-110500655D01*
X169216676Y-110700846D01*
X169223488Y-110706925D01*
X169444354Y-110877014D01*
X169451972Y-110882047D01*
X169695077Y-111018471D01*
X169703342Y-111022351D01*
X169963594Y-111122253D01*
X169972333Y-111124900D01*
X170244281Y-111186186D01*
X170253310Y-111187543D01*
X170531256Y-111208930D01*
X170540386Y-111208970D01*
X170818509Y-111190010D01*
X170827550Y-111188731D01*
X171100023Y-111129821D01*
X171108784Y-111127250D01*
X171369898Y-111029623D01*
X171378196Y-111025815D01*
X171622483Y-110891517D01*
X171630145Y-110886551D01*
X171852486Y-110718396D01*
X171859351Y-110712376D01*
X172055089Y-110513886D01*
X172061012Y-110506938D01*
X172226047Y-110282270D01*
X172230905Y-110274540D01*
X172361780Y-110028403D01*
X172365471Y-110020052D01*
X172459443Y-109757599D01*
X172461891Y-109748803D01*
X172517159Y-109474698D01*
X172518381Y-109463930D01*
X172528684Y-109083173D01*
X172528046Y-109072354D01*
X172487681Y-108795661D01*
X172485713Y-108786745D01*
X172406072Y-108519596D01*
X172402838Y-108511057D01*
X172285467Y-108258202D01*
X172281033Y-108250220D01*
X172128389Y-108016957D01*
X172122850Y-108009699D01*
X171938132Y-107800914D01*
X171931604Y-107794531D01*
X171718682Y-107614598D01*
X171711300Y-107609225D01*
X171474633Y-107461912D01*
X171466552Y-107457661D01*
X171211100Y-107346057D01*
X171202490Y-107343016D01*
X170933603Y-107269457D01*
X170924645Y-107267692D01*
X170647953Y-107233718D01*
X170638834Y-107233264D01*
X170360138Y-107239589D01*
X170351049Y-107240456D01*
X170076185Y-107286946D01*
X170067316Y-107289116D01*
X169802041Y-107374797D01*
X169793578Y-107378225D01*
X169543451Y-107501303D01*
X169535572Y-107505916D01*
X169305833Y-107663812D01*
X169298702Y-107669514D01*
X169094161Y-107858922D01*
X169087928Y-107865594D01*
X168912872Y-108082543D01*
X168907667Y-108090045D01*
X168765763Y-108329993D01*
X168761696Y-108338168D01*
X168655915Y-108596086D01*
X168653071Y-108604762D01*
X168585631Y-108875251D01*
X168584069Y-108884246D01*
X168556383Y-109161636D01*
X168556136Y-109170763D01*
X167533724Y-109170763D01*
X167533724Y-108079622D01*
X167532280Y-108066192D01*
X167466407Y-107763377D01*
X167457777Y-107742543D01*
X167327755Y-107540224D01*
X167315952Y-107526603D01*
X167135908Y-107370593D01*
X167120746Y-107360849D01*
X166904041Y-107261884D01*
X166886748Y-107256806D01*
X166710170Y-107231418D01*
X166701193Y-107230776D01*
X164404122Y-107230776D01*
X164390692Y-107232220D01*
X164087877Y-107298093D01*
X164067043Y-107306723D01*
X163864724Y-107436745D01*
X163851103Y-107448548D01*
X163695093Y-107628592D01*
X163685349Y-107643754D01*
X163586384Y-107860459D01*
X163581306Y-107877752D01*
X163555918Y-108054330D01*
X163555276Y-108063307D01*
X160512965Y-108063307D01*
X160570847Y-108043377D01*
X160579438Y-108039686D01*
X160819505Y-107914716D01*
X160827457Y-107909795D01*
X161046414Y-107750713D01*
X161053551Y-107744671D01*
X161246589Y-107554973D01*
X161252754Y-107547943D01*
X161415634Y-107331795D01*
X161420692Y-107323931D01*
X161549834Y-107086081D01*
X161553674Y-107077556D01*
X161646240Y-106823231D01*
X161648778Y-106814232D01*
X161702901Y-106548210D01*
X161704147Y-106537278D01*
X161713682Y-106173151D01*
X161713010Y-106162169D01*
X161672884Y-105893678D01*
X161670820Y-105884558D01*
X161591692Y-105625737D01*
X161588302Y-105617022D01*
X161471786Y-105372742D01*
X161467146Y-105364624D01*
X161315802Y-105140247D01*
X161310013Y-105132904D01*
X161127167Y-104933363D01*
X161120357Y-104926956D01*
X160910025Y-104756632D01*
X160902342Y-104751303D01*
X160669146Y-104613939D01*
X160660759Y-104609803D01*
X160409820Y-104508417D01*
X160400914Y-104505567D01*
X160137746Y-104442385D01*
X160128517Y-104440882D01*
X159858900Y-104417294D01*
X159849550Y-104417172D01*
X159579408Y-104433694D01*
X159570143Y-104434955D01*
X159305411Y-104491225D01*
X159296434Y-104493842D01*
X159042928Y-104588625D01*
X159034436Y-104592539D01*
X158797723Y-104723752D01*
X158789903Y-104728878D01*
X158575185Y-104893638D01*
X158568209Y-104899864D01*
X158380202Y-105094550D01*
X158374222Y-105101739D01*
X158217057Y-105322078D01*
X158212207Y-105330072D01*
X158166386Y-105420000D01*
X158044493Y-105420000D01*
X157858000Y-105233508D01*
X157858000Y-97550499D01*
X157937663Y-97550499D01*
X157937663Y-100064258D01*
X157939819Y-100080634D01*
X158014637Y-100359859D01*
X158027380Y-100384339D01*
X158158490Y-100540590D01*
X158175379Y-100554761D01*
X158349620Y-100655359D01*
X158370337Y-100662900D01*
X158563038Y-100696878D01*
X158573999Y-100697837D01*
X161087758Y-100697837D01*
X161104134Y-100695681D01*
X161383359Y-100620863D01*
X161407839Y-100608120D01*
X161564090Y-100477010D01*
X161578261Y-100460121D01*
X161678859Y-100285880D01*
X161686400Y-100265163D01*
X161720378Y-100072462D01*
X161721337Y-100061501D01*
X161721337Y-97547742D01*
X161719181Y-97531366D01*
X161644363Y-97252142D01*
X161631620Y-97227662D01*
X161500510Y-97071410D01*
X161483621Y-97057239D01*
X161309380Y-96956641D01*
X161288663Y-96949100D01*
X161095962Y-96915122D01*
X161085001Y-96914163D01*
X158571242Y-96914163D01*
X158554866Y-96916319D01*
X158275642Y-96991137D01*
X158251162Y-97003880D01*
X158094910Y-97134990D01*
X158080739Y-97151879D01*
X157980141Y-97326120D01*
X157972600Y-97346837D01*
X157938622Y-97539538D01*
X157937663Y-97550499D01*
X157858000Y-97550499D01*
X157858000Y-96823491D01*
X158996494Y-95684998D01*
X159141835Y-95646054D01*
X159157095Y-95639733D01*
X159287402Y-95564500D01*
X163159242Y-95564500D01*
X163177870Y-95568715D01*
X163195765Y-95570155D01*
X163286913Y-95564500D01*
X163317553Y-95564500D01*
X163326495Y-95563863D01*
X163348894Y-95560655D01*
X163430963Y-95555563D01*
X163448543Y-95551923D01*
X163473976Y-95542742D01*
X163500748Y-95538908D01*
X163517979Y-95533869D01*
X163592853Y-95499827D01*
X163670377Y-95471840D01*
X163686544Y-95463180D01*
X163707408Y-95447741D01*
X163732498Y-95436334D01*
X163747623Y-95426661D01*
X163818928Y-95365220D01*
X163837631Y-95351381D01*
X163844715Y-95345277D01*
X163861159Y-95328832D01*
X163926145Y-95272837D01*
X163937947Y-95259308D01*
X163951326Y-95238666D01*
X164830806Y-94359187D01*
X164846964Y-94348992D01*
X164860635Y-94337357D01*
X164921108Y-94268884D01*
X164942752Y-94247241D01*
X164948625Y-94240467D01*
X164962192Y-94222364D01*
X165016628Y-94160727D01*
X165026485Y-94145723D01*
X165037980Y-94121240D01*
X165054195Y-94099604D01*
X165062816Y-94083857D01*
X165091681Y-94006860D01*
X165126717Y-93932235D01*
X165132026Y-93914679D01*
X165135862Y-93889008D01*
X165145536Y-93863203D01*
X165149391Y-93845668D01*
X165156365Y-93751821D01*
X165159807Y-93728791D01*
X165160500Y-93719466D01*
X165160500Y-93696181D01*
X165166856Y-93610664D01*
X165165635Y-93592752D01*
X165160500Y-93568697D01*
X165160500Y-91806992D01*
X165768547Y-91198946D01*
X165971562Y-91253344D01*
X165987938Y-91255500D01*
X166244062Y-91255500D01*
X166260438Y-91253344D01*
X166507835Y-91187054D01*
X166523095Y-91180733D01*
X166744905Y-91052671D01*
X166758009Y-91042616D01*
X166939116Y-90861509D01*
X166949171Y-90848405D01*
X167077233Y-90626595D01*
X167083554Y-90611335D01*
X167149844Y-90363938D01*
X167152000Y-90347562D01*
X167152000Y-90091438D01*
X167149844Y-90075062D01*
X167083554Y-89827665D01*
X167077233Y-89812405D01*
X166949171Y-89590595D01*
X166939116Y-89577491D01*
X166758009Y-89396384D01*
X166744905Y-89386329D01*
X166523095Y-89258267D01*
X166507835Y-89251946D01*
X166260438Y-89185656D01*
X166244062Y-89183500D01*
X165987938Y-89183500D01*
X165971562Y-89185656D01*
X165724165Y-89251946D01*
X165708905Y-89258267D01*
X165583009Y-89330953D01*
X165575631Y-89329284D01*
X165557735Y-89327844D01*
X165466575Y-89333500D01*
X165435948Y-89333500D01*
X165427007Y-89334137D01*
X165404605Y-89337345D01*
X165322535Y-89342437D01*
X165304956Y-89346077D01*
X165279524Y-89355258D01*
X165252751Y-89359092D01*
X165235521Y-89364131D01*
X165160651Y-89398171D01*
X165083122Y-89426160D01*
X165066956Y-89434820D01*
X165046090Y-89450259D01*
X165021001Y-89461667D01*
X165005876Y-89471339D01*
X164934571Y-89532780D01*
X164915869Y-89546619D01*
X164908785Y-89552722D01*
X164892334Y-89569174D01*
X164827355Y-89625163D01*
X164815553Y-89638692D01*
X164802172Y-89659336D01*
X163718200Y-90743309D01*
X163702037Y-90753507D01*
X163688365Y-90765143D01*
X163627886Y-90833622D01*
X163606248Y-90855260D01*
X163600376Y-90862033D01*
X163586817Y-90880124D01*
X163532371Y-90941774D01*
X163522515Y-90956778D01*
X163511020Y-90981261D01*
X163494805Y-91002897D01*
X163486184Y-91018644D01*
X163457319Y-91095641D01*
X163422283Y-91170266D01*
X163416974Y-91187822D01*
X163413138Y-91213493D01*
X163403464Y-91239298D01*
X163399609Y-91256833D01*
X163392635Y-91350679D01*
X163389193Y-91373710D01*
X163388500Y-91383035D01*
X163388500Y-91406319D01*
X163382144Y-91491836D01*
X163383365Y-91509747D01*
X163388500Y-91533803D01*
X163388501Y-93295506D01*
X162891508Y-93792500D01*
X159287402Y-93792500D01*
X159157095Y-93717267D01*
X159141835Y-93710946D01*
X158894438Y-93644656D01*
X158878062Y-93642500D01*
X158621938Y-93642500D01*
X158605562Y-93644656D01*
X158358165Y-93710946D01*
X158342905Y-93717267D01*
X158121095Y-93845329D01*
X158107991Y-93855384D01*
X157926884Y-94036491D01*
X157916829Y-94049595D01*
X157788767Y-94271405D01*
X157782446Y-94286665D01*
X157743501Y-94432007D01*
X156415700Y-95759809D01*
X156399537Y-95770007D01*
X156385865Y-95781643D01*
X156325386Y-95850122D01*
X156303748Y-95871760D01*
X156297876Y-95878533D01*
X156284317Y-95896624D01*
X156229871Y-95958274D01*
X156220015Y-95973278D01*
X156208520Y-95997761D01*
X156192305Y-96019397D01*
X156183684Y-96035144D01*
X156154819Y-96112141D01*
X156119783Y-96186766D01*
X156114474Y-96204322D01*
X156110638Y-96229993D01*
X156100964Y-96255798D01*
X156097109Y-96273333D01*
X156090135Y-96367179D01*
X156086693Y-96390210D01*
X156086000Y-96399535D01*
X156086000Y-96422819D01*
X156079644Y-96508336D01*
X147192000Y-96508336D01*
X147192000Y-95185500D01*
X147502179Y-95185500D01*
X147502191Y-95185499D01*
X147557489Y-95185499D01*
X147577078Y-95182397D01*
X147622465Y-95167650D01*
X147629829Y-95180405D01*
X147639884Y-95193509D01*
X147820991Y-95374616D01*
X147834095Y-95384671D01*
X148055905Y-95512733D01*
X148071165Y-95519054D01*
X148318562Y-95585344D01*
X148334938Y-95587500D01*
X148591062Y-95587500D01*
X148607438Y-95585344D01*
X148854835Y-95519054D01*
X148870095Y-95512733D01*
X149091905Y-95384671D01*
X149105009Y-95374616D01*
X149167124Y-95312500D01*
X154233179Y-95312500D01*
X154233191Y-95312499D01*
X154288489Y-95312499D01*
X154308078Y-95309397D01*
X154356193Y-95293763D01*
X154406176Y-95285847D01*
X154425039Y-95279718D01*
X154470126Y-95256745D01*
X154518244Y-95241111D01*
X154535916Y-95232106D01*
X154576847Y-95202367D01*
X154621934Y-95179394D01*
X154637980Y-95167736D01*
X154794407Y-95011309D01*
X154794412Y-95011302D01*
X157704194Y-92101521D01*
X157746986Y-92058730D01*
X157758644Y-92042684D01*
X157781615Y-91997602D01*
X157811356Y-91956667D01*
X157820360Y-91938995D01*
X157835993Y-91890879D01*
X157858968Y-91845790D01*
X157865097Y-91826927D01*
X157873013Y-91776944D01*
X157888646Y-91728829D01*
X157891749Y-91709241D01*
X157891749Y-91653941D01*
X157891750Y-91653929D01*
X157891750Y-80580438D01*
X158412500Y-80580438D01*
X158412500Y-80836562D01*
X158414656Y-80852938D01*
X158480946Y-81100335D01*
X158487267Y-81115595D01*
X158615329Y-81337405D01*
X158625384Y-81350509D01*
X158806491Y-81531616D01*
X158819595Y-81541671D01*
X159041405Y-81669733D01*
X159056665Y-81676054D01*
X159304062Y-81742344D01*
X159320438Y-81744500D01*
X159576562Y-81744500D01*
X159592938Y-81742344D01*
X159840335Y-81676054D01*
X159855595Y-81669733D01*
X160077405Y-81541671D01*
X160090509Y-81531616D01*
X160152624Y-81469500D01*
X169165001Y-81469500D01*
X169165000Y-94617284D01*
X168912285Y-94870000D01*
X168344124Y-94870000D01*
X168282009Y-94807884D01*
X168268905Y-94797829D01*
X168047095Y-94669767D01*
X168031835Y-94663446D01*
X167784438Y-94597156D01*
X167768062Y-94595000D01*
X167511938Y-94595000D01*
X167495562Y-94597156D01*
X167248165Y-94663446D01*
X167232905Y-94669767D01*
X167011095Y-94797829D01*
X166997991Y-94807884D01*
X166816884Y-94988991D01*
X166806829Y-95002095D01*
X166678767Y-95223905D01*
X166672446Y-95239165D01*
X166606156Y-95486562D01*
X166604000Y-95502938D01*
X166604000Y-95759062D01*
X166606156Y-95775438D01*
X166672446Y-96022835D01*
X166678767Y-96038095D01*
X166806829Y-96259905D01*
X166816884Y-96273009D01*
X166997991Y-96454116D01*
X167011095Y-96464171D01*
X167232905Y-96592233D01*
X167248165Y-96598554D01*
X167495562Y-96664844D01*
X167511938Y-96667000D01*
X167768062Y-96667000D01*
X167784438Y-96664844D01*
X168031835Y-96598554D01*
X168047095Y-96592233D01*
X168268905Y-96464171D01*
X168282009Y-96454116D01*
X168344124Y-96392000D01*
X169282679Y-96392000D01*
X169282691Y-96391999D01*
X169337989Y-96391999D01*
X169357578Y-96388897D01*
X169405693Y-96373263D01*
X169455676Y-96365347D01*
X169474539Y-96359218D01*
X169519626Y-96336245D01*
X169567744Y-96320611D01*
X169585416Y-96311606D01*
X169626347Y-96281867D01*
X169671434Y-96258894D01*
X169687480Y-96247236D01*
X169800000Y-96134716D01*
X169800001Y-98800375D01*
X169737884Y-98862491D01*
X169727829Y-98875595D01*
X169599767Y-99097405D01*
X169593446Y-99112665D01*
X169527156Y-99360062D01*
X169525000Y-99376438D01*
X169525000Y-99632562D01*
X169527156Y-99648938D01*
X169593446Y-99896335D01*
X169599767Y-99911595D01*
X169727829Y-100133405D01*
X169737884Y-100146509D01*
X169918991Y-100327616D01*
X169932095Y-100337671D01*
X170153905Y-100465733D01*
X170169165Y-100472054D01*
X170416562Y-100538344D01*
X170432938Y-100540500D01*
X170689062Y-100540500D01*
X170705438Y-100538344D01*
X170952835Y-100472054D01*
X170968095Y-100465733D01*
X171189905Y-100337671D01*
X171203009Y-100327616D01*
X171384116Y-100146509D01*
X171394171Y-100133405D01*
X171522233Y-99911595D01*
X171528554Y-99896335D01*
X171594844Y-99648938D01*
X171597000Y-99632562D01*
X171597000Y-99376438D01*
X171594844Y-99360062D01*
X171528554Y-99112665D01*
X171522233Y-99097405D01*
X171394171Y-98875595D01*
X171384116Y-98862491D01*
X171322000Y-98800376D01*
X171322000Y-82202499D01*
X174720663Y-82202499D01*
X174720663Y-83916258D01*
X174722819Y-83932634D01*
X174797637Y-84211859D01*
X174810380Y-84236339D01*
X174941490Y-84392590D01*
X174958379Y-84406761D01*
X175132620Y-84507359D01*
X175153337Y-84514900D01*
X175346038Y-84548878D01*
X175356999Y-84549837D01*
X177070758Y-84549837D01*
X177087134Y-84547681D01*
X177366359Y-84472863D01*
X177390839Y-84460120D01*
X177547090Y-84329010D01*
X177561261Y-84312121D01*
X177661859Y-84137880D01*
X177669400Y-84117163D01*
X177703378Y-83924462D01*
X177704337Y-83913501D01*
X177704337Y-82199742D01*
X177702181Y-82183366D01*
X177627363Y-81904142D01*
X177614620Y-81879662D01*
X177483510Y-81723410D01*
X177466621Y-81709239D01*
X177292380Y-81608641D01*
X177271663Y-81601100D01*
X177236825Y-81594957D01*
X177266145Y-81570004D01*
X177273658Y-81562424D01*
X177428333Y-81377435D01*
X177434462Y-81368698D01*
X177555756Y-81160294D01*
X177560325Y-81150650D01*
X177644772Y-80924787D01*
X177647651Y-80914511D01*
X177692892Y-80677351D01*
X177694007Y-80666128D01*
X177696577Y-80398341D01*
X177695678Y-80387099D01*
X177654999Y-80149114D01*
X177652317Y-80138784D01*
X177572223Y-79911343D01*
X177567839Y-79901612D01*
X177450567Y-79690916D01*
X177444607Y-79682064D01*
X177293513Y-79494140D01*
X177286147Y-79486417D01*
X177105549Y-79326638D01*
X177096986Y-79320267D01*
X176892049Y-79193202D01*
X176882536Y-79188365D01*
X176659119Y-79097645D01*
X176648927Y-79094480D01*
X176413419Y-79042700D01*
X176402840Y-79041298D01*
X176161975Y-79029939D01*
X176151309Y-79030339D01*
X175911974Y-79059727D01*
X175901530Y-79061918D01*
X175670568Y-79131210D01*
X175660642Y-79135130D01*
X175444655Y-79242346D01*
X175435532Y-79247882D01*
X175240699Y-79389957D01*
X175232638Y-79396952D01*
X175064529Y-79569822D01*
X175057763Y-79578074D01*
X174921183Y-79776798D01*
X174915903Y-79786073D01*
X174814760Y-80004968D01*
X174811118Y-80015000D01*
X174748302Y-80247807D01*
X174746403Y-80258309D01*
X174723711Y-80498372D01*
X174723609Y-80509043D01*
X174741688Y-80749497D01*
X174743385Y-80760034D01*
X174801721Y-80994005D01*
X174805169Y-81004104D01*
X174902091Y-81224900D01*
X174907192Y-81234275D01*
X175039930Y-81435584D01*
X175046538Y-81443965D01*
X175197981Y-81605801D01*
X175058642Y-81643137D01*
X175034162Y-81655880D01*
X174877910Y-81786990D01*
X174863739Y-81803879D01*
X174763141Y-81978120D01*
X174755600Y-81998837D01*
X174721622Y-82191538D01*
X174720663Y-82202499D01*
X171322000Y-82202499D01*
X171322000Y-78428124D01*
X171384116Y-78366009D01*
X171394171Y-78352905D01*
X171522233Y-78131095D01*
X171528554Y-78115835D01*
X171594844Y-77868438D01*
X171597000Y-77852062D01*
X171597000Y-77595938D01*
X171594844Y-77579562D01*
X171528554Y-77332165D01*
X171522233Y-77316905D01*
X171394171Y-77095095D01*
X171384116Y-77081991D01*
X171203009Y-76900884D01*
X171189905Y-76890829D01*
X170968095Y-76762767D01*
X170952835Y-76756446D01*
X170705438Y-76690156D01*
X170689062Y-76688000D01*
X170432938Y-76688000D01*
X170416562Y-76690156D01*
X170169165Y-76756446D01*
X170153905Y-76762767D01*
X169932095Y-76890829D01*
X169918991Y-76900884D01*
X169737884Y-77081991D01*
X169727829Y-77095095D01*
X169599767Y-77316905D01*
X169593446Y-77332165D01*
X169527156Y-77579562D01*
X169525000Y-77595938D01*
X169525000Y-77852062D01*
X169527156Y-77868438D01*
X169593446Y-78115835D01*
X169599767Y-78131095D01*
X169727829Y-78352905D01*
X169737884Y-78366009D01*
X169800000Y-78428124D01*
X169800000Y-80011824D01*
X169773626Y-80003255D01*
X169728539Y-79980282D01*
X169709676Y-79974153D01*
X169659693Y-79966237D01*
X169611578Y-79950603D01*
X169591989Y-79947501D01*
X169536691Y-79947501D01*
X169536679Y-79947500D01*
X160152624Y-79947500D01*
X160090509Y-79885384D01*
X160077405Y-79875329D01*
X159855595Y-79747267D01*
X159840335Y-79740946D01*
X159592938Y-79674656D01*
X159576562Y-79672500D01*
X159320438Y-79672500D01*
X159304062Y-79674656D01*
X159056665Y-79740946D01*
X159041405Y-79747267D01*
X158819595Y-79875329D01*
X158806491Y-79885384D01*
X158625384Y-80066491D01*
X158615329Y-80079595D01*
X158487267Y-80301405D01*
X158480946Y-80316665D01*
X158414656Y-80564062D01*
X158412500Y-80580438D01*
X157891750Y-80580438D01*
X157891750Y-75594465D01*
X158017215Y-75469000D01*
X169952376Y-75469000D01*
X170014491Y-75531116D01*
X170027595Y-75541171D01*
X170249405Y-75669233D01*
X170264665Y-75675554D01*
X170512062Y-75741844D01*
X170528438Y-75744000D01*
X170784562Y-75744000D01*
X170800938Y-75741844D01*
X171048335Y-75675554D01*
X171063595Y-75669233D01*
X171285405Y-75541171D01*
X171298509Y-75531116D01*
X171479616Y-75350009D01*
X171489671Y-75336905D01*
X171617733Y-75115095D01*
X171624054Y-75099835D01*
X171690344Y-74852438D01*
X171692500Y-74836062D01*
X171692500Y-74579938D01*
X171690344Y-74563562D01*
X171624054Y-74316165D01*
X171617733Y-74300905D01*
X171489671Y-74079095D01*
X171479616Y-74065991D01*
X171298509Y-73884884D01*
X171285405Y-73874829D01*
X171063595Y-73746767D01*
X171048335Y-73740446D01*
X170800938Y-73674156D01*
X170784562Y-73672000D01*
X170528438Y-73672000D01*
X170512062Y-73674156D01*
X170264665Y-73740446D01*
X170249405Y-73746767D01*
X170027595Y-73874829D01*
X170014491Y-73884884D01*
X169952376Y-73947000D01*
X157646821Y-73947000D01*
X157646809Y-73947001D01*
X157591509Y-73947001D01*
X157571920Y-73950103D01*
X157523805Y-73965737D01*
X157473823Y-73973654D01*
X157454961Y-73979782D01*
X157409873Y-74002755D01*
X157361754Y-74018390D01*
X157344084Y-74027394D01*
X157303150Y-74057134D01*
X157258066Y-74080106D01*
X157242020Y-74091764D01*
X157202404Y-74131381D01*
X157202389Y-74131394D01*
X156663759Y-74670025D01*
X156663758Y-74670026D01*
X156514513Y-74819272D01*
X156502856Y-74835317D01*
X156479888Y-74880395D01*
X156450144Y-74921333D01*
X156441140Y-74939005D01*
X156425503Y-74987130D01*
X156402532Y-75032213D01*
X156396403Y-75051074D01*
X156388486Y-75101059D01*
X156372853Y-75149173D01*
X156369751Y-75168761D01*
X156369751Y-75224060D01*
X156369750Y-75224072D01*
X156369751Y-77070776D01*
X156369750Y-91283535D01*
X153862786Y-93790500D01*
X149167124Y-93790500D01*
X149105009Y-93728384D01*
X149091905Y-93718329D01*
X148870095Y-93590267D01*
X148854835Y-93583946D01*
X148719255Y-93547617D01*
X148734844Y-93489438D01*
X148737000Y-93473063D01*
X148737000Y-93216938D01*
X148734844Y-93200562D01*
X148668554Y-92953165D01*
X148662233Y-92937905D01*
X148534171Y-92716095D01*
X148524116Y-92702991D01*
X148343009Y-92521884D01*
X148329905Y-92511829D01*
X148108095Y-92383767D01*
X148092835Y-92377446D01*
X147845438Y-92311156D01*
X147829062Y-92309000D01*
X147572938Y-92309000D01*
X147556562Y-92311156D01*
X147309165Y-92377446D01*
X147293905Y-92383767D01*
X147192000Y-92442602D01*
X147192000Y-91789063D01*
X149155001Y-91789063D01*
X149155001Y-92059937D01*
X149155778Y-92069808D01*
X149198152Y-92337349D01*
X149200463Y-92346977D01*
X149284169Y-92604595D01*
X149287958Y-92613743D01*
X149410933Y-92855095D01*
X149416106Y-92863537D01*
X149575323Y-93082680D01*
X149581753Y-93090209D01*
X149773291Y-93281747D01*
X149780820Y-93288177D01*
X149999963Y-93447394D01*
X150008405Y-93452567D01*
X150249757Y-93575542D01*
X150258905Y-93579331D01*
X150516523Y-93663037D01*
X150526151Y-93665348D01*
X150793692Y-93707722D01*
X150803563Y-93708499D01*
X151074437Y-93708499D01*
X151084308Y-93707722D01*
X151351849Y-93665348D01*
X151361477Y-93663037D01*
X151619095Y-93579331D01*
X151628243Y-93575542D01*
X151869595Y-93452567D01*
X151878037Y-93447394D01*
X152097180Y-93288177D01*
X152104709Y-93281747D01*
X152296247Y-93090209D01*
X152302677Y-93082680D01*
X152461894Y-92863537D01*
X152467067Y-92855095D01*
X152590042Y-92613743D01*
X152593831Y-92604595D01*
X152677537Y-92346977D01*
X152679848Y-92337349D01*
X152722222Y-92069808D01*
X152722999Y-92059937D01*
X152722999Y-91789063D01*
X152722222Y-91779192D01*
X152679848Y-91511651D01*
X152677537Y-91502023D01*
X152593831Y-91244405D01*
X152590042Y-91235257D01*
X152467067Y-90993905D01*
X152461894Y-90985463D01*
X152302677Y-90766320D01*
X152296247Y-90758791D01*
X152104709Y-90567253D01*
X152097180Y-90560823D01*
X151878037Y-90401606D01*
X151869595Y-90396433D01*
X151628243Y-90273458D01*
X151619095Y-90269669D01*
X151361477Y-90185963D01*
X151351849Y-90183652D01*
X151084308Y-90141278D01*
X151074437Y-90140501D01*
X150803563Y-90140501D01*
X150793692Y-90141278D01*
X150526151Y-90183652D01*
X150516523Y-90185963D01*
X150258905Y-90269669D01*
X150249757Y-90273458D01*
X150008405Y-90396433D01*
X149999963Y-90401606D01*
X149780820Y-90560823D01*
X149773291Y-90567253D01*
X149581753Y-90758791D01*
X149575323Y-90766320D01*
X149416106Y-90985463D01*
X149410933Y-90993905D01*
X149287958Y-91235257D01*
X149284169Y-91244405D01*
X149200463Y-91502023D01*
X149198152Y-91511651D01*
X149155778Y-91779192D01*
X149155001Y-91789063D01*
X147192000Y-91789063D01*
X147192000Y-76389063D01*
X149155001Y-76389063D01*
X149155001Y-76659937D01*
X149155778Y-76669808D01*
X149198152Y-76937349D01*
X149200463Y-76946977D01*
X149284169Y-77204595D01*
X149287958Y-77213743D01*
X149410933Y-77455095D01*
X149416106Y-77463537D01*
X149575323Y-77682680D01*
X149581753Y-77690209D01*
X149773291Y-77881747D01*
X149780820Y-77888177D01*
X149999963Y-78047394D01*
X150008405Y-78052567D01*
X150249757Y-78175542D01*
X150258905Y-78179331D01*
X150516523Y-78263037D01*
X150526151Y-78265348D01*
X150793692Y-78307722D01*
X150803563Y-78308499D01*
X151074437Y-78308499D01*
X151084308Y-78307722D01*
X151351849Y-78265348D01*
X151361477Y-78263037D01*
X151619095Y-78179331D01*
X151628243Y-78175542D01*
X151869595Y-78052567D01*
X151878037Y-78047394D01*
X152097180Y-77888177D01*
X152104709Y-77881747D01*
X152296247Y-77690209D01*
X152302677Y-77682680D01*
X152461894Y-77463537D01*
X152467067Y-77455095D01*
X152590042Y-77213743D01*
X152593831Y-77204595D01*
X152677537Y-76946977D01*
X152679848Y-76937349D01*
X152722222Y-76669808D01*
X152722999Y-76659937D01*
X152722999Y-76389063D01*
X152722222Y-76379192D01*
X152679848Y-76111651D01*
X152677537Y-76102023D01*
X152593831Y-75844405D01*
X152590042Y-75835257D01*
X152467067Y-75593905D01*
X152461894Y-75585463D01*
X152302677Y-75366320D01*
X152296247Y-75358791D01*
X152104709Y-75167253D01*
X152097180Y-75160823D01*
X151878037Y-75001606D01*
X151869595Y-74996433D01*
X151628243Y-74873458D01*
X151619095Y-74869669D01*
X151361477Y-74785963D01*
X151351849Y-74783652D01*
X151084308Y-74741278D01*
X151074437Y-74740501D01*
X150803563Y-74740501D01*
X150793692Y-74741278D01*
X150526151Y-74783652D01*
X150516523Y-74785963D01*
X150258905Y-74869669D01*
X150249757Y-74873458D01*
X150008405Y-74996433D01*
X149999963Y-75001606D01*
X149780820Y-75160823D01*
X149773291Y-75167253D01*
X149581753Y-75358791D01*
X149575323Y-75366320D01*
X149416106Y-75585463D01*
X149410933Y-75593905D01*
X149287958Y-75835257D01*
X149284169Y-75844405D01*
X149200463Y-76102023D01*
X149198152Y-76111651D01*
X149155778Y-76379192D01*
X149155001Y-76389063D01*
X147192000Y-76389063D01*
X147192000Y-72345076D01*
X147242721Y-72548505D01*
X147246169Y-72558604D01*
X147343091Y-72779400D01*
X147348192Y-72788775D01*
X147480930Y-72990084D01*
X147487538Y-72998465D01*
X147652298Y-73174532D01*
X147660222Y-73181680D01*
X147852292Y-73327468D01*
X147861308Y-73333179D01*
X148075196Y-73444521D01*
X148085045Y-73448631D01*
X148314634Y-73522344D01*
X148325035Y-73524736D01*
X148563762Y-73558712D01*
X148574417Y-73559317D01*
X148815456Y-73552584D01*
X148826061Y-73551385D01*
X149062519Y-73504136D01*
X149072770Y-73501167D01*
X149297887Y-73414753D01*
X149307491Y-73410100D01*
X149514830Y-73286991D01*
X149523512Y-73280786D01*
X149707145Y-73124504D01*
X149714658Y-73116924D01*
X149740903Y-73085535D01*
X149778637Y-73226359D01*
X149791380Y-73250839D01*
X149922490Y-73407090D01*
X149939379Y-73421261D01*
X150113620Y-73521859D01*
X150134337Y-73529400D01*
X150327038Y-73563378D01*
X150337999Y-73564337D01*
X152051758Y-73564337D01*
X152068134Y-73562181D01*
X152347359Y-73487363D01*
X152371839Y-73474620D01*
X152528090Y-73343510D01*
X152542261Y-73326621D01*
X152642859Y-73152380D01*
X152650400Y-73131663D01*
X152684378Y-72938962D01*
X152685337Y-72928001D01*
X152685337Y-71214242D01*
X152683181Y-71197866D01*
X152608363Y-70918642D01*
X152595620Y-70894162D01*
X152464510Y-70737910D01*
X152447621Y-70723739D01*
X152273380Y-70623141D01*
X152252663Y-70615600D01*
X152059962Y-70581622D01*
X152049001Y-70580663D01*
X150335242Y-70580663D01*
X150318866Y-70582819D01*
X150039642Y-70657637D01*
X150015162Y-70670380D01*
X149858910Y-70801490D01*
X149844739Y-70818379D01*
X149744141Y-70992620D01*
X149736600Y-71013337D01*
X149731021Y-71044979D01*
X149727147Y-71040917D01*
X149546549Y-70881138D01*
X149537986Y-70874767D01*
X149333049Y-70747702D01*
X149323536Y-70742865D01*
X149100119Y-70652145D01*
X149089927Y-70648980D01*
X148854419Y-70597200D01*
X148843840Y-70595798D01*
X148602975Y-70584439D01*
X148592309Y-70584839D01*
X148352974Y-70614227D01*
X148342530Y-70616418D01*
X148111568Y-70685710D01*
X148101642Y-70689630D01*
X147885655Y-70796846D01*
X147876532Y-70802382D01*
X147681699Y-70944457D01*
X147673638Y-70951452D01*
X147505529Y-71124322D01*
X147498763Y-71132574D01*
X147362183Y-71331298D01*
X147356903Y-71340573D01*
X147255760Y-71559468D01*
X147252118Y-71569500D01*
X147192000Y-71792308D01*
X147192000Y-69214000D01*
X156846000Y-69214000D01*
X156846000Y-69933941D01*
%TA.AperFunction,Conductor*%
G36*
X156846000Y-69933941D02*
G01*
X156919809Y-70007750D01*
X173280191Y-70007750D01*
X173354000Y-69933941D01*
X173354000Y-69214000D01*
X175811255Y-69214000D01*
X175784974Y-69217227D01*
X175774530Y-69219418D01*
X175543568Y-69288710D01*
X175533642Y-69292630D01*
X175317655Y-69399846D01*
X175308532Y-69405382D01*
X175113699Y-69547457D01*
X175105638Y-69554452D01*
X174937529Y-69727322D01*
X174930763Y-69735574D01*
X174794183Y-69934298D01*
X174788903Y-69943573D01*
X174687760Y-70162468D01*
X174684118Y-70172500D01*
X174621302Y-70405307D01*
X174619403Y-70415809D01*
X174596711Y-70655872D01*
X174596609Y-70666543D01*
X174614688Y-70906997D01*
X174616385Y-70917534D01*
X174674721Y-71151505D01*
X174678169Y-71161604D01*
X174775091Y-71382400D01*
X174780192Y-71391775D01*
X174912930Y-71593084D01*
X174919538Y-71601465D01*
X175070981Y-71763301D01*
X174931642Y-71800637D01*
X174907162Y-71813380D01*
X174750910Y-71944490D01*
X174736739Y-71961379D01*
X174636141Y-72135620D01*
X174628600Y-72156337D01*
X174594622Y-72349038D01*
X174593663Y-72359999D01*
X174593663Y-74073758D01*
X174595819Y-74090134D01*
X174670637Y-74369359D01*
X174683380Y-74393839D01*
X174814490Y-74550090D01*
X174831379Y-74564261D01*
X175005620Y-74664859D01*
X175026337Y-74672400D01*
X175219038Y-74706378D01*
X175229999Y-74707337D01*
X176943758Y-74707337D01*
X176960134Y-74705181D01*
X177239359Y-74630363D01*
X177263839Y-74617620D01*
X177420090Y-74486510D01*
X177434261Y-74469621D01*
X177534859Y-74295380D01*
X177542400Y-74274663D01*
X177576378Y-74081962D01*
X177577337Y-74071001D01*
X177577337Y-72357242D01*
X177575181Y-72340866D01*
X177500363Y-72061642D01*
X177487620Y-72037162D01*
X177356510Y-71880910D01*
X177339621Y-71866739D01*
X177165380Y-71766141D01*
X177144663Y-71758600D01*
X177109825Y-71752457D01*
X177139145Y-71727504D01*
X177146658Y-71719924D01*
X177301333Y-71534935D01*
X177307462Y-71526198D01*
X177428756Y-71317794D01*
X177433325Y-71308150D01*
X177517772Y-71082287D01*
X177520651Y-71072011D01*
X177565892Y-70834851D01*
X177567007Y-70823628D01*
X177569577Y-70555841D01*
X177568678Y-70544599D01*
X177527999Y-70306614D01*
X177525317Y-70296284D01*
X177445223Y-70068843D01*
X177440839Y-70059112D01*
X177323567Y-69848416D01*
X177317607Y-69839564D01*
X177166513Y-69651640D01*
X177159147Y-69643917D01*
X176978549Y-69484138D01*
X176969986Y-69477767D01*
X176765049Y-69350702D01*
X176755536Y-69345865D01*
X176532119Y-69255145D01*
X176521927Y-69251980D01*
X176349185Y-69214000D01*
X179071001Y-69214000D01*
X179071000Y-114809000D01*
X147192000Y-114809000D01*
X147192000Y-111946100D01*
X174073597Y-111946100D01*
X174073597Y-111954900D01*
X174093800Y-112243820D01*
X174095025Y-112252535D01*
X174155241Y-112535832D01*
X174157667Y-112544291D01*
X174256726Y-112816450D01*
X174260305Y-112824489D01*
X174396275Y-113080214D01*
X174400939Y-113087677D01*
X174571177Y-113321990D01*
X174576834Y-113328731D01*
X174778025Y-113537070D01*
X174784564Y-113542958D01*
X175012793Y-113721270D01*
X175020088Y-113726191D01*
X175270911Y-113871004D01*
X175278821Y-113874862D01*
X175547358Y-113983358D01*
X175555728Y-113986078D01*
X175836750Y-114056144D01*
X175845416Y-114057672D01*
X176133456Y-114087947D01*
X176142251Y-114088254D01*
X176431701Y-114078146D01*
X176440453Y-114077226D01*
X176725678Y-114026933D01*
X176734216Y-114024804D01*
X177009668Y-113935304D01*
X177017827Y-113932008D01*
X177278141Y-113805044D01*
X177285763Y-113800644D01*
X177525873Y-113638687D01*
X177532808Y-113633269D01*
X177748041Y-113439472D01*
X177754154Y-113433142D01*
X177940323Y-113211276D01*
X177945495Y-113204156D01*
X178098974Y-112958539D01*
X178103105Y-112950769D01*
X178220906Y-112686182D01*
X178223916Y-112677913D01*
X178303748Y-112399507D01*
X178305577Y-112390899D01*
X178345886Y-112104092D01*
X178346500Y-112095313D01*
X178346500Y-111805687D01*
X178345886Y-111796908D01*
X178305577Y-111510101D01*
X178303748Y-111501493D01*
X178223916Y-111223087D01*
X178220906Y-111214818D01*
X178103105Y-110950231D01*
X178098974Y-110942461D01*
X177945495Y-110696844D01*
X177940323Y-110689724D01*
X177754154Y-110467858D01*
X177748041Y-110461528D01*
X177532808Y-110267731D01*
X177525873Y-110262313D01*
X177285763Y-110100356D01*
X177278141Y-110095956D01*
X177017827Y-109968992D01*
X177009668Y-109965696D01*
X176734216Y-109876196D01*
X176725678Y-109874067D01*
X176440453Y-109823774D01*
X176431701Y-109822854D01*
X176142251Y-109812746D01*
X176133456Y-109813053D01*
X175845416Y-109843328D01*
X175836750Y-109844856D01*
X175555728Y-109914922D01*
X175547358Y-109917642D01*
X175278821Y-110026138D01*
X175270911Y-110029996D01*
X175020088Y-110174809D01*
X175012793Y-110179730D01*
X174784564Y-110358042D01*
X174778025Y-110363930D01*
X174576834Y-110572269D01*
X174571177Y-110579010D01*
X174400939Y-110813323D01*
X174396275Y-110820786D01*
X174260305Y-111076511D01*
X174256726Y-111084550D01*
X174157667Y-111356709D01*
X174155241Y-111365168D01*
X174095025Y-111648465D01*
X174093800Y-111657180D01*
X174073597Y-111946100D01*
X147192000Y-111946100D01*
X147192000Y-96508336D01*
X156079644Y-96508336D01*
X156080865Y-96526247D01*
X156086000Y-96550303D01*
X156086001Y-105501237D01*
X156081785Y-105519869D01*
X156080345Y-105537765D01*
X156086001Y-105628929D01*
X156086001Y-105659552D01*
X156086638Y-105668494D01*
X156089845Y-105690890D01*
X156094937Y-105772964D01*
X156098578Y-105790544D01*
X156107759Y-105815976D01*
X156111593Y-105842747D01*
X156116632Y-105859979D01*
X156150669Y-105934842D01*
X156178660Y-106012377D01*
X156187320Y-106028545D01*
X156202762Y-106049413D01*
X156214167Y-106074498D01*
X156223840Y-106089623D01*
X156285274Y-106160920D01*
X156299119Y-106179631D01*
X156305223Y-106186715D01*
X156321675Y-106203166D01*
X156377664Y-106268145D01*
X156391193Y-106279947D01*
X156411834Y-106293326D01*
X156980813Y-106862306D01*
X156991006Y-106878462D01*
X157002643Y-106892135D01*
X157071108Y-106952601D01*
X157092759Y-106974253D01*
X157099533Y-106980126D01*
X157117638Y-106993695D01*
X157179272Y-107048128D01*
X157194277Y-107057985D01*
X157218755Y-107069477D01*
X157240396Y-107085696D01*
X157256143Y-107094317D01*
X157333148Y-107123184D01*
X157407765Y-107158217D01*
X157425320Y-107163526D01*
X157450994Y-107167363D01*
X157476798Y-107177036D01*
X157494332Y-107180891D01*
X157588179Y-107187865D01*
X157611209Y-107191307D01*
X157620534Y-107192000D01*
X157643819Y-107192000D01*
X157729336Y-107198356D01*
X157747248Y-107197135D01*
X157771303Y-107192000D01*
X158161589Y-107192000D01*
X158163347Y-107195949D01*
X158167773Y-107204186D01*
X158313191Y-107432447D01*
X158318785Y-107439939D01*
X158496346Y-107644198D01*
X158502986Y-107650781D01*
X158708788Y-107826552D01*
X158716329Y-107832082D01*
X158945850Y-107975502D01*
X158954125Y-107979855D01*
X159202324Y-108087776D01*
X159211152Y-108090859D01*
X159472576Y-108160907D01*
X159481762Y-108162651D01*
X159750669Y-108193289D01*
X159760013Y-108193656D01*
X160030495Y-108184211D01*
X160039790Y-108183193D01*
X160305904Y-108133871D01*
X160314946Y-108131490D01*
X160512965Y-108063307D01*
X163555276Y-108063307D01*
X163555276Y-110360378D01*
X163556720Y-110373808D01*
X163622593Y-110676623D01*
X163631223Y-110697457D01*
X163761245Y-110899776D01*
X163773048Y-110913397D01*
X163953092Y-111069407D01*
X163968254Y-111079151D01*
X164184959Y-111178116D01*
X164202252Y-111183194D01*
X164378830Y-111208582D01*
X164387807Y-111209224D01*
X166684878Y-111209224D01*
X166698308Y-111207780D01*
X167001123Y-111141907D01*
X167021957Y-111133277D01*
X167224276Y-111003255D01*
X167237897Y-110991452D01*
X167393907Y-110811408D01*
X167403651Y-110796246D01*
X167502616Y-110579541D01*
X167507694Y-110562248D01*
X167533082Y-110385670D01*
X167533724Y-110376693D01*
X167533724Y-109170763D01*
X168556136Y-109170763D01*
X168568781Y-109449245D01*
X168569854Y-109458312D01*
X168622569Y-109732051D01*
X168624939Y-109740868D01*
X168716617Y-110004130D01*
X168720236Y-110012513D01*
X168848957Y-110259784D01*
X168853747Y-110267556D01*
X169016814Y-110493655D01*
X169022677Y-110500655D01*
X169216676Y-110700846D01*
X169223488Y-110706925D01*
X169444354Y-110877014D01*
X169451972Y-110882047D01*
X169695077Y-111018471D01*
X169703342Y-111022351D01*
X169963594Y-111122253D01*
X169972333Y-111124900D01*
X170244281Y-111186186D01*
X170253310Y-111187543D01*
X170531256Y-111208930D01*
X170540386Y-111208970D01*
X170818509Y-111190010D01*
X170827550Y-111188731D01*
X171100023Y-111129821D01*
X171108784Y-111127250D01*
X171369898Y-111029623D01*
X171378196Y-111025815D01*
X171622483Y-110891517D01*
X171630145Y-110886551D01*
X171852486Y-110718396D01*
X171859351Y-110712376D01*
X172055089Y-110513886D01*
X172061012Y-110506938D01*
X172226047Y-110282270D01*
X172230905Y-110274540D01*
X172361780Y-110028403D01*
X172365471Y-110020052D01*
X172459443Y-109757599D01*
X172461891Y-109748803D01*
X172517159Y-109474698D01*
X172518381Y-109463930D01*
X172528684Y-109083173D01*
X172528046Y-109072354D01*
X172487681Y-108795661D01*
X172485713Y-108786745D01*
X172406072Y-108519596D01*
X172402838Y-108511057D01*
X172285467Y-108258202D01*
X172281033Y-108250220D01*
X172128389Y-108016957D01*
X172122850Y-108009699D01*
X171938132Y-107800914D01*
X171931604Y-107794531D01*
X171718682Y-107614598D01*
X171711300Y-107609225D01*
X171474633Y-107461912D01*
X171466552Y-107457661D01*
X171211100Y-107346057D01*
X171202490Y-107343016D01*
X170933603Y-107269457D01*
X170924645Y-107267692D01*
X170647953Y-107233718D01*
X170638834Y-107233264D01*
X170360138Y-107239589D01*
X170351049Y-107240456D01*
X170076185Y-107286946D01*
X170067316Y-107289116D01*
X169802041Y-107374797D01*
X169793578Y-107378225D01*
X169543451Y-107501303D01*
X169535572Y-107505916D01*
X169305833Y-107663812D01*
X169298702Y-107669514D01*
X169094161Y-107858922D01*
X169087928Y-107865594D01*
X168912872Y-108082543D01*
X168907667Y-108090045D01*
X168765763Y-108329993D01*
X168761696Y-108338168D01*
X168655915Y-108596086D01*
X168653071Y-108604762D01*
X168585631Y-108875251D01*
X168584069Y-108884246D01*
X168556383Y-109161636D01*
X168556136Y-109170763D01*
X167533724Y-109170763D01*
X167533724Y-108079622D01*
X167532280Y-108066192D01*
X167466407Y-107763377D01*
X167457777Y-107742543D01*
X167327755Y-107540224D01*
X167315952Y-107526603D01*
X167135908Y-107370593D01*
X167120746Y-107360849D01*
X166904041Y-107261884D01*
X166886748Y-107256806D01*
X166710170Y-107231418D01*
X166701193Y-107230776D01*
X164404122Y-107230776D01*
X164390692Y-107232220D01*
X164087877Y-107298093D01*
X164067043Y-107306723D01*
X163864724Y-107436745D01*
X163851103Y-107448548D01*
X163695093Y-107628592D01*
X163685349Y-107643754D01*
X163586384Y-107860459D01*
X163581306Y-107877752D01*
X163555918Y-108054330D01*
X163555276Y-108063307D01*
X160512965Y-108063307D01*
X160570847Y-108043377D01*
X160579438Y-108039686D01*
X160819505Y-107914716D01*
X160827457Y-107909795D01*
X161046414Y-107750713D01*
X161053551Y-107744671D01*
X161246589Y-107554973D01*
X161252754Y-107547943D01*
X161415634Y-107331795D01*
X161420692Y-107323931D01*
X161549834Y-107086081D01*
X161553674Y-107077556D01*
X161646240Y-106823231D01*
X161648778Y-106814232D01*
X161702901Y-106548210D01*
X161704147Y-106537278D01*
X161713682Y-106173151D01*
X161713010Y-106162169D01*
X161672884Y-105893678D01*
X161670820Y-105884558D01*
X161591692Y-105625737D01*
X161588302Y-105617022D01*
X161471786Y-105372742D01*
X161467146Y-105364624D01*
X161315802Y-105140247D01*
X161310013Y-105132904D01*
X161127167Y-104933363D01*
X161120357Y-104926956D01*
X160910025Y-104756632D01*
X160902342Y-104751303D01*
X160669146Y-104613939D01*
X160660759Y-104609803D01*
X160409820Y-104508417D01*
X160400914Y-104505567D01*
X160137746Y-104442385D01*
X160128517Y-104440882D01*
X159858900Y-104417294D01*
X159849550Y-104417172D01*
X159579408Y-104433694D01*
X159570143Y-104434955D01*
X159305411Y-104491225D01*
X159296434Y-104493842D01*
X159042928Y-104588625D01*
X159034436Y-104592539D01*
X158797723Y-104723752D01*
X158789903Y-104728878D01*
X158575185Y-104893638D01*
X158568209Y-104899864D01*
X158380202Y-105094550D01*
X158374222Y-105101739D01*
X158217057Y-105322078D01*
X158212207Y-105330072D01*
X158166386Y-105420000D01*
X158044493Y-105420000D01*
X157858000Y-105233508D01*
X157858000Y-97550499D01*
X157937663Y-97550499D01*
X157937663Y-100064258D01*
X157939819Y-100080634D01*
X158014637Y-100359859D01*
X158027380Y-100384339D01*
X158158490Y-100540590D01*
X158175379Y-100554761D01*
X158349620Y-100655359D01*
X158370337Y-100662900D01*
X158563038Y-100696878D01*
X158573999Y-100697837D01*
X161087758Y-100697837D01*
X161104134Y-100695681D01*
X161383359Y-100620863D01*
X161407839Y-100608120D01*
X161564090Y-100477010D01*
X161578261Y-100460121D01*
X161678859Y-100285880D01*
X161686400Y-100265163D01*
X161720378Y-100072462D01*
X161721337Y-100061501D01*
X161721337Y-97547742D01*
X161719181Y-97531366D01*
X161644363Y-97252142D01*
X161631620Y-97227662D01*
X161500510Y-97071410D01*
X161483621Y-97057239D01*
X161309380Y-96956641D01*
X161288663Y-96949100D01*
X161095962Y-96915122D01*
X161085001Y-96914163D01*
X158571242Y-96914163D01*
X158554866Y-96916319D01*
X158275642Y-96991137D01*
X158251162Y-97003880D01*
X158094910Y-97134990D01*
X158080739Y-97151879D01*
X157980141Y-97326120D01*
X157972600Y-97346837D01*
X157938622Y-97539538D01*
X157937663Y-97550499D01*
X157858000Y-97550499D01*
X157858000Y-96823491D01*
X158996494Y-95684998D01*
X159141835Y-95646054D01*
X159157095Y-95639733D01*
X159287402Y-95564500D01*
X163159242Y-95564500D01*
X163177870Y-95568715D01*
X163195765Y-95570155D01*
X163286913Y-95564500D01*
X163317553Y-95564500D01*
X163326495Y-95563863D01*
X163348894Y-95560655D01*
X163430963Y-95555563D01*
X163448543Y-95551923D01*
X163473976Y-95542742D01*
X163500748Y-95538908D01*
X163517979Y-95533869D01*
X163592853Y-95499827D01*
X163670377Y-95471840D01*
X163686544Y-95463180D01*
X163707408Y-95447741D01*
X163732498Y-95436334D01*
X163747623Y-95426661D01*
X163818928Y-95365220D01*
X163837631Y-95351381D01*
X163844715Y-95345277D01*
X163861159Y-95328832D01*
X163926145Y-95272837D01*
X163937947Y-95259308D01*
X163951326Y-95238666D01*
X164830806Y-94359187D01*
X164846964Y-94348992D01*
X164860635Y-94337357D01*
X164921108Y-94268884D01*
X164942752Y-94247241D01*
X164948625Y-94240467D01*
X164962192Y-94222364D01*
X165016628Y-94160727D01*
X165026485Y-94145723D01*
X165037980Y-94121240D01*
X165054195Y-94099604D01*
X165062816Y-94083857D01*
X165091681Y-94006860D01*
X165126717Y-93932235D01*
X165132026Y-93914679D01*
X165135862Y-93889008D01*
X165145536Y-93863203D01*
X165149391Y-93845668D01*
X165156365Y-93751821D01*
X165159807Y-93728791D01*
X165160500Y-93719466D01*
X165160500Y-93696181D01*
X165166856Y-93610664D01*
X165165635Y-93592752D01*
X165160500Y-93568697D01*
X165160500Y-91806992D01*
X165768547Y-91198946D01*
X165971562Y-91253344D01*
X165987938Y-91255500D01*
X166244062Y-91255500D01*
X166260438Y-91253344D01*
X166507835Y-91187054D01*
X166523095Y-91180733D01*
X166744905Y-91052671D01*
X166758009Y-91042616D01*
X166939116Y-90861509D01*
X166949171Y-90848405D01*
X167077233Y-90626595D01*
X167083554Y-90611335D01*
X167149844Y-90363938D01*
X167152000Y-90347562D01*
X167152000Y-90091438D01*
X167149844Y-90075062D01*
X167083554Y-89827665D01*
X167077233Y-89812405D01*
X166949171Y-89590595D01*
X166939116Y-89577491D01*
X166758009Y-89396384D01*
X166744905Y-89386329D01*
X166523095Y-89258267D01*
X166507835Y-89251946D01*
X166260438Y-89185656D01*
X166244062Y-89183500D01*
X165987938Y-89183500D01*
X165971562Y-89185656D01*
X165724165Y-89251946D01*
X165708905Y-89258267D01*
X165583009Y-89330953D01*
X165575631Y-89329284D01*
X165557735Y-89327844D01*
X165466575Y-89333500D01*
X165435948Y-89333500D01*
X165427007Y-89334137D01*
X165404605Y-89337345D01*
X165322535Y-89342437D01*
X165304956Y-89346077D01*
X165279524Y-89355258D01*
X165252751Y-89359092D01*
X165235521Y-89364131D01*
X165160651Y-89398171D01*
X165083122Y-89426160D01*
X165066956Y-89434820D01*
X165046090Y-89450259D01*
X165021001Y-89461667D01*
X165005876Y-89471339D01*
X164934571Y-89532780D01*
X164915869Y-89546619D01*
X164908785Y-89552722D01*
X164892334Y-89569174D01*
X164827355Y-89625163D01*
X164815553Y-89638692D01*
X164802172Y-89659336D01*
X163718200Y-90743309D01*
X163702037Y-90753507D01*
X163688365Y-90765143D01*
X163627886Y-90833622D01*
X163606248Y-90855260D01*
X163600376Y-90862033D01*
X163586817Y-90880124D01*
X163532371Y-90941774D01*
X163522515Y-90956778D01*
X163511020Y-90981261D01*
X163494805Y-91002897D01*
X163486184Y-91018644D01*
X163457319Y-91095641D01*
X163422283Y-91170266D01*
X163416974Y-91187822D01*
X163413138Y-91213493D01*
X163403464Y-91239298D01*
X163399609Y-91256833D01*
X163392635Y-91350679D01*
X163389193Y-91373710D01*
X163388500Y-91383035D01*
X163388500Y-91406319D01*
X163382144Y-91491836D01*
X163383365Y-91509747D01*
X163388500Y-91533803D01*
X163388501Y-93295506D01*
X162891508Y-93792500D01*
X159287402Y-93792500D01*
X159157095Y-93717267D01*
X159141835Y-93710946D01*
X158894438Y-93644656D01*
X158878062Y-93642500D01*
X158621938Y-93642500D01*
X158605562Y-93644656D01*
X158358165Y-93710946D01*
X158342905Y-93717267D01*
X158121095Y-93845329D01*
X158107991Y-93855384D01*
X157926884Y-94036491D01*
X157916829Y-94049595D01*
X157788767Y-94271405D01*
X157782446Y-94286665D01*
X157743501Y-94432007D01*
X156415700Y-95759809D01*
X156399537Y-95770007D01*
X156385865Y-95781643D01*
X156325386Y-95850122D01*
X156303748Y-95871760D01*
X156297876Y-95878533D01*
X156284317Y-95896624D01*
X156229871Y-95958274D01*
X156220015Y-95973278D01*
X156208520Y-95997761D01*
X156192305Y-96019397D01*
X156183684Y-96035144D01*
X156154819Y-96112141D01*
X156119783Y-96186766D01*
X156114474Y-96204322D01*
X156110638Y-96229993D01*
X156100964Y-96255798D01*
X156097109Y-96273333D01*
X156090135Y-96367179D01*
X156086693Y-96390210D01*
X156086000Y-96399535D01*
X156086000Y-96422819D01*
X156079644Y-96508336D01*
X147192000Y-96508336D01*
X147192000Y-95185500D01*
X147502179Y-95185500D01*
X147502191Y-95185499D01*
X147557489Y-95185499D01*
X147577078Y-95182397D01*
X147622465Y-95167650D01*
X147629829Y-95180405D01*
X147639884Y-95193509D01*
X147820991Y-95374616D01*
X147834095Y-95384671D01*
X148055905Y-95512733D01*
X148071165Y-95519054D01*
X148318562Y-95585344D01*
X148334938Y-95587500D01*
X148591062Y-95587500D01*
X148607438Y-95585344D01*
X148854835Y-95519054D01*
X148870095Y-95512733D01*
X149091905Y-95384671D01*
X149105009Y-95374616D01*
X149167124Y-95312500D01*
X154233179Y-95312500D01*
X154233191Y-95312499D01*
X154288489Y-95312499D01*
X154308078Y-95309397D01*
X154356193Y-95293763D01*
X154406176Y-95285847D01*
X154425039Y-95279718D01*
X154470126Y-95256745D01*
X154518244Y-95241111D01*
X154535916Y-95232106D01*
X154576847Y-95202367D01*
X154621934Y-95179394D01*
X154637980Y-95167736D01*
X154794407Y-95011309D01*
X154794412Y-95011302D01*
X157704194Y-92101521D01*
X157746986Y-92058730D01*
X157758644Y-92042684D01*
X157781615Y-91997602D01*
X157811356Y-91956667D01*
X157820360Y-91938995D01*
X157835993Y-91890879D01*
X157858968Y-91845790D01*
X157865097Y-91826927D01*
X157873013Y-91776944D01*
X157888646Y-91728829D01*
X157891749Y-91709241D01*
X157891749Y-91653941D01*
X157891750Y-91653929D01*
X157891750Y-80580438D01*
X158412500Y-80580438D01*
X158412500Y-80836562D01*
X158414656Y-80852938D01*
X158480946Y-81100335D01*
X158487267Y-81115595D01*
X158615329Y-81337405D01*
X158625384Y-81350509D01*
X158806491Y-81531616D01*
X158819595Y-81541671D01*
X159041405Y-81669733D01*
X159056665Y-81676054D01*
X159304062Y-81742344D01*
X159320438Y-81744500D01*
X159576562Y-81744500D01*
X159592938Y-81742344D01*
X159840335Y-81676054D01*
X159855595Y-81669733D01*
X160077405Y-81541671D01*
X160090509Y-81531616D01*
X160152624Y-81469500D01*
X169165001Y-81469500D01*
X169165000Y-94617284D01*
X168912285Y-94870000D01*
X168344124Y-94870000D01*
X168282009Y-94807884D01*
X168268905Y-94797829D01*
X168047095Y-94669767D01*
X168031835Y-94663446D01*
X167784438Y-94597156D01*
X167768062Y-94595000D01*
X167511938Y-94595000D01*
X167495562Y-94597156D01*
X167248165Y-94663446D01*
X167232905Y-94669767D01*
X167011095Y-94797829D01*
X166997991Y-94807884D01*
X166816884Y-94988991D01*
X166806829Y-95002095D01*
X166678767Y-95223905D01*
X166672446Y-95239165D01*
X166606156Y-95486562D01*
X166604000Y-95502938D01*
X166604000Y-95759062D01*
X166606156Y-95775438D01*
X166672446Y-96022835D01*
X166678767Y-96038095D01*
X166806829Y-96259905D01*
X166816884Y-96273009D01*
X166997991Y-96454116D01*
X167011095Y-96464171D01*
X167232905Y-96592233D01*
X167248165Y-96598554D01*
X167495562Y-96664844D01*
X167511938Y-96667000D01*
X167768062Y-96667000D01*
X167784438Y-96664844D01*
X168031835Y-96598554D01*
X168047095Y-96592233D01*
X168268905Y-96464171D01*
X168282009Y-96454116D01*
X168344124Y-96392000D01*
X169282679Y-96392000D01*
X169282691Y-96391999D01*
X169337989Y-96391999D01*
X169357578Y-96388897D01*
X169405693Y-96373263D01*
X169455676Y-96365347D01*
X169474539Y-96359218D01*
X169519626Y-96336245D01*
X169567744Y-96320611D01*
X169585416Y-96311606D01*
X169626347Y-96281867D01*
X169671434Y-96258894D01*
X169687480Y-96247236D01*
X169800000Y-96134716D01*
X169800001Y-98800375D01*
X169737884Y-98862491D01*
X169727829Y-98875595D01*
X169599767Y-99097405D01*
X169593446Y-99112665D01*
X169527156Y-99360062D01*
X169525000Y-99376438D01*
X169525000Y-99632562D01*
X169527156Y-99648938D01*
X169593446Y-99896335D01*
X169599767Y-99911595D01*
X169727829Y-100133405D01*
X169737884Y-100146509D01*
X169918991Y-100327616D01*
X169932095Y-100337671D01*
X170153905Y-100465733D01*
X170169165Y-100472054D01*
X170416562Y-100538344D01*
X170432938Y-100540500D01*
X170689062Y-100540500D01*
X170705438Y-100538344D01*
X170952835Y-100472054D01*
X170968095Y-100465733D01*
X171189905Y-100337671D01*
X171203009Y-100327616D01*
X171384116Y-100146509D01*
X171394171Y-100133405D01*
X171522233Y-99911595D01*
X171528554Y-99896335D01*
X171594844Y-99648938D01*
X171597000Y-99632562D01*
X171597000Y-99376438D01*
X171594844Y-99360062D01*
X171528554Y-99112665D01*
X171522233Y-99097405D01*
X171394171Y-98875595D01*
X171384116Y-98862491D01*
X171322000Y-98800376D01*
X171322000Y-82202499D01*
X174720663Y-82202499D01*
X174720663Y-83916258D01*
X174722819Y-83932634D01*
X174797637Y-84211859D01*
X174810380Y-84236339D01*
X174941490Y-84392590D01*
X174958379Y-84406761D01*
X175132620Y-84507359D01*
X175153337Y-84514900D01*
X175346038Y-84548878D01*
X175356999Y-84549837D01*
X177070758Y-84549837D01*
X177087134Y-84547681D01*
X177366359Y-84472863D01*
X177390839Y-84460120D01*
X177547090Y-84329010D01*
X177561261Y-84312121D01*
X177661859Y-84137880D01*
X177669400Y-84117163D01*
X177703378Y-83924462D01*
X177704337Y-83913501D01*
X177704337Y-82199742D01*
X177702181Y-82183366D01*
X177627363Y-81904142D01*
X177614620Y-81879662D01*
X177483510Y-81723410D01*
X177466621Y-81709239D01*
X177292380Y-81608641D01*
X177271663Y-81601100D01*
X177236825Y-81594957D01*
X177266145Y-81570004D01*
X177273658Y-81562424D01*
X177428333Y-81377435D01*
X177434462Y-81368698D01*
X177555756Y-81160294D01*
X177560325Y-81150650D01*
X177644772Y-80924787D01*
X177647651Y-80914511D01*
X177692892Y-80677351D01*
X177694007Y-80666128D01*
X177696577Y-80398341D01*
X177695678Y-80387099D01*
X177654999Y-80149114D01*
X177652317Y-80138784D01*
X177572223Y-79911343D01*
X177567839Y-79901612D01*
X177450567Y-79690916D01*
X177444607Y-79682064D01*
X177293513Y-79494140D01*
X177286147Y-79486417D01*
X177105549Y-79326638D01*
X177096986Y-79320267D01*
X176892049Y-79193202D01*
X176882536Y-79188365D01*
X176659119Y-79097645D01*
X176648927Y-79094480D01*
X176413419Y-79042700D01*
X176402840Y-79041298D01*
X176161975Y-79029939D01*
X176151309Y-79030339D01*
X175911974Y-79059727D01*
X175901530Y-79061918D01*
X175670568Y-79131210D01*
X175660642Y-79135130D01*
X175444655Y-79242346D01*
X175435532Y-79247882D01*
X175240699Y-79389957D01*
X175232638Y-79396952D01*
X175064529Y-79569822D01*
X175057763Y-79578074D01*
X174921183Y-79776798D01*
X174915903Y-79786073D01*
X174814760Y-80004968D01*
X174811118Y-80015000D01*
X174748302Y-80247807D01*
X174746403Y-80258309D01*
X174723711Y-80498372D01*
X174723609Y-80509043D01*
X174741688Y-80749497D01*
X174743385Y-80760034D01*
X174801721Y-80994005D01*
X174805169Y-81004104D01*
X174902091Y-81224900D01*
X174907192Y-81234275D01*
X175039930Y-81435584D01*
X175046538Y-81443965D01*
X175197981Y-81605801D01*
X175058642Y-81643137D01*
X175034162Y-81655880D01*
X174877910Y-81786990D01*
X174863739Y-81803879D01*
X174763141Y-81978120D01*
X174755600Y-81998837D01*
X174721622Y-82191538D01*
X174720663Y-82202499D01*
X171322000Y-82202499D01*
X171322000Y-78428124D01*
X171384116Y-78366009D01*
X171394171Y-78352905D01*
X171522233Y-78131095D01*
X171528554Y-78115835D01*
X171594844Y-77868438D01*
X171597000Y-77852062D01*
X171597000Y-77595938D01*
X171594844Y-77579562D01*
X171528554Y-77332165D01*
X171522233Y-77316905D01*
X171394171Y-77095095D01*
X171384116Y-77081991D01*
X171203009Y-76900884D01*
X171189905Y-76890829D01*
X170968095Y-76762767D01*
X170952835Y-76756446D01*
X170705438Y-76690156D01*
X170689062Y-76688000D01*
X170432938Y-76688000D01*
X170416562Y-76690156D01*
X170169165Y-76756446D01*
X170153905Y-76762767D01*
X169932095Y-76890829D01*
X169918991Y-76900884D01*
X169737884Y-77081991D01*
X169727829Y-77095095D01*
X169599767Y-77316905D01*
X169593446Y-77332165D01*
X169527156Y-77579562D01*
X169525000Y-77595938D01*
X169525000Y-77852062D01*
X169527156Y-77868438D01*
X169593446Y-78115835D01*
X169599767Y-78131095D01*
X169727829Y-78352905D01*
X169737884Y-78366009D01*
X169800000Y-78428124D01*
X169800000Y-80011824D01*
X169773626Y-80003255D01*
X169728539Y-79980282D01*
X169709676Y-79974153D01*
X169659693Y-79966237D01*
X169611578Y-79950603D01*
X169591989Y-79947501D01*
X169536691Y-79947501D01*
X169536679Y-79947500D01*
X160152624Y-79947500D01*
X160090509Y-79885384D01*
X160077405Y-79875329D01*
X159855595Y-79747267D01*
X159840335Y-79740946D01*
X159592938Y-79674656D01*
X159576562Y-79672500D01*
X159320438Y-79672500D01*
X159304062Y-79674656D01*
X159056665Y-79740946D01*
X159041405Y-79747267D01*
X158819595Y-79875329D01*
X158806491Y-79885384D01*
X158625384Y-80066491D01*
X158615329Y-80079595D01*
X158487267Y-80301405D01*
X158480946Y-80316665D01*
X158414656Y-80564062D01*
X158412500Y-80580438D01*
X157891750Y-80580438D01*
X157891750Y-75594465D01*
X158017215Y-75469000D01*
X169952376Y-75469000D01*
X170014491Y-75531116D01*
X170027595Y-75541171D01*
X170249405Y-75669233D01*
X170264665Y-75675554D01*
X170512062Y-75741844D01*
X170528438Y-75744000D01*
X170784562Y-75744000D01*
X170800938Y-75741844D01*
X171048335Y-75675554D01*
X171063595Y-75669233D01*
X171285405Y-75541171D01*
X171298509Y-75531116D01*
X171479616Y-75350009D01*
X171489671Y-75336905D01*
X171617733Y-75115095D01*
X171624054Y-75099835D01*
X171690344Y-74852438D01*
X171692500Y-74836062D01*
X171692500Y-74579938D01*
X171690344Y-74563562D01*
X171624054Y-74316165D01*
X171617733Y-74300905D01*
X171489671Y-74079095D01*
X171479616Y-74065991D01*
X171298509Y-73884884D01*
X171285405Y-73874829D01*
X171063595Y-73746767D01*
X171048335Y-73740446D01*
X170800938Y-73674156D01*
X170784562Y-73672000D01*
X170528438Y-73672000D01*
X170512062Y-73674156D01*
X170264665Y-73740446D01*
X170249405Y-73746767D01*
X170027595Y-73874829D01*
X170014491Y-73884884D01*
X169952376Y-73947000D01*
X157646821Y-73947000D01*
X157646809Y-73947001D01*
X157591509Y-73947001D01*
X157571920Y-73950103D01*
X157523805Y-73965737D01*
X157473823Y-73973654D01*
X157454961Y-73979782D01*
X157409873Y-74002755D01*
X157361754Y-74018390D01*
X157344084Y-74027394D01*
X157303150Y-74057134D01*
X157258066Y-74080106D01*
X157242020Y-74091764D01*
X157202404Y-74131381D01*
X157202389Y-74131394D01*
X156663759Y-74670025D01*
X156663758Y-74670026D01*
X156514513Y-74819272D01*
X156502856Y-74835317D01*
X156479888Y-74880395D01*
X156450144Y-74921333D01*
X156441140Y-74939005D01*
X156425503Y-74987130D01*
X156402532Y-75032213D01*
X156396403Y-75051074D01*
X156388486Y-75101059D01*
X156372853Y-75149173D01*
X156369751Y-75168761D01*
X156369751Y-75224060D01*
X156369750Y-75224072D01*
X156369751Y-77070776D01*
X156369750Y-91283535D01*
X153862786Y-93790500D01*
X149167124Y-93790500D01*
X149105009Y-93728384D01*
X149091905Y-93718329D01*
X148870095Y-93590267D01*
X148854835Y-93583946D01*
X148719255Y-93547617D01*
X148734844Y-93489438D01*
X148737000Y-93473063D01*
X148737000Y-93216938D01*
X148734844Y-93200562D01*
X148668554Y-92953165D01*
X148662233Y-92937905D01*
X148534171Y-92716095D01*
X148524116Y-92702991D01*
X148343009Y-92521884D01*
X148329905Y-92511829D01*
X148108095Y-92383767D01*
X148092835Y-92377446D01*
X147845438Y-92311156D01*
X147829062Y-92309000D01*
X147572938Y-92309000D01*
X147556562Y-92311156D01*
X147309165Y-92377446D01*
X147293905Y-92383767D01*
X147192000Y-92442602D01*
X147192000Y-91789063D01*
X149155001Y-91789063D01*
X149155001Y-92059937D01*
X149155778Y-92069808D01*
X149198152Y-92337349D01*
X149200463Y-92346977D01*
X149284169Y-92604595D01*
X149287958Y-92613743D01*
X149410933Y-92855095D01*
X149416106Y-92863537D01*
X149575323Y-93082680D01*
X149581753Y-93090209D01*
X149773291Y-93281747D01*
X149780820Y-93288177D01*
X149999963Y-93447394D01*
X150008405Y-93452567D01*
X150249757Y-93575542D01*
X150258905Y-93579331D01*
X150516523Y-93663037D01*
X150526151Y-93665348D01*
X150793692Y-93707722D01*
X150803563Y-93708499D01*
X151074437Y-93708499D01*
X151084308Y-93707722D01*
X151351849Y-93665348D01*
X151361477Y-93663037D01*
X151619095Y-93579331D01*
X151628243Y-93575542D01*
X151869595Y-93452567D01*
X151878037Y-93447394D01*
X152097180Y-93288177D01*
X152104709Y-93281747D01*
X152296247Y-93090209D01*
X152302677Y-93082680D01*
X152461894Y-92863537D01*
X152467067Y-92855095D01*
X152590042Y-92613743D01*
X152593831Y-92604595D01*
X152677537Y-92346977D01*
X152679848Y-92337349D01*
X152722222Y-92069808D01*
X152722999Y-92059937D01*
X152722999Y-91789063D01*
X152722222Y-91779192D01*
X152679848Y-91511651D01*
X152677537Y-91502023D01*
X152593831Y-91244405D01*
X152590042Y-91235257D01*
X152467067Y-90993905D01*
X152461894Y-90985463D01*
X152302677Y-90766320D01*
X152296247Y-90758791D01*
X152104709Y-90567253D01*
X152097180Y-90560823D01*
X151878037Y-90401606D01*
X151869595Y-90396433D01*
X151628243Y-90273458D01*
X151619095Y-90269669D01*
X151361477Y-90185963D01*
X151351849Y-90183652D01*
X151084308Y-90141278D01*
X151074437Y-90140501D01*
X150803563Y-90140501D01*
X150793692Y-90141278D01*
X150526151Y-90183652D01*
X150516523Y-90185963D01*
X150258905Y-90269669D01*
X150249757Y-90273458D01*
X150008405Y-90396433D01*
X149999963Y-90401606D01*
X149780820Y-90560823D01*
X149773291Y-90567253D01*
X149581753Y-90758791D01*
X149575323Y-90766320D01*
X149416106Y-90985463D01*
X149410933Y-90993905D01*
X149287958Y-91235257D01*
X149284169Y-91244405D01*
X149200463Y-91502023D01*
X149198152Y-91511651D01*
X149155778Y-91779192D01*
X149155001Y-91789063D01*
X147192000Y-91789063D01*
X147192000Y-76389063D01*
X149155001Y-76389063D01*
X149155001Y-76659937D01*
X149155778Y-76669808D01*
X149198152Y-76937349D01*
X149200463Y-76946977D01*
X149284169Y-77204595D01*
X149287958Y-77213743D01*
X149410933Y-77455095D01*
X149416106Y-77463537D01*
X149575323Y-77682680D01*
X149581753Y-77690209D01*
X149773291Y-77881747D01*
X149780820Y-77888177D01*
X149999963Y-78047394D01*
X150008405Y-78052567D01*
X150249757Y-78175542D01*
X150258905Y-78179331D01*
X150516523Y-78263037D01*
X150526151Y-78265348D01*
X150793692Y-78307722D01*
X150803563Y-78308499D01*
X151074437Y-78308499D01*
X151084308Y-78307722D01*
X151351849Y-78265348D01*
X151361477Y-78263037D01*
X151619095Y-78179331D01*
X151628243Y-78175542D01*
X151869595Y-78052567D01*
X151878037Y-78047394D01*
X152097180Y-77888177D01*
X152104709Y-77881747D01*
X152296247Y-77690209D01*
X152302677Y-77682680D01*
X152461894Y-77463537D01*
X152467067Y-77455095D01*
X152590042Y-77213743D01*
X152593831Y-77204595D01*
X152677537Y-76946977D01*
X152679848Y-76937349D01*
X152722222Y-76669808D01*
X152722999Y-76659937D01*
X152722999Y-76389063D01*
X152722222Y-76379192D01*
X152679848Y-76111651D01*
X152677537Y-76102023D01*
X152593831Y-75844405D01*
X152590042Y-75835257D01*
X152467067Y-75593905D01*
X152461894Y-75585463D01*
X152302677Y-75366320D01*
X152296247Y-75358791D01*
X152104709Y-75167253D01*
X152097180Y-75160823D01*
X151878037Y-75001606D01*
X151869595Y-74996433D01*
X151628243Y-74873458D01*
X151619095Y-74869669D01*
X151361477Y-74785963D01*
X151351849Y-74783652D01*
X151084308Y-74741278D01*
X151074437Y-74740501D01*
X150803563Y-74740501D01*
X150793692Y-74741278D01*
X150526151Y-74783652D01*
X150516523Y-74785963D01*
X150258905Y-74869669D01*
X150249757Y-74873458D01*
X150008405Y-74996433D01*
X149999963Y-75001606D01*
X149780820Y-75160823D01*
X149773291Y-75167253D01*
X149581753Y-75358791D01*
X149575323Y-75366320D01*
X149416106Y-75585463D01*
X149410933Y-75593905D01*
X149287958Y-75835257D01*
X149284169Y-75844405D01*
X149200463Y-76102023D01*
X149198152Y-76111651D01*
X149155778Y-76379192D01*
X149155001Y-76389063D01*
X147192000Y-76389063D01*
X147192000Y-72345076D01*
X147242721Y-72548505D01*
X147246169Y-72558604D01*
X147343091Y-72779400D01*
X147348192Y-72788775D01*
X147480930Y-72990084D01*
X147487538Y-72998465D01*
X147652298Y-73174532D01*
X147660222Y-73181680D01*
X147852292Y-73327468D01*
X147861308Y-73333179D01*
X148075196Y-73444521D01*
X148085045Y-73448631D01*
X148314634Y-73522344D01*
X148325035Y-73524736D01*
X148563762Y-73558712D01*
X148574417Y-73559317D01*
X148815456Y-73552584D01*
X148826061Y-73551385D01*
X149062519Y-73504136D01*
X149072770Y-73501167D01*
X149297887Y-73414753D01*
X149307491Y-73410100D01*
X149514830Y-73286991D01*
X149523512Y-73280786D01*
X149707145Y-73124504D01*
X149714658Y-73116924D01*
X149740903Y-73085535D01*
X149778637Y-73226359D01*
X149791380Y-73250839D01*
X149922490Y-73407090D01*
X149939379Y-73421261D01*
X150113620Y-73521859D01*
X150134337Y-73529400D01*
X150327038Y-73563378D01*
X150337999Y-73564337D01*
X152051758Y-73564337D01*
X152068134Y-73562181D01*
X152347359Y-73487363D01*
X152371839Y-73474620D01*
X152528090Y-73343510D01*
X152542261Y-73326621D01*
X152642859Y-73152380D01*
X152650400Y-73131663D01*
X152684378Y-72938962D01*
X152685337Y-72928001D01*
X152685337Y-71214242D01*
X152683181Y-71197866D01*
X152608363Y-70918642D01*
X152595620Y-70894162D01*
X152464510Y-70737910D01*
X152447621Y-70723739D01*
X152273380Y-70623141D01*
X152252663Y-70615600D01*
X152059962Y-70581622D01*
X152049001Y-70580663D01*
X150335242Y-70580663D01*
X150318866Y-70582819D01*
X150039642Y-70657637D01*
X150015162Y-70670380D01*
X149858910Y-70801490D01*
X149844739Y-70818379D01*
X149744141Y-70992620D01*
X149736600Y-71013337D01*
X149731021Y-71044979D01*
X149727147Y-71040917D01*
X149546549Y-70881138D01*
X149537986Y-70874767D01*
X149333049Y-70747702D01*
X149323536Y-70742865D01*
X149100119Y-70652145D01*
X149089927Y-70648980D01*
X148854419Y-70597200D01*
X148843840Y-70595798D01*
X148602975Y-70584439D01*
X148592309Y-70584839D01*
X148352974Y-70614227D01*
X148342530Y-70616418D01*
X148111568Y-70685710D01*
X148101642Y-70689630D01*
X147885655Y-70796846D01*
X147876532Y-70802382D01*
X147681699Y-70944457D01*
X147673638Y-70951452D01*
X147505529Y-71124322D01*
X147498763Y-71132574D01*
X147362183Y-71331298D01*
X147356903Y-71340573D01*
X147255760Y-71559468D01*
X147252118Y-71569500D01*
X147192000Y-71792308D01*
X147192000Y-69214000D01*
X156846000Y-69214000D01*
X156846000Y-69933941D01*
G37*
%TD.AperFunction*%
%TD*%
%TO.N,Earth*%
X137444682Y-69720115D02*
X137438910Y-69725537D01*
X137218148Y-69960624D01*
X137213100Y-69966726D01*
X137023544Y-70227628D01*
X137019301Y-70234314D01*
X136863939Y-70516917D01*
X136860567Y-70524083D01*
X136741850Y-70823928D01*
X136739402Y-70831460D01*
X136659201Y-71143821D01*
X136657717Y-71151601D01*
X136617298Y-71471550D01*
X136616801Y-71479453D01*
X136616801Y-71801947D01*
X136617298Y-71809850D01*
X136657717Y-72129799D01*
X136659201Y-72137579D01*
X136739402Y-72449940D01*
X136741850Y-72457472D01*
X136860567Y-72757317D01*
X136863939Y-72764483D01*
X137019301Y-73047086D01*
X137023544Y-73053772D01*
X137213100Y-73314674D01*
X137218148Y-73320776D01*
X137438910Y-73555863D01*
X137444682Y-73561285D01*
X137693168Y-73766850D01*
X137699575Y-73771505D01*
X137971864Y-73944304D01*
X137978804Y-73948119D01*
X138270604Y-74085430D01*
X138277967Y-74088345D01*
X138584676Y-74188002D01*
X138592346Y-74189971D01*
X138909128Y-74250400D01*
X138916985Y-74251393D01*
X139238840Y-74271642D01*
X139246760Y-74271642D01*
X139568615Y-74251393D01*
X139576472Y-74250400D01*
X139893254Y-74189971D01*
X139900924Y-74188002D01*
X140207633Y-74088345D01*
X140214996Y-74085430D01*
X140506796Y-73948119D01*
X140513736Y-73944304D01*
X140786025Y-73771505D01*
X140792432Y-73766850D01*
X141040918Y-73561285D01*
X141046690Y-73555863D01*
X141267452Y-73320776D01*
X141272500Y-73314674D01*
X141462056Y-73053772D01*
X141466299Y-73047086D01*
X141621661Y-72764483D01*
X141625033Y-72757317D01*
X141743750Y-72457472D01*
X141746198Y-72449940D01*
X141826399Y-72137579D01*
X141827883Y-72129799D01*
X141868302Y-71809850D01*
X141868799Y-71801947D01*
X141868799Y-71479453D01*
X141868302Y-71471550D01*
X141827883Y-71151601D01*
X141826399Y-71143821D01*
X141746198Y-70831460D01*
X141743750Y-70823928D01*
X141625033Y-70524083D01*
X141621661Y-70516917D01*
X141466299Y-70234314D01*
X141462056Y-70227628D01*
X141272500Y-69966726D01*
X141267452Y-69960624D01*
X141046690Y-69725537D01*
X141040918Y-69720115D01*
X141023856Y-69706000D01*
X146303727Y-69706000D01*
X146272310Y-92797161D01*
X146242482Y-92864156D01*
X146238401Y-92876716D01*
X146175743Y-93171500D01*
X132410049Y-93171500D01*
X132277163Y-93170108D01*
X132263147Y-93171532D01*
X132194747Y-93186321D01*
X132125189Y-93194124D01*
X132111451Y-93197245D01*
X132057781Y-93215934D01*
X132002246Y-93227941D01*
X131988894Y-93232435D01*
X131925465Y-93262012D01*
X131859368Y-93285029D01*
X131846662Y-93291117D01*
X131798469Y-93321232D01*
X131746773Y-93345337D01*
X131734397Y-93352951D01*
X131683070Y-93393342D01*
X131620294Y-93432568D01*
X131609252Y-93441319D01*
X131558437Y-93491781D01*
X131556418Y-93493574D01*
X131526054Y-93523938D01*
X131419847Y-93629406D01*
X131416818Y-93633173D01*
X130758415Y-94291577D01*
X130663421Y-94384601D01*
X130654517Y-94395519D01*
X130616606Y-94454346D01*
X130572940Y-94509046D01*
X130565433Y-94520967D01*
X130540703Y-94572124D01*
X130509920Y-94619891D01*
X130503655Y-94632511D01*
X130479719Y-94698275D01*
X130449256Y-94761290D01*
X130444576Y-94774580D01*
X130431792Y-94829952D01*
X130412284Y-94883550D01*
X130408917Y-94897684D01*
X130401183Y-94962536D01*
X130384531Y-95034668D01*
X130382911Y-95048663D01*
X130382662Y-95120249D01*
X130382501Y-95122951D01*
X130382501Y-95166237D01*
X130381979Y-95315589D01*
X130382501Y-95320393D01*
X130382500Y-97898015D01*
X126299857Y-97898015D01*
X126285420Y-97881839D01*
X126334283Y-97829896D01*
X126340168Y-97822629D01*
X126497993Y-97595124D01*
X126502739Y-97587067D01*
X126625204Y-97338733D01*
X126628707Y-97330064D01*
X126713120Y-97066355D01*
X126715303Y-97057263D01*
X126759811Y-96783974D01*
X126760626Y-96774659D01*
X126764250Y-96497794D01*
X126763680Y-96488461D01*
X126726341Y-96214101D01*
X126724397Y-96204955D01*
X126646915Y-95939127D01*
X126643640Y-95930369D01*
X126527719Y-95678914D01*
X126523185Y-95670736D01*
X126371369Y-95439177D01*
X126365676Y-95431759D01*
X126181301Y-95225184D01*
X126174575Y-95218689D01*
X125961691Y-95041634D01*
X125954078Y-95036205D01*
X125717363Y-94892562D01*
X125709031Y-94888317D01*
X125453684Y-94781241D01*
X125444817Y-94778274D01*
X125176046Y-94710015D01*
X125166014Y-94708314D01*
X124902450Y-94685255D01*
X124896956Y-94685015D01*
X123966268Y-94685015D01*
X123961598Y-94685188D01*
X123755717Y-94700488D01*
X123746469Y-94701870D01*
X123476407Y-94762979D01*
X123467465Y-94765712D01*
X123209402Y-94866067D01*
X123200963Y-94870093D01*
X122960569Y-95007490D01*
X122952817Y-95012719D01*
X122735371Y-95184139D01*
X122728477Y-95190457D01*
X122538757Y-95392134D01*
X122532872Y-95399401D01*
X122375047Y-95626906D01*
X122370301Y-95634963D01*
X122247836Y-95883297D01*
X122244333Y-95891966D01*
X122159920Y-96155675D01*
X122157737Y-96164767D01*
X122113229Y-96438056D01*
X122112414Y-96447371D01*
X122108790Y-96724236D01*
X122109360Y-96733569D01*
X122146699Y-97007929D01*
X122148643Y-97017075D01*
X122226125Y-97282903D01*
X122229400Y-97291661D01*
X122345321Y-97543116D01*
X122349855Y-97551294D01*
X122501671Y-97782853D01*
X122507364Y-97790271D01*
X122587621Y-97880191D01*
X122538757Y-97932134D01*
X122532872Y-97939401D01*
X122375047Y-98166906D01*
X122370301Y-98174963D01*
X122247836Y-98423297D01*
X122244333Y-98431966D01*
X122159920Y-98695675D01*
X122157737Y-98704767D01*
X122113229Y-98978056D01*
X122112414Y-98987371D01*
X122108790Y-99264236D01*
X122109360Y-99273569D01*
X122146699Y-99547929D01*
X122148643Y-99557075D01*
X122226125Y-99822903D01*
X122229400Y-99831661D01*
X122295018Y-99974000D01*
X118958224Y-99974000D01*
X119005204Y-99878733D01*
X119008707Y-99870064D01*
X119093120Y-99606355D01*
X119095303Y-99597263D01*
X119139811Y-99323974D01*
X119140626Y-99314659D01*
X119144250Y-99037794D01*
X119143680Y-99028461D01*
X119106341Y-98754101D01*
X119104397Y-98744955D01*
X119026915Y-98479127D01*
X119023640Y-98470369D01*
X118907719Y-98218914D01*
X118903185Y-98210736D01*
X118868726Y-98158177D01*
X118869895Y-98156857D01*
X119016506Y-97944456D01*
X119023590Y-97930958D01*
X119115108Y-97689642D01*
X119118756Y-97674842D01*
X119149405Y-97422423D01*
X119149865Y-97414822D01*
X119149865Y-95805302D01*
X119148831Y-95793922D01*
X119080622Y-95421717D01*
X119074402Y-95403693D01*
X118953575Y-95173474D01*
X118944915Y-95160929D01*
X118773771Y-94967748D01*
X118762362Y-94957640D01*
X118549961Y-94811029D01*
X118536463Y-94803945D01*
X118295147Y-94712427D01*
X118280347Y-94708779D01*
X118027928Y-94678130D01*
X118020327Y-94677670D01*
X115610807Y-94677670D01*
X115599427Y-94678704D01*
X115227222Y-94746913D01*
X115209198Y-94753133D01*
X114978979Y-94873960D01*
X114966434Y-94882620D01*
X114773253Y-95053764D01*
X114763145Y-95065173D01*
X114616534Y-95277574D01*
X114609450Y-95291072D01*
X114517932Y-95532388D01*
X114514284Y-95547188D01*
X114483635Y-95799607D01*
X114483175Y-95807208D01*
X114483175Y-97416728D01*
X114484209Y-97428108D01*
X114552418Y-97800313D01*
X114558638Y-97818337D01*
X114679465Y-98048556D01*
X114688125Y-98061101D01*
X114766822Y-98149932D01*
X114755047Y-98166906D01*
X114750301Y-98174963D01*
X114627836Y-98423297D01*
X114624333Y-98431966D01*
X114539920Y-98695675D01*
X114537737Y-98704767D01*
X114493229Y-98978056D01*
X114492414Y-98987371D01*
X114488790Y-99264236D01*
X114489360Y-99273569D01*
X114526699Y-99547929D01*
X114528643Y-99557075D01*
X114606125Y-99822903D01*
X114609400Y-99831661D01*
X114675018Y-99974000D01*
X111037479Y-99974000D01*
X111136373Y-99950258D01*
X111144869Y-99947571D01*
X111416493Y-99840027D01*
X111424525Y-99836170D01*
X111678287Y-99691426D01*
X111685695Y-99686476D01*
X111916531Y-99507422D01*
X111923168Y-99501477D01*
X112126472Y-99291685D01*
X112132206Y-99284864D01*
X112303921Y-99048518D01*
X112308636Y-99040957D01*
X112445336Y-98782775D01*
X112448939Y-98774626D01*
X112547898Y-98499756D01*
X112550317Y-98491181D01*
X112609759Y-98204141D01*
X112611040Y-98193324D01*
X112624221Y-97773899D01*
X112623622Y-97763023D01*
X112582319Y-97472817D01*
X112580444Y-97464106D01*
X112498940Y-97183567D01*
X112495856Y-97175208D01*
X112375636Y-96908951D01*
X112371405Y-96901109D01*
X112214869Y-96654447D01*
X112209575Y-96647280D01*
X112019846Y-96425136D01*
X112013595Y-96418786D01*
X111794459Y-96225591D01*
X111787376Y-96220185D01*
X111543202Y-96059793D01*
X111535428Y-96055440D01*
X111271093Y-95931053D01*
X111262783Y-95927838D01*
X110983558Y-95841937D01*
X110974878Y-95839925D01*
X110686334Y-95794224D01*
X110677457Y-95793456D01*
X110385354Y-95788868D01*
X110376458Y-95789357D01*
X110086622Y-95825972D01*
X110077883Y-95827710D01*
X109796098Y-95904797D01*
X109787691Y-95907750D01*
X109519579Y-96023772D01*
X109511672Y-96027880D01*
X109262582Y-96180522D01*
X109255332Y-96185703D01*
X109030235Y-96371919D01*
X109023788Y-96378069D01*
X108827174Y-96594146D01*
X108821658Y-96601143D01*
X108657451Y-96842765D01*
X108652976Y-96850470D01*
X108524452Y-97112819D01*
X108521107Y-97121078D01*
X108430831Y-97398919D01*
X108428683Y-97407566D01*
X108378455Y-97695356D01*
X108377547Y-97704219D01*
X108368371Y-97996215D01*
X108368721Y-98005118D01*
X108400779Y-98295494D01*
X108402380Y-98304259D01*
X108475031Y-98587220D01*
X108477851Y-98595672D01*
X108589648Y-98865574D01*
X108593631Y-98873545D01*
X108742342Y-99125002D01*
X108747408Y-99132332D01*
X108930066Y-99360326D01*
X108936114Y-99366869D01*
X109149075Y-99566853D01*
X109155985Y-99572478D01*
X109394999Y-99740460D01*
X109402633Y-99745055D01*
X109662930Y-99877684D01*
X109671135Y-99881159D01*
X109942302Y-99974000D01*
X104950259Y-99974000D01*
X104944492Y-99974264D01*
X104713951Y-99995448D01*
X104702591Y-99997554D01*
X104403677Y-100081857D01*
X104392891Y-100085997D01*
X104114344Y-100223361D01*
X104104493Y-100229398D01*
X103855644Y-100415222D01*
X103847058Y-100422953D01*
X103636238Y-100651015D01*
X103629205Y-100660181D01*
X103611601Y-100688081D01*
X103494321Y-100783052D01*
X103489418Y-100787468D01*
X103132784Y-101144102D01*
X103057839Y-101209826D01*
X103049886Y-101218207D01*
X102857611Y-101462108D01*
X102851318Y-101471798D01*
X102706711Y-101746653D01*
X102702290Y-101757327D01*
X102610068Y-102054327D01*
X102607573Y-102066453D01*
X102577845Y-102349297D01*
X102577500Y-102355887D01*
X102577500Y-105433800D01*
X102574484Y-105435399D01*
X102336806Y-105596548D01*
X102326393Y-105605393D01*
X102128915Y-105813869D01*
X102120646Y-105824745D01*
X101972600Y-106070799D01*
X101966863Y-106083199D01*
X101875173Y-106355325D01*
X101872236Y-106368669D01*
X101848973Y-106582574D01*
X101848603Y-106589391D01*
X101848603Y-108916708D01*
X101849180Y-108925223D01*
X101889481Y-109221018D01*
X101893394Y-109235887D01*
X101999999Y-109503445D01*
X102006398Y-109515516D01*
X102167548Y-109753194D01*
X102176393Y-109763607D01*
X102384869Y-109961085D01*
X102395745Y-109969354D01*
X102641799Y-110117400D01*
X102654199Y-110123137D01*
X102926325Y-110214827D01*
X102939669Y-110217764D01*
X103153574Y-110241027D01*
X103160391Y-110241397D01*
X105487708Y-110241397D01*
X105496223Y-110240820D01*
X105792018Y-110200519D01*
X105806887Y-110196606D01*
X106074445Y-110090001D01*
X106086516Y-110083602D01*
X106324194Y-109922452D01*
X106334607Y-109913607D01*
X106532085Y-109705131D01*
X106540354Y-109694255D01*
X106688400Y-109448201D01*
X106694137Y-109435801D01*
X106785827Y-109163675D01*
X106788764Y-109150331D01*
X106812027Y-108936426D01*
X106812397Y-108929609D01*
X106812397Y-107601348D01*
X106854500Y-107601348D01*
X106854500Y-107917652D01*
X106855040Y-107925884D01*
X106896325Y-108239482D01*
X106897935Y-108247573D01*
X106979801Y-108553099D01*
X106982453Y-108560910D01*
X107103497Y-108853137D01*
X107107145Y-108860536D01*
X107265297Y-109134463D01*
X107269880Y-109141323D01*
X107462435Y-109392263D01*
X107467874Y-109398466D01*
X107691534Y-109622126D01*
X107697737Y-109627565D01*
X107948677Y-109820120D01*
X107955537Y-109824703D01*
X108229464Y-109982855D01*
X108236863Y-109986503D01*
X108529090Y-110107547D01*
X108536901Y-110110199D01*
X108842427Y-110192065D01*
X108850518Y-110193675D01*
X109164116Y-110234960D01*
X109172348Y-110235500D01*
X109488652Y-110235500D01*
X109496884Y-110234960D01*
X109810482Y-110193675D01*
X109818573Y-110192065D01*
X110124099Y-110110199D01*
X110131910Y-110107547D01*
X110424137Y-109986503D01*
X110431536Y-109982855D01*
X110705463Y-109824703D01*
X110712323Y-109820120D01*
X110963263Y-109627565D01*
X110969466Y-109622126D01*
X111193126Y-109398466D01*
X111198565Y-109392263D01*
X111391120Y-109141323D01*
X111395703Y-109134463D01*
X111553855Y-108860536D01*
X111557503Y-108853137D01*
X111678547Y-108560910D01*
X111681199Y-108553099D01*
X111763065Y-108247573D01*
X111764675Y-108239482D01*
X111805960Y-107925884D01*
X111806500Y-107917652D01*
X111806500Y-107601348D01*
X111805960Y-107593116D01*
X111764675Y-107279518D01*
X111763065Y-107271427D01*
X111681199Y-106965901D01*
X111678547Y-106958090D01*
X111557503Y-106665863D01*
X111553855Y-106658464D01*
X111395703Y-106384537D01*
X111391120Y-106377677D01*
X111198565Y-106126737D01*
X111193126Y-106120534D01*
X110969466Y-105896874D01*
X110963263Y-105891435D01*
X110712323Y-105698880D01*
X110705463Y-105694297D01*
X110431536Y-105536145D01*
X110424137Y-105532497D01*
X110131910Y-105411453D01*
X110124099Y-105408801D01*
X109818573Y-105326935D01*
X109810482Y-105325325D01*
X109496884Y-105284040D01*
X109488652Y-105283500D01*
X109172348Y-105283500D01*
X109164116Y-105284040D01*
X108850518Y-105325325D01*
X108842427Y-105326935D01*
X108536901Y-105408801D01*
X108529090Y-105411453D01*
X108236863Y-105532497D01*
X108229464Y-105536145D01*
X107955537Y-105694297D01*
X107948677Y-105698880D01*
X107697737Y-105891435D01*
X107691534Y-105896874D01*
X107467874Y-106120534D01*
X107462435Y-106126737D01*
X107269880Y-106377677D01*
X107265297Y-106384537D01*
X107107145Y-106658464D01*
X107103497Y-106665863D01*
X106982453Y-106958090D01*
X106979801Y-106965901D01*
X106897935Y-107271427D01*
X106896325Y-107279518D01*
X106855040Y-107593116D01*
X106854500Y-107601348D01*
X106812397Y-107601348D01*
X106812397Y-106602292D01*
X106811820Y-106593777D01*
X106771519Y-106297982D01*
X106767606Y-106283113D01*
X106661001Y-106015555D01*
X106654602Y-106003484D01*
X106493452Y-105765806D01*
X106484607Y-105755393D01*
X106276131Y-105557915D01*
X106265255Y-105549646D01*
X106083500Y-105440287D01*
X106083500Y-103480000D01*
X112894747Y-103480000D01*
X112857611Y-103527108D01*
X112851318Y-103536798D01*
X112837482Y-103563095D01*
X112820049Y-103587139D01*
X112814152Y-103597073D01*
X112762603Y-103705417D01*
X112706711Y-103811653D01*
X112702290Y-103822326D01*
X112693480Y-103850698D01*
X112680716Y-103877525D01*
X112676728Y-103888368D01*
X112645789Y-104004285D01*
X112610068Y-104119327D01*
X112607573Y-104131453D01*
X112604797Y-104157866D01*
X112596637Y-104188437D01*
X112594692Y-104199825D01*
X112578518Y-104407901D01*
X112577845Y-104414301D01*
X112577500Y-104420888D01*
X112577500Y-104420997D01*
X112570623Y-104509466D01*
X112570786Y-104521018D01*
X112577500Y-104584313D01*
X112577500Y-106010909D01*
X112467874Y-106120534D01*
X112462435Y-106126737D01*
X112269880Y-106377677D01*
X112265297Y-106384537D01*
X112107145Y-106658464D01*
X112103497Y-106665863D01*
X111982453Y-106958090D01*
X111979801Y-106965901D01*
X111897935Y-107271427D01*
X111896325Y-107279518D01*
X111855040Y-107593116D01*
X111854500Y-107601348D01*
X111854500Y-107917652D01*
X111855040Y-107925884D01*
X111896325Y-108239482D01*
X111897935Y-108247573D01*
X111979801Y-108553099D01*
X111982453Y-108560910D01*
X112103497Y-108853137D01*
X112107145Y-108860536D01*
X112265297Y-109134463D01*
X112269880Y-109141323D01*
X112462435Y-109392263D01*
X112467874Y-109398466D01*
X112691534Y-109622126D01*
X112697737Y-109627565D01*
X112948677Y-109820120D01*
X112955537Y-109824703D01*
X113229464Y-109982855D01*
X113236863Y-109986503D01*
X113529090Y-110107547D01*
X113536901Y-110110199D01*
X113842427Y-110192065D01*
X113850518Y-110193675D01*
X114164116Y-110234960D01*
X114172348Y-110235500D01*
X114488652Y-110235500D01*
X114496884Y-110234960D01*
X114810482Y-110193675D01*
X114818573Y-110192065D01*
X115124099Y-110110199D01*
X115131910Y-110107547D01*
X115424137Y-109986503D01*
X115431536Y-109982855D01*
X115705463Y-109824703D01*
X115712323Y-109820120D01*
X115963263Y-109627565D01*
X115969466Y-109622126D01*
X116193126Y-109398466D01*
X116198565Y-109392263D01*
X116391120Y-109141323D01*
X116395703Y-109134463D01*
X116553855Y-108860536D01*
X116557503Y-108853137D01*
X116678547Y-108560910D01*
X116681199Y-108553099D01*
X116763065Y-108247573D01*
X116764675Y-108239482D01*
X116805960Y-107925884D01*
X116806500Y-107917652D01*
X116806500Y-107601348D01*
X116805960Y-107593116D01*
X116764675Y-107279518D01*
X116763065Y-107271427D01*
X116681199Y-106965901D01*
X116678547Y-106958090D01*
X116557503Y-106665863D01*
X116553855Y-106658464D01*
X116395703Y-106384537D01*
X116391120Y-106377677D01*
X116198565Y-106126737D01*
X116193126Y-106120534D01*
X116083500Y-106010909D01*
X116083500Y-105766000D01*
X117886581Y-105766000D01*
X117813415Y-105843241D01*
X117805146Y-105854117D01*
X117657100Y-106100171D01*
X117651363Y-106112571D01*
X117559673Y-106384697D01*
X117556736Y-106398041D01*
X117533473Y-106611946D01*
X117533103Y-106618763D01*
X117533103Y-108946080D01*
X117533680Y-108954595D01*
X117573981Y-109250390D01*
X117577894Y-109265259D01*
X117684499Y-109532817D01*
X117690898Y-109544888D01*
X117852048Y-109782566D01*
X117860893Y-109792979D01*
X118069369Y-109990457D01*
X118080245Y-109998726D01*
X118326299Y-110146772D01*
X118338699Y-110152509D01*
X118610825Y-110244199D01*
X118624169Y-110247136D01*
X118838074Y-110270399D01*
X118844891Y-110270769D01*
X121172208Y-110270769D01*
X121180723Y-110270192D01*
X121476518Y-110229891D01*
X121491387Y-110225978D01*
X121758945Y-110119373D01*
X121771016Y-110112974D01*
X122008694Y-109951824D01*
X122019107Y-109942979D01*
X122216585Y-109734503D01*
X122224854Y-109723627D01*
X122372900Y-109477573D01*
X122378637Y-109465173D01*
X122470327Y-109193047D01*
X122473264Y-109179703D01*
X122496527Y-108965798D01*
X122496897Y-108958981D01*
X122496897Y-106631664D01*
X122496320Y-106623149D01*
X122456019Y-106327354D01*
X122452106Y-106312485D01*
X122345501Y-106044927D01*
X122339102Y-106032856D01*
X122177952Y-105795178D01*
X122169107Y-105784765D01*
X122149297Y-105766000D01*
X123583983Y-105766000D01*
X123382237Y-105920807D01*
X123376034Y-105926246D01*
X123152374Y-106149906D01*
X123146935Y-106156109D01*
X122954380Y-106407049D01*
X122949797Y-106413909D01*
X122791645Y-106687836D01*
X122787997Y-106695235D01*
X122666953Y-106987462D01*
X122664301Y-106995273D01*
X122582435Y-107300799D01*
X122580825Y-107308890D01*
X122539540Y-107622488D01*
X122539000Y-107630720D01*
X122539000Y-107947024D01*
X122539540Y-107955256D01*
X122580825Y-108268854D01*
X122582435Y-108276945D01*
X122664301Y-108582471D01*
X122666953Y-108590282D01*
X122787997Y-108882509D01*
X122791645Y-108889908D01*
X122949797Y-109163835D01*
X122954380Y-109170695D01*
X123146935Y-109421635D01*
X123152374Y-109427838D01*
X123272468Y-109547931D01*
X123277627Y-110412581D01*
X123276767Y-110417733D01*
X123275914Y-110429251D01*
X123278651Y-110583996D01*
X123279001Y-110642699D01*
X123279300Y-110648464D01*
X123279899Y-110654586D01*
X123281406Y-110739775D01*
X123282666Y-110751260D01*
X123295565Y-110814583D01*
X123301860Y-110878877D01*
X123304033Y-110890223D01*
X123327649Y-110972086D01*
X123344658Y-111055586D01*
X123347990Y-111066649D01*
X123372210Y-111126555D01*
X123390118Y-111188630D01*
X123394323Y-111199391D01*
X123432462Y-111275580D01*
X123464404Y-111354581D01*
X123469696Y-111364851D01*
X123504423Y-111419332D01*
X123533347Y-111477113D01*
X123539443Y-111486928D01*
X123590834Y-111554900D01*
X123636852Y-111627097D01*
X123644498Y-111636835D01*
X123683840Y-111677911D01*
X123726748Y-111734663D01*
X123734530Y-111743203D01*
X123829117Y-111829599D01*
X123841215Y-111842229D01*
X123846022Y-111846749D01*
X123871480Y-111868291D01*
X123963847Y-111952658D01*
X123973054Y-111959636D01*
X123997205Y-111974674D01*
X124624458Y-112505427D01*
X124641327Y-112524662D01*
X124649707Y-112532614D01*
X124750423Y-112612012D01*
X124784772Y-112641077D01*
X124789346Y-112644601D01*
X124810866Y-112659661D01*
X124893607Y-112724889D01*
X124903297Y-112731182D01*
X124942620Y-112751870D01*
X124979020Y-112777345D01*
X124989052Y-112783076D01*
X125084905Y-112826731D01*
X125178152Y-112875789D01*
X125188825Y-112880210D01*
X125231261Y-112893387D01*
X125271696Y-112911802D01*
X125282604Y-112915608D01*
X125384820Y-112941068D01*
X125485826Y-112972432D01*
X125497953Y-112974927D01*
X125537409Y-112979074D01*
X125583971Y-112990672D01*
X125595390Y-112992426D01*
X125759694Y-113002437D01*
X125780797Y-113004655D01*
X125787386Y-113005000D01*
X125801767Y-113005000D01*
X125905391Y-113011313D01*
X125916938Y-113010958D01*
X125965364Y-113005000D01*
X138694397Y-113005000D01*
X138734471Y-113010315D01*
X138746015Y-113010779D01*
X138858310Y-113005000D01*
X138889741Y-113005000D01*
X138895509Y-113004736D01*
X138936313Y-113000986D01*
X139056180Y-112994818D01*
X139067615Y-112993171D01*
X139096485Y-112986268D01*
X139126049Y-112983552D01*
X139137409Y-112981446D01*
X139252946Y-112948861D01*
X139369677Y-112920953D01*
X139380622Y-112917249D01*
X139407745Y-112905203D01*
X139436322Y-112897144D01*
X139447109Y-112893003D01*
X139554773Y-112839909D01*
X139664843Y-112791028D01*
X139675611Y-112784918D01*
X139697285Y-112769630D01*
X139725655Y-112755640D01*
X139735507Y-112749603D01*
X139902825Y-112624661D01*
X139908020Y-112620996D01*
X139913198Y-112616922D01*
X139913256Y-112616871D01*
X139984357Y-112563778D01*
X139992942Y-112556047D01*
X140036170Y-112509285D01*
X140866312Y-111782655D01*
X140868648Y-111780958D01*
X141102161Y-111576174D01*
X141110114Y-111567793D01*
X141155984Y-111509605D01*
X141207022Y-111455925D01*
X141214184Y-111446858D01*
X141255486Y-111383390D01*
X141302389Y-111323893D01*
X141308682Y-111314204D01*
X141343177Y-111248637D01*
X141383581Y-111186548D01*
X141388970Y-111176329D01*
X141418018Y-111106389D01*
X141453289Y-111039348D01*
X141457710Y-111028674D01*
X141479679Y-110957923D01*
X141508094Y-110889507D01*
X141511530Y-110878476D01*
X141527348Y-110804406D01*
X141549932Y-110731674D01*
X141552427Y-110719548D01*
X141559172Y-110655378D01*
X141576389Y-110574749D01*
X141577758Y-110563278D01*
X141580857Y-110449050D01*
X141582155Y-110436706D01*
X141582500Y-110430115D01*
X141582500Y-110388512D01*
X141586181Y-110252817D01*
X141585437Y-110241287D01*
X141582500Y-110222633D01*
X141582500Y-107911499D01*
X141728564Y-107742281D01*
X141733595Y-107735605D01*
X141901839Y-107478500D01*
X141905943Y-107471217D01*
X142038705Y-107194120D01*
X142041809Y-107186358D01*
X142136758Y-106894138D01*
X142138808Y-106886034D01*
X142194414Y-106583063D01*
X142195431Y-106573215D01*
X142205660Y-106154679D01*
X142205125Y-106144793D01*
X142164386Y-105839469D01*
X142162734Y-105831274D01*
X142082173Y-105534762D01*
X142079451Y-105526858D01*
X141960384Y-105243608D01*
X141956641Y-105236133D01*
X141801158Y-104971117D01*
X141796459Y-104964202D01*
X141607290Y-104722079D01*
X141601718Y-104715847D01*
X141382190Y-104500869D01*
X141375843Y-104495429D01*
X141129810Y-104311373D01*
X141122799Y-104306820D01*
X140854586Y-104156920D01*
X140847034Y-104153334D01*
X140561351Y-104040224D01*
X140553392Y-104037669D01*
X140255259Y-103963336D01*
X140247031Y-103961855D01*
X139941686Y-103927605D01*
X139933335Y-103927226D01*
X139626143Y-103933661D01*
X139617815Y-103934390D01*
X139314172Y-103981397D01*
X139306014Y-103983220D01*
X139011255Y-104069972D01*
X139003410Y-104072858D01*
X138722715Y-104197832D01*
X138715320Y-104201731D01*
X138453619Y-104362731D01*
X138446804Y-104367573D01*
X138208695Y-104561771D01*
X138202581Y-104567472D01*
X137992248Y-104791454D01*
X137986942Y-104797914D01*
X137808078Y-105047747D01*
X137803673Y-105054852D01*
X137659423Y-105326146D01*
X137655996Y-105333771D01*
X137548894Y-105621761D01*
X137546506Y-105629772D01*
X137478433Y-105929396D01*
X137477125Y-105937653D01*
X137449278Y-106243648D01*
X137449073Y-106252005D01*
X137461941Y-106558995D01*
X137462843Y-106567305D01*
X137516198Y-106869897D01*
X137518192Y-106878016D01*
X137611099Y-107170893D01*
X137614149Y-107178676D01*
X137744973Y-107456693D01*
X137749026Y-107464005D01*
X137915471Y-107722277D01*
X137920455Y-107728988D01*
X138076500Y-107912341D01*
X138076501Y-109499000D01*
X131806464Y-109499000D01*
X131877626Y-109427838D01*
X131883065Y-109421635D01*
X132075620Y-109170695D01*
X132080203Y-109163835D01*
X132238355Y-108889908D01*
X132242003Y-108882509D01*
X132363047Y-108590282D01*
X132365699Y-108582471D01*
X132447565Y-108276945D01*
X132449175Y-108268854D01*
X132490460Y-107955256D01*
X132491000Y-107947024D01*
X132491000Y-107630720D01*
X132490460Y-107622488D01*
X132449175Y-107308890D01*
X132447565Y-107300799D01*
X132365699Y-106995273D01*
X132363047Y-106987462D01*
X132242003Y-106695235D01*
X132238355Y-106687836D01*
X132080203Y-106413909D01*
X132075620Y-106407049D01*
X131883065Y-106156109D01*
X131877626Y-106149906D01*
X131653966Y-105926246D01*
X131647763Y-105920807D01*
X131446017Y-105766000D01*
X132515556Y-105766000D01*
X132478433Y-105929396D01*
X132477125Y-105937653D01*
X132449278Y-106243648D01*
X132449073Y-106252005D01*
X132461941Y-106558995D01*
X132462843Y-106567305D01*
X132516198Y-106869897D01*
X132518192Y-106878016D01*
X132611099Y-107170893D01*
X132614149Y-107178676D01*
X132744973Y-107456693D01*
X132749026Y-107464005D01*
X132915471Y-107722277D01*
X132920455Y-107728988D01*
X133119596Y-107962978D01*
X133125424Y-107968971D01*
X133353763Y-108174568D01*
X133360333Y-108179738D01*
X133613857Y-108353329D01*
X133621052Y-108357584D01*
X133895308Y-108496121D01*
X133903003Y-108499388D01*
X134193172Y-108600435D01*
X134201232Y-108602655D01*
X134502216Y-108664438D01*
X134510498Y-108665573D01*
X134817008Y-108687006D01*
X134825368Y-108687035D01*
X135132022Y-108667742D01*
X135140312Y-108666665D01*
X135441720Y-108606986D01*
X135449795Y-108604822D01*
X135740662Y-108505802D01*
X135748379Y-108502589D01*
X136023596Y-108365971D01*
X136030821Y-108361766D01*
X136285551Y-108189948D01*
X136292156Y-108184825D01*
X136521924Y-107980828D01*
X136527794Y-107974875D01*
X136728564Y-107742281D01*
X136733595Y-107735605D01*
X136901839Y-107478500D01*
X136905943Y-107471217D01*
X137038705Y-107194120D01*
X137041809Y-107186358D01*
X137136758Y-106894138D01*
X137138808Y-106886034D01*
X137194414Y-106583063D01*
X137195431Y-106573215D01*
X137205660Y-106154679D01*
X137205125Y-106144793D01*
X137164386Y-105839469D01*
X137162734Y-105831274D01*
X137082173Y-105534762D01*
X137079451Y-105526858D01*
X136960384Y-105243608D01*
X136956641Y-105236133D01*
X136801158Y-104971117D01*
X136796459Y-104964202D01*
X136607290Y-104722079D01*
X136601718Y-104715847D01*
X136382190Y-104500869D01*
X136375843Y-104495429D01*
X136129810Y-104311373D01*
X136122799Y-104306820D01*
X136031155Y-104255602D01*
X136722638Y-103670500D01*
X143704858Y-103670500D01*
X143804295Y-103677018D01*
X143815845Y-103676716D01*
X143947297Y-103661157D01*
X144079048Y-103649052D01*
X144090408Y-103646946D01*
X144107065Y-103642248D01*
X144124268Y-103640212D01*
X144135569Y-103637809D01*
X144261953Y-103598565D01*
X144389323Y-103562643D01*
X144400109Y-103558503D01*
X144415642Y-103550843D01*
X144432175Y-103545709D01*
X144442848Y-103541288D01*
X144559948Y-103479680D01*
X144678656Y-103421139D01*
X144688507Y-103415103D01*
X144702382Y-103404741D01*
X144718070Y-103396488D01*
X144728408Y-103389678D01*
X144797728Y-103333543D01*
X144937356Y-103229278D01*
X144945942Y-103221547D01*
X145029997Y-103130617D01*
X146027216Y-102133398D01*
X146102161Y-102067674D01*
X146110114Y-102059293D01*
X146192061Y-101955343D01*
X146259961Y-101873703D01*
X146256516Y-104406161D01*
X146129810Y-104311373D01*
X146122799Y-104306820D01*
X145854586Y-104156920D01*
X145847034Y-104153334D01*
X145561351Y-104040224D01*
X145553392Y-104037669D01*
X145255259Y-103963336D01*
X145247031Y-103961855D01*
X144941686Y-103927605D01*
X144933335Y-103927226D01*
X144626143Y-103933661D01*
X144617815Y-103934390D01*
X144314172Y-103981397D01*
X144306014Y-103983220D01*
X144011255Y-104069972D01*
X144003410Y-104072858D01*
X143722715Y-104197832D01*
X143715320Y-104201731D01*
X143453619Y-104362731D01*
X143446804Y-104367573D01*
X143208695Y-104561771D01*
X143202581Y-104567472D01*
X142992248Y-104791454D01*
X142986942Y-104797914D01*
X142808078Y-105047747D01*
X142803673Y-105054852D01*
X142659423Y-105326146D01*
X142655996Y-105333771D01*
X142548894Y-105621761D01*
X142546506Y-105629772D01*
X142478433Y-105929396D01*
X142477125Y-105937653D01*
X142449278Y-106243648D01*
X142449073Y-106252005D01*
X142461941Y-106558995D01*
X142462843Y-106567305D01*
X142516198Y-106869897D01*
X142518192Y-106878016D01*
X142611099Y-107170893D01*
X142614149Y-107178676D01*
X142744973Y-107456693D01*
X142749026Y-107464005D01*
X142915471Y-107722277D01*
X142920455Y-107728988D01*
X143119596Y-107962978D01*
X143125424Y-107968971D01*
X143353763Y-108174568D01*
X143360333Y-108179738D01*
X143613857Y-108353329D01*
X143621052Y-108357584D01*
X143895308Y-108496121D01*
X143903003Y-108499388D01*
X144193172Y-108600435D01*
X144201232Y-108602655D01*
X144502216Y-108664438D01*
X144510498Y-108665573D01*
X144817008Y-108687006D01*
X144825368Y-108687035D01*
X145132022Y-108667742D01*
X145140312Y-108666665D01*
X145441720Y-108606986D01*
X145449795Y-108604822D01*
X145740662Y-108505802D01*
X145748379Y-108502589D01*
X146023596Y-108365971D01*
X146030821Y-108361766D01*
X146251337Y-108213026D01*
X146243032Y-114317000D01*
X99366688Y-114317000D01*
X99638025Y-114144805D01*
X99644432Y-114140150D01*
X99892918Y-113934585D01*
X99898690Y-113929163D01*
X100119452Y-113694076D01*
X100124500Y-113687974D01*
X100314056Y-113427072D01*
X100318299Y-113420386D01*
X100473661Y-113137783D01*
X100477033Y-113130617D01*
X100595750Y-112830772D01*
X100598198Y-112823240D01*
X100678399Y-112510879D01*
X100679883Y-112503099D01*
X100720302Y-112183150D01*
X100720799Y-112175247D01*
X100720799Y-111852753D01*
X100720302Y-111844850D01*
X100679883Y-111524901D01*
X100678399Y-111517121D01*
X100598198Y-111204760D01*
X100595750Y-111197228D01*
X100477033Y-110897383D01*
X100473661Y-110890217D01*
X100318299Y-110607614D01*
X100314056Y-110600928D01*
X100124500Y-110340026D01*
X100119452Y-110333924D01*
X99898690Y-110098837D01*
X99892918Y-110093415D01*
X99644432Y-109887850D01*
X99638025Y-109883195D01*
X99365736Y-109710396D01*
X99358796Y-109706581D01*
X99066996Y-109569270D01*
X99059633Y-109566355D01*
X98752924Y-109466698D01*
X98745254Y-109464729D01*
X98428472Y-109404300D01*
X98420615Y-109403307D01*
X98098760Y-109383058D01*
X98090840Y-109383058D01*
X97768985Y-109403307D01*
X97761128Y-109404300D01*
X97444346Y-109464729D01*
X97436676Y-109466698D01*
X97129967Y-109566355D01*
X97122604Y-109569270D01*
X96830804Y-109706581D01*
X96823864Y-109710396D01*
X96551575Y-109883195D01*
X96545168Y-109887850D01*
X96296682Y-110093415D01*
X96290910Y-110098837D01*
X96070148Y-110333924D01*
X96065100Y-110340026D01*
X95875544Y-110600928D01*
X95871301Y-110607614D01*
X95715939Y-110890217D01*
X95712567Y-110897383D01*
X95676293Y-110989001D01*
X95672772Y-97996215D01*
X98368371Y-97996215D01*
X98368721Y-98005118D01*
X98400779Y-98295494D01*
X98402380Y-98304259D01*
X98475031Y-98587220D01*
X98477851Y-98595672D01*
X98589648Y-98865574D01*
X98593631Y-98873545D01*
X98742342Y-99125002D01*
X98747408Y-99132332D01*
X98930066Y-99360326D01*
X98936114Y-99366869D01*
X99149075Y-99566853D01*
X99155985Y-99572478D01*
X99394999Y-99740460D01*
X99402633Y-99745055D01*
X99662930Y-99877684D01*
X99671135Y-99881159D01*
X99947524Y-99975788D01*
X99956137Y-99978071D01*
X100243102Y-100032813D01*
X100251951Y-100033860D01*
X100543766Y-100047621D01*
X100552673Y-100047411D01*
X100843516Y-100019919D01*
X100852305Y-100018456D01*
X101136373Y-99950258D01*
X101144869Y-99947571D01*
X101416493Y-99840027D01*
X101424525Y-99836170D01*
X101678287Y-99691426D01*
X101685695Y-99686476D01*
X101916531Y-99507422D01*
X101923168Y-99501477D01*
X102126472Y-99291685D01*
X102132206Y-99284864D01*
X102303921Y-99048518D01*
X102308636Y-99040957D01*
X102445336Y-98782775D01*
X102448939Y-98774626D01*
X102547898Y-98499756D01*
X102550317Y-98491181D01*
X102609759Y-98204141D01*
X102611040Y-98193324D01*
X102624221Y-97773899D01*
X102623622Y-97763023D01*
X102582319Y-97472817D01*
X102580444Y-97464106D01*
X102498940Y-97183567D01*
X102495856Y-97175208D01*
X102375636Y-96908951D01*
X102371405Y-96901109D01*
X102214869Y-96654447D01*
X102209575Y-96647280D01*
X102019846Y-96425136D01*
X102013595Y-96418786D01*
X101794459Y-96225591D01*
X101787376Y-96220185D01*
X101543202Y-96059793D01*
X101535428Y-96055440D01*
X101271093Y-95931053D01*
X101262783Y-95927838D01*
X100983558Y-95841937D01*
X100974878Y-95839925D01*
X100686334Y-95794224D01*
X100677457Y-95793456D01*
X100385354Y-95788868D01*
X100376458Y-95789357D01*
X100086622Y-95825972D01*
X100077883Y-95827710D01*
X99796098Y-95904797D01*
X99787691Y-95907750D01*
X99519579Y-96023772D01*
X99511672Y-96027880D01*
X99262582Y-96180522D01*
X99255332Y-96185703D01*
X99030235Y-96371919D01*
X99023788Y-96378069D01*
X98827174Y-96594146D01*
X98821658Y-96601143D01*
X98657451Y-96842765D01*
X98652976Y-96850470D01*
X98524452Y-97112819D01*
X98521107Y-97121078D01*
X98430831Y-97398919D01*
X98428683Y-97407566D01*
X98378455Y-97695356D01*
X98377547Y-97704219D01*
X98368371Y-97996215D01*
X95672772Y-97996215D01*
X95670922Y-91168848D01*
X99124000Y-91168848D01*
X99124000Y-91485152D01*
X99124540Y-91493384D01*
X99165825Y-91806982D01*
X99167435Y-91815073D01*
X99249301Y-92120599D01*
X99251953Y-92128410D01*
X99372997Y-92420637D01*
X99376645Y-92428036D01*
X99534797Y-92701963D01*
X99539380Y-92708823D01*
X99731935Y-92959763D01*
X99737374Y-92965966D01*
X99961034Y-93189626D01*
X99967237Y-93195065D01*
X100218177Y-93387620D01*
X100225037Y-93392203D01*
X100498964Y-93550355D01*
X100506363Y-93554003D01*
X100798590Y-93675047D01*
X100806401Y-93677699D01*
X101111927Y-93759565D01*
X101120018Y-93761175D01*
X101433616Y-93802460D01*
X101441848Y-93803000D01*
X101758152Y-93803000D01*
X101766384Y-93802460D01*
X102079982Y-93761175D01*
X102088073Y-93759565D01*
X102393599Y-93677699D01*
X102401410Y-93675047D01*
X102693637Y-93554003D01*
X102701036Y-93550355D01*
X102974963Y-93392203D01*
X102981823Y-93387620D01*
X103232763Y-93195065D01*
X103238966Y-93189626D01*
X103462626Y-92965966D01*
X103468065Y-92959763D01*
X103660620Y-92708823D01*
X103665203Y-92701963D01*
X103823355Y-92428036D01*
X103827003Y-92420637D01*
X103948047Y-92128410D01*
X103950699Y-92120599D01*
X104032565Y-91815073D01*
X104034175Y-91806982D01*
X104075460Y-91493384D01*
X104076000Y-91485152D01*
X104076000Y-91168848D01*
X104075460Y-91160616D01*
X104034175Y-90847018D01*
X104032565Y-90838927D01*
X103950699Y-90533401D01*
X103948047Y-90525590D01*
X103827003Y-90233363D01*
X103823355Y-90225964D01*
X103665203Y-89952037D01*
X103660620Y-89945177D01*
X103468065Y-89694237D01*
X103462626Y-89688034D01*
X103238966Y-89464374D01*
X103232763Y-89458935D01*
X103131251Y-89381041D01*
X104326501Y-89381041D01*
X104326501Y-89688959D01*
X104327881Y-89702094D01*
X104391901Y-90003284D01*
X104395982Y-90015844D01*
X104521224Y-90297142D01*
X104527827Y-90308580D01*
X104708817Y-90557691D01*
X104717654Y-90567506D01*
X104946483Y-90773544D01*
X104957167Y-90781307D01*
X105223833Y-90935266D01*
X105235898Y-90940638D01*
X105528746Y-91035790D01*
X105541664Y-91038536D01*
X105847897Y-91070722D01*
X105861103Y-91070722D01*
X106167336Y-91038536D01*
X106180254Y-91035790D01*
X106473102Y-90940638D01*
X106485167Y-90935266D01*
X106751833Y-90781307D01*
X106762517Y-90773544D01*
X106991346Y-90567506D01*
X107000183Y-90557691D01*
X107181173Y-90308580D01*
X107187776Y-90297142D01*
X107313018Y-90015844D01*
X107317099Y-90003284D01*
X107381119Y-89702094D01*
X107382499Y-89688959D01*
X107382499Y-89381041D01*
X107381119Y-89367906D01*
X107317099Y-89066716D01*
X107313018Y-89054156D01*
X107232500Y-88873309D01*
X107232500Y-87520821D01*
X107412694Y-87728110D01*
X107419335Y-87734693D01*
X107629883Y-87914518D01*
X107637423Y-87920047D01*
X107872239Y-88066776D01*
X107880514Y-88071129D01*
X108134438Y-88181539D01*
X108143266Y-88184622D01*
X108410720Y-88256286D01*
X108419906Y-88258030D01*
X108695016Y-88289374D01*
X108704359Y-88289741D01*
X108981080Y-88280078D01*
X108990375Y-88279060D01*
X109262627Y-88228601D01*
X109271669Y-88226220D01*
X109533473Y-88136074D01*
X109542064Y-88132383D01*
X109787668Y-88004531D01*
X109795620Y-87999610D01*
X110019628Y-87836858D01*
X110026764Y-87830816D01*
X110224255Y-87636743D01*
X110230420Y-87629713D01*
X110397057Y-87408579D01*
X110402115Y-87400715D01*
X110534235Y-87157380D01*
X110538075Y-87148855D01*
X110632777Y-86888664D01*
X110635315Y-86879665D01*
X110690683Y-86607525D01*
X110691929Y-86596592D01*
X110695820Y-86447978D01*
X114466453Y-86447978D01*
X114466901Y-86457318D01*
X114500645Y-86732143D01*
X114502469Y-86741314D01*
X114576465Y-87008133D01*
X114579625Y-87016934D01*
X114692246Y-87269884D01*
X114696672Y-87278121D01*
X114845444Y-87511647D01*
X114851038Y-87519139D01*
X115032694Y-87728110D01*
X115039335Y-87734693D01*
X115249883Y-87914518D01*
X115257423Y-87920047D01*
X115492239Y-88066776D01*
X115500514Y-88071129D01*
X115754438Y-88181539D01*
X115763266Y-88184622D01*
X116030720Y-88256286D01*
X116039906Y-88258030D01*
X116315016Y-88289374D01*
X116324359Y-88289741D01*
X116601080Y-88280078D01*
X116610375Y-88279060D01*
X116882627Y-88228601D01*
X116891669Y-88226220D01*
X117153473Y-88136074D01*
X117162064Y-88132383D01*
X117407668Y-88004531D01*
X117415620Y-87999610D01*
X117639628Y-87836858D01*
X117646764Y-87830816D01*
X117844255Y-87636743D01*
X117850420Y-87629713D01*
X118017057Y-87408579D01*
X118022115Y-87400715D01*
X118154235Y-87157380D01*
X118158075Y-87148855D01*
X118252777Y-86888664D01*
X118255315Y-86879665D01*
X118261040Y-86851522D01*
X119261512Y-86851522D01*
X119262006Y-86860088D01*
X119299823Y-87159437D01*
X119301475Y-87167856D01*
X119379568Y-87459304D01*
X119382347Y-87467421D01*
X119499272Y-87745575D01*
X119503127Y-87753240D01*
X119656719Y-88012950D01*
X119661579Y-88020021D01*
X119848997Y-88256484D01*
X119854771Y-88262829D01*
X120072547Y-88471670D01*
X120079130Y-88477174D01*
X120323234Y-88654525D01*
X120330502Y-88659084D01*
X120596416Y-88801666D01*
X120604236Y-88805197D01*
X120887041Y-88910372D01*
X120895267Y-88912809D01*
X121189730Y-88978628D01*
X121198211Y-88979926D01*
X121498881Y-89005174D01*
X121507460Y-89005309D01*
X121808776Y-88989518D01*
X121817294Y-88988487D01*
X122113678Y-88931948D01*
X122121977Y-88929771D01*
X122407947Y-88833533D01*
X122415874Y-88830249D01*
X122686136Y-88696089D01*
X122693543Y-88691760D01*
X122943098Y-88522164D01*
X122949849Y-88516870D01*
X123174078Y-88314974D01*
X123180048Y-88308812D01*
X123374801Y-88078353D01*
X123379881Y-88071438D01*
X123541555Y-87816680D01*
X123545649Y-87809140D01*
X123671253Y-87534797D01*
X123674285Y-87526771D01*
X123761495Y-87237920D01*
X123763411Y-87229557D01*
X123810663Y-86931216D01*
X123811436Y-86922009D01*
X123815074Y-86574625D01*
X123814494Y-86565402D01*
X123773500Y-86266138D01*
X123771760Y-86257737D01*
X123690619Y-85967123D01*
X123687755Y-85959036D01*
X123567924Y-85682122D01*
X123563989Y-85674498D01*
X123407685Y-85416409D01*
X123402751Y-85409390D01*
X123212868Y-85174903D01*
X123207027Y-85168617D01*
X122987076Y-84962070D01*
X122980436Y-84956636D01*
X122734489Y-84781850D01*
X122727173Y-84777367D01*
X122459781Y-84637577D01*
X122451924Y-84634128D01*
X122168033Y-84531921D01*
X122159781Y-84529570D01*
X121864646Y-84466837D01*
X121856151Y-84465629D01*
X121555233Y-84443531D01*
X121546654Y-84443486D01*
X121245520Y-84462432D01*
X121237013Y-84463552D01*
X120941238Y-84523191D01*
X120932962Y-84525455D01*
X120648016Y-84624683D01*
X120640124Y-84628050D01*
X120371282Y-84765031D01*
X120363920Y-84769437D01*
X120116155Y-84941639D01*
X120109459Y-84947003D01*
X119887358Y-85151235D01*
X119881452Y-85157459D01*
X119689122Y-85389945D01*
X119684115Y-85396913D01*
X119525118Y-85653350D01*
X119521103Y-85660932D01*
X119398378Y-85936575D01*
X119395430Y-85944633D01*
X119311250Y-86234382D01*
X119309422Y-86242765D01*
X119265345Y-86541256D01*
X119264672Y-86549810D01*
X119261512Y-86851522D01*
X118261040Y-86851522D01*
X118310683Y-86607525D01*
X118311929Y-86596592D01*
X118321684Y-86224030D01*
X118321012Y-86213048D01*
X118279964Y-85938383D01*
X118277900Y-85929263D01*
X118196945Y-85664472D01*
X118193557Y-85655757D01*
X118074353Y-85405842D01*
X118069713Y-85397724D01*
X117914878Y-85168172D01*
X117909090Y-85160829D01*
X117722026Y-84956685D01*
X117715216Y-84950278D01*
X117500032Y-84776026D01*
X117492349Y-84770697D01*
X117253773Y-84630165D01*
X117245387Y-84626029D01*
X116988660Y-84522304D01*
X116979754Y-84519454D01*
X116710516Y-84454815D01*
X116701287Y-84453312D01*
X116425451Y-84429180D01*
X116416102Y-84429058D01*
X116139730Y-84445960D01*
X116130464Y-84447221D01*
X115859625Y-84504790D01*
X115850648Y-84507407D01*
X115591294Y-84604376D01*
X115582802Y-84608290D01*
X115340630Y-84742529D01*
X115332810Y-84747655D01*
X115113139Y-84916215D01*
X115106163Y-84922441D01*
X114913819Y-85121619D01*
X114907840Y-85128808D01*
X114747050Y-85354228D01*
X114742200Y-85362222D01*
X114616495Y-85608932D01*
X114612879Y-85617555D01*
X114525021Y-85880135D01*
X114522719Y-85889198D01*
X114474637Y-86161880D01*
X114473701Y-86171184D01*
X114466453Y-86447978D01*
X110695820Y-86447978D01*
X110701684Y-86224030D01*
X110701012Y-86213048D01*
X110659964Y-85938383D01*
X110657900Y-85929263D01*
X110576945Y-85664472D01*
X110573557Y-85655757D01*
X110454353Y-85405842D01*
X110449713Y-85397724D01*
X110294878Y-85168172D01*
X110289090Y-85160829D01*
X110102026Y-84956685D01*
X110095216Y-84950278D01*
X109880032Y-84776026D01*
X109872349Y-84770697D01*
X109633773Y-84630165D01*
X109625387Y-84626029D01*
X109368660Y-84522304D01*
X109359754Y-84519454D01*
X109090516Y-84454815D01*
X109081287Y-84453312D01*
X108805451Y-84429180D01*
X108796102Y-84429058D01*
X108519730Y-84445960D01*
X108510464Y-84447221D01*
X108239625Y-84504790D01*
X108230648Y-84507407D01*
X107971294Y-84604376D01*
X107962802Y-84608290D01*
X107720630Y-84742529D01*
X107712810Y-84747655D01*
X107493139Y-84916215D01*
X107486163Y-84922441D01*
X107293819Y-85121619D01*
X107287840Y-85128808D01*
X107232500Y-85206392D01*
X107232500Y-82209591D01*
X107398141Y-82337152D01*
X107405759Y-82342185D01*
X107654179Y-82481592D01*
X107662444Y-82485472D01*
X107928387Y-82587558D01*
X107937125Y-82590205D01*
X108215020Y-82652831D01*
X108224049Y-82654188D01*
X108508073Y-82676043D01*
X108517203Y-82676083D01*
X108801407Y-82656708D01*
X108810447Y-82655429D01*
X109088878Y-82595230D01*
X109097639Y-82592659D01*
X109364462Y-82492899D01*
X109372761Y-82489091D01*
X109622389Y-82351856D01*
X109630050Y-82346890D01*
X109857253Y-82175058D01*
X109864118Y-82169038D01*
X110036113Y-81994624D01*
X113991038Y-81994624D01*
X114003960Y-82279194D01*
X114005033Y-82288261D01*
X114058899Y-82567986D01*
X114061270Y-82576803D01*
X114154953Y-82845822D01*
X114158572Y-82854204D01*
X114290106Y-83106881D01*
X114294897Y-83114654D01*
X114461530Y-83345696D01*
X114467393Y-83352696D01*
X114665634Y-83557264D01*
X114672446Y-83563343D01*
X114898141Y-83737152D01*
X114905759Y-83742185D01*
X115154179Y-83881592D01*
X115162444Y-83885472D01*
X115428387Y-83987558D01*
X115437125Y-83990205D01*
X115715020Y-84052831D01*
X115724049Y-84054188D01*
X116008073Y-84076043D01*
X116017203Y-84076083D01*
X116301407Y-84056708D01*
X116310447Y-84055429D01*
X116588878Y-83995230D01*
X116597639Y-83992659D01*
X116864462Y-83892899D01*
X116872761Y-83889091D01*
X117122389Y-83751856D01*
X117130050Y-83746890D01*
X117357253Y-83575058D01*
X117364118Y-83569038D01*
X117564136Y-83366208D01*
X117570059Y-83359260D01*
X117738703Y-83129681D01*
X117743561Y-83121950D01*
X117877297Y-82870431D01*
X117880988Y-82862080D01*
X117977014Y-82593889D01*
X117979462Y-82585093D01*
X118035936Y-82305012D01*
X118037158Y-82294244D01*
X118047687Y-81905124D01*
X118047049Y-81894306D01*
X118005804Y-81611582D01*
X118003836Y-81602666D01*
X117922453Y-81329675D01*
X117919219Y-81321138D01*
X117799282Y-81062753D01*
X117794848Y-81054771D01*
X117638867Y-80816407D01*
X117633327Y-80809149D01*
X117555069Y-80720693D01*
X119255655Y-80720693D01*
X119255655Y-82730213D01*
X119256689Y-82741593D01*
X119324898Y-83113798D01*
X119331118Y-83131822D01*
X119451945Y-83362041D01*
X119460605Y-83374586D01*
X119631749Y-83567767D01*
X119643158Y-83577875D01*
X119855559Y-83724486D01*
X119869057Y-83731570D01*
X120110373Y-83823088D01*
X120125173Y-83826736D01*
X120377592Y-83857385D01*
X120385193Y-83857845D01*
X122694713Y-83857845D01*
X122706093Y-83856811D01*
X123078298Y-83788602D01*
X123096322Y-83782382D01*
X123326541Y-83661555D01*
X123339086Y-83652895D01*
X123532267Y-83481751D01*
X123542375Y-83470342D01*
X123688986Y-83257941D01*
X123696070Y-83244443D01*
X123787588Y-83003127D01*
X123791236Y-82988327D01*
X123821885Y-82735908D01*
X123822345Y-82728307D01*
X123822345Y-80718787D01*
X123821311Y-80707407D01*
X123753102Y-80335202D01*
X123746882Y-80317178D01*
X123626055Y-80086959D01*
X123617395Y-80074414D01*
X123446251Y-79881233D01*
X123434842Y-79871125D01*
X123222441Y-79724514D01*
X123208943Y-79717430D01*
X122967627Y-79625912D01*
X122952827Y-79622264D01*
X122700408Y-79591615D01*
X122692807Y-79591155D01*
X120383287Y-79591155D01*
X120371907Y-79592189D01*
X119999702Y-79660398D01*
X119981678Y-79666618D01*
X119751459Y-79787445D01*
X119738914Y-79796105D01*
X119545733Y-79967249D01*
X119535625Y-79978658D01*
X119389014Y-80191059D01*
X119381930Y-80204557D01*
X119290412Y-80445873D01*
X119286764Y-80460673D01*
X119256115Y-80713092D01*
X119255655Y-80720693D01*
X117555069Y-80720693D01*
X117444572Y-80595799D01*
X117438043Y-80589416D01*
X117220465Y-80405549D01*
X117213083Y-80400176D01*
X116971242Y-80249643D01*
X116963161Y-80245392D01*
X116702123Y-80131347D01*
X116693513Y-80128306D01*
X116418745Y-80053139D01*
X116409788Y-80051374D01*
X116127048Y-80016657D01*
X116117928Y-80016203D01*
X115833138Y-80022666D01*
X115824049Y-80023533D01*
X115543175Y-80071040D01*
X115534306Y-80073210D01*
X115263232Y-80160764D01*
X115254770Y-80164192D01*
X114999172Y-80289961D01*
X114991293Y-80294574D01*
X114756529Y-80455923D01*
X114749399Y-80461625D01*
X114540387Y-80655174D01*
X114534154Y-80661846D01*
X114355270Y-80883538D01*
X114350065Y-80891041D01*
X114205059Y-81136235D01*
X114200992Y-81144410D01*
X114092898Y-81407968D01*
X114090054Y-81416644D01*
X114021139Y-81693046D01*
X114019577Y-81702042D01*
X113991285Y-81985497D01*
X113991038Y-81994624D01*
X110036113Y-81994624D01*
X110064136Y-81966208D01*
X110070059Y-81959260D01*
X110238703Y-81729681D01*
X110243561Y-81721950D01*
X110377297Y-81470431D01*
X110380988Y-81462080D01*
X110477014Y-81193889D01*
X110479462Y-81185093D01*
X110535936Y-80905012D01*
X110537158Y-80894244D01*
X110547687Y-80505124D01*
X110547049Y-80494306D01*
X110505804Y-80211582D01*
X110503836Y-80202666D01*
X110422453Y-79929675D01*
X110419219Y-79921138D01*
X110299282Y-79662753D01*
X110294848Y-79654771D01*
X110138867Y-79416407D01*
X110133327Y-79409149D01*
X109944572Y-79195799D01*
X109938043Y-79189416D01*
X109720465Y-79005549D01*
X109713083Y-79000176D01*
X109471242Y-78849643D01*
X109463161Y-78845392D01*
X109202123Y-78731347D01*
X109193513Y-78728306D01*
X108918745Y-78653139D01*
X108909788Y-78651374D01*
X108627048Y-78616657D01*
X108617928Y-78616203D01*
X108333138Y-78622666D01*
X108324049Y-78623533D01*
X108043175Y-78671040D01*
X108034306Y-78673210D01*
X107763232Y-78760764D01*
X107754770Y-78764192D01*
X107499172Y-78889961D01*
X107491293Y-78894574D01*
X107256529Y-79055923D01*
X107249399Y-79061625D01*
X107040387Y-79255174D01*
X107034154Y-79261846D01*
X107029995Y-79267000D01*
X106915445Y-79267000D01*
X106886073Y-79262348D01*
X106872885Y-79261657D01*
X106770937Y-79267000D01*
X106738090Y-79267000D01*
X106731501Y-79267345D01*
X106698836Y-79270778D01*
X106596876Y-79276121D01*
X106583832Y-79278187D01*
X106555100Y-79285886D01*
X106525524Y-79288994D01*
X106512606Y-79291740D01*
X106415491Y-79323295D01*
X106316860Y-79349723D01*
X106304531Y-79354456D01*
X106278037Y-79367956D01*
X106249746Y-79377148D01*
X106237680Y-79382520D01*
X106149254Y-79433572D01*
X106058269Y-79479932D01*
X106047193Y-79487125D01*
X106024079Y-79505843D01*
X105998320Y-79520714D01*
X105987636Y-79528477D01*
X105911736Y-79596817D01*
X105886237Y-79617466D01*
X105881334Y-79621881D01*
X105858135Y-79645081D01*
X105782240Y-79713416D01*
X105773403Y-79723231D01*
X105755916Y-79747300D01*
X105021880Y-80481335D01*
X105017465Y-80486239D01*
X104985789Y-80525355D01*
X104932732Y-80563903D01*
X104922917Y-80572740D01*
X104737978Y-80778136D01*
X104730216Y-80788820D01*
X104592021Y-81028180D01*
X104586649Y-81040245D01*
X104501241Y-81303105D01*
X104498495Y-81316023D01*
X104476846Y-81522000D01*
X104476501Y-81528590D01*
X104476500Y-88453389D01*
X104476500Y-88873309D01*
X104395982Y-89054156D01*
X104391901Y-89066716D01*
X104327881Y-89367906D01*
X104326501Y-89381041D01*
X103131251Y-89381041D01*
X102981823Y-89266380D01*
X102974963Y-89261797D01*
X102701036Y-89103645D01*
X102693637Y-89099997D01*
X102401410Y-88978953D01*
X102393599Y-88976301D01*
X102088073Y-88894435D01*
X102079982Y-88892825D01*
X101766384Y-88851540D01*
X101758152Y-88851000D01*
X101441848Y-88851000D01*
X101433616Y-88851540D01*
X101120018Y-88892825D01*
X101111927Y-88894435D01*
X100806401Y-88976301D01*
X100798590Y-88978953D01*
X100506363Y-89099997D01*
X100498964Y-89103645D01*
X100225037Y-89261797D01*
X100218177Y-89266380D01*
X99967237Y-89458935D01*
X99961034Y-89464374D01*
X99737374Y-89688034D01*
X99731935Y-89694237D01*
X99539380Y-89945177D01*
X99534797Y-89952037D01*
X99376645Y-90225964D01*
X99372997Y-90233363D01*
X99251953Y-90525590D01*
X99249301Y-90533401D01*
X99167435Y-90838927D01*
X99165825Y-90847018D01*
X99124540Y-91160616D01*
X99124000Y-91168848D01*
X95670922Y-91168848D01*
X95669567Y-86168848D01*
X99124000Y-86168848D01*
X99124000Y-86485152D01*
X99124540Y-86493384D01*
X99165825Y-86806982D01*
X99167435Y-86815073D01*
X99249301Y-87120599D01*
X99251953Y-87128410D01*
X99372997Y-87420637D01*
X99376645Y-87428036D01*
X99534797Y-87701963D01*
X99539380Y-87708823D01*
X99731935Y-87959763D01*
X99737374Y-87965966D01*
X99961034Y-88189626D01*
X99967237Y-88195065D01*
X100218177Y-88387620D01*
X100225037Y-88392203D01*
X100498964Y-88550355D01*
X100506363Y-88554003D01*
X100798590Y-88675047D01*
X100806401Y-88677699D01*
X101111927Y-88759565D01*
X101120018Y-88761175D01*
X101433616Y-88802460D01*
X101441848Y-88803000D01*
X101758152Y-88803000D01*
X101766384Y-88802460D01*
X102079982Y-88761175D01*
X102088073Y-88759565D01*
X102393599Y-88677699D01*
X102401410Y-88675047D01*
X102693637Y-88554003D01*
X102701036Y-88550355D01*
X102974963Y-88392203D01*
X102981823Y-88387620D01*
X103232763Y-88195065D01*
X103238966Y-88189626D01*
X103462626Y-87965966D01*
X103468065Y-87959763D01*
X103660620Y-87708823D01*
X103665203Y-87701963D01*
X103823355Y-87428036D01*
X103827003Y-87420637D01*
X103948047Y-87128410D01*
X103950699Y-87120599D01*
X104032565Y-86815073D01*
X104034175Y-86806982D01*
X104075460Y-86493384D01*
X104076000Y-86485152D01*
X104076000Y-86168848D01*
X104075460Y-86160616D01*
X104034175Y-85847018D01*
X104032565Y-85838927D01*
X103950699Y-85533401D01*
X103948047Y-85525590D01*
X103827003Y-85233363D01*
X103823355Y-85225964D01*
X103665203Y-84952037D01*
X103660620Y-84945177D01*
X103468065Y-84694237D01*
X103462626Y-84688034D01*
X103238966Y-84464374D01*
X103232763Y-84458935D01*
X102981823Y-84266380D01*
X102974963Y-84261797D01*
X102701036Y-84103645D01*
X102693637Y-84099997D01*
X102401410Y-83978953D01*
X102393599Y-83976301D01*
X102088073Y-83894435D01*
X102079982Y-83892825D01*
X101766384Y-83851540D01*
X101758152Y-83851000D01*
X101441848Y-83851000D01*
X101433616Y-83851540D01*
X101120018Y-83892825D01*
X101111927Y-83894435D01*
X100806401Y-83976301D01*
X100798590Y-83978953D01*
X100506363Y-84099997D01*
X100498964Y-84103645D01*
X100225037Y-84261797D01*
X100218177Y-84266380D01*
X99967237Y-84458935D01*
X99961034Y-84464374D01*
X99737374Y-84688034D01*
X99731935Y-84694237D01*
X99539380Y-84945177D01*
X99534797Y-84952037D01*
X99376645Y-85225964D01*
X99372997Y-85233363D01*
X99251953Y-85525590D01*
X99249301Y-85533401D01*
X99167435Y-85838927D01*
X99165825Y-85847018D01*
X99124540Y-86160616D01*
X99124000Y-86168848D01*
X95669567Y-86168848D01*
X95668644Y-82759403D01*
X100348616Y-82759403D01*
X100355975Y-82873213D01*
X100499854Y-82984014D01*
X100507472Y-82989047D01*
X100750577Y-83125471D01*
X100758842Y-83129351D01*
X101019094Y-83229253D01*
X101027833Y-83231900D01*
X101299781Y-83293186D01*
X101308810Y-83294543D01*
X101586756Y-83315930D01*
X101595886Y-83315970D01*
X101874009Y-83297010D01*
X101883050Y-83295731D01*
X102155523Y-83236821D01*
X102164284Y-83234250D01*
X102425398Y-83136623D01*
X102433696Y-83132815D01*
X102677984Y-82998517D01*
X102685646Y-82993551D01*
X102843675Y-82874033D01*
X102851577Y-82759596D01*
X101652191Y-81560210D01*
X101547809Y-81560210D01*
X100348616Y-82759403D01*
X95668644Y-82759403D01*
X95668242Y-81277763D01*
X99611636Y-81277763D01*
X99624281Y-81556245D01*
X99625354Y-81565312D01*
X99678069Y-81839051D01*
X99680439Y-81847868D01*
X99772117Y-82111130D01*
X99775736Y-82119513D01*
X99904457Y-82366784D01*
X99909247Y-82374556D01*
X100050361Y-82570216D01*
X100166426Y-82579554D01*
X101366790Y-81379191D01*
X101366790Y-81274809D01*
X101833210Y-81274809D01*
X101833210Y-81379191D01*
X103033116Y-82579097D01*
X103148556Y-82570315D01*
X103281547Y-82389270D01*
X103286405Y-82381540D01*
X103417280Y-82135403D01*
X103420971Y-82127052D01*
X103514943Y-81864599D01*
X103517391Y-81855803D01*
X103572659Y-81581698D01*
X103573881Y-81570930D01*
X103584184Y-81190173D01*
X103583546Y-81179354D01*
X103543181Y-80902661D01*
X103541213Y-80893745D01*
X103461572Y-80626596D01*
X103458338Y-80618057D01*
X103340966Y-80365202D01*
X103336533Y-80357220D01*
X103156910Y-80082729D01*
X103037617Y-80070402D01*
X101833210Y-81274809D01*
X101366790Y-81274809D01*
X100167625Y-80075644D01*
X100055455Y-80081621D01*
X99968372Y-80189543D01*
X99963167Y-80197045D01*
X99821263Y-80436993D01*
X99817196Y-80445168D01*
X99711415Y-80703086D01*
X99708571Y-80711762D01*
X99641131Y-80982251D01*
X99639569Y-80991246D01*
X99611883Y-81268636D01*
X99611636Y-81277763D01*
X95668242Y-81277763D01*
X95667867Y-79891756D01*
X100345775Y-79891756D01*
X101547809Y-81093790D01*
X101652191Y-81093790D01*
X102852006Y-79893975D01*
X102847375Y-79783452D01*
X102774183Y-79721599D01*
X102766800Y-79716225D01*
X102530133Y-79568912D01*
X102522052Y-79564661D01*
X102266600Y-79453057D01*
X102257990Y-79450016D01*
X101989103Y-79376457D01*
X101980145Y-79374692D01*
X101703453Y-79340718D01*
X101694334Y-79340264D01*
X101415638Y-79346589D01*
X101406549Y-79347456D01*
X101131685Y-79393946D01*
X101122816Y-79396116D01*
X100857541Y-79481797D01*
X100849078Y-79485225D01*
X100598951Y-79608303D01*
X100591072Y-79612916D01*
X100356588Y-79774072D01*
X100345775Y-79891756D01*
X95667867Y-79891756D01*
X95666532Y-74973193D01*
X99116655Y-74973193D01*
X99116655Y-77682713D01*
X99117689Y-77694093D01*
X99185898Y-78066298D01*
X99192118Y-78084322D01*
X99312945Y-78314541D01*
X99321605Y-78327086D01*
X99492749Y-78520267D01*
X99504158Y-78530375D01*
X99716559Y-78676986D01*
X99730057Y-78684070D01*
X99971373Y-78775588D01*
X99986173Y-78779236D01*
X100238592Y-78809885D01*
X100246193Y-78810345D01*
X102955713Y-78810345D01*
X102967093Y-78809311D01*
X103339298Y-78741102D01*
X103357322Y-78734882D01*
X103587541Y-78614055D01*
X103600086Y-78605395D01*
X103793267Y-78434251D01*
X103803375Y-78422842D01*
X103949986Y-78210441D01*
X103957070Y-78196943D01*
X104048588Y-77955627D01*
X104052236Y-77940827D01*
X104082885Y-77688408D01*
X104083345Y-77680807D01*
X104083345Y-76451012D01*
X107471751Y-76451012D01*
X107472101Y-76459915D01*
X107504236Y-76750995D01*
X107505837Y-76759760D01*
X107578666Y-77043407D01*
X107581485Y-77051859D01*
X107693553Y-77322415D01*
X107697536Y-77330386D01*
X107846607Y-77582452D01*
X107851673Y-77589782D01*
X108034774Y-77818329D01*
X108040822Y-77824872D01*
X108254299Y-78025340D01*
X108261208Y-78030965D01*
X108500802Y-78199355D01*
X108508436Y-78203950D01*
X108769365Y-78336900D01*
X108777570Y-78340375D01*
X109054628Y-78435233D01*
X109063241Y-78437516D01*
X109350902Y-78492391D01*
X109359751Y-78493438D01*
X109652273Y-78507233D01*
X109661180Y-78507023D01*
X109952728Y-78479464D01*
X109961517Y-78478001D01*
X110246274Y-78409637D01*
X110254769Y-78406950D01*
X110527052Y-78299146D01*
X110535084Y-78295289D01*
X110789461Y-78150195D01*
X110796869Y-78145245D01*
X111028265Y-77965756D01*
X111034902Y-77959811D01*
X111238698Y-77749510D01*
X111244432Y-77742689D01*
X111311039Y-77651012D01*
X112571751Y-77651012D01*
X112572101Y-77659915D01*
X112604236Y-77950995D01*
X112605837Y-77959760D01*
X112678666Y-78243407D01*
X112681485Y-78251859D01*
X112793553Y-78522415D01*
X112797536Y-78530386D01*
X112946607Y-78782452D01*
X112951673Y-78789782D01*
X113134774Y-79018329D01*
X113140822Y-79024872D01*
X113354299Y-79225340D01*
X113361208Y-79230965D01*
X113600802Y-79399355D01*
X113608436Y-79403950D01*
X113869365Y-79536900D01*
X113877570Y-79540375D01*
X114154628Y-79635233D01*
X114163241Y-79637516D01*
X114450902Y-79692391D01*
X114459751Y-79693438D01*
X114752273Y-79707233D01*
X114761180Y-79707023D01*
X115052728Y-79679464D01*
X115061517Y-79678001D01*
X115346274Y-79609637D01*
X115354769Y-79606950D01*
X115627052Y-79499146D01*
X115635084Y-79495289D01*
X115889461Y-79350195D01*
X115896869Y-79345245D01*
X116128265Y-79165756D01*
X116134902Y-79159811D01*
X116338698Y-78949510D01*
X116344432Y-78942689D01*
X116516563Y-78705771D01*
X116521278Y-78698210D01*
X116658310Y-78439402D01*
X116661913Y-78431253D01*
X116761111Y-78155717D01*
X116763530Y-78147142D01*
X116823116Y-77859408D01*
X116824397Y-77848591D01*
X116837610Y-77428145D01*
X116837011Y-77417269D01*
X116795609Y-77126362D01*
X116793734Y-77117651D01*
X116712032Y-76836432D01*
X116708948Y-76828073D01*
X116588438Y-76561170D01*
X116584206Y-76553328D01*
X116427290Y-76306069D01*
X116421997Y-76298902D01*
X116231808Y-76076219D01*
X116225557Y-76069869D01*
X116005888Y-75876206D01*
X115998806Y-75870800D01*
X115754041Y-75710019D01*
X115746267Y-75705666D01*
X115481290Y-75580978D01*
X115472980Y-75577763D01*
X115193079Y-75491654D01*
X115184399Y-75489642D01*
X114895157Y-75443830D01*
X114886280Y-75443062D01*
X114593468Y-75438462D01*
X114584571Y-75438951D01*
X114294033Y-75475655D01*
X114285294Y-75477393D01*
X114002826Y-75554667D01*
X113994419Y-75557620D01*
X113725657Y-75673924D01*
X113717750Y-75678032D01*
X113468056Y-75831044D01*
X113460806Y-75836224D01*
X113235163Y-76022892D01*
X113228716Y-76029042D01*
X113031626Y-76245642D01*
X113026110Y-76252639D01*
X112861505Y-76494848D01*
X112857029Y-76502553D01*
X112728195Y-76765537D01*
X112724850Y-76773796D01*
X112634355Y-77052311D01*
X112632207Y-77060958D01*
X112581857Y-77349445D01*
X112580949Y-77358310D01*
X112571751Y-77651012D01*
X111311039Y-77651012D01*
X111416563Y-77505771D01*
X111421278Y-77498210D01*
X111558310Y-77239402D01*
X111561913Y-77231253D01*
X111661111Y-76955717D01*
X111663530Y-76947142D01*
X111723116Y-76659408D01*
X111724397Y-76648591D01*
X111737610Y-76228145D01*
X111737011Y-76217269D01*
X111695609Y-75926362D01*
X111693734Y-75917651D01*
X111612032Y-75636432D01*
X111608948Y-75628073D01*
X111488438Y-75361170D01*
X111484206Y-75353328D01*
X111327290Y-75106069D01*
X111321997Y-75098902D01*
X111131808Y-74876219D01*
X111125557Y-74869869D01*
X110905888Y-74676206D01*
X110898806Y-74670800D01*
X110654041Y-74510019D01*
X110646267Y-74505666D01*
X110381290Y-74380978D01*
X110372980Y-74377763D01*
X110093079Y-74291654D01*
X110084399Y-74289642D01*
X109795157Y-74243830D01*
X109786280Y-74243062D01*
X109493468Y-74238462D01*
X109484571Y-74238951D01*
X109194033Y-74275655D01*
X109185294Y-74277393D01*
X108902826Y-74354667D01*
X108894419Y-74357620D01*
X108625657Y-74473924D01*
X108617750Y-74478032D01*
X108368056Y-74631044D01*
X108360806Y-74636224D01*
X108135163Y-74822892D01*
X108128716Y-74829042D01*
X107931626Y-75045642D01*
X107926110Y-75052639D01*
X107761505Y-75294848D01*
X107757029Y-75302553D01*
X107628195Y-75565537D01*
X107624850Y-75573796D01*
X107534355Y-75852311D01*
X107532207Y-75860958D01*
X107481857Y-76149445D01*
X107480949Y-76158310D01*
X107471751Y-76451012D01*
X104083345Y-76451012D01*
X104083345Y-74971287D01*
X104082311Y-74959907D01*
X104014102Y-74587702D01*
X104007882Y-74569678D01*
X103887055Y-74339459D01*
X103878395Y-74326914D01*
X103707251Y-74133733D01*
X103695842Y-74123625D01*
X103483441Y-73977014D01*
X103469943Y-73969930D01*
X103228627Y-73878412D01*
X103213827Y-73874764D01*
X102961408Y-73844115D01*
X102953807Y-73843655D01*
X100244287Y-73843655D01*
X100232907Y-73844689D01*
X99860702Y-73912898D01*
X99842678Y-73919118D01*
X99612459Y-74039945D01*
X99599914Y-74048605D01*
X99406733Y-74219749D01*
X99396625Y-74231158D01*
X99250014Y-74443559D01*
X99242930Y-74457057D01*
X99151412Y-74698373D01*
X99147764Y-74713173D01*
X99117115Y-74965592D01*
X99116655Y-74973193D01*
X95666532Y-74973193D01*
X95665104Y-69706000D01*
X137461744Y-69706000D01*
X137444682Y-69720115D01*
%TA.AperFunction,Conductor*%
G36*
X137444682Y-69720115D02*
G01*
X137438910Y-69725537D01*
X137218148Y-69960624D01*
X137213100Y-69966726D01*
X137023544Y-70227628D01*
X137019301Y-70234314D01*
X136863939Y-70516917D01*
X136860567Y-70524083D01*
X136741850Y-70823928D01*
X136739402Y-70831460D01*
X136659201Y-71143821D01*
X136657717Y-71151601D01*
X136617298Y-71471550D01*
X136616801Y-71479453D01*
X136616801Y-71801947D01*
X136617298Y-71809850D01*
X136657717Y-72129799D01*
X136659201Y-72137579D01*
X136739402Y-72449940D01*
X136741850Y-72457472D01*
X136860567Y-72757317D01*
X136863939Y-72764483D01*
X137019301Y-73047086D01*
X137023544Y-73053772D01*
X137213100Y-73314674D01*
X137218148Y-73320776D01*
X137438910Y-73555863D01*
X137444682Y-73561285D01*
X137693168Y-73766850D01*
X137699575Y-73771505D01*
X137971864Y-73944304D01*
X137978804Y-73948119D01*
X138270604Y-74085430D01*
X138277967Y-74088345D01*
X138584676Y-74188002D01*
X138592346Y-74189971D01*
X138909128Y-74250400D01*
X138916985Y-74251393D01*
X139238840Y-74271642D01*
X139246760Y-74271642D01*
X139568615Y-74251393D01*
X139576472Y-74250400D01*
X139893254Y-74189971D01*
X139900924Y-74188002D01*
X140207633Y-74088345D01*
X140214996Y-74085430D01*
X140506796Y-73948119D01*
X140513736Y-73944304D01*
X140786025Y-73771505D01*
X140792432Y-73766850D01*
X141040918Y-73561285D01*
X141046690Y-73555863D01*
X141267452Y-73320776D01*
X141272500Y-73314674D01*
X141462056Y-73053772D01*
X141466299Y-73047086D01*
X141621661Y-72764483D01*
X141625033Y-72757317D01*
X141743750Y-72457472D01*
X141746198Y-72449940D01*
X141826399Y-72137579D01*
X141827883Y-72129799D01*
X141868302Y-71809850D01*
X141868799Y-71801947D01*
X141868799Y-71479453D01*
X141868302Y-71471550D01*
X141827883Y-71151601D01*
X141826399Y-71143821D01*
X141746198Y-70831460D01*
X141743750Y-70823928D01*
X141625033Y-70524083D01*
X141621661Y-70516917D01*
X141466299Y-70234314D01*
X141462056Y-70227628D01*
X141272500Y-69966726D01*
X141267452Y-69960624D01*
X141046690Y-69725537D01*
X141040918Y-69720115D01*
X141023856Y-69706000D01*
X146303727Y-69706000D01*
X146272310Y-92797161D01*
X146242482Y-92864156D01*
X146238401Y-92876716D01*
X146175743Y-93171500D01*
X132410049Y-93171500D01*
X132277163Y-93170108D01*
X132263147Y-93171532D01*
X132194747Y-93186321D01*
X132125189Y-93194124D01*
X132111451Y-93197245D01*
X132057781Y-93215934D01*
X132002246Y-93227941D01*
X131988894Y-93232435D01*
X131925465Y-93262012D01*
X131859368Y-93285029D01*
X131846662Y-93291117D01*
X131798469Y-93321232D01*
X131746773Y-93345337D01*
X131734397Y-93352951D01*
X131683070Y-93393342D01*
X131620294Y-93432568D01*
X131609252Y-93441319D01*
X131558437Y-93491781D01*
X131556418Y-93493574D01*
X131526054Y-93523938D01*
X131419847Y-93629406D01*
X131416818Y-93633173D01*
X130758415Y-94291577D01*
X130663421Y-94384601D01*
X130654517Y-94395519D01*
X130616606Y-94454346D01*
X130572940Y-94509046D01*
X130565433Y-94520967D01*
X130540703Y-94572124D01*
X130509920Y-94619891D01*
X130503655Y-94632511D01*
X130479719Y-94698275D01*
X130449256Y-94761290D01*
X130444576Y-94774580D01*
X130431792Y-94829952D01*
X130412284Y-94883550D01*
X130408917Y-94897684D01*
X130401183Y-94962536D01*
X130384531Y-95034668D01*
X130382911Y-95048663D01*
X130382662Y-95120249D01*
X130382501Y-95122951D01*
X130382501Y-95166237D01*
X130381979Y-95315589D01*
X130382501Y-95320393D01*
X130382500Y-97898015D01*
X126299857Y-97898015D01*
X126285420Y-97881839D01*
X126334283Y-97829896D01*
X126340168Y-97822629D01*
X126497993Y-97595124D01*
X126502739Y-97587067D01*
X126625204Y-97338733D01*
X126628707Y-97330064D01*
X126713120Y-97066355D01*
X126715303Y-97057263D01*
X126759811Y-96783974D01*
X126760626Y-96774659D01*
X126764250Y-96497794D01*
X126763680Y-96488461D01*
X126726341Y-96214101D01*
X126724397Y-96204955D01*
X126646915Y-95939127D01*
X126643640Y-95930369D01*
X126527719Y-95678914D01*
X126523185Y-95670736D01*
X126371369Y-95439177D01*
X126365676Y-95431759D01*
X126181301Y-95225184D01*
X126174575Y-95218689D01*
X125961691Y-95041634D01*
X125954078Y-95036205D01*
X125717363Y-94892562D01*
X125709031Y-94888317D01*
X125453684Y-94781241D01*
X125444817Y-94778274D01*
X125176046Y-94710015D01*
X125166014Y-94708314D01*
X124902450Y-94685255D01*
X124896956Y-94685015D01*
X123966268Y-94685015D01*
X123961598Y-94685188D01*
X123755717Y-94700488D01*
X123746469Y-94701870D01*
X123476407Y-94762979D01*
X123467465Y-94765712D01*
X123209402Y-94866067D01*
X123200963Y-94870093D01*
X122960569Y-95007490D01*
X122952817Y-95012719D01*
X122735371Y-95184139D01*
X122728477Y-95190457D01*
X122538757Y-95392134D01*
X122532872Y-95399401D01*
X122375047Y-95626906D01*
X122370301Y-95634963D01*
X122247836Y-95883297D01*
X122244333Y-95891966D01*
X122159920Y-96155675D01*
X122157737Y-96164767D01*
X122113229Y-96438056D01*
X122112414Y-96447371D01*
X122108790Y-96724236D01*
X122109360Y-96733569D01*
X122146699Y-97007929D01*
X122148643Y-97017075D01*
X122226125Y-97282903D01*
X122229400Y-97291661D01*
X122345321Y-97543116D01*
X122349855Y-97551294D01*
X122501671Y-97782853D01*
X122507364Y-97790271D01*
X122587621Y-97880191D01*
X122538757Y-97932134D01*
X122532872Y-97939401D01*
X122375047Y-98166906D01*
X122370301Y-98174963D01*
X122247836Y-98423297D01*
X122244333Y-98431966D01*
X122159920Y-98695675D01*
X122157737Y-98704767D01*
X122113229Y-98978056D01*
X122112414Y-98987371D01*
X122108790Y-99264236D01*
X122109360Y-99273569D01*
X122146699Y-99547929D01*
X122148643Y-99557075D01*
X122226125Y-99822903D01*
X122229400Y-99831661D01*
X122295018Y-99974000D01*
X118958224Y-99974000D01*
X119005204Y-99878733D01*
X119008707Y-99870064D01*
X119093120Y-99606355D01*
X119095303Y-99597263D01*
X119139811Y-99323974D01*
X119140626Y-99314659D01*
X119144250Y-99037794D01*
X119143680Y-99028461D01*
X119106341Y-98754101D01*
X119104397Y-98744955D01*
X119026915Y-98479127D01*
X119023640Y-98470369D01*
X118907719Y-98218914D01*
X118903185Y-98210736D01*
X118868726Y-98158177D01*
X118869895Y-98156857D01*
X119016506Y-97944456D01*
X119023590Y-97930958D01*
X119115108Y-97689642D01*
X119118756Y-97674842D01*
X119149405Y-97422423D01*
X119149865Y-97414822D01*
X119149865Y-95805302D01*
X119148831Y-95793922D01*
X119080622Y-95421717D01*
X119074402Y-95403693D01*
X118953575Y-95173474D01*
X118944915Y-95160929D01*
X118773771Y-94967748D01*
X118762362Y-94957640D01*
X118549961Y-94811029D01*
X118536463Y-94803945D01*
X118295147Y-94712427D01*
X118280347Y-94708779D01*
X118027928Y-94678130D01*
X118020327Y-94677670D01*
X115610807Y-94677670D01*
X115599427Y-94678704D01*
X115227222Y-94746913D01*
X115209198Y-94753133D01*
X114978979Y-94873960D01*
X114966434Y-94882620D01*
X114773253Y-95053764D01*
X114763145Y-95065173D01*
X114616534Y-95277574D01*
X114609450Y-95291072D01*
X114517932Y-95532388D01*
X114514284Y-95547188D01*
X114483635Y-95799607D01*
X114483175Y-95807208D01*
X114483175Y-97416728D01*
X114484209Y-97428108D01*
X114552418Y-97800313D01*
X114558638Y-97818337D01*
X114679465Y-98048556D01*
X114688125Y-98061101D01*
X114766822Y-98149932D01*
X114755047Y-98166906D01*
X114750301Y-98174963D01*
X114627836Y-98423297D01*
X114624333Y-98431966D01*
X114539920Y-98695675D01*
X114537737Y-98704767D01*
X114493229Y-98978056D01*
X114492414Y-98987371D01*
X114488790Y-99264236D01*
X114489360Y-99273569D01*
X114526699Y-99547929D01*
X114528643Y-99557075D01*
X114606125Y-99822903D01*
X114609400Y-99831661D01*
X114675018Y-99974000D01*
X111037479Y-99974000D01*
X111136373Y-99950258D01*
X111144869Y-99947571D01*
X111416493Y-99840027D01*
X111424525Y-99836170D01*
X111678287Y-99691426D01*
X111685695Y-99686476D01*
X111916531Y-99507422D01*
X111923168Y-99501477D01*
X112126472Y-99291685D01*
X112132206Y-99284864D01*
X112303921Y-99048518D01*
X112308636Y-99040957D01*
X112445336Y-98782775D01*
X112448939Y-98774626D01*
X112547898Y-98499756D01*
X112550317Y-98491181D01*
X112609759Y-98204141D01*
X112611040Y-98193324D01*
X112624221Y-97773899D01*
X112623622Y-97763023D01*
X112582319Y-97472817D01*
X112580444Y-97464106D01*
X112498940Y-97183567D01*
X112495856Y-97175208D01*
X112375636Y-96908951D01*
X112371405Y-96901109D01*
X112214869Y-96654447D01*
X112209575Y-96647280D01*
X112019846Y-96425136D01*
X112013595Y-96418786D01*
X111794459Y-96225591D01*
X111787376Y-96220185D01*
X111543202Y-96059793D01*
X111535428Y-96055440D01*
X111271093Y-95931053D01*
X111262783Y-95927838D01*
X110983558Y-95841937D01*
X110974878Y-95839925D01*
X110686334Y-95794224D01*
X110677457Y-95793456D01*
X110385354Y-95788868D01*
X110376458Y-95789357D01*
X110086622Y-95825972D01*
X110077883Y-95827710D01*
X109796098Y-95904797D01*
X109787691Y-95907750D01*
X109519579Y-96023772D01*
X109511672Y-96027880D01*
X109262582Y-96180522D01*
X109255332Y-96185703D01*
X109030235Y-96371919D01*
X109023788Y-96378069D01*
X108827174Y-96594146D01*
X108821658Y-96601143D01*
X108657451Y-96842765D01*
X108652976Y-96850470D01*
X108524452Y-97112819D01*
X108521107Y-97121078D01*
X108430831Y-97398919D01*
X108428683Y-97407566D01*
X108378455Y-97695356D01*
X108377547Y-97704219D01*
X108368371Y-97996215D01*
X108368721Y-98005118D01*
X108400779Y-98295494D01*
X108402380Y-98304259D01*
X108475031Y-98587220D01*
X108477851Y-98595672D01*
X108589648Y-98865574D01*
X108593631Y-98873545D01*
X108742342Y-99125002D01*
X108747408Y-99132332D01*
X108930066Y-99360326D01*
X108936114Y-99366869D01*
X109149075Y-99566853D01*
X109155985Y-99572478D01*
X109394999Y-99740460D01*
X109402633Y-99745055D01*
X109662930Y-99877684D01*
X109671135Y-99881159D01*
X109942302Y-99974000D01*
X104950259Y-99974000D01*
X104944492Y-99974264D01*
X104713951Y-99995448D01*
X104702591Y-99997554D01*
X104403677Y-100081857D01*
X104392891Y-100085997D01*
X104114344Y-100223361D01*
X104104493Y-100229398D01*
X103855644Y-100415222D01*
X103847058Y-100422953D01*
X103636238Y-100651015D01*
X103629205Y-100660181D01*
X103611601Y-100688081D01*
X103494321Y-100783052D01*
X103489418Y-100787468D01*
X103132784Y-101144102D01*
X103057839Y-101209826D01*
X103049886Y-101218207D01*
X102857611Y-101462108D01*
X102851318Y-101471798D01*
X102706711Y-101746653D01*
X102702290Y-101757327D01*
X102610068Y-102054327D01*
X102607573Y-102066453D01*
X102577845Y-102349297D01*
X102577500Y-102355887D01*
X102577500Y-105433800D01*
X102574484Y-105435399D01*
X102336806Y-105596548D01*
X102326393Y-105605393D01*
X102128915Y-105813869D01*
X102120646Y-105824745D01*
X101972600Y-106070799D01*
X101966863Y-106083199D01*
X101875173Y-106355325D01*
X101872236Y-106368669D01*
X101848973Y-106582574D01*
X101848603Y-106589391D01*
X101848603Y-108916708D01*
X101849180Y-108925223D01*
X101889481Y-109221018D01*
X101893394Y-109235887D01*
X101999999Y-109503445D01*
X102006398Y-109515516D01*
X102167548Y-109753194D01*
X102176393Y-109763607D01*
X102384869Y-109961085D01*
X102395745Y-109969354D01*
X102641799Y-110117400D01*
X102654199Y-110123137D01*
X102926325Y-110214827D01*
X102939669Y-110217764D01*
X103153574Y-110241027D01*
X103160391Y-110241397D01*
X105487708Y-110241397D01*
X105496223Y-110240820D01*
X105792018Y-110200519D01*
X105806887Y-110196606D01*
X106074445Y-110090001D01*
X106086516Y-110083602D01*
X106324194Y-109922452D01*
X106334607Y-109913607D01*
X106532085Y-109705131D01*
X106540354Y-109694255D01*
X106688400Y-109448201D01*
X106694137Y-109435801D01*
X106785827Y-109163675D01*
X106788764Y-109150331D01*
X106812027Y-108936426D01*
X106812397Y-108929609D01*
X106812397Y-107601348D01*
X106854500Y-107601348D01*
X106854500Y-107917652D01*
X106855040Y-107925884D01*
X106896325Y-108239482D01*
X106897935Y-108247573D01*
X106979801Y-108553099D01*
X106982453Y-108560910D01*
X107103497Y-108853137D01*
X107107145Y-108860536D01*
X107265297Y-109134463D01*
X107269880Y-109141323D01*
X107462435Y-109392263D01*
X107467874Y-109398466D01*
X107691534Y-109622126D01*
X107697737Y-109627565D01*
X107948677Y-109820120D01*
X107955537Y-109824703D01*
X108229464Y-109982855D01*
X108236863Y-109986503D01*
X108529090Y-110107547D01*
X108536901Y-110110199D01*
X108842427Y-110192065D01*
X108850518Y-110193675D01*
X109164116Y-110234960D01*
X109172348Y-110235500D01*
X109488652Y-110235500D01*
X109496884Y-110234960D01*
X109810482Y-110193675D01*
X109818573Y-110192065D01*
X110124099Y-110110199D01*
X110131910Y-110107547D01*
X110424137Y-109986503D01*
X110431536Y-109982855D01*
X110705463Y-109824703D01*
X110712323Y-109820120D01*
X110963263Y-109627565D01*
X110969466Y-109622126D01*
X111193126Y-109398466D01*
X111198565Y-109392263D01*
X111391120Y-109141323D01*
X111395703Y-109134463D01*
X111553855Y-108860536D01*
X111557503Y-108853137D01*
X111678547Y-108560910D01*
X111681199Y-108553099D01*
X111763065Y-108247573D01*
X111764675Y-108239482D01*
X111805960Y-107925884D01*
X111806500Y-107917652D01*
X111806500Y-107601348D01*
X111805960Y-107593116D01*
X111764675Y-107279518D01*
X111763065Y-107271427D01*
X111681199Y-106965901D01*
X111678547Y-106958090D01*
X111557503Y-106665863D01*
X111553855Y-106658464D01*
X111395703Y-106384537D01*
X111391120Y-106377677D01*
X111198565Y-106126737D01*
X111193126Y-106120534D01*
X110969466Y-105896874D01*
X110963263Y-105891435D01*
X110712323Y-105698880D01*
X110705463Y-105694297D01*
X110431536Y-105536145D01*
X110424137Y-105532497D01*
X110131910Y-105411453D01*
X110124099Y-105408801D01*
X109818573Y-105326935D01*
X109810482Y-105325325D01*
X109496884Y-105284040D01*
X109488652Y-105283500D01*
X109172348Y-105283500D01*
X109164116Y-105284040D01*
X108850518Y-105325325D01*
X108842427Y-105326935D01*
X108536901Y-105408801D01*
X108529090Y-105411453D01*
X108236863Y-105532497D01*
X108229464Y-105536145D01*
X107955537Y-105694297D01*
X107948677Y-105698880D01*
X107697737Y-105891435D01*
X107691534Y-105896874D01*
X107467874Y-106120534D01*
X107462435Y-106126737D01*
X107269880Y-106377677D01*
X107265297Y-106384537D01*
X107107145Y-106658464D01*
X107103497Y-106665863D01*
X106982453Y-106958090D01*
X106979801Y-106965901D01*
X106897935Y-107271427D01*
X106896325Y-107279518D01*
X106855040Y-107593116D01*
X106854500Y-107601348D01*
X106812397Y-107601348D01*
X106812397Y-106602292D01*
X106811820Y-106593777D01*
X106771519Y-106297982D01*
X106767606Y-106283113D01*
X106661001Y-106015555D01*
X106654602Y-106003484D01*
X106493452Y-105765806D01*
X106484607Y-105755393D01*
X106276131Y-105557915D01*
X106265255Y-105549646D01*
X106083500Y-105440287D01*
X106083500Y-103480000D01*
X112894747Y-103480000D01*
X112857611Y-103527108D01*
X112851318Y-103536798D01*
X112837482Y-103563095D01*
X112820049Y-103587139D01*
X112814152Y-103597073D01*
X112762603Y-103705417D01*
X112706711Y-103811653D01*
X112702290Y-103822326D01*
X112693480Y-103850698D01*
X112680716Y-103877525D01*
X112676728Y-103888368D01*
X112645789Y-104004285D01*
X112610068Y-104119327D01*
X112607573Y-104131453D01*
X112604797Y-104157866D01*
X112596637Y-104188437D01*
X112594692Y-104199825D01*
X112578518Y-104407901D01*
X112577845Y-104414301D01*
X112577500Y-104420888D01*
X112577500Y-104420997D01*
X112570623Y-104509466D01*
X112570786Y-104521018D01*
X112577500Y-104584313D01*
X112577500Y-106010909D01*
X112467874Y-106120534D01*
X112462435Y-106126737D01*
X112269880Y-106377677D01*
X112265297Y-106384537D01*
X112107145Y-106658464D01*
X112103497Y-106665863D01*
X111982453Y-106958090D01*
X111979801Y-106965901D01*
X111897935Y-107271427D01*
X111896325Y-107279518D01*
X111855040Y-107593116D01*
X111854500Y-107601348D01*
X111854500Y-107917652D01*
X111855040Y-107925884D01*
X111896325Y-108239482D01*
X111897935Y-108247573D01*
X111979801Y-108553099D01*
X111982453Y-108560910D01*
X112103497Y-108853137D01*
X112107145Y-108860536D01*
X112265297Y-109134463D01*
X112269880Y-109141323D01*
X112462435Y-109392263D01*
X112467874Y-109398466D01*
X112691534Y-109622126D01*
X112697737Y-109627565D01*
X112948677Y-109820120D01*
X112955537Y-109824703D01*
X113229464Y-109982855D01*
X113236863Y-109986503D01*
X113529090Y-110107547D01*
X113536901Y-110110199D01*
X113842427Y-110192065D01*
X113850518Y-110193675D01*
X114164116Y-110234960D01*
X114172348Y-110235500D01*
X114488652Y-110235500D01*
X114496884Y-110234960D01*
X114810482Y-110193675D01*
X114818573Y-110192065D01*
X115124099Y-110110199D01*
X115131910Y-110107547D01*
X115424137Y-109986503D01*
X115431536Y-109982855D01*
X115705463Y-109824703D01*
X115712323Y-109820120D01*
X115963263Y-109627565D01*
X115969466Y-109622126D01*
X116193126Y-109398466D01*
X116198565Y-109392263D01*
X116391120Y-109141323D01*
X116395703Y-109134463D01*
X116553855Y-108860536D01*
X116557503Y-108853137D01*
X116678547Y-108560910D01*
X116681199Y-108553099D01*
X116763065Y-108247573D01*
X116764675Y-108239482D01*
X116805960Y-107925884D01*
X116806500Y-107917652D01*
X116806500Y-107601348D01*
X116805960Y-107593116D01*
X116764675Y-107279518D01*
X116763065Y-107271427D01*
X116681199Y-106965901D01*
X116678547Y-106958090D01*
X116557503Y-106665863D01*
X116553855Y-106658464D01*
X116395703Y-106384537D01*
X116391120Y-106377677D01*
X116198565Y-106126737D01*
X116193126Y-106120534D01*
X116083500Y-106010909D01*
X116083500Y-105766000D01*
X117886581Y-105766000D01*
X117813415Y-105843241D01*
X117805146Y-105854117D01*
X117657100Y-106100171D01*
X117651363Y-106112571D01*
X117559673Y-106384697D01*
X117556736Y-106398041D01*
X117533473Y-106611946D01*
X117533103Y-106618763D01*
X117533103Y-108946080D01*
X117533680Y-108954595D01*
X117573981Y-109250390D01*
X117577894Y-109265259D01*
X117684499Y-109532817D01*
X117690898Y-109544888D01*
X117852048Y-109782566D01*
X117860893Y-109792979D01*
X118069369Y-109990457D01*
X118080245Y-109998726D01*
X118326299Y-110146772D01*
X118338699Y-110152509D01*
X118610825Y-110244199D01*
X118624169Y-110247136D01*
X118838074Y-110270399D01*
X118844891Y-110270769D01*
X121172208Y-110270769D01*
X121180723Y-110270192D01*
X121476518Y-110229891D01*
X121491387Y-110225978D01*
X121758945Y-110119373D01*
X121771016Y-110112974D01*
X122008694Y-109951824D01*
X122019107Y-109942979D01*
X122216585Y-109734503D01*
X122224854Y-109723627D01*
X122372900Y-109477573D01*
X122378637Y-109465173D01*
X122470327Y-109193047D01*
X122473264Y-109179703D01*
X122496527Y-108965798D01*
X122496897Y-108958981D01*
X122496897Y-106631664D01*
X122496320Y-106623149D01*
X122456019Y-106327354D01*
X122452106Y-106312485D01*
X122345501Y-106044927D01*
X122339102Y-106032856D01*
X122177952Y-105795178D01*
X122169107Y-105784765D01*
X122149297Y-105766000D01*
X123583983Y-105766000D01*
X123382237Y-105920807D01*
X123376034Y-105926246D01*
X123152374Y-106149906D01*
X123146935Y-106156109D01*
X122954380Y-106407049D01*
X122949797Y-106413909D01*
X122791645Y-106687836D01*
X122787997Y-106695235D01*
X122666953Y-106987462D01*
X122664301Y-106995273D01*
X122582435Y-107300799D01*
X122580825Y-107308890D01*
X122539540Y-107622488D01*
X122539000Y-107630720D01*
X122539000Y-107947024D01*
X122539540Y-107955256D01*
X122580825Y-108268854D01*
X122582435Y-108276945D01*
X122664301Y-108582471D01*
X122666953Y-108590282D01*
X122787997Y-108882509D01*
X122791645Y-108889908D01*
X122949797Y-109163835D01*
X122954380Y-109170695D01*
X123146935Y-109421635D01*
X123152374Y-109427838D01*
X123272468Y-109547931D01*
X123277627Y-110412581D01*
X123276767Y-110417733D01*
X123275914Y-110429251D01*
X123278651Y-110583996D01*
X123279001Y-110642699D01*
X123279300Y-110648464D01*
X123279899Y-110654586D01*
X123281406Y-110739775D01*
X123282666Y-110751260D01*
X123295565Y-110814583D01*
X123301860Y-110878877D01*
X123304033Y-110890223D01*
X123327649Y-110972086D01*
X123344658Y-111055586D01*
X123347990Y-111066649D01*
X123372210Y-111126555D01*
X123390118Y-111188630D01*
X123394323Y-111199391D01*
X123432462Y-111275580D01*
X123464404Y-111354581D01*
X123469696Y-111364851D01*
X123504423Y-111419332D01*
X123533347Y-111477113D01*
X123539443Y-111486928D01*
X123590834Y-111554900D01*
X123636852Y-111627097D01*
X123644498Y-111636835D01*
X123683840Y-111677911D01*
X123726748Y-111734663D01*
X123734530Y-111743203D01*
X123829117Y-111829599D01*
X123841215Y-111842229D01*
X123846022Y-111846749D01*
X123871480Y-111868291D01*
X123963847Y-111952658D01*
X123973054Y-111959636D01*
X123997205Y-111974674D01*
X124624458Y-112505427D01*
X124641327Y-112524662D01*
X124649707Y-112532614D01*
X124750423Y-112612012D01*
X124784772Y-112641077D01*
X124789346Y-112644601D01*
X124810866Y-112659661D01*
X124893607Y-112724889D01*
X124903297Y-112731182D01*
X124942620Y-112751870D01*
X124979020Y-112777345D01*
X124989052Y-112783076D01*
X125084905Y-112826731D01*
X125178152Y-112875789D01*
X125188825Y-112880210D01*
X125231261Y-112893387D01*
X125271696Y-112911802D01*
X125282604Y-112915608D01*
X125384820Y-112941068D01*
X125485826Y-112972432D01*
X125497953Y-112974927D01*
X125537409Y-112979074D01*
X125583971Y-112990672D01*
X125595390Y-112992426D01*
X125759694Y-113002437D01*
X125780797Y-113004655D01*
X125787386Y-113005000D01*
X125801767Y-113005000D01*
X125905391Y-113011313D01*
X125916938Y-113010958D01*
X125965364Y-113005000D01*
X138694397Y-113005000D01*
X138734471Y-113010315D01*
X138746015Y-113010779D01*
X138858310Y-113005000D01*
X138889741Y-113005000D01*
X138895509Y-113004736D01*
X138936313Y-113000986D01*
X139056180Y-112994818D01*
X139067615Y-112993171D01*
X139096485Y-112986268D01*
X139126049Y-112983552D01*
X139137409Y-112981446D01*
X139252946Y-112948861D01*
X139369677Y-112920953D01*
X139380622Y-112917249D01*
X139407745Y-112905203D01*
X139436322Y-112897144D01*
X139447109Y-112893003D01*
X139554773Y-112839909D01*
X139664843Y-112791028D01*
X139675611Y-112784918D01*
X139697285Y-112769630D01*
X139725655Y-112755640D01*
X139735507Y-112749603D01*
X139902825Y-112624661D01*
X139908020Y-112620996D01*
X139913198Y-112616922D01*
X139913256Y-112616871D01*
X139984357Y-112563778D01*
X139992942Y-112556047D01*
X140036170Y-112509285D01*
X140866312Y-111782655D01*
X140868648Y-111780958D01*
X141102161Y-111576174D01*
X141110114Y-111567793D01*
X141155984Y-111509605D01*
X141207022Y-111455925D01*
X141214184Y-111446858D01*
X141255486Y-111383390D01*
X141302389Y-111323893D01*
X141308682Y-111314204D01*
X141343177Y-111248637D01*
X141383581Y-111186548D01*
X141388970Y-111176329D01*
X141418018Y-111106389D01*
X141453289Y-111039348D01*
X141457710Y-111028674D01*
X141479679Y-110957923D01*
X141508094Y-110889507D01*
X141511530Y-110878476D01*
X141527348Y-110804406D01*
X141549932Y-110731674D01*
X141552427Y-110719548D01*
X141559172Y-110655378D01*
X141576389Y-110574749D01*
X141577758Y-110563278D01*
X141580857Y-110449050D01*
X141582155Y-110436706D01*
X141582500Y-110430115D01*
X141582500Y-110388512D01*
X141586181Y-110252817D01*
X141585437Y-110241287D01*
X141582500Y-110222633D01*
X141582500Y-107911499D01*
X141728564Y-107742281D01*
X141733595Y-107735605D01*
X141901839Y-107478500D01*
X141905943Y-107471217D01*
X142038705Y-107194120D01*
X142041809Y-107186358D01*
X142136758Y-106894138D01*
X142138808Y-106886034D01*
X142194414Y-106583063D01*
X142195431Y-106573215D01*
X142205660Y-106154679D01*
X142205125Y-106144793D01*
X142164386Y-105839469D01*
X142162734Y-105831274D01*
X142082173Y-105534762D01*
X142079451Y-105526858D01*
X141960384Y-105243608D01*
X141956641Y-105236133D01*
X141801158Y-104971117D01*
X141796459Y-104964202D01*
X141607290Y-104722079D01*
X141601718Y-104715847D01*
X141382190Y-104500869D01*
X141375843Y-104495429D01*
X141129810Y-104311373D01*
X141122799Y-104306820D01*
X140854586Y-104156920D01*
X140847034Y-104153334D01*
X140561351Y-104040224D01*
X140553392Y-104037669D01*
X140255259Y-103963336D01*
X140247031Y-103961855D01*
X139941686Y-103927605D01*
X139933335Y-103927226D01*
X139626143Y-103933661D01*
X139617815Y-103934390D01*
X139314172Y-103981397D01*
X139306014Y-103983220D01*
X139011255Y-104069972D01*
X139003410Y-104072858D01*
X138722715Y-104197832D01*
X138715320Y-104201731D01*
X138453619Y-104362731D01*
X138446804Y-104367573D01*
X138208695Y-104561771D01*
X138202581Y-104567472D01*
X137992248Y-104791454D01*
X137986942Y-104797914D01*
X137808078Y-105047747D01*
X137803673Y-105054852D01*
X137659423Y-105326146D01*
X137655996Y-105333771D01*
X137548894Y-105621761D01*
X137546506Y-105629772D01*
X137478433Y-105929396D01*
X137477125Y-105937653D01*
X137449278Y-106243648D01*
X137449073Y-106252005D01*
X137461941Y-106558995D01*
X137462843Y-106567305D01*
X137516198Y-106869897D01*
X137518192Y-106878016D01*
X137611099Y-107170893D01*
X137614149Y-107178676D01*
X137744973Y-107456693D01*
X137749026Y-107464005D01*
X137915471Y-107722277D01*
X137920455Y-107728988D01*
X138076500Y-107912341D01*
X138076501Y-109499000D01*
X131806464Y-109499000D01*
X131877626Y-109427838D01*
X131883065Y-109421635D01*
X132075620Y-109170695D01*
X132080203Y-109163835D01*
X132238355Y-108889908D01*
X132242003Y-108882509D01*
X132363047Y-108590282D01*
X132365699Y-108582471D01*
X132447565Y-108276945D01*
X132449175Y-108268854D01*
X132490460Y-107955256D01*
X132491000Y-107947024D01*
X132491000Y-107630720D01*
X132490460Y-107622488D01*
X132449175Y-107308890D01*
X132447565Y-107300799D01*
X132365699Y-106995273D01*
X132363047Y-106987462D01*
X132242003Y-106695235D01*
X132238355Y-106687836D01*
X132080203Y-106413909D01*
X132075620Y-106407049D01*
X131883065Y-106156109D01*
X131877626Y-106149906D01*
X131653966Y-105926246D01*
X131647763Y-105920807D01*
X131446017Y-105766000D01*
X132515556Y-105766000D01*
X132478433Y-105929396D01*
X132477125Y-105937653D01*
X132449278Y-106243648D01*
X132449073Y-106252005D01*
X132461941Y-106558995D01*
X132462843Y-106567305D01*
X132516198Y-106869897D01*
X132518192Y-106878016D01*
X132611099Y-107170893D01*
X132614149Y-107178676D01*
X132744973Y-107456693D01*
X132749026Y-107464005D01*
X132915471Y-107722277D01*
X132920455Y-107728988D01*
X133119596Y-107962978D01*
X133125424Y-107968971D01*
X133353763Y-108174568D01*
X133360333Y-108179738D01*
X133613857Y-108353329D01*
X133621052Y-108357584D01*
X133895308Y-108496121D01*
X133903003Y-108499388D01*
X134193172Y-108600435D01*
X134201232Y-108602655D01*
X134502216Y-108664438D01*
X134510498Y-108665573D01*
X134817008Y-108687006D01*
X134825368Y-108687035D01*
X135132022Y-108667742D01*
X135140312Y-108666665D01*
X135441720Y-108606986D01*
X135449795Y-108604822D01*
X135740662Y-108505802D01*
X135748379Y-108502589D01*
X136023596Y-108365971D01*
X136030821Y-108361766D01*
X136285551Y-108189948D01*
X136292156Y-108184825D01*
X136521924Y-107980828D01*
X136527794Y-107974875D01*
X136728564Y-107742281D01*
X136733595Y-107735605D01*
X136901839Y-107478500D01*
X136905943Y-107471217D01*
X137038705Y-107194120D01*
X137041809Y-107186358D01*
X137136758Y-106894138D01*
X137138808Y-106886034D01*
X137194414Y-106583063D01*
X137195431Y-106573215D01*
X137205660Y-106154679D01*
X137205125Y-106144793D01*
X137164386Y-105839469D01*
X137162734Y-105831274D01*
X137082173Y-105534762D01*
X137079451Y-105526858D01*
X136960384Y-105243608D01*
X136956641Y-105236133D01*
X136801158Y-104971117D01*
X136796459Y-104964202D01*
X136607290Y-104722079D01*
X136601718Y-104715847D01*
X136382190Y-104500869D01*
X136375843Y-104495429D01*
X136129810Y-104311373D01*
X136122799Y-104306820D01*
X136031155Y-104255602D01*
X136722638Y-103670500D01*
X143704858Y-103670500D01*
X143804295Y-103677018D01*
X143815845Y-103676716D01*
X143947297Y-103661157D01*
X144079048Y-103649052D01*
X144090408Y-103646946D01*
X144107065Y-103642248D01*
X144124268Y-103640212D01*
X144135569Y-103637809D01*
X144261953Y-103598565D01*
X144389323Y-103562643D01*
X144400109Y-103558503D01*
X144415642Y-103550843D01*
X144432175Y-103545709D01*
X144442848Y-103541288D01*
X144559948Y-103479680D01*
X144678656Y-103421139D01*
X144688507Y-103415103D01*
X144702382Y-103404741D01*
X144718070Y-103396488D01*
X144728408Y-103389678D01*
X144797728Y-103333543D01*
X144937356Y-103229278D01*
X144945942Y-103221547D01*
X145029997Y-103130617D01*
X146027216Y-102133398D01*
X146102161Y-102067674D01*
X146110114Y-102059293D01*
X146192061Y-101955343D01*
X146259961Y-101873703D01*
X146256516Y-104406161D01*
X146129810Y-104311373D01*
X146122799Y-104306820D01*
X145854586Y-104156920D01*
X145847034Y-104153334D01*
X145561351Y-104040224D01*
X145553392Y-104037669D01*
X145255259Y-103963336D01*
X145247031Y-103961855D01*
X144941686Y-103927605D01*
X144933335Y-103927226D01*
X144626143Y-103933661D01*
X144617815Y-103934390D01*
X144314172Y-103981397D01*
X144306014Y-103983220D01*
X144011255Y-104069972D01*
X144003410Y-104072858D01*
X143722715Y-104197832D01*
X143715320Y-104201731D01*
X143453619Y-104362731D01*
X143446804Y-104367573D01*
X143208695Y-104561771D01*
X143202581Y-104567472D01*
X142992248Y-104791454D01*
X142986942Y-104797914D01*
X142808078Y-105047747D01*
X142803673Y-105054852D01*
X142659423Y-105326146D01*
X142655996Y-105333771D01*
X142548894Y-105621761D01*
X142546506Y-105629772D01*
X142478433Y-105929396D01*
X142477125Y-105937653D01*
X142449278Y-106243648D01*
X142449073Y-106252005D01*
X142461941Y-106558995D01*
X142462843Y-106567305D01*
X142516198Y-106869897D01*
X142518192Y-106878016D01*
X142611099Y-107170893D01*
X142614149Y-107178676D01*
X142744973Y-107456693D01*
X142749026Y-107464005D01*
X142915471Y-107722277D01*
X142920455Y-107728988D01*
X143119596Y-107962978D01*
X143125424Y-107968971D01*
X143353763Y-108174568D01*
X143360333Y-108179738D01*
X143613857Y-108353329D01*
X143621052Y-108357584D01*
X143895308Y-108496121D01*
X143903003Y-108499388D01*
X144193172Y-108600435D01*
X144201232Y-108602655D01*
X144502216Y-108664438D01*
X144510498Y-108665573D01*
X144817008Y-108687006D01*
X144825368Y-108687035D01*
X145132022Y-108667742D01*
X145140312Y-108666665D01*
X145441720Y-108606986D01*
X145449795Y-108604822D01*
X145740662Y-108505802D01*
X145748379Y-108502589D01*
X146023596Y-108365971D01*
X146030821Y-108361766D01*
X146251337Y-108213026D01*
X146243032Y-114317000D01*
X99366688Y-114317000D01*
X99638025Y-114144805D01*
X99644432Y-114140150D01*
X99892918Y-113934585D01*
X99898690Y-113929163D01*
X100119452Y-113694076D01*
X100124500Y-113687974D01*
X100314056Y-113427072D01*
X100318299Y-113420386D01*
X100473661Y-113137783D01*
X100477033Y-113130617D01*
X100595750Y-112830772D01*
X100598198Y-112823240D01*
X100678399Y-112510879D01*
X100679883Y-112503099D01*
X100720302Y-112183150D01*
X100720799Y-112175247D01*
X100720799Y-111852753D01*
X100720302Y-111844850D01*
X100679883Y-111524901D01*
X100678399Y-111517121D01*
X100598198Y-111204760D01*
X100595750Y-111197228D01*
X100477033Y-110897383D01*
X100473661Y-110890217D01*
X100318299Y-110607614D01*
X100314056Y-110600928D01*
X100124500Y-110340026D01*
X100119452Y-110333924D01*
X99898690Y-110098837D01*
X99892918Y-110093415D01*
X99644432Y-109887850D01*
X99638025Y-109883195D01*
X99365736Y-109710396D01*
X99358796Y-109706581D01*
X99066996Y-109569270D01*
X99059633Y-109566355D01*
X98752924Y-109466698D01*
X98745254Y-109464729D01*
X98428472Y-109404300D01*
X98420615Y-109403307D01*
X98098760Y-109383058D01*
X98090840Y-109383058D01*
X97768985Y-109403307D01*
X97761128Y-109404300D01*
X97444346Y-109464729D01*
X97436676Y-109466698D01*
X97129967Y-109566355D01*
X97122604Y-109569270D01*
X96830804Y-109706581D01*
X96823864Y-109710396D01*
X96551575Y-109883195D01*
X96545168Y-109887850D01*
X96296682Y-110093415D01*
X96290910Y-110098837D01*
X96070148Y-110333924D01*
X96065100Y-110340026D01*
X95875544Y-110600928D01*
X95871301Y-110607614D01*
X95715939Y-110890217D01*
X95712567Y-110897383D01*
X95676293Y-110989001D01*
X95672772Y-97996215D01*
X98368371Y-97996215D01*
X98368721Y-98005118D01*
X98400779Y-98295494D01*
X98402380Y-98304259D01*
X98475031Y-98587220D01*
X98477851Y-98595672D01*
X98589648Y-98865574D01*
X98593631Y-98873545D01*
X98742342Y-99125002D01*
X98747408Y-99132332D01*
X98930066Y-99360326D01*
X98936114Y-99366869D01*
X99149075Y-99566853D01*
X99155985Y-99572478D01*
X99394999Y-99740460D01*
X99402633Y-99745055D01*
X99662930Y-99877684D01*
X99671135Y-99881159D01*
X99947524Y-99975788D01*
X99956137Y-99978071D01*
X100243102Y-100032813D01*
X100251951Y-100033860D01*
X100543766Y-100047621D01*
X100552673Y-100047411D01*
X100843516Y-100019919D01*
X100852305Y-100018456D01*
X101136373Y-99950258D01*
X101144869Y-99947571D01*
X101416493Y-99840027D01*
X101424525Y-99836170D01*
X101678287Y-99691426D01*
X101685695Y-99686476D01*
X101916531Y-99507422D01*
X101923168Y-99501477D01*
X102126472Y-99291685D01*
X102132206Y-99284864D01*
X102303921Y-99048518D01*
X102308636Y-99040957D01*
X102445336Y-98782775D01*
X102448939Y-98774626D01*
X102547898Y-98499756D01*
X102550317Y-98491181D01*
X102609759Y-98204141D01*
X102611040Y-98193324D01*
X102624221Y-97773899D01*
X102623622Y-97763023D01*
X102582319Y-97472817D01*
X102580444Y-97464106D01*
X102498940Y-97183567D01*
X102495856Y-97175208D01*
X102375636Y-96908951D01*
X102371405Y-96901109D01*
X102214869Y-96654447D01*
X102209575Y-96647280D01*
X102019846Y-96425136D01*
X102013595Y-96418786D01*
X101794459Y-96225591D01*
X101787376Y-96220185D01*
X101543202Y-96059793D01*
X101535428Y-96055440D01*
X101271093Y-95931053D01*
X101262783Y-95927838D01*
X100983558Y-95841937D01*
X100974878Y-95839925D01*
X100686334Y-95794224D01*
X100677457Y-95793456D01*
X100385354Y-95788868D01*
X100376458Y-95789357D01*
X100086622Y-95825972D01*
X100077883Y-95827710D01*
X99796098Y-95904797D01*
X99787691Y-95907750D01*
X99519579Y-96023772D01*
X99511672Y-96027880D01*
X99262582Y-96180522D01*
X99255332Y-96185703D01*
X99030235Y-96371919D01*
X99023788Y-96378069D01*
X98827174Y-96594146D01*
X98821658Y-96601143D01*
X98657451Y-96842765D01*
X98652976Y-96850470D01*
X98524452Y-97112819D01*
X98521107Y-97121078D01*
X98430831Y-97398919D01*
X98428683Y-97407566D01*
X98378455Y-97695356D01*
X98377547Y-97704219D01*
X98368371Y-97996215D01*
X95672772Y-97996215D01*
X95670922Y-91168848D01*
X99124000Y-91168848D01*
X99124000Y-91485152D01*
X99124540Y-91493384D01*
X99165825Y-91806982D01*
X99167435Y-91815073D01*
X99249301Y-92120599D01*
X99251953Y-92128410D01*
X99372997Y-92420637D01*
X99376645Y-92428036D01*
X99534797Y-92701963D01*
X99539380Y-92708823D01*
X99731935Y-92959763D01*
X99737374Y-92965966D01*
X99961034Y-93189626D01*
X99967237Y-93195065D01*
X100218177Y-93387620D01*
X100225037Y-93392203D01*
X100498964Y-93550355D01*
X100506363Y-93554003D01*
X100798590Y-93675047D01*
X100806401Y-93677699D01*
X101111927Y-93759565D01*
X101120018Y-93761175D01*
X101433616Y-93802460D01*
X101441848Y-93803000D01*
X101758152Y-93803000D01*
X101766384Y-93802460D01*
X102079982Y-93761175D01*
X102088073Y-93759565D01*
X102393599Y-93677699D01*
X102401410Y-93675047D01*
X102693637Y-93554003D01*
X102701036Y-93550355D01*
X102974963Y-93392203D01*
X102981823Y-93387620D01*
X103232763Y-93195065D01*
X103238966Y-93189626D01*
X103462626Y-92965966D01*
X103468065Y-92959763D01*
X103660620Y-92708823D01*
X103665203Y-92701963D01*
X103823355Y-92428036D01*
X103827003Y-92420637D01*
X103948047Y-92128410D01*
X103950699Y-92120599D01*
X104032565Y-91815073D01*
X104034175Y-91806982D01*
X104075460Y-91493384D01*
X104076000Y-91485152D01*
X104076000Y-91168848D01*
X104075460Y-91160616D01*
X104034175Y-90847018D01*
X104032565Y-90838927D01*
X103950699Y-90533401D01*
X103948047Y-90525590D01*
X103827003Y-90233363D01*
X103823355Y-90225964D01*
X103665203Y-89952037D01*
X103660620Y-89945177D01*
X103468065Y-89694237D01*
X103462626Y-89688034D01*
X103238966Y-89464374D01*
X103232763Y-89458935D01*
X103131251Y-89381041D01*
X104326501Y-89381041D01*
X104326501Y-89688959D01*
X104327881Y-89702094D01*
X104391901Y-90003284D01*
X104395982Y-90015844D01*
X104521224Y-90297142D01*
X104527827Y-90308580D01*
X104708817Y-90557691D01*
X104717654Y-90567506D01*
X104946483Y-90773544D01*
X104957167Y-90781307D01*
X105223833Y-90935266D01*
X105235898Y-90940638D01*
X105528746Y-91035790D01*
X105541664Y-91038536D01*
X105847897Y-91070722D01*
X105861103Y-91070722D01*
X106167336Y-91038536D01*
X106180254Y-91035790D01*
X106473102Y-90940638D01*
X106485167Y-90935266D01*
X106751833Y-90781307D01*
X106762517Y-90773544D01*
X106991346Y-90567506D01*
X107000183Y-90557691D01*
X107181173Y-90308580D01*
X107187776Y-90297142D01*
X107313018Y-90015844D01*
X107317099Y-90003284D01*
X107381119Y-89702094D01*
X107382499Y-89688959D01*
X107382499Y-89381041D01*
X107381119Y-89367906D01*
X107317099Y-89066716D01*
X107313018Y-89054156D01*
X107232500Y-88873309D01*
X107232500Y-87520821D01*
X107412694Y-87728110D01*
X107419335Y-87734693D01*
X107629883Y-87914518D01*
X107637423Y-87920047D01*
X107872239Y-88066776D01*
X107880514Y-88071129D01*
X108134438Y-88181539D01*
X108143266Y-88184622D01*
X108410720Y-88256286D01*
X108419906Y-88258030D01*
X108695016Y-88289374D01*
X108704359Y-88289741D01*
X108981080Y-88280078D01*
X108990375Y-88279060D01*
X109262627Y-88228601D01*
X109271669Y-88226220D01*
X109533473Y-88136074D01*
X109542064Y-88132383D01*
X109787668Y-88004531D01*
X109795620Y-87999610D01*
X110019628Y-87836858D01*
X110026764Y-87830816D01*
X110224255Y-87636743D01*
X110230420Y-87629713D01*
X110397057Y-87408579D01*
X110402115Y-87400715D01*
X110534235Y-87157380D01*
X110538075Y-87148855D01*
X110632777Y-86888664D01*
X110635315Y-86879665D01*
X110690683Y-86607525D01*
X110691929Y-86596592D01*
X110695820Y-86447978D01*
X114466453Y-86447978D01*
X114466901Y-86457318D01*
X114500645Y-86732143D01*
X114502469Y-86741314D01*
X114576465Y-87008133D01*
X114579625Y-87016934D01*
X114692246Y-87269884D01*
X114696672Y-87278121D01*
X114845444Y-87511647D01*
X114851038Y-87519139D01*
X115032694Y-87728110D01*
X115039335Y-87734693D01*
X115249883Y-87914518D01*
X115257423Y-87920047D01*
X115492239Y-88066776D01*
X115500514Y-88071129D01*
X115754438Y-88181539D01*
X115763266Y-88184622D01*
X116030720Y-88256286D01*
X116039906Y-88258030D01*
X116315016Y-88289374D01*
X116324359Y-88289741D01*
X116601080Y-88280078D01*
X116610375Y-88279060D01*
X116882627Y-88228601D01*
X116891669Y-88226220D01*
X117153473Y-88136074D01*
X117162064Y-88132383D01*
X117407668Y-88004531D01*
X117415620Y-87999610D01*
X117639628Y-87836858D01*
X117646764Y-87830816D01*
X117844255Y-87636743D01*
X117850420Y-87629713D01*
X118017057Y-87408579D01*
X118022115Y-87400715D01*
X118154235Y-87157380D01*
X118158075Y-87148855D01*
X118252777Y-86888664D01*
X118255315Y-86879665D01*
X118261040Y-86851522D01*
X119261512Y-86851522D01*
X119262006Y-86860088D01*
X119299823Y-87159437D01*
X119301475Y-87167856D01*
X119379568Y-87459304D01*
X119382347Y-87467421D01*
X119499272Y-87745575D01*
X119503127Y-87753240D01*
X119656719Y-88012950D01*
X119661579Y-88020021D01*
X119848997Y-88256484D01*
X119854771Y-88262829D01*
X120072547Y-88471670D01*
X120079130Y-88477174D01*
X120323234Y-88654525D01*
X120330502Y-88659084D01*
X120596416Y-88801666D01*
X120604236Y-88805197D01*
X120887041Y-88910372D01*
X120895267Y-88912809D01*
X121189730Y-88978628D01*
X121198211Y-88979926D01*
X121498881Y-89005174D01*
X121507460Y-89005309D01*
X121808776Y-88989518D01*
X121817294Y-88988487D01*
X122113678Y-88931948D01*
X122121977Y-88929771D01*
X122407947Y-88833533D01*
X122415874Y-88830249D01*
X122686136Y-88696089D01*
X122693543Y-88691760D01*
X122943098Y-88522164D01*
X122949849Y-88516870D01*
X123174078Y-88314974D01*
X123180048Y-88308812D01*
X123374801Y-88078353D01*
X123379881Y-88071438D01*
X123541555Y-87816680D01*
X123545649Y-87809140D01*
X123671253Y-87534797D01*
X123674285Y-87526771D01*
X123761495Y-87237920D01*
X123763411Y-87229557D01*
X123810663Y-86931216D01*
X123811436Y-86922009D01*
X123815074Y-86574625D01*
X123814494Y-86565402D01*
X123773500Y-86266138D01*
X123771760Y-86257737D01*
X123690619Y-85967123D01*
X123687755Y-85959036D01*
X123567924Y-85682122D01*
X123563989Y-85674498D01*
X123407685Y-85416409D01*
X123402751Y-85409390D01*
X123212868Y-85174903D01*
X123207027Y-85168617D01*
X122987076Y-84962070D01*
X122980436Y-84956636D01*
X122734489Y-84781850D01*
X122727173Y-84777367D01*
X122459781Y-84637577D01*
X122451924Y-84634128D01*
X122168033Y-84531921D01*
X122159781Y-84529570D01*
X121864646Y-84466837D01*
X121856151Y-84465629D01*
X121555233Y-84443531D01*
X121546654Y-84443486D01*
X121245520Y-84462432D01*
X121237013Y-84463552D01*
X120941238Y-84523191D01*
X120932962Y-84525455D01*
X120648016Y-84624683D01*
X120640124Y-84628050D01*
X120371282Y-84765031D01*
X120363920Y-84769437D01*
X120116155Y-84941639D01*
X120109459Y-84947003D01*
X119887358Y-85151235D01*
X119881452Y-85157459D01*
X119689122Y-85389945D01*
X119684115Y-85396913D01*
X119525118Y-85653350D01*
X119521103Y-85660932D01*
X119398378Y-85936575D01*
X119395430Y-85944633D01*
X119311250Y-86234382D01*
X119309422Y-86242765D01*
X119265345Y-86541256D01*
X119264672Y-86549810D01*
X119261512Y-86851522D01*
X118261040Y-86851522D01*
X118310683Y-86607525D01*
X118311929Y-86596592D01*
X118321684Y-86224030D01*
X118321012Y-86213048D01*
X118279964Y-85938383D01*
X118277900Y-85929263D01*
X118196945Y-85664472D01*
X118193557Y-85655757D01*
X118074353Y-85405842D01*
X118069713Y-85397724D01*
X117914878Y-85168172D01*
X117909090Y-85160829D01*
X117722026Y-84956685D01*
X117715216Y-84950278D01*
X117500032Y-84776026D01*
X117492349Y-84770697D01*
X117253773Y-84630165D01*
X117245387Y-84626029D01*
X116988660Y-84522304D01*
X116979754Y-84519454D01*
X116710516Y-84454815D01*
X116701287Y-84453312D01*
X116425451Y-84429180D01*
X116416102Y-84429058D01*
X116139730Y-84445960D01*
X116130464Y-84447221D01*
X115859625Y-84504790D01*
X115850648Y-84507407D01*
X115591294Y-84604376D01*
X115582802Y-84608290D01*
X115340630Y-84742529D01*
X115332810Y-84747655D01*
X115113139Y-84916215D01*
X115106163Y-84922441D01*
X114913819Y-85121619D01*
X114907840Y-85128808D01*
X114747050Y-85354228D01*
X114742200Y-85362222D01*
X114616495Y-85608932D01*
X114612879Y-85617555D01*
X114525021Y-85880135D01*
X114522719Y-85889198D01*
X114474637Y-86161880D01*
X114473701Y-86171184D01*
X114466453Y-86447978D01*
X110695820Y-86447978D01*
X110701684Y-86224030D01*
X110701012Y-86213048D01*
X110659964Y-85938383D01*
X110657900Y-85929263D01*
X110576945Y-85664472D01*
X110573557Y-85655757D01*
X110454353Y-85405842D01*
X110449713Y-85397724D01*
X110294878Y-85168172D01*
X110289090Y-85160829D01*
X110102026Y-84956685D01*
X110095216Y-84950278D01*
X109880032Y-84776026D01*
X109872349Y-84770697D01*
X109633773Y-84630165D01*
X109625387Y-84626029D01*
X109368660Y-84522304D01*
X109359754Y-84519454D01*
X109090516Y-84454815D01*
X109081287Y-84453312D01*
X108805451Y-84429180D01*
X108796102Y-84429058D01*
X108519730Y-84445960D01*
X108510464Y-84447221D01*
X108239625Y-84504790D01*
X108230648Y-84507407D01*
X107971294Y-84604376D01*
X107962802Y-84608290D01*
X107720630Y-84742529D01*
X107712810Y-84747655D01*
X107493139Y-84916215D01*
X107486163Y-84922441D01*
X107293819Y-85121619D01*
X107287840Y-85128808D01*
X107232500Y-85206392D01*
X107232500Y-82209591D01*
X107398141Y-82337152D01*
X107405759Y-82342185D01*
X107654179Y-82481592D01*
X107662444Y-82485472D01*
X107928387Y-82587558D01*
X107937125Y-82590205D01*
X108215020Y-82652831D01*
X108224049Y-82654188D01*
X108508073Y-82676043D01*
X108517203Y-82676083D01*
X108801407Y-82656708D01*
X108810447Y-82655429D01*
X109088878Y-82595230D01*
X109097639Y-82592659D01*
X109364462Y-82492899D01*
X109372761Y-82489091D01*
X109622389Y-82351856D01*
X109630050Y-82346890D01*
X109857253Y-82175058D01*
X109864118Y-82169038D01*
X110036113Y-81994624D01*
X113991038Y-81994624D01*
X114003960Y-82279194D01*
X114005033Y-82288261D01*
X114058899Y-82567986D01*
X114061270Y-82576803D01*
X114154953Y-82845822D01*
X114158572Y-82854204D01*
X114290106Y-83106881D01*
X114294897Y-83114654D01*
X114461530Y-83345696D01*
X114467393Y-83352696D01*
X114665634Y-83557264D01*
X114672446Y-83563343D01*
X114898141Y-83737152D01*
X114905759Y-83742185D01*
X115154179Y-83881592D01*
X115162444Y-83885472D01*
X115428387Y-83987558D01*
X115437125Y-83990205D01*
X115715020Y-84052831D01*
X115724049Y-84054188D01*
X116008073Y-84076043D01*
X116017203Y-84076083D01*
X116301407Y-84056708D01*
X116310447Y-84055429D01*
X116588878Y-83995230D01*
X116597639Y-83992659D01*
X116864462Y-83892899D01*
X116872761Y-83889091D01*
X117122389Y-83751856D01*
X117130050Y-83746890D01*
X117357253Y-83575058D01*
X117364118Y-83569038D01*
X117564136Y-83366208D01*
X117570059Y-83359260D01*
X117738703Y-83129681D01*
X117743561Y-83121950D01*
X117877297Y-82870431D01*
X117880988Y-82862080D01*
X117977014Y-82593889D01*
X117979462Y-82585093D01*
X118035936Y-82305012D01*
X118037158Y-82294244D01*
X118047687Y-81905124D01*
X118047049Y-81894306D01*
X118005804Y-81611582D01*
X118003836Y-81602666D01*
X117922453Y-81329675D01*
X117919219Y-81321138D01*
X117799282Y-81062753D01*
X117794848Y-81054771D01*
X117638867Y-80816407D01*
X117633327Y-80809149D01*
X117555069Y-80720693D01*
X119255655Y-80720693D01*
X119255655Y-82730213D01*
X119256689Y-82741593D01*
X119324898Y-83113798D01*
X119331118Y-83131822D01*
X119451945Y-83362041D01*
X119460605Y-83374586D01*
X119631749Y-83567767D01*
X119643158Y-83577875D01*
X119855559Y-83724486D01*
X119869057Y-83731570D01*
X120110373Y-83823088D01*
X120125173Y-83826736D01*
X120377592Y-83857385D01*
X120385193Y-83857845D01*
X122694713Y-83857845D01*
X122706093Y-83856811D01*
X123078298Y-83788602D01*
X123096322Y-83782382D01*
X123326541Y-83661555D01*
X123339086Y-83652895D01*
X123532267Y-83481751D01*
X123542375Y-83470342D01*
X123688986Y-83257941D01*
X123696070Y-83244443D01*
X123787588Y-83003127D01*
X123791236Y-82988327D01*
X123821885Y-82735908D01*
X123822345Y-82728307D01*
X123822345Y-80718787D01*
X123821311Y-80707407D01*
X123753102Y-80335202D01*
X123746882Y-80317178D01*
X123626055Y-80086959D01*
X123617395Y-80074414D01*
X123446251Y-79881233D01*
X123434842Y-79871125D01*
X123222441Y-79724514D01*
X123208943Y-79717430D01*
X122967627Y-79625912D01*
X122952827Y-79622264D01*
X122700408Y-79591615D01*
X122692807Y-79591155D01*
X120383287Y-79591155D01*
X120371907Y-79592189D01*
X119999702Y-79660398D01*
X119981678Y-79666618D01*
X119751459Y-79787445D01*
X119738914Y-79796105D01*
X119545733Y-79967249D01*
X119535625Y-79978658D01*
X119389014Y-80191059D01*
X119381930Y-80204557D01*
X119290412Y-80445873D01*
X119286764Y-80460673D01*
X119256115Y-80713092D01*
X119255655Y-80720693D01*
X117555069Y-80720693D01*
X117444572Y-80595799D01*
X117438043Y-80589416D01*
X117220465Y-80405549D01*
X117213083Y-80400176D01*
X116971242Y-80249643D01*
X116963161Y-80245392D01*
X116702123Y-80131347D01*
X116693513Y-80128306D01*
X116418745Y-80053139D01*
X116409788Y-80051374D01*
X116127048Y-80016657D01*
X116117928Y-80016203D01*
X115833138Y-80022666D01*
X115824049Y-80023533D01*
X115543175Y-80071040D01*
X115534306Y-80073210D01*
X115263232Y-80160764D01*
X115254770Y-80164192D01*
X114999172Y-80289961D01*
X114991293Y-80294574D01*
X114756529Y-80455923D01*
X114749399Y-80461625D01*
X114540387Y-80655174D01*
X114534154Y-80661846D01*
X114355270Y-80883538D01*
X114350065Y-80891041D01*
X114205059Y-81136235D01*
X114200992Y-81144410D01*
X114092898Y-81407968D01*
X114090054Y-81416644D01*
X114021139Y-81693046D01*
X114019577Y-81702042D01*
X113991285Y-81985497D01*
X113991038Y-81994624D01*
X110036113Y-81994624D01*
X110064136Y-81966208D01*
X110070059Y-81959260D01*
X110238703Y-81729681D01*
X110243561Y-81721950D01*
X110377297Y-81470431D01*
X110380988Y-81462080D01*
X110477014Y-81193889D01*
X110479462Y-81185093D01*
X110535936Y-80905012D01*
X110537158Y-80894244D01*
X110547687Y-80505124D01*
X110547049Y-80494306D01*
X110505804Y-80211582D01*
X110503836Y-80202666D01*
X110422453Y-79929675D01*
X110419219Y-79921138D01*
X110299282Y-79662753D01*
X110294848Y-79654771D01*
X110138867Y-79416407D01*
X110133327Y-79409149D01*
X109944572Y-79195799D01*
X109938043Y-79189416D01*
X109720465Y-79005549D01*
X109713083Y-79000176D01*
X109471242Y-78849643D01*
X109463161Y-78845392D01*
X109202123Y-78731347D01*
X109193513Y-78728306D01*
X108918745Y-78653139D01*
X108909788Y-78651374D01*
X108627048Y-78616657D01*
X108617928Y-78616203D01*
X108333138Y-78622666D01*
X108324049Y-78623533D01*
X108043175Y-78671040D01*
X108034306Y-78673210D01*
X107763232Y-78760764D01*
X107754770Y-78764192D01*
X107499172Y-78889961D01*
X107491293Y-78894574D01*
X107256529Y-79055923D01*
X107249399Y-79061625D01*
X107040387Y-79255174D01*
X107034154Y-79261846D01*
X107029995Y-79267000D01*
X106915445Y-79267000D01*
X106886073Y-79262348D01*
X106872885Y-79261657D01*
X106770937Y-79267000D01*
X106738090Y-79267000D01*
X106731501Y-79267345D01*
X106698836Y-79270778D01*
X106596876Y-79276121D01*
X106583832Y-79278187D01*
X106555100Y-79285886D01*
X106525524Y-79288994D01*
X106512606Y-79291740D01*
X106415491Y-79323295D01*
X106316860Y-79349723D01*
X106304531Y-79354456D01*
X106278037Y-79367956D01*
X106249746Y-79377148D01*
X106237680Y-79382520D01*
X106149254Y-79433572D01*
X106058269Y-79479932D01*
X106047193Y-79487125D01*
X106024079Y-79505843D01*
X105998320Y-79520714D01*
X105987636Y-79528477D01*
X105911736Y-79596817D01*
X105886237Y-79617466D01*
X105881334Y-79621881D01*
X105858135Y-79645081D01*
X105782240Y-79713416D01*
X105773403Y-79723231D01*
X105755916Y-79747300D01*
X105021880Y-80481335D01*
X105017465Y-80486239D01*
X104985789Y-80525355D01*
X104932732Y-80563903D01*
X104922917Y-80572740D01*
X104737978Y-80778136D01*
X104730216Y-80788820D01*
X104592021Y-81028180D01*
X104586649Y-81040245D01*
X104501241Y-81303105D01*
X104498495Y-81316023D01*
X104476846Y-81522000D01*
X104476501Y-81528590D01*
X104476500Y-88453389D01*
X104476500Y-88873309D01*
X104395982Y-89054156D01*
X104391901Y-89066716D01*
X104327881Y-89367906D01*
X104326501Y-89381041D01*
X103131251Y-89381041D01*
X102981823Y-89266380D01*
X102974963Y-89261797D01*
X102701036Y-89103645D01*
X102693637Y-89099997D01*
X102401410Y-88978953D01*
X102393599Y-88976301D01*
X102088073Y-88894435D01*
X102079982Y-88892825D01*
X101766384Y-88851540D01*
X101758152Y-88851000D01*
X101441848Y-88851000D01*
X101433616Y-88851540D01*
X101120018Y-88892825D01*
X101111927Y-88894435D01*
X100806401Y-88976301D01*
X100798590Y-88978953D01*
X100506363Y-89099997D01*
X100498964Y-89103645D01*
X100225037Y-89261797D01*
X100218177Y-89266380D01*
X99967237Y-89458935D01*
X99961034Y-89464374D01*
X99737374Y-89688034D01*
X99731935Y-89694237D01*
X99539380Y-89945177D01*
X99534797Y-89952037D01*
X99376645Y-90225964D01*
X99372997Y-90233363D01*
X99251953Y-90525590D01*
X99249301Y-90533401D01*
X99167435Y-90838927D01*
X99165825Y-90847018D01*
X99124540Y-91160616D01*
X99124000Y-91168848D01*
X95670922Y-91168848D01*
X95669567Y-86168848D01*
X99124000Y-86168848D01*
X99124000Y-86485152D01*
X99124540Y-86493384D01*
X99165825Y-86806982D01*
X99167435Y-86815073D01*
X99249301Y-87120599D01*
X99251953Y-87128410D01*
X99372997Y-87420637D01*
X99376645Y-87428036D01*
X99534797Y-87701963D01*
X99539380Y-87708823D01*
X99731935Y-87959763D01*
X99737374Y-87965966D01*
X99961034Y-88189626D01*
X99967237Y-88195065D01*
X100218177Y-88387620D01*
X100225037Y-88392203D01*
X100498964Y-88550355D01*
X100506363Y-88554003D01*
X100798590Y-88675047D01*
X100806401Y-88677699D01*
X101111927Y-88759565D01*
X101120018Y-88761175D01*
X101433616Y-88802460D01*
X101441848Y-88803000D01*
X101758152Y-88803000D01*
X101766384Y-88802460D01*
X102079982Y-88761175D01*
X102088073Y-88759565D01*
X102393599Y-88677699D01*
X102401410Y-88675047D01*
X102693637Y-88554003D01*
X102701036Y-88550355D01*
X102974963Y-88392203D01*
X102981823Y-88387620D01*
X103232763Y-88195065D01*
X103238966Y-88189626D01*
X103462626Y-87965966D01*
X103468065Y-87959763D01*
X103660620Y-87708823D01*
X103665203Y-87701963D01*
X103823355Y-87428036D01*
X103827003Y-87420637D01*
X103948047Y-87128410D01*
X103950699Y-87120599D01*
X104032565Y-86815073D01*
X104034175Y-86806982D01*
X104075460Y-86493384D01*
X104076000Y-86485152D01*
X104076000Y-86168848D01*
X104075460Y-86160616D01*
X104034175Y-85847018D01*
X104032565Y-85838927D01*
X103950699Y-85533401D01*
X103948047Y-85525590D01*
X103827003Y-85233363D01*
X103823355Y-85225964D01*
X103665203Y-84952037D01*
X103660620Y-84945177D01*
X103468065Y-84694237D01*
X103462626Y-84688034D01*
X103238966Y-84464374D01*
X103232763Y-84458935D01*
X102981823Y-84266380D01*
X102974963Y-84261797D01*
X102701036Y-84103645D01*
X102693637Y-84099997D01*
X102401410Y-83978953D01*
X102393599Y-83976301D01*
X102088073Y-83894435D01*
X102079982Y-83892825D01*
X101766384Y-83851540D01*
X101758152Y-83851000D01*
X101441848Y-83851000D01*
X101433616Y-83851540D01*
X101120018Y-83892825D01*
X101111927Y-83894435D01*
X100806401Y-83976301D01*
X100798590Y-83978953D01*
X100506363Y-84099997D01*
X100498964Y-84103645D01*
X100225037Y-84261797D01*
X100218177Y-84266380D01*
X99967237Y-84458935D01*
X99961034Y-84464374D01*
X99737374Y-84688034D01*
X99731935Y-84694237D01*
X99539380Y-84945177D01*
X99534797Y-84952037D01*
X99376645Y-85225964D01*
X99372997Y-85233363D01*
X99251953Y-85525590D01*
X99249301Y-85533401D01*
X99167435Y-85838927D01*
X99165825Y-85847018D01*
X99124540Y-86160616D01*
X99124000Y-86168848D01*
X95669567Y-86168848D01*
X95668644Y-82759403D01*
X100348616Y-82759403D01*
X100355975Y-82873213D01*
X100499854Y-82984014D01*
X100507472Y-82989047D01*
X100750577Y-83125471D01*
X100758842Y-83129351D01*
X101019094Y-83229253D01*
X101027833Y-83231900D01*
X101299781Y-83293186D01*
X101308810Y-83294543D01*
X101586756Y-83315930D01*
X101595886Y-83315970D01*
X101874009Y-83297010D01*
X101883050Y-83295731D01*
X102155523Y-83236821D01*
X102164284Y-83234250D01*
X102425398Y-83136623D01*
X102433696Y-83132815D01*
X102677984Y-82998517D01*
X102685646Y-82993551D01*
X102843675Y-82874033D01*
X102851577Y-82759596D01*
X101652191Y-81560210D01*
X101547809Y-81560210D01*
X100348616Y-82759403D01*
X95668644Y-82759403D01*
X95668242Y-81277763D01*
X99611636Y-81277763D01*
X99624281Y-81556245D01*
X99625354Y-81565312D01*
X99678069Y-81839051D01*
X99680439Y-81847868D01*
X99772117Y-82111130D01*
X99775736Y-82119513D01*
X99904457Y-82366784D01*
X99909247Y-82374556D01*
X100050361Y-82570216D01*
X100166426Y-82579554D01*
X101366790Y-81379191D01*
X101366790Y-81274809D01*
X101833210Y-81274809D01*
X101833210Y-81379191D01*
X103033116Y-82579097D01*
X103148556Y-82570315D01*
X103281547Y-82389270D01*
X103286405Y-82381540D01*
X103417280Y-82135403D01*
X103420971Y-82127052D01*
X103514943Y-81864599D01*
X103517391Y-81855803D01*
X103572659Y-81581698D01*
X103573881Y-81570930D01*
X103584184Y-81190173D01*
X103583546Y-81179354D01*
X103543181Y-80902661D01*
X103541213Y-80893745D01*
X103461572Y-80626596D01*
X103458338Y-80618057D01*
X103340966Y-80365202D01*
X103336533Y-80357220D01*
X103156910Y-80082729D01*
X103037617Y-80070402D01*
X101833210Y-81274809D01*
X101366790Y-81274809D01*
X100167625Y-80075644D01*
X100055455Y-80081621D01*
X99968372Y-80189543D01*
X99963167Y-80197045D01*
X99821263Y-80436993D01*
X99817196Y-80445168D01*
X99711415Y-80703086D01*
X99708571Y-80711762D01*
X99641131Y-80982251D01*
X99639569Y-80991246D01*
X99611883Y-81268636D01*
X99611636Y-81277763D01*
X95668242Y-81277763D01*
X95667867Y-79891756D01*
X100345775Y-79891756D01*
X101547809Y-81093790D01*
X101652191Y-81093790D01*
X102852006Y-79893975D01*
X102847375Y-79783452D01*
X102774183Y-79721599D01*
X102766800Y-79716225D01*
X102530133Y-79568912D01*
X102522052Y-79564661D01*
X102266600Y-79453057D01*
X102257990Y-79450016D01*
X101989103Y-79376457D01*
X101980145Y-79374692D01*
X101703453Y-79340718D01*
X101694334Y-79340264D01*
X101415638Y-79346589D01*
X101406549Y-79347456D01*
X101131685Y-79393946D01*
X101122816Y-79396116D01*
X100857541Y-79481797D01*
X100849078Y-79485225D01*
X100598951Y-79608303D01*
X100591072Y-79612916D01*
X100356588Y-79774072D01*
X100345775Y-79891756D01*
X95667867Y-79891756D01*
X95666532Y-74973193D01*
X99116655Y-74973193D01*
X99116655Y-77682713D01*
X99117689Y-77694093D01*
X99185898Y-78066298D01*
X99192118Y-78084322D01*
X99312945Y-78314541D01*
X99321605Y-78327086D01*
X99492749Y-78520267D01*
X99504158Y-78530375D01*
X99716559Y-78676986D01*
X99730057Y-78684070D01*
X99971373Y-78775588D01*
X99986173Y-78779236D01*
X100238592Y-78809885D01*
X100246193Y-78810345D01*
X102955713Y-78810345D01*
X102967093Y-78809311D01*
X103339298Y-78741102D01*
X103357322Y-78734882D01*
X103587541Y-78614055D01*
X103600086Y-78605395D01*
X103793267Y-78434251D01*
X103803375Y-78422842D01*
X103949986Y-78210441D01*
X103957070Y-78196943D01*
X104048588Y-77955627D01*
X104052236Y-77940827D01*
X104082885Y-77688408D01*
X104083345Y-77680807D01*
X104083345Y-76451012D01*
X107471751Y-76451012D01*
X107472101Y-76459915D01*
X107504236Y-76750995D01*
X107505837Y-76759760D01*
X107578666Y-77043407D01*
X107581485Y-77051859D01*
X107693553Y-77322415D01*
X107697536Y-77330386D01*
X107846607Y-77582452D01*
X107851673Y-77589782D01*
X108034774Y-77818329D01*
X108040822Y-77824872D01*
X108254299Y-78025340D01*
X108261208Y-78030965D01*
X108500802Y-78199355D01*
X108508436Y-78203950D01*
X108769365Y-78336900D01*
X108777570Y-78340375D01*
X109054628Y-78435233D01*
X109063241Y-78437516D01*
X109350902Y-78492391D01*
X109359751Y-78493438D01*
X109652273Y-78507233D01*
X109661180Y-78507023D01*
X109952728Y-78479464D01*
X109961517Y-78478001D01*
X110246274Y-78409637D01*
X110254769Y-78406950D01*
X110527052Y-78299146D01*
X110535084Y-78295289D01*
X110789461Y-78150195D01*
X110796869Y-78145245D01*
X111028265Y-77965756D01*
X111034902Y-77959811D01*
X111238698Y-77749510D01*
X111244432Y-77742689D01*
X111311039Y-77651012D01*
X112571751Y-77651012D01*
X112572101Y-77659915D01*
X112604236Y-77950995D01*
X112605837Y-77959760D01*
X112678666Y-78243407D01*
X112681485Y-78251859D01*
X112793553Y-78522415D01*
X112797536Y-78530386D01*
X112946607Y-78782452D01*
X112951673Y-78789782D01*
X113134774Y-79018329D01*
X113140822Y-79024872D01*
X113354299Y-79225340D01*
X113361208Y-79230965D01*
X113600802Y-79399355D01*
X113608436Y-79403950D01*
X113869365Y-79536900D01*
X113877570Y-79540375D01*
X114154628Y-79635233D01*
X114163241Y-79637516D01*
X114450902Y-79692391D01*
X114459751Y-79693438D01*
X114752273Y-79707233D01*
X114761180Y-79707023D01*
X115052728Y-79679464D01*
X115061517Y-79678001D01*
X115346274Y-79609637D01*
X115354769Y-79606950D01*
X115627052Y-79499146D01*
X115635084Y-79495289D01*
X115889461Y-79350195D01*
X115896869Y-79345245D01*
X116128265Y-79165756D01*
X116134902Y-79159811D01*
X116338698Y-78949510D01*
X116344432Y-78942689D01*
X116516563Y-78705771D01*
X116521278Y-78698210D01*
X116658310Y-78439402D01*
X116661913Y-78431253D01*
X116761111Y-78155717D01*
X116763530Y-78147142D01*
X116823116Y-77859408D01*
X116824397Y-77848591D01*
X116837610Y-77428145D01*
X116837011Y-77417269D01*
X116795609Y-77126362D01*
X116793734Y-77117651D01*
X116712032Y-76836432D01*
X116708948Y-76828073D01*
X116588438Y-76561170D01*
X116584206Y-76553328D01*
X116427290Y-76306069D01*
X116421997Y-76298902D01*
X116231808Y-76076219D01*
X116225557Y-76069869D01*
X116005888Y-75876206D01*
X115998806Y-75870800D01*
X115754041Y-75710019D01*
X115746267Y-75705666D01*
X115481290Y-75580978D01*
X115472980Y-75577763D01*
X115193079Y-75491654D01*
X115184399Y-75489642D01*
X114895157Y-75443830D01*
X114886280Y-75443062D01*
X114593468Y-75438462D01*
X114584571Y-75438951D01*
X114294033Y-75475655D01*
X114285294Y-75477393D01*
X114002826Y-75554667D01*
X113994419Y-75557620D01*
X113725657Y-75673924D01*
X113717750Y-75678032D01*
X113468056Y-75831044D01*
X113460806Y-75836224D01*
X113235163Y-76022892D01*
X113228716Y-76029042D01*
X113031626Y-76245642D01*
X113026110Y-76252639D01*
X112861505Y-76494848D01*
X112857029Y-76502553D01*
X112728195Y-76765537D01*
X112724850Y-76773796D01*
X112634355Y-77052311D01*
X112632207Y-77060958D01*
X112581857Y-77349445D01*
X112580949Y-77358310D01*
X112571751Y-77651012D01*
X111311039Y-77651012D01*
X111416563Y-77505771D01*
X111421278Y-77498210D01*
X111558310Y-77239402D01*
X111561913Y-77231253D01*
X111661111Y-76955717D01*
X111663530Y-76947142D01*
X111723116Y-76659408D01*
X111724397Y-76648591D01*
X111737610Y-76228145D01*
X111737011Y-76217269D01*
X111695609Y-75926362D01*
X111693734Y-75917651D01*
X111612032Y-75636432D01*
X111608948Y-75628073D01*
X111488438Y-75361170D01*
X111484206Y-75353328D01*
X111327290Y-75106069D01*
X111321997Y-75098902D01*
X111131808Y-74876219D01*
X111125557Y-74869869D01*
X110905888Y-74676206D01*
X110898806Y-74670800D01*
X110654041Y-74510019D01*
X110646267Y-74505666D01*
X110381290Y-74380978D01*
X110372980Y-74377763D01*
X110093079Y-74291654D01*
X110084399Y-74289642D01*
X109795157Y-74243830D01*
X109786280Y-74243062D01*
X109493468Y-74238462D01*
X109484571Y-74238951D01*
X109194033Y-74275655D01*
X109185294Y-74277393D01*
X108902826Y-74354667D01*
X108894419Y-74357620D01*
X108625657Y-74473924D01*
X108617750Y-74478032D01*
X108368056Y-74631044D01*
X108360806Y-74636224D01*
X108135163Y-74822892D01*
X108128716Y-74829042D01*
X107931626Y-75045642D01*
X107926110Y-75052639D01*
X107761505Y-75294848D01*
X107757029Y-75302553D01*
X107628195Y-75565537D01*
X107624850Y-75573796D01*
X107534355Y-75852311D01*
X107532207Y-75860958D01*
X107481857Y-76149445D01*
X107480949Y-76158310D01*
X107471751Y-76451012D01*
X104083345Y-76451012D01*
X104083345Y-74971287D01*
X104082311Y-74959907D01*
X104014102Y-74587702D01*
X104007882Y-74569678D01*
X103887055Y-74339459D01*
X103878395Y-74326914D01*
X103707251Y-74133733D01*
X103695842Y-74123625D01*
X103483441Y-73977014D01*
X103469943Y-73969930D01*
X103228627Y-73878412D01*
X103213827Y-73874764D01*
X102961408Y-73844115D01*
X102953807Y-73843655D01*
X100244287Y-73843655D01*
X100232907Y-73844689D01*
X99860702Y-73912898D01*
X99842678Y-73919118D01*
X99612459Y-74039945D01*
X99599914Y-74048605D01*
X99406733Y-74219749D01*
X99396625Y-74231158D01*
X99250014Y-74443559D01*
X99242930Y-74457057D01*
X99151412Y-74698373D01*
X99147764Y-74713173D01*
X99117115Y-74965592D01*
X99116655Y-74973193D01*
X95666532Y-74973193D01*
X95665104Y-69706000D01*
X137461744Y-69706000D01*
X137444682Y-69720115D01*
G37*
%TD.AperFunction*%
%TD*%
M02*
